<?xml version="1.0" encoding="utf-8"?>
<!-- Generator: Adobe Illustrator 23.0.1, SVG Export Plug-In . SVG Version: 6.00 Build 0)  -->
<svg version="1.1" id="Layer_1" xmlns="http://www.w3.org/2000/svg" xmlns:xlink="http://www.w3.org/1999/xlink" x="0px" y="0px"
	 viewBox="0 0 447.9 165.2" style="enable-background:new 0 0 447.9 165.2;" xml:space="preserve">
<style type="text/css">
	.st0{fill-rule:evenodd;clip-rule:evenodd;fill:#00A651;}
	.st1{fill-rule:evenodd;clip-rule:evenodd;fill:#F37321;}
	.st2{fill:#00A651;}
</style>
<g>
	<path class="st0" d="M107.6,31.3c15.7,0,29.5,7.8,37.8,19.8c-7.6-9.1-19.1-14.8-31.9-14.8c-23,0-41.7,18.7-41.7,41.7
		s18.7,41.7,41.7,41.7c9.4,0,18.1-3.1,25.1-8.4c-8.2,7.5-19.1,12.1-31.1,12.1c-25.4,0-46-20.6-46-46C61.6,51.9,82.2,31.3,107.6,31.3
		z"/>
	<g>
		<polygon class="st1" points="113.1,106.4 81.3,58.4 100.6,58.4 111.4,83.8 135.6,32.3 165.1,32.3 		"/>
		<path class="st1" d="M151.5,59.8h12.7v8.6h-12.7V59.8L151.5,59.8z M151.5,72.4h12.7v33.2h-12.7V72.4L151.5,72.4z M209.3,92.2
			h-25.6c0.2,2,0.8,3.6,1.7,4.6c1.2,1.4,2.8,2.2,4.8,2.2c1.3,0,2.5-0.3,3.6-0.9c0.7-0.4,1.4-1.1,2.2-2.1l12.6,1.2
			c-1.9,3.3-4.2,5.7-7,7.2c-2.7,1.5-6.6,2.2-11.7,2.2c-4.4,0-7.9-0.6-10.4-1.9c-2.5-1.2-4.6-3.2-6.3-5.9c-1.7-2.7-2.5-5.9-2.5-9.5
			c0-5.2,1.7-9.4,5-12.6c3.3-3.2,7.9-4.8,13.8-4.8c4.8,0,8.5,0.7,11.3,2.2c2.8,1.4,4.9,3.5,6.3,6.3c1.4,2.7,2.2,6.3,2.2,10.7V92.2
			L209.3,92.2z M196.4,86.1c-0.2-2.5-0.9-4.2-2-5.3c-1.1-1.1-2.5-1.6-4.2-1.6c-2,0-3.7,0.8-4.9,2.4c-0.8,1-1.3,2.5-1.5,4.5H196.4
			L196.4,86.1z M230.5,59.8v12.6h7v9.4h-7v11.8c0,1.4,0.1,2.3,0.4,2.8c0.4,0.7,1.2,1.1,2.2,1.1c0.9,0,2.3-0.3,4-0.8l0.9,8.8
			c-3.1,0.7-6.1,1-8.8,1c-3.2,0-5.5-0.4-7-1.2c-1.5-0.8-2.6-2.1-3.3-3.7c-0.7-1.7-1.1-4.3-1.1-8.1V81.8h-4.7v-9.4h4.7v-6.1
			L230.5,59.8L230.5,59.8z M243.6,59.8h12.7v16.9c1.7-1.8,3.4-3.1,5.2-3.9c1.7-0.8,3.7-1.2,6.1-1.2c3.5,0,6.2,1.1,8.2,3.2
			c2,2.1,3,5.3,3,9.7v21.1h-12.8V87.4c0-2.1-0.4-3.6-1.2-4.4c-0.8-0.9-1.8-1.3-3.2-1.3c-1.5,0-2.8,0.6-3.7,1.8
			c-1,1.2-1.4,3.3-1.4,6.3v16h-12.7V59.8L243.6,59.8z M298,83.2l-12.2-1.3c0.5-2.1,1.1-3.8,2-5c0.9-1.2,2.1-2.3,3.7-3.2
			c1.2-0.7,2.8-1.2,4.8-1.5c2-0.4,4.2-0.5,6.6-0.5c3.8,0,6.9,0.2,9.2,0.6c2.3,0.4,4.2,1.3,5.8,2.7c1.1,0.9,1.9,2.3,2.6,4
			c0.6,1.7,0.9,3.4,0.9,4.9v14.7c0,1.6,0.1,2.8,0.3,3.7c0.2,0.9,0.6,2,1.3,3.4h-11.9c-0.5-0.9-0.8-1.5-0.9-1.9
			c-0.1-0.4-0.3-1.1-0.4-2.1c-1.7,1.6-3.3,2.7-5,3.4c-2.3,0.9-4.9,1.4-7.8,1.4c-4,0-7-0.9-9-2.8c-2.1-1.8-3.1-4.1-3.1-6.8
			c0-2.5,0.7-4.6,2.2-6.2c1.5-1.6,4.2-2.9,8.2-3.6c4.8-1,7.9-1.6,9.3-2c1.4-0.4,2.9-0.9,4.5-1.5c0-1.6-0.3-2.7-1-3.3
			c-0.6-0.6-1.8-0.9-3.4-0.9c-2.1,0-3.6,0.3-4.7,1C299.1,80.7,298.5,81.7,298,83.2L298,83.2z M309,89.8c-1.8,0.6-3.6,1.2-5.5,1.7
			c-2.6,0.7-4.2,1.4-4.9,2.1c-0.7,0.7-1.1,1.5-1.1,2.4c0,1,0.4,1.8,1,2.5c0.7,0.6,1.7,1,3.1,1c1.4,0,2.7-0.4,4-1
			c1.2-0.7,2.1-1.5,2.6-2.5c0.5-1,0.8-2.3,0.8-3.9V89.8L309,89.8z M326.8,96.4l12.6-1.2c0.5,1.5,1.2,2.6,2.2,3.2
			c0.9,0.6,2.2,1,3.8,1c1.7,0,3-0.4,4-1.1c0.7-0.5,1.1-1.2,1.1-2c0-0.9-0.5-1.6-1.4-2.1c-0.7-0.4-2.5-0.8-5.5-1.3
			c-4.4-0.8-7.5-1.5-9.2-2.1c-1.7-0.7-3.2-1.8-4.3-3.3c-1.2-1.6-1.8-3.4-1.8-5.4c0-2.2,0.6-4.1,1.9-5.7c1.3-1.6,3-2.8,5.3-3.6
			c2.2-0.8,5.2-1.2,9-1.2c4,0,6.9,0.3,8.8,0.9c1.9,0.6,3.5,1.5,4.7,2.8c1.3,1.3,2.3,3,3.1,5.2l-12,1.2c-0.3-1.1-0.8-1.8-1.6-2.3
			c-1-0.7-2.2-1-3.6-1c-1.4,0-2.5,0.3-3.1,0.8c-0.7,0.5-1,1.1-1,1.9c0,0.8,0.4,1.4,1.2,1.8c0.8,0.4,2.6,0.8,5.4,1.1
			c4.2,0.5,7.4,1.2,9.4,2c2.1,0.9,3.6,2.1,4.7,3.7c1.1,1.6,1.6,3.3,1.6,5.2c0,1.9-0.6,3.8-1.7,5.6c-1.2,1.8-3,3.3-5.5,4.3
			c-2.5,1.1-5.9,1.6-10.2,1.6c-6.1,0-10.4-0.9-13-2.6C329.2,102.1,327.5,99.6,326.8,96.4z"/>
	</g>
</g>
<g>
	<path class="st2" d="M174.9,123.1c0.9-0.2,2.1-0.3,3.6-0.3c1.8,0,3.2,0.4,4.1,1.2c0.8,0.7,1.3,1.7,1.3,3c0,1.3-0.4,2.3-1.1,3.1
		c-1,1.1-2.6,1.6-4.4,1.6c-0.6,0-1.1,0-1.5-0.1v5.8h-1.9V123.1z M176.8,130.1c0.4,0.1,0.9,0.2,1.5,0.2c2.3,0,3.6-1.1,3.6-3.1
		c0-1.9-1.4-2.8-3.4-2.8c-0.8,0-1.4,0.1-1.8,0.2V130.1z"/>
	<path class="st2" d="M188.3,124.1c0,0.6-0.5,1.2-1.2,1.2c-0.7,0-1.1-0.5-1.1-1.2c0-0.7,0.5-1.2,1.2-1.2
		C187.8,123,188.3,123.5,188.3,124.1z M186.2,137.4v-10.4h1.9v10.4H186.2z"/>
	<path class="st2" d="M200.8,132.2c0,3.8-2.7,5.5-5.2,5.5c-2.8,0-5-2.1-5-5.3c0-3.5,2.3-5.5,5.1-5.5
		C198.8,126.8,200.8,129,200.8,132.2z M192.6,132.3c0,2.3,1.3,4,3.2,4c1.8,0,3.2-1.7,3.2-4c0-1.8-0.9-4-3.1-4
		C193.5,128.2,192.6,130.3,192.6,132.3z"/>
	<path class="st2" d="M203.4,129.9c0-1.1,0-2-0.1-2.8h1.7l0.1,1.7h0c0.5-1,1.7-2,3.4-2c1.4,0,3.7,0.9,3.7,4.4v6.2h-1.9v-6
		c0-1.7-0.6-3.1-2.4-3.1c-1.2,0-2.2,0.9-2.5,1.9c-0.1,0.2-0.1,0.6-0.1,0.9v6.2h-1.9V129.9z"/>
	<path class="st2" d="M216.6,132.6c0,2.6,1.7,3.6,3.6,3.6c1.4,0,2.2-0.2,2.9-0.5l0.3,1.4c-0.7,0.3-1.8,0.6-3.5,0.6
		c-3.2,0-5.1-2.1-5.1-5.2c0-3.1,1.8-5.6,4.9-5.6c3.4,0,4.3,3,4.3,4.9c0,0.4,0,0.7-0.1,0.9H216.6z M222.1,131.2
		c0-1.2-0.5-3.1-2.6-3.1c-1.9,0-2.7,1.8-2.9,3.1H222.1z"/>
	<path class="st2" d="M227.5,132.6c0,2.6,1.7,3.6,3.6,3.6c1.4,0,2.2-0.2,2.9-0.5l0.3,1.4c-0.7,0.3-1.8,0.6-3.5,0.6
		c-3.2,0-5.1-2.1-5.1-5.2c0-3.1,1.8-5.6,4.9-5.6c3.4,0,4.3,3,4.3,4.9c0,0.4,0,0.7-0.1,0.9H227.5z M233,131.2c0-1.2-0.5-3.1-2.6-3.1
		c-1.9,0-2.7,1.8-2.9,3.1H233z"/>
	<path class="st2" d="M237.4,130.3c0-1.2,0-2.3-0.1-3.2h1.7l0.1,2h0.1c0.5-1.4,1.6-2.3,2.9-2.3c0.2,0,0.4,0,0.5,0.1v1.8
		c-0.2,0-0.4-0.1-0.6-0.1c-1.3,0-2.3,1-2.5,2.4c0,0.3-0.1,0.6-0.1,0.9v5.5h-1.9V130.3z"/>
	<path class="st2" d="M258.8,132.2c0,3.8-2.7,5.5-5.2,5.5c-2.8,0-5-2.1-5-5.3c0-3.5,2.3-5.5,5.1-5.5
		C256.8,126.8,258.8,129,258.8,132.2z M250.6,132.3c0,2.3,1.3,4,3.2,4c1.8,0,3.2-1.7,3.2-4c0-1.8-0.9-4-3.1-4
		C251.5,128.2,250.6,130.3,250.6,132.3z"/>
	<path class="st2" d="M261.6,137.4v-8.9h-1.5v-1.4h1.5v-0.5c0-1.5,0.3-2.8,1.2-3.6c0.7-0.7,1.7-1,2.5-1c0.7,0,1.2,0.2,1.6,0.3
		l-0.3,1.5c-0.3-0.1-0.7-0.2-1.2-0.2c-1.6,0-2,1.4-2,3v0.6h2.5v1.4h-2.5v8.9H261.6z"/>
	<path class="st2" d="M272.4,135.2c0.8,0.5,2.1,0.9,3.3,0.9c1.9,0,3-1,3-2.5c0-1.4-0.8-2.1-2.7-2.9c-2.4-0.8-3.8-2.1-3.8-4.1
		c0-2.3,1.9-3.9,4.7-3.9c1.5,0,2.6,0.3,3.2,0.7l-0.5,1.5c-0.5-0.3-1.4-0.7-2.7-0.7c-2,0-2.7,1.2-2.7,2.2c0,1.4,0.9,2,2.9,2.8
		c2.4,0.9,3.7,2.1,3.7,4.2c0,2.2-1.7,4.2-5.1,4.2c-1.4,0-2.9-0.4-3.7-0.9L272.4,135.2z"/>
	<path class="st2" d="M283.4,129.9c0-1.1,0-2-0.1-2.8h1.7l0.1,1.7h0.1c0.6-1,1.5-1.9,3.3-1.9c1.4,0,2.5,0.9,2.9,2.1h0
		c0.3-0.6,0.7-1,1.2-1.4c0.6-0.5,1.3-0.7,2.3-0.7c1.4,0,3.4,0.9,3.4,4.5v6.1h-1.8v-5.9c0-2-0.7-3.2-2.3-3.2c-1.1,0-1.9,0.8-2.2,1.7
		c-0.1,0.3-0.1,0.6-0.1,0.9v6.4h-1.8v-6.2c0-1.7-0.7-2.9-2.2-2.9c-1.2,0-2,0.9-2.3,1.9c-0.1,0.3-0.2,0.6-0.2,0.9v6.3h-1.8V129.9z"/>
	<path class="st2" d="M307.3,137.4l-0.1-1.3h-0.1c-0.6,0.8-1.7,1.5-3.2,1.5c-2.1,0-3.2-1.5-3.2-3c0-2.5,2.2-3.9,6.2-3.9v-0.2
		c0-0.9-0.2-2.4-2.4-2.4c-1,0-2,0.3-2.7,0.8l-0.4-1.2c0.9-0.6,2.1-0.9,3.4-0.9c3.2,0,3.9,2.2,3.9,4.2v3.9c0,0.9,0,1.8,0.2,2.5H307.3
		z M307,132.1c-2.1,0-4.4,0.3-4.4,2.3c0,1.2,0.8,1.8,1.8,1.8c1.4,0,2.2-0.9,2.5-1.7c0.1-0.2,0.1-0.4,0.1-0.6V132.1z"/>
	<path class="st2" d="M312.1,130.3c0-1.2,0-2.3-0.1-3.2h1.7l0.1,2h0.1c0.5-1.4,1.6-2.3,2.9-2.3c0.2,0,0.4,0,0.5,0.1v1.8
		c-0.2,0-0.4-0.1-0.6-0.1c-1.3,0-2.3,1-2.5,2.4c0,0.3-0.1,0.6-0.1,0.9v5.5h-1.9V130.3z"/>
	<path class="st2" d="M322.1,124.1v3h2.7v1.4h-2.7v5.6c0,1.3,0.4,2,1.4,2c0.5,0,0.9-0.1,1.1-0.1l0.1,1.4c-0.4,0.2-0.9,0.3-1.7,0.3
		c-0.9,0-1.6-0.3-2-0.8c-0.5-0.6-0.7-1.5-0.7-2.7v-5.7h-1.6v-1.4h1.6v-2.5L322.1,124.1z"/>
	<path class="st2" d="M332,123h1.9v12.9h6.2v1.6h-8V123z"/>
	<path class="st2" d="M344.3,124.1c0,0.6-0.5,1.2-1.2,1.2c-0.7,0-1.1-0.5-1.1-1.2c0-0.7,0.5-1.2,1.2-1.2
		C343.9,123,344.3,123.5,344.3,124.1z M342.2,137.4v-10.4h1.9v10.4H342.2z"/>
	<path class="st2" d="M347.7,137.4v-8.9h-1.5v-1.4h1.5v-0.5c0-1.5,0.3-2.8,1.2-3.6c0.7-0.7,1.7-1,2.5-1c0.7,0,1.2,0.2,1.6,0.3
		l-0.3,1.5c-0.3-0.1-0.7-0.2-1.2-0.2c-1.6,0-2,1.4-2,3v0.6h2.5v1.4h-2.5v8.9H347.7z"/>
	<path class="st2" d="M354.7,132.6c0,2.6,1.7,3.6,3.6,3.6c1.4,0,2.2-0.2,2.9-0.5l0.3,1.4c-0.7,0.3-1.8,0.6-3.5,0.6
		c-3.2,0-5.1-2.1-5.1-5.2c0-3.1,1.8-5.6,4.9-5.6c3.4,0,4.3,3,4.3,4.9c0,0.4,0,0.7-0.1,0.9H354.7z M360.3,131.2
		c0-1.2-0.5-3.1-2.6-3.1c-1.9,0-2.7,1.8-2.9,3.1H360.3z"/>
</g>
</svg>
