<svg xmlns="http://www.w3.org/2000/svg" xmlns:xlink="http://www.w3.org/1999/xlink" width="320" height="254.096" viewBox="0 0 320 254.096">
  <defs>
    <linearGradient id="linear-gradient" x1="0.026" y1="3.069" x2="-4.221" y2="26.078" gradientUnits="objectBoundingBox">
      <stop offset="0" stop-color="#c0f9e2"/>
      <stop offset="0.152" stop-color="#b9f9de"/>
      <stop offset="0.371" stop-color="#a6f9d6"/>
      <stop offset="0.63" stop-color="#86f9c8"/>
      <stop offset="0.918" stop-color="#5bf9b5"/>
      <stop offset="1" stop-color="#4ef9b0"/>
    </linearGradient>
    <linearGradient id="linear-gradient-2" x1="0.671" y1="0.136" x2="0.158" y2="1.386" xlink:href="#linear-gradient"/>
  </defs>
  <g id="Group_2183" data-name="Group 2183" transform="translate(-19.5 -90.5)">
    <g id="Group_2132" data-name="Group 2132">
      <path id="Path_2265" data-name="Path 2265" d="M236.279,105.862H266.1a7.681,7.681,0,1,0,0-15.362H236.279a7.681,7.681,0,0,0,0,15.362Z" fill="url(#linear-gradient)"/>
      <path id="Path_2266" data-name="Path 2266" d="M327.762,271.764H316.5c-9.406,0-17.042-6.934-17.042-16.248a15.356,15.356,0,0,1,5-11.327,16.946,16.946,0,0,1,10.526-4.8h7.849a16.663,16.663,0,1,0,0-33.327h-24.8a120.48,120.48,0,0,0-22.657-54.817h6.392a14.115,14.115,0,1,0,0-28.229H245.8a120.533,120.533,0,0,0-67.6-20.613,122.456,122.456,0,0,0-13.48.75h-64.4a11.841,11.841,0,0,0,0,23.682h4.942a121.748,121.748,0,0,0-27.733,29.355H48.056a17.692,17.692,0,0,0,0,35.384H61.361a121.667,121.667,0,0,0-3.113,48.6H45.067a25.566,25.566,0,1,0,0,51.132H77.852q.816,1.208,1.663,2.394a9.272,9.272,0,0,0,1.436,18.432h3.121a9.136,9.136,0,0,1,7.729,9.029,8.99,8.99,0,0,1-2.715,6.45,7.243,7.243,0,0,1-1.247.982H68v.026c-.166-.011-.331-.026-.5-.026a8,8,0,0,0,0,16c.169,0,.334-.015.5-.025v.025H178v0l.194,0a120.522,120.522,0,0,0,63.953-18.255h35.7a9.863,9.863,0,1,0,0-19.726H266.256a121.784,121.784,0,0,0,10.858-13.252h50.648a10.8,10.8,0,1,0,0-21.6Z" fill="url(#linear-gradient-2)"/>
    </g>
    <g id="Group_2136" data-name="Group 2136" opacity="0.8">
      <g id="Group_2134" data-name="Group 2134">
        <g id="Group_2133" data-name="Group 2133">
          <path id="Path_2267" data-name="Path 2267" d="M116.194,191.513a15.236,15.236,0,1,0,8.919-19.614A15.252,15.252,0,0,0,116.194,191.513Zm4.5-1.688a10.425,10.425,0,1,1,13.42,6.1A10.438,10.438,0,0,1,120.7,189.825Z" fill="#f99746"/>
          <path id="Path_2268" data-name="Path 2268" d="M96.217,195.334l.9,2.412.3.8.3.8.9,2.412s.653,1.741,3.748,1.234c2.644-.435,5.236-.7,5.236-.7a5.675,5.675,0,0,1,2.01.18,26.215,26.215,0,0,0,3.107,3.309,6.178,6.178,0,0,1,.08,2.076s-.441,2.567-1.054,5.176c-.717,3.053.975,3.822.975,3.822l2.345,1.067.781.355.782.355,2.344,1.066a2.074,2.074,0,0,0,1.5-.053,4.552,4.552,0,0,0,2.024-1.724c1.563-2.177,3.208-4.2,3.208-4.2a6.172,6.172,0,0,1,1.617-1.3,26.166,26.166,0,0,0,4.536.166,5.672,5.672,0,0,1,1.457,1.4s1.5,2.128,2.915,4.406c1.651,2.666,3.392,2.013,3.392,2.013l2.412-.9.8-.3.8-.3,2.412-.9s1.741-.653,1.233-3.748c-.434-2.644-.7-5.236-.7-5.236a5.675,5.675,0,0,1,.18-2.01,26.289,26.289,0,0,0,3.31-3.107,6.173,6.173,0,0,1,2.075-.08s2.568.441,5.177,1.054a4.549,4.549,0,0,0,2.658-.031,2.079,2.079,0,0,0,1.164-.944l1.066-2.345.356-.781.355-.782L164,197.645s.77-1.693-1.777-3.522c-2.177-1.563-4.2-3.208-4.2-3.208a6.15,6.15,0,0,1-1.3-1.617,26.366,26.366,0,0,0,.166-4.536,5.672,5.672,0,0,1,1.4-1.457s2.128-1.5,4.406-2.915C165.357,178.739,164.7,177,164.7,177l-.9-2.412-.3-.8-.3-.8-.9-2.412s-.652-1.741-3.747-1.233c-2.644.434-5.236.7-5.236.7a5.666,5.666,0,0,1-2.011-.179,26.133,26.133,0,0,0-3.106-3.309,6.164,6.164,0,0,1-.081-2.076s.442-2.568,1.055-5.177c.717-3.052-.976-3.822-.976-3.822l-2.344-1.066-.782-.356-.781-.355-2.345-1.066a2.078,2.078,0,0,0-1.5.054,4.554,4.554,0,0,0-2.024,1.723c-1.562,2.177-3.207,4.2-3.207,4.2a6.175,6.175,0,0,1-1.618,1.3,26.349,26.349,0,0,0-4.535-.166,5.687,5.687,0,0,1-1.458-1.4s-1.5-2.128-2.914-4.406c-1.651-2.666-3.393-2.013-3.393-2.013l-2.412.9-.8.3-.8.3-2.412.9s-1.741.652-1.234,3.747c.435,2.644.7,5.236.7,5.236a5.681,5.681,0,0,1-.18,2.011,26.2,26.2,0,0,0-3.309,3.106,6.164,6.164,0,0,1-2.076.081s-2.567-.442-5.176-1.055a4.548,4.548,0,0,0-2.658.031,2.074,2.074,0,0,0-1.164.945L98.7,170.779l-.355.782-.355.781-1.066,2.345s-.77,1.693,1.777,3.522c2.177,1.562,4.2,3.207,4.2,3.207a6.188,6.188,0,0,1,1.3,1.618,26.162,26.162,0,0,0-.166,4.536,5.692,5.692,0,0,1-1.4,1.457s-2.128,1.5-4.406,2.914C95.564,193.593,96.217,195.334,96.217,195.334Zm5.237.265c2.091-1.326,3.876-2.584,3.958-2.643a10.335,10.335,0,0,0,2.65-2.757l.859-1.316-.084-1.57a21.572,21.572,0,0,1,.139-3.705l.183-1.53-.738-1.352a10.9,10.9,0,0,0-2.453-3.012c-.11-.09-1.808-1.47-3.8-2.935l.2-.445.356-.782.355-.781.2-.446c2.416.542,4.567.913,4.667.931a10.915,10.915,0,0,0,3.927-.124l1.5-.332,1.032-1.144a21.465,21.465,0,0,1,2.7-2.54l1.238-.968.427-1.513a10.4,10.4,0,0,0,.325-3.909c0-.011-.223-2.174-.6-4.62l.458-.172.8-.3.8-.3.458-.171c1.326,2.091,2.584,3.875,2.643,3.958a10.335,10.335,0,0,0,2.757,2.65l1.317.858,1.569-.083a21.567,21.567,0,0,1,3.705.138l1.53.184,1.352-.739a10.884,10.884,0,0,0,3.013-2.454c.089-.109,1.469-1.806,2.934-3.8l.445.2.782.355.78.355.447.2c-.542,2.416-.913,4.567-.93,4.667a10.873,10.873,0,0,0,.124,3.928l.331,1.5,1.144,1.032a21.6,21.6,0,0,1,2.54,2.7l.968,1.238,1.513.428a10.442,10.442,0,0,0,3.909.325c.011,0,2.174-.224,4.62-.6l.172.458.3.8.3.8.171.458c-2.091,1.325-3.875,2.584-3.958,2.642a10.363,10.363,0,0,0-2.65,2.758L152,183.449l.084,1.57a21.557,21.557,0,0,1-.138,3.7l-.184,1.53.739,1.352a10.905,10.905,0,0,0,2.453,3.013c.11.089,1.807,1.469,3.8,2.934l-.2.446-.355.781-.356.782-.2.445c-2.417-.542-4.568-.913-4.668-.93a10.915,10.915,0,0,0-3.927.124l-1.5.332-1.032,1.144a21.593,21.593,0,0,1-2.7,2.539l-1.239.969-.427,1.513a10.436,10.436,0,0,0-.325,3.908c0,.011.224,2.174.6,4.621l-.458.172-.8.3-.8.3-.458.172c-1.325-2.091-2.584-3.875-2.642-3.958a10.344,10.344,0,0,0-2.758-2.65l-1.316-.859-1.57.084a21.674,21.674,0,0,1-3.7-.138l-1.529-.184-1.352.739a10.863,10.863,0,0,0-3.012,2.452c-.09.11-1.47,1.807-2.935,3.8l-.446-.2-.781-.356-.782-.355-.445-.2c.541-2.416.913-4.567.93-4.667a10.892,10.892,0,0,0-.124-3.927l-.332-1.505-1.144-1.032a21.455,21.455,0,0,1-2.539-2.7l-.969-1.238-1.513-.427a10.392,10.392,0,0,0-3.908-.325c-.011,0-2.174.223-4.621.6l-.172-.458-.3-.8-.3-.8Z" fill="#f99746"/>
        </g>
      </g>
      <path id="Path_2269" data-name="Path 2269" d="M103.586,241.686l-.06,1.77-.02.59-.02.59-.06,1.769s-.043,1.278,2.056,1.769c1.794.42,3.51.933,3.51.933a3.9,3.9,0,0,1,1.23.642,18.025,18.025,0,0,0,1.1,2.919,4.241,4.241,0,0,1-.494,1.34s-.956,1.515-2.031,3.011c-1.258,1.751-.385,2.685-.385,2.685L109.624,261l.4.431.4.432,1.209,1.293a1.424,1.424,0,0,0,.965.36,3.118,3.118,0,0,0,1.739-.563c1.565-.972,3.142-1.823,3.142-1.823a4.23,4.23,0,0,1,1.37-.4,18.091,18.091,0,0,0,2.838,1.3,3.9,3.9,0,0,1,.558,1.27s.4,1.747.693,3.565c.348,2.128,1.626,2.171,1.626,2.171l1.769.06.59.02.59.02,1.77.06s1.277.043,1.769-2.056c.419-1.794.932-3.51.932-3.51a3.887,3.887,0,0,1,.643-1.23,18.1,18.1,0,0,0,2.919-1.1,4.229,4.229,0,0,1,1.339.495s1.516.955,3.011,2.031a3.136,3.136,0,0,0,1.7.679,1.428,1.428,0,0,0,.988-.294l1.294-1.209.431-.4.431-.4,1.294-1.209s.934-.873-.2-2.705c-.972-1.564-1.823-3.141-1.823-3.141a4.256,4.256,0,0,1-.4-1.37,18.121,18.121,0,0,0,1.3-2.837,3.9,3.9,0,0,1,1.271-.559s1.747-.4,3.565-.693c2.127-.348,2.17-1.626,2.17-1.626l.06-1.769.02-.59.02-.59.06-1.77s.043-1.278-2.056-1.769c-1.794-.419-3.51-.932-3.51-.932a3.887,3.887,0,0,1-1.23-.643,18.1,18.1,0,0,0-1.1-2.919,4.254,4.254,0,0,1,.494-1.34s.956-1.515,2.031-3.011c1.258-1.75.385-2.684.385-2.684l-1.209-1.294-.4-.431-.4-.431-1.209-1.294a1.425,1.425,0,0,0-.966-.36,3.134,3.134,0,0,0-1.738.563c-1.565.972-3.142,1.823-3.142,1.823a4.246,4.246,0,0,1-1.37.4,18.029,18.029,0,0,0-2.837-1.3,3.9,3.9,0,0,1-.559-1.271s-.395-1.747-.693-3.565c-.348-2.127-1.625-2.171-1.625-2.171l-1.77-.059-.59-.02-.59-.02-1.77-.06s-1.277-.043-1.768,2.056c-.42,1.794-.933,3.51-.933,3.51a3.9,3.9,0,0,1-.643,1.23,18.1,18.1,0,0,0-2.919,1.1,4.242,4.242,0,0,1-1.339-.494s-1.515-.956-3.011-2.031a3.12,3.12,0,0,0-1.7-.679,1.43,1.43,0,0,0-.988.293l-1.294,1.209-.431.4-.431.4-1.294,1.209s-.934.873.2,2.705c.971,1.565,1.822,3.141,1.822,3.141a4.228,4.228,0,0,1,.4,1.371,18.12,18.12,0,0,0-1.3,2.837,3.879,3.879,0,0,1-1.27.558s-1.747.4-3.565.693C103.629,240.409,103.586,241.686,103.586,241.686Zm13.694,2.826a10.475,10.475,0,1,1,10.115,10.822A10.488,10.488,0,0,1,117.28,244.512Z" fill="#f99746"/>
      <g id="Group_2135" data-name="Group 2135">
        <path id="Path_2270" data-name="Path 2270" d="M234.185,275.608a8.187,8.187,0,0,1-4.242-2.147c-2.957-2.589-6.022-4.965-6.043-4.981a8.032,8.032,0,0,0-1.977-1.013,40.877,40.877,0,0,1-5.916,1.61,7.311,7.311,0,0,0-1.111,1.816c-.014.035-1.472,3.627-2.731,7.353-1.831,5.423-5.537,5-5.695,4.984L196.254,281.9c-.157-.021-3.847-.569-4.227-6.28-.259-3.921-.746-7.768-.754-7.83a7.336,7.336,0,0,0-.6-2.017,41,41,0,0,1-5.3-3.075,8.258,8.258,0,0,0-2.159.467h0c-.035.016-3.608,1.525-7.13,3.268a8.185,8.185,0,0,1-4.653.986,4.419,4.419,0,0,1-2.9-1.488l-6.281-8.167c-.1-.124-2.318-3.12,1.452-7.428,2.589-2.956,4.965-6.021,4.981-6.042a8.033,8.033,0,0,0,1.013-1.977,40.891,40.891,0,0,1-1.61-5.917,7.289,7.289,0,0,0-1.816-1.11c-.036-.015-3.627-1.472-7.354-2.731-5.424-1.832-5-5.539-4.983-5.7l1.332-10.216c.02-.156.575-3.846,6.279-4.226h0c3.922-.26,7.769-.747,7.83-.755a7.246,7.246,0,0,0,2.018-.6,40.975,40.975,0,0,1,3.075-5.3,8.074,8.074,0,0,0-.468-2.159h0c-.015-.036-1.524-3.609-3.268-7.131-2.54-5.129.378-7.456.5-7.552l8.165-6.281a4.435,4.435,0,0,1,3.187-.694,8.178,8.178,0,0,1,4.242,2.146c2.957,2.59,6.022,4.965,6.043,4.981a8.055,8.055,0,0,0,1.977,1.014,40.992,40.992,0,0,1,5.917-1.611,7.38,7.38,0,0,0,1.111-1.817c.014-.035,1.472-3.628,2.73-7.353,1.832-5.42,5.537-5,5.7-4.983l10.215,1.333c.157.02,3.848.568,4.227,6.278.259,3.922.746,7.77.754,7.83a7.363,7.363,0,0,0,.606,2.019,41.011,41.011,0,0,1,5.3,3.075,8.183,8.183,0,0,0,2.161-.468h0c.035-.016,3.6-1.524,7.129-3.269a8.18,8.18,0,0,1,4.653-.985,4.421,4.421,0,0,1,2.9,1.488l6.281,8.166c.1.126,2.321,3.123-1.451,7.429-2.589,2.956-4.965,6.022-4.982,6.043a8.118,8.118,0,0,0-1.013,1.976,41.026,41.026,0,0,1,1.611,5.917,7.331,7.331,0,0,0,1.816,1.111c.036.014,3.629,1.472,7.354,2.73,5.422,1.832,5,5.538,4.983,5.7L261.506,240.9c-.02.157-.574,3.844-6.278,4.226-3.922.26-7.77.747-7.83.755a7.15,7.15,0,0,0-2.019.606,41.078,41.078,0,0,1-3.075,5.3,8.088,8.088,0,0,0,.468,2.16h0c.015.036,1.523,3.6,3.269,7.13,2.538,5.131-.379,7.455-.5,7.552l-8.166,6.281a3.427,3.427,0,0,1-.853.449A4.834,4.834,0,0,1,234.185,275.608Zm1.572-2.793,8.134-6.254c.054-.049,1.309-1.214-.222-4.307-1.78-3.6-3.32-7.239-3.34-7.287a10.647,10.647,0,0,1-.688-3.548l-.006-.423.243-.348a38.269,38.269,0,0,0,3.3-5.692l.182-.393.378-.208a9.928,9.928,0,0,1,3.349-1.1c.039,0,3.963-.5,7.968-.768,3.443-.229,3.821-1.9,3.829-1.928l1.333-10.216c0-.016.073-1.737-3.206-2.846-3.8-1.284-7.467-2.771-7.479-2.776a9.881,9.881,0,0,1-2.979-1.934l-.313-.3-.075-.427a38.3,38.3,0,0,0-1.726-6.349l-.145-.4.114-.408a10.642,10.642,0,0,1,1.582-3.262c.024-.031,2.448-3.157,5.091-6.175,2.274-2.6,1.36-4.046,1.345-4.072l-6.256-8.134a1.934,1.934,0,0,0-1.169-.51,5.723,5.723,0,0,0-3.137.732c-3.6,1.781-7.239,3.321-7.286,3.341a10.64,10.64,0,0,1-3.548.688l-.424.005-.348-.242a38.217,38.217,0,0,0-5.692-3.3l-.392-.183-.209-.378a9.894,9.894,0,0,1-1.1-3.348c0-.039-.5-3.963-.767-7.968-.228-3.443-1.9-3.822-1.929-3.829l-10.216-1.333c-.017,0-1.737-.072-2.845,3.206-1.284,3.8-2.772,7.467-2.777,7.478a9.865,9.865,0,0,1-1.933,2.98l-.3.312-.426.075a38.181,38.181,0,0,0-6.349,1.727l-.4.145-.408-.114a10.614,10.614,0,0,1-3.262-1.582c-.031-.024-3.157-2.447-6.176-5.091a5.744,5.744,0,0,0-2.843-1.514,2.017,2.017,0,0,0-1.229.169h0l-8.134,6.254c-.054.048-1.308,1.214.223,4.307,1.78,3.6,3.32,7.24,3.339,7.288a10.6,10.6,0,0,1,.689,3.547l.005.424-.243.347a38.374,38.374,0,0,0-3.3,5.694l-.182.392-.378.209a9.852,9.852,0,0,1-3.349,1.1c-.039,0-3.962.5-7.966.767-3.445.228-3.822,1.9-3.831,1.929l-1.329,10.174c0,.073-.067,1.783,3.2,2.888,3.8,1.284,7.468,2.772,7.478,2.776a9.892,9.892,0,0,1,2.979,1.934l.313.3.075.425a38.3,38.3,0,0,0,1.726,6.349l.145.4-.114.408a10.663,10.663,0,0,1-1.581,3.262c-.024.031-2.448,3.157-5.092,6.175-2.273,2.6-1.36,4.046-1.345,4.072l6.256,8.134a1.921,1.921,0,0,0,1.169.51,5.722,5.722,0,0,0,3.137-.733c3.6-1.78,7.24-3.32,7.287-3.34a10.5,10.5,0,0,1,3.546-.687l.424,0,.348.242a38.3,38.3,0,0,0,5.694,3.3l.392.183.209.378a9.906,9.906,0,0,1,1.1,3.349c0,.039.5,3.962.767,7.966.229,3.444,1.9,3.823,1.929,3.83l10.174,1.329c.072,0,1.782.069,2.887-3.2,1.285-3.8,2.772-7.468,2.777-7.478a9.878,9.878,0,0,1,1.933-2.979l.3-.313.425-.075a38.181,38.181,0,0,0,6.349-1.727l.4-.144.408.113a10.581,10.581,0,0,1,3.261,1.583c.031.024,3.158,2.447,6.176,5.09a5.738,5.738,0,0,0,2.842,1.514,2.006,2.006,0,0,0,1.23-.169Z" fill="#f99746"/>
      </g>
    </g>
    <g id="Group_2140" data-name="Group 2140">
      <g id="Group_2138" data-name="Group 2138">
        <path id="Path_2271" data-name="Path 2271" d="M207.573,265.616V194.635a5.693,5.693,0,0,0-5.693-5.693H158.12a5.693,5.693,0,0,0-5.693,5.693V287.64a5.693,5.693,0,0,0,5.693,5.693h43.76a5.662,5.662,0,0,0,3.183-.972,5.735,5.735,0,0,0,.843-.7,5.676,5.676,0,0,0,1.667-4.026V265.616Z" fill="#fff"/>
        <path id="Path_2272" data-name="Path 2272" d="M201.659,186.923H158.341a8.173,8.173,0,0,0-8.173,8.173V287.18a8.174,8.174,0,0,0,8.173,8.173h43.318a8.174,8.174,0,0,0,8.173-8.173V195.1A8.173,8.173,0,0,0,201.659,186.923Zm5.914,100.717a5.693,5.693,0,0,1-5.693,5.693H158.12a5.693,5.693,0,0,1-5.693-5.693V194.635a5.693,5.693,0,0,1,5.693-5.693h5.526a1.023,1.023,0,0,1,1.023,1.023v.625a2.889,2.889,0,0,0,2.89,2.889h24.882a2.889,2.889,0,0,0,2.89-2.889v-.625a1.023,1.023,0,0,1,1.023-1.023h5.526a5.693,5.693,0,0,1,5.693,5.693Z" fill="#03774d"/>
        <g id="Group_2137" data-name="Group 2137">
          <path id="Path_2273" data-name="Path 2273" d="M181.814,192.127H172.54a.733.733,0,0,1-.733-.733h0a.733.733,0,0,1,.733-.733h9.274a.733.733,0,0,1,.733.733h0A.733.733,0,0,1,181.814,192.127Z" fill="#fff"/>
          <path id="Path_2274" data-name="Path 2274" d="M188.193,191.394A1.094,1.094,0,1,1,187.1,190.3,1.094,1.094,0,0,1,188.193,191.394Z" fill="#fff"/>
        </g>
      </g>
      <g id="Group_2139" data-name="Group 2139">
        <path id="Path_2275" data-name="Path 2275" d="M184.725,253.492a4.641,4.641,0,1,1-4.641-4.64A4.641,4.641,0,0,1,184.725,253.492Z" fill="#00a26d"/>
        <path id="Path_2276" data-name="Path 2276" d="M189.472,245.624l-.069.069a1.965,1.965,0,0,1-2.325.339,14.31,14.31,0,0,0-14.133.313,1.977,1.977,0,0,1-2.419-.287l-.067-.067a1.969,1.969,0,0,1,.363-3.076,18.336,18.336,0,0,1,18.207-.414A1.971,1.971,0,0,1,189.472,245.624Z" fill="#00a26d"/>
        <path id="Path_2277" data-name="Path 2277" d="M195.34,239.756l-.069.068a1.957,1.957,0,0,1-2.479.248,22.358,22.358,0,0,0-25.561.384,1.958,1.958,0,0,1-2.525-.217l-.07-.071a1.962,1.962,0,0,1,.219-2.975,26.4,26.4,0,0,1,30.207-.459A1.971,1.971,0,0,1,195.34,239.756Z" fill="#00a26d"/>
        <path id="Path_2278" data-name="Path 2278" d="M201.119,233.976l-.063.064a1.984,1.984,0,0,1-2.594.169,30.4,30.4,0,0,0-36.888.412,1.983,1.983,0,0,1-2.628-.142l-.064-.064a1.972,1.972,0,0,1,.176-2.945A34.415,34.415,0,0,1,200.9,231,1.975,1.975,0,0,1,201.119,233.976Z" fill="#00a26d"/>
      </g>
    </g>
    <g id="Group_2156" data-name="Group 2156">
      <path id="Path_2279" data-name="Path 2279" d="M275.327,287.861a9.949,9.949,0,0,0,1.161-.372c5.033-2.344,10.138,1.869,13.007,5.433,2.619,3.252,3.488,13.345-1.376,20.718a16.754,16.754,0,0,0-1.807-.554c4.657-6.771,4.035-16.222,1.775-19.029-2.33-2.89-6.582-6.909-10.836-4.927a12.535,12.535,0,0,1-1.924.7Z" fill="#00a26d"/>
      <path id="Path_2280" data-name="Path 2280" d="M262.11,281.659a6.829,6.829,0,0,1,6.411,1.829,2.184,2.184,0,0,0,2.285.516l17.593-6.3a1.634,1.634,0,0,0,.606-.385l1.234,3.447a1.245,1.245,0,0,1-.752,1.592l-22.876,8.188a1.245,1.245,0,0,1-1.592-.752l-2.913-8.135Z" fill="#e8e8e8"/>
      <path id="Path_2281" data-name="Path 2281" d="M266.109,290.035l23.44-8.391a1.246,1.246,0,0,0,.733-.7,1.241,1.241,0,0,1-.8,1.419l-22.876,8.188a1.242,1.242,0,0,1-1.515-.591A1.25,1.25,0,0,0,266.109,290.035Z" fill="#a19fa0"/>
      <g id="Group_2141" data-name="Group 2141">
        <path id="Path_2282" data-name="Path 2282" d="M275.752,316.635,280,316.7l.369-30.452-4.247-.068Z" fill="#e8e8e8"/>
        <path id="Path_2283" data-name="Path 2283" d="M279.1,316.689l.9.014.369-30.452-.9-.014Z" fill="#fafafa"/>
        <path id="Path_2284" data-name="Path 2284" d="M275.721,316.634l.9.014.369-30.452-.9-.014Z" fill="#a19fa0"/>
      </g>
      <g id="Group_2142" data-name="Group 2142">
        <path id="Path_2285" data-name="Path 2285" d="M272.994,288.1a5.412,5.412,0,1,0,3.271-6.919A5.412,5.412,0,0,0,272.994,288.1Z" fill="#e8e8e8"/>
        <path id="Path_2286" data-name="Path 2286" d="M279.744,290.9a5.407,5.407,0,0,0,3.344-6.678c.032.078.068.153.1.233a5.412,5.412,0,0,1-10.191,3.648c-.028-.08-.048-.16-.073-.241A5.407,5.407,0,0,0,279.744,290.9Z" fill="#a19fa0"/>
      </g>
      <g id="Group_2144" data-name="Group 2144">
        <g id="Group_2143" data-name="Group 2143">
          <circle id="Ellipse_340" data-name="Ellipse 340" cx="2.267" cy="2.267" r="2.267" transform="translate(275.885 283.948)" fill="#a19fa0"/>
          <path id="Path_2287" data-name="Path 2287" d="M280.252,286.355a2.256,2.256,0,0,0-3.706-1.739,2.262,2.262,0,1,1,3.045,3.338A2.26,2.26,0,0,0,280.252,286.355Z"/>
          <path id="Path_2288" data-name="Path 2288" d="M276.492,284.681a2.26,2.26,0,0,0,3.2,3.194,2.261,2.261,0,1,1-3.2-3.194Z" fill="#fafafa"/>
        </g>
      </g>
      <g id="Group_2150" data-name="Group 2150">
        <g id="Group_2145" data-name="Group 2145">
          <rect id="Rectangle_2039" data-name="Rectangle 2039" width="13.457" height="4.248" transform="translate(275.807 314.276)" fill="#e8e8e8"/>
          <rect id="Rectangle_2040" data-name="Rectangle 2040" width="13.457" height="0.897" transform="translate(275.807 314.276)" fill="#fafafa"/>
          <rect id="Rectangle_2041" data-name="Rectangle 2041" width="13.457" height="0.897" transform="translate(275.807 317.658)" fill="#a19fa0"/>
        </g>
        <g id="Group_2149" data-name="Group 2149">
          <g id="Group_2146" data-name="Group 2146">
            <path id="Path_2289" data-name="Path 2289" d="M274.252,317.946a4.077,4.077,0,1,0,2.463-5.212A4.076,4.076,0,0,0,274.252,317.946Z" fill="#e8e8e8"/>
            <path id="Path_2290" data-name="Path 2290" d="M279.336,320.052a4.073,4.073,0,0,0,2.519-5.03c.024.059.051.115.073.175a4.077,4.077,0,0,1-7.676,2.749c-.022-.061-.037-.121-.055-.182A4.071,4.071,0,0,0,279.336,320.052Z" fill="#a19fa0"/>
          </g>
          <g id="Group_2148" data-name="Group 2148">
            <g id="Group_2147" data-name="Group 2147">
              <circle id="Ellipse_341" data-name="Ellipse 341" cx="1.708" cy="1.708" r="1.708" transform="translate(276.429 314.816)" fill="#a19fa0"/>
              <path id="Path_2291" data-name="Path 2291" d="M279.718,316.629a1.707,1.707,0,0,0-1.708-1.707,1.69,1.69,0,0,0-1.083.4,1.7,1.7,0,1,1,2.294,2.514A1.7,1.7,0,0,0,279.718,316.629Z"/>
              <path id="Path_2292" data-name="Path 2292" d="M276.887,315.368a1.7,1.7,0,0,0,2.4,2.406,1.7,1.7,0,1,1-2.4-2.406Z" fill="#fafafa"/>
            </g>
          </g>
        </g>
      </g>
      <g id="Group_2154" data-name="Group 2154">
        <g id="Group_2151" data-name="Group 2151">
          <path id="Path_2293" data-name="Path 2293" d="M291.85,307.979v17.184a8.6,8.6,0,0,1,0-17.184Z" fill="#e8e8e8"/>
          <path id="Path_2294" data-name="Path 2294" d="M286.464,310.265a8.6,8.6,0,0,0,5.386,14.421v.477a8.6,8.6,0,0,1-5.386-14.9Z" fill="#a19fa0"/>
          <path id="Path_2295" data-name="Path 2295" d="M291.85,307.968v.6c-.044,0-.087-.006-.131-.006a8.574,8.574,0,0,0-5.778,2.237A8.593,8.593,0,0,1,291.85,307.968Z" fill="#fafafa"/>
          <path id="Path_2296" data-name="Path 2296" d="M295.192,326h-2.213a1.129,1.129,0,0,1-1.129-1.129v-16.6a1.129,1.129,0,0,1,1.129-1.129h2.213Z" fill="#e8e8e8"/>
          <path id="Path_2297" data-name="Path 2297" d="M292.354,307.332a1.119,1.119,0,0,0-.124.506v16.6a1.128,1.128,0,0,0,1.128,1.128h1.834V326h-2.213a1.129,1.129,0,0,1-1.129-1.129v-16.6A1.131,1.131,0,0,1,292.354,307.332Z" fill="#a19fa0"/>
          <path id="Path_2298" data-name="Path 2298" d="M294.731,307.549h-2.212a1.114,1.114,0,0,0-.489.116,1.127,1.127,0,0,1,.949-.522h2.213V326l-.461-.434Z" fill="#fafafa"/>
        </g>
        <g id="Group_2153" data-name="Group 2153">
          <g id="Group_2152" data-name="Group 2152">
            <circle id="Ellipse_342" data-name="Ellipse 342" cx="1.627" cy="1.627" r="1.627" transform="translate(286.759 314.845)" fill="#a19fa0"/>
            <path id="Path_2299" data-name="Path 2299" d="M289.892,316.572a1.618,1.618,0,0,0-2.66-1.247,1.624,1.624,0,1,1,2.186,2.395A1.627,1.627,0,0,0,289.892,316.572Z"/>
            <path id="Path_2300" data-name="Path 2300" d="M287.194,315.371a1.622,1.622,0,0,0,2.292,2.292,1.622,1.622,0,1,1-2.292-2.292Z" fill="#fafafa"/>
          </g>
        </g>
      </g>
      <path id="Path_2301" data-name="Path 2301" d="M288.219,277.2a1.141,1.141,0,0,0,.688-1.456l-2.963-8.273a1.416,1.416,0,0,0-1.807-.854l-31.126,11.146a.211.211,0,0,0-.135.15.207.207,0,0,0,.049.2l1.36,1.5a6.293,6.293,0,0,0,6.112,1.9l1.59-.376a7.409,7.409,0,0,1,6.913,1.973,1.655,1.655,0,0,0,1.725.389h0Z" fill="#e8e8e8"/>
      <g id="Group_2155" data-name="Group 2155">
        <path id="Path_2302" data-name="Path 2302" d="M252.877,277.909v.005a.207.207,0,0,0,.049.2l1.36,1.5a6.293,6.293,0,0,0,6.112,1.9l1.59-.376a7.409,7.409,0,0,1,6.913,1.973,1.655,1.655,0,0,0,1.725.389l17.594-6.3a1.134,1.134,0,0,0,.671-.657l.484.229a1.664,1.664,0,0,1-.975.932L270.806,284a2.186,2.186,0,0,1-2.285-.516,6.829,6.829,0,0,0-6.411-1.829l-1.59.376a6.828,6.828,0,0,1-6.632-2.063l-1.36-1.5a.744.744,0,0,1-.168-.7Z" fill="#a19fa0"/>
        <path id="Path_2303" data-name="Path 2303" d="M288.907,275.745l-2.963-8.273a1.416,1.416,0,0,0-1.807-.854l-31.126,11.146a.211.211,0,0,0-.134.145l-.517-.135a.74.74,0,0,1,.471-.513l31.126-11.146a1.948,1.948,0,0,1,2.491,1.177l2.963,8.273a1.663,1.663,0,0,1-.037,1.208l-.484-.229A1.137,1.137,0,0,0,288.907,275.745Z" fill="#f5f5f5"/>
      </g>
      <path id="Path_2304" data-name="Path 2304" d="M286.446,268.874l.415,1.158L256.286,281.09l-.685-.373a4.557,4.557,0,0,1-.722-.529Z" fill="#00a26d"/>
    </g>
    <g id="Group_2161" data-name="Group 2161">
      <path id="Path_2305" data-name="Path 2305" d="M182.281,129.9h-4.786a7.792,7.792,0,0,1-1.644,4.515s1.145,1.229,4.039,1.076c2.9.153,4.038-1.076,4.038-1.076A7.8,7.8,0,0,1,182.281,129.9Z" fill="#00a26d"/>
      <path id="Path_2306" data-name="Path 2306" d="M212.829,130.075c.609-.088,1.108-1.818,1.108-2.434V91.619a1.123,1.123,0,0,0-1.12-1.119H147.183a1.123,1.123,0,0,0-1.12,1.119v36.022c0,.616.5,2.354,1.1,2.451Z" fill="#03774d"/>
      <g id="Group_2159" data-name="Group 2159">
        <g id="Group_2157" data-name="Group 2157">
          <path id="Path_2307" data-name="Path 2307" d="M180.005,128.8h-.023a.567.567,0,0,1-.4-.182.533.533,0,0,1-.144-.387.548.548,0,0,1,.255-.435.012.012,0,1,1,.012.02.522.522,0,0,0-.243.416.51.51,0,0,0,.137.37.548.548,0,0,0,.383.175.537.537,0,0,0,.565-.5.522.522,0,0,0-.255-.465.011.011,0,0,1,0-.016.011.011,0,0,1,.016,0,.544.544,0,0,1,.266.486A.559.559,0,0,1,180.005,128.8Z" fill="#03774d"/>
          <path id="Path_2308" data-name="Path 2308" d="M180.005,128.85h-.025a.626.626,0,0,1-.436-.2.581.581,0,0,1-.157-.424.6.6,0,0,1,.278-.477.065.065,0,0,1,.049-.009.065.065,0,0,1,.04.028.07.07,0,0,1,.009.049.062.062,0,0,1-.029.04.47.47,0,0,0-.219.375.459.459,0,0,0,.123.331.494.494,0,0,0,.347.158.483.483,0,0,0,.51-.452.468.468,0,0,0-.229-.418.064.064,0,0,1,.066-.11.6.6,0,0,1,.292.533A.61.61,0,0,1,180.005,128.85Z" fill="#03774d"/>
        </g>
        <g id="Group_2158" data-name="Group 2158">
          <path id="Path_2309" data-name="Path 2309" d="M180,128.158a.012.012,0,0,1-.012-.012v-.683a.012.012,0,0,1,.012-.012.011.011,0,0,1,.011.012v.683A.012.012,0,0,1,180,128.158Z" fill="#03774d"/>
          <path id="Path_2310" data-name="Path 2310" d="M180,128.21a.065.065,0,0,1-.065-.064v-.683a.065.065,0,1,1,.129,0v.683A.064.064,0,0,1,180,128.21Z" fill="#03774d"/>
        </g>
      </g>
      <rect id="Rectangle_2042" data-name="Rectangle 2042" width="65.935" height="34.917" transform="translate(147.033 91.548)" fill="#fff"/>
      <rect id="Rectangle_2043" data-name="Rectangle 2043" width="31.991" height="2.204" rx="0.406" transform="translate(163.894 133.296)" fill="#03774d"/>
      <rect id="Rectangle_2044" data-name="Rectangle 2044" width="65.935" height="34.917" transform="translate(147.033 91.548)" fill="#fff"/>
      <g id="Group_2160" data-name="Group 2160">
        <rect id="Rectangle_2045" data-name="Rectangle 2045" width="6.937" height="0.865" transform="translate(150 127.936)" fill="#fff"/>
        <path id="Path_2311" data-name="Path 2311" d="M159.79,127.936a.432.432,0,1,0,.433.432A.433.433,0,0,0,159.79,127.936Z" fill="#fff" fill-rule="evenodd"/>
        <path id="Path_2312" data-name="Path 2312" d="M162.414,127.936a.432.432,0,1,0,.432.432A.433.433,0,0,0,162.414,127.936Z" fill="#fff" fill-rule="evenodd"/>
        <path id="Path_2313" data-name="Path 2313" d="M165.037,127.936a.432.432,0,1,0,.433.432A.433.433,0,0,0,165.037,127.936Z" fill="#fff" fill-rule="evenodd"/>
        <rect id="Rectangle_2046" data-name="Rectangle 2046" width="4.203" height="0.865" transform="translate(205.797 127.936)" fill="#fff"/>
      </g>
    </g>
    <g id="Group_2170" data-name="Group 2170">
      <path id="Path_2314" data-name="Path 2314" d="M307.976,139h-34.2a1.652,1.652,0,0,0-1.652,1.652v.884h37.5v-.884A1.652,1.652,0,0,0,307.976,139Z" fill="#e8e8e8"/>
      <path id="Path_2315" data-name="Path 2315" d="M272.974,140.973a1.218,1.218,0,0,1,1.216-1.217h34.2a1.2,1.2,0,0,1,.529.123,1.212,1.212,0,0,0-.938-.443h-34.2a1.217,1.217,0,0,0-1.216,1.216v.448h.41Z" fill="#fff"/>
      <path id="Path_2316" data-name="Path 2316" d="M307.848,197.335H273.909a1.78,1.78,0,0,1-1.781-1.78V141.536h37.5v54.019A1.78,1.78,0,0,1,307.848,197.335Z" fill="#e8e8e8"/>
      <g id="Group_2162" data-name="Group 2162">
        <path id="Path_2317" data-name="Path 2317" d="M278.454,199h-3.209a.625.625,0,0,1-.624-.624v-1.041h4.457v1.041A.625.625,0,0,1,278.454,199Z" fill="#03774d"/>
        <path id="Path_2318" data-name="Path 2318" d="M306.511,199H303.3a.625.625,0,0,1-.625-.624v-1.041h4.457v1.041A.624.624,0,0,1,306.511,199Z" fill="#03774d"/>
      </g>
      <path id="Path_2319" data-name="Path 2319" d="M298.819,194.056h-4.355a1.152,1.152,0,0,1-1.152-1.152v-.641h6.659v.641A1.152,1.152,0,0,1,298.819,194.056Z" fill="#fff"/>
      <path id="Path_2320" data-name="Path 2320" d="M293.683,193.224v-.64h6.288v-.321h-6.66v.641a1.152,1.152,0,0,0,.606,1.014A1.147,1.147,0,0,1,293.683,193.224Z" fill="#a19fa0"/>
      <path id="Path_2321" data-name="Path 2321" d="M282.876,152.314H276.6a1.662,1.662,0,0,1-1.662-1.662v-.924h9.606v.924A1.662,1.662,0,0,1,282.876,152.314Z" fill="#a7aab0"/>
      <path id="Path_2322" data-name="Path 2322" d="M275.445,151.017v-.924h9.094v-.365h-9.606v.924a1.663,1.663,0,0,0,.972,1.511A1.66,1.66,0,0,1,275.445,151.017Z" fill="#666"/>
      <rect id="Rectangle_2047" data-name="Rectangle 2047" width="6.186" height="1.191" transform="translate(273.613 142.65)" fill="#a19fa0"/>
      <rect id="Rectangle_2048" data-name="Rectangle 2048" width="2.485" height="1.191" transform="translate(280.913 142.65)" fill="#a19fa0"/>
      <circle id="Ellipse_343" data-name="Ellipse 343" cx="3.369" cy="3.369" r="3.369" transform="translate(291.9 144.16)" fill="#a2a4ab"/>
      <circle id="Ellipse_344" data-name="Ellipse 344" cx="3.183" cy="3.183" r="3.183" transform="translate(292.087 144.347)" fill="#d6d6d6"/>
      <circle id="Ellipse_345" data-name="Ellipse 345" cx="2.427" cy="2.427" r="2.427" transform="translate(292.931 145.25)" fill="#c4c4c4"/>
      <path id="Path_2323" data-name="Path 2323" d="M297.7,147.536a2.427,2.427,0,1,1-2.427-2.427A2.427,2.427,0,0,1,297.7,147.536Z" fill="#fff"/>
      <path id="Path_2324" data-name="Path 2324" d="M292.2,147.716a3.182,3.182,0,0,1,5.812-1.793,3.181,3.181,0,1,0-5.373,3.4A3.164,3.164,0,0,1,292.2,147.716Z" fill="#e6e6e6"/>
      <g id="Group_2165" data-name="Group 2165">
        <g id="Group_2163" data-name="Group 2163">
          <rect id="Rectangle_2049" data-name="Rectangle 2049" width="2.882" height="1.113" transform="translate(288.496 142.65)" fill="#a19fa0"/>
          <rect id="Rectangle_2050" data-name="Rectangle 2050" width="2.882" height="1.113" transform="translate(288.496 145.532)" fill="#a19fa0"/>
          <rect id="Rectangle_2051" data-name="Rectangle 2051" width="2.882" height="1.113" transform="translate(288.496 148.414)" fill="#a19fa0"/>
          <rect id="Rectangle_2052" data-name="Rectangle 2052" width="2.882" height="1.113" transform="translate(288.496 151.297)" fill="#a19fa0"/>
        </g>
        <g id="Group_2164" data-name="Group 2164">
          <rect id="Rectangle_2053" data-name="Rectangle 2053" width="2.882" height="1.113" transform="translate(299.036 142.65)" fill="#a19fa0"/>
          <rect id="Rectangle_2054" data-name="Rectangle 2054" width="2.882" height="1.113" transform="translate(299.036 145.532)" fill="#a19fa0"/>
          <rect id="Rectangle_2055" data-name="Rectangle 2055" width="2.882" height="1.113" transform="translate(299.036 148.414)" fill="#a19fa0"/>
          <rect id="Rectangle_2056" data-name="Rectangle 2056" width="2.882" height="1.113" transform="translate(299.036 151.297)" fill="#a19fa0"/>
        </g>
      </g>
      <rect id="Rectangle_2057" data-name="Rectangle 2057" width="5.891" height="9.76" rx="0.262" transform="translate(302.738 142.649)" fill="#03774d"/>
      <path id="Rectangle_2058" data-name="Rectangle 2058" d="M.06,0H5.428a.059.059,0,0,1,.059.059V9.294a.06.06,0,0,1-.06.06H.059A.059.059,0,0,1,0,9.295V.06A.06.06,0,0,1,.06,0Z" transform="translate(302.94 142.852)" fill="#00a26d"/>
      <path id="Path_2325" data-name="Path 2325" d="M292.927,144.868a.154.154,0,0,1-.118-.055l-1.015-1.219a.154.154,0,1,1,.236-.2l1.015,1.219a.154.154,0,0,1-.118.252Z" fill="#a19fa0"/>
      <path id="Path_2326" data-name="Path 2326" d="M291.912,151.731a.15.15,0,0,1-.1-.036.153.153,0,0,1-.02-.216l1.015-1.219a.153.153,0,0,1,.236.2l-1.015,1.219A.152.152,0,0,1,291.912,151.731Z" fill="#a19fa0"/>
      <path id="Path_2327" data-name="Path 2327" d="M297.621,144.868a.15.15,0,0,1-.1-.036.152.152,0,0,1-.02-.216l1.014-1.219a.154.154,0,1,1,.237.2l-1.015,1.219A.154.154,0,0,1,297.621,144.868Z" fill="#a19fa0"/>
      <path id="Path_2328" data-name="Path 2328" d="M298.636,151.731a.155.155,0,0,1-.119-.056l-1.014-1.219a.153.153,0,0,1,.236-.2l1.015,1.219a.154.154,0,0,1-.118.252Z" fill="#a19fa0"/>
      <path id="Path_2329" data-name="Path 2329" d="M309.628,141.754v-.436h-37.5v.436H287.3v11.715H272.128v.435h37v36.925h-37v.436h19.98V196.7h-18.7a1.768,1.768,0,0,1-1.113-.4,1.778,1.778,0,0,0,1.615,1.039h33.939a1.78,1.78,0,0,0,1.78-1.78v-4.29h0v-.436h0V153.9h0v-.435h0V141.754ZM292.416,196.7v-5.431h8.45V196.7Zm16.71-1.78a1.78,1.78,0,0,1-1.78,1.78h-6.171v-5.431h7.951Zm0-41.447H287.74V141.754h21.386Z" fill="#a19fa0"/>
      <g id="Group_2167" data-name="Group 2167">
        <circle id="Ellipse_346" data-name="Ellipse 346" cx="13.5" cy="13.5" r="13.5" transform="translate(274.66 182.441) rotate(-76.845)" fill="#a19fa0"/>
        <g id="Group_2166" data-name="Group 2166">
          <path id="Path_2330" data-name="Path 2330" d="M290.878,159.347a13.021,13.021,0,1,0,13.021,13.02A13.02,13.02,0,0,0,290.878,159.347Zm0,21.7a8.679,8.679,0,1,1,8.68-8.68A8.68,8.68,0,0,1,290.878,181.047Z" fill="#d6d6d6"/>
        </g>
        <path id="Path_2331" data-name="Path 2331" d="M290.878,159.347a13.018,13.018,0,0,0-9.864,21.515,13.019,13.019,0,0,1,20.247-16.35A13,13,0,0,0,290.878,159.347Zm8.68,13.02a8.679,8.679,0,0,1-15.153,5.781,8.679,8.679,0,1,0,13.465-10.923A8.645,8.645,0,0,1,299.558,172.367Z" fill="#fff"/>
        <circle id="Ellipse_347" data-name="Ellipse 347" cx="8.68" cy="8.68" r="8.68" transform="translate(282.198 163.688)" fill="#00a26d"/>
        <path id="Path_2332" data-name="Path 2332" d="M284.817,173.273a7.137,7.137,0,0,1,10.866-6.085,7.136,7.136,0,1,0-8.343,11.527A7.118,7.118,0,0,1,284.817,173.273Z" fill="#fff"/>
        <path id="Path_2333" data-name="Path 2333" d="M282.717,172.976a8.678,8.678,0,0,1,15.015-5.931A8.678,8.678,0,1,0,284.543,178.3,8.641,8.641,0,0,1,282.717,172.976Z" fill="#a19fa0"/>
        <path id="Path_2334" data-name="Path 2334" d="M296.4,165.667a.757.757,0,0,0-.246.556v.135a2.419,2.419,0,0,1-.432,1.351,10.208,10.208,0,0,0,0,9.317,2.631,2.631,0,0,1,.432,1.474.761.761,0,0,0,.252.563,8.68,8.68,0,0,0-.006-13.4Z" fill="#d6d6d6"/>
        <path id="Path_2335" data-name="Path 2335" d="M297.063,166.941a.325.325,0,0,0-.557.13,2.992,2.992,0,0,1-.413.892,9.788,9.788,0,0,0,0,8.809l.02.033a10.516,10.516,0,0,1-.615-3.721,8.94,8.94,0,0,1,1.047-4.582,3.146,3.146,0,0,0,.414-.927.321.321,0,0,1,.443-.219C297.293,167.215,297.181,167.076,297.063,166.941Z" fill="#fff"/>
        <path id="Path_2336" data-name="Path 2336" d="M296.469,165.73a8.67,8.67,0,0,1-.315,12.841.765.765,0,0,0,.248.492,8.678,8.678,0,0,0,.067-13.333Z" fill="#bababa"/>
        <path id="Path_2337" data-name="Path 2337" d="M291.069,175.141a1.482,1.482,0,1,1-1.482-1.482A1.482,1.482,0,0,1,291.069,175.141Z" fill="#fff"/>
        <circle id="Ellipse_348" data-name="Ellipse 348" cx="1.043" cy="1.043" r="1.043" transform="translate(290.357 171.186)" fill="#fff"/>
        <circle id="Ellipse_349" data-name="Ellipse 349" cx="0.715" cy="0.715" r="0.715" transform="translate(286.676 172.229)" fill="#fff"/>
      </g>
      <g id="Group_2168" data-name="Group 2168">
        <rect id="Rectangle_2059" data-name="Rectangle 2059" width="0.41" height="11.252" transform="translate(272.564 141.918)" fill="#fff"/>
        <rect id="Rectangle_2060" data-name="Rectangle 2060" width="0.41" height="36.328" transform="translate(272.564 154.209)" fill="#fff"/>
        <rect id="Rectangle_2061" data-name="Rectangle 2061" width="0.41" height="4.48" transform="translate(272.564 191.631)" fill="#fff"/>
      </g>
      <g id="Group_2169" data-name="Group 2169">
        <path id="Path_2338" data-name="Path 2338" d="M308.031,144.83a.037.037,0,0,0,.037-.037.038.038,0,0,0-.037-.038h-4.7a.038.038,0,0,0-.038.038.037.037,0,0,0,.038.037Z" fill="#fff"/>
        <circle id="Ellipse_350" data-name="Ellipse 350" cx="0.145" cy="0.145" r="0.145" transform="translate(305.6 144.057)" fill="#fff"/>
        <path id="Path_2339" data-name="Path 2339" d="M305.746,143.279a.919.919,0,0,1,.653.27.077.077,0,0,0,.11,0,.077.077,0,0,0,0-.109,1.079,1.079,0,0,0-1.526,0,.077.077,0,0,0,.109.109A.921.921,0,0,1,305.746,143.279Z" fill="#fff"/>
        <path id="Path_2340" data-name="Path 2340" d="M306.239,143.787a.078.078,0,0,0,.055-.133.776.776,0,0,0-1.1,0,.078.078,0,0,0,.11.11.619.619,0,0,1,.877,0A.078.078,0,0,0,306.239,143.787Z" fill="#fff"/>
        <path id="Path_2341" data-name="Path 2341" d="M306.079,143.979a.078.078,0,0,0,0-.11.472.472,0,0,0-.667,0,.078.078,0,0,0,0,.11.08.08,0,0,0,.11,0,.316.316,0,0,1,.448,0A.077.077,0,0,0,306.079,143.979Z" fill="#fff"/>
        <path id="Path_2342" data-name="Path 2342" d="M303.952,143.691V143.2a.073.073,0,1,0-.146,0v.494a.073.073,0,1,0,.146,0Z" fill="#fff"/>
        <path id="Path_2343" data-name="Path 2343" d="M303.879,144.348a.534.534,0,0,0,.28-.989.074.074,0,0,0-.1.024.073.073,0,0,0,.025.1.39.39,0,1,1-.407,0,.072.072,0,0,0,.023-.1.073.073,0,0,0-.1-.024.534.534,0,0,0,.28.989Z" fill="#fff"/>
        <path id="Path_2344" data-name="Path 2344" d="M307.918,144.4a.1.1,0,0,0,.1-.1v-.588c0-.042-.041-.059-.076-.076v-.158a.4.4,0,0,0-.792,0v.158c-.036.017-.076.034-.076.076v.588a.1.1,0,0,0,.1.1Zm-.289-.369v.145a.079.079,0,1,1-.158,0v-.145a.135.135,0,0,1-.059-.11.138.138,0,1,1,.276,0A.135.135,0,0,1,307.629,144.027Zm-.079-.808a.252.252,0,0,1,.252.252v.13h-.5v-.13A.252.252,0,0,1,307.55,143.219Z" fill="#fff"/>
        <path id="Path_2345" data-name="Path 2345" d="M304.077,146.808a.777.777,0,1,0-.777-.777A.778.778,0,0,0,304.077,146.808Zm0-1.37a.589.589,0,0,1,.044,1.177v-.143a.043.043,0,0,0-.044-.044.044.044,0,0,0-.044.044v.143a.586.586,0,0,1-.54-.54h.143a.044.044,0,0,0,.045-.044.045.045,0,0,0-.045-.044h-.143A.59.59,0,0,1,304.077,145.438Z" fill="#fff"/>
        <path id="Path_2346" data-name="Path 2346" d="M304.482,146.152a.092.092,0,1,0,0-.184h-.359v-.359a.092.092,0,1,0-.184,0v.451a.092.092,0,0,0,.092.092Z" fill="#fff"/>
        <path id="Path_2347" data-name="Path 2347" d="M305.563,146.18a1.559,1.559,0,0,0-.194.182.558.558,0,0,0-.1.16.257.257,0,0,0-.017.1h.795v-.142h-.59a.482.482,0,0,1,.062-.08c.026-.027.082-.077.171-.152a2.427,2.427,0,0,0,.228-.211.568.568,0,0,0,.1-.147.359.359,0,0,0,.03-.142.316.316,0,0,0-.1-.238.383.383,0,0,0-.274-.1.4.4,0,0,0-.274.089.369.369,0,0,0-.117.259l.152.015a.243.243,0,0,1,.064-.177.231.231,0,0,1,.171-.064.227.227,0,0,1,.164.06.2.2,0,0,1,.063.148.3.3,0,0,1-.069.178A1.645,1.645,0,0,1,305.563,146.18Z" fill="#fff"/>
        <path id="Path_2348" data-name="Path 2348" d="M307.284,146.483h-.59a.478.478,0,0,1,.062-.08c.026-.027.083-.077.171-.152a2.431,2.431,0,0,0,.228-.211.568.568,0,0,0,.1-.147.358.358,0,0,0,.03-.142.316.316,0,0,0-.1-.238.384.384,0,0,0-.275-.1.4.4,0,0,0-.273.089.369.369,0,0,0-.117.259l.152.015a.243.243,0,0,1,.064-.177.231.231,0,0,1,.171-.064.227.227,0,0,1,.164.06.2.2,0,0,1,.063.148.3.3,0,0,1-.069.178,1.646,1.646,0,0,1-.265.255,1.559,1.559,0,0,0-.194.182.557.557,0,0,0-.1.16.257.257,0,0,0-.017.1h.795Z" fill="#fff"/>
        <path id="Path_2349" data-name="Path 2349" d="M308.1,145.579v-.141h-.6l-.117.618.139.018a.26.26,0,0,1,.09-.084.252.252,0,0,1,.129-.032.248.248,0,0,1,.186.073.273.273,0,0,1,.071.2.306.306,0,0,1-.074.214.238.238,0,0,1-.181.08.217.217,0,0,1-.151-.057.275.275,0,0,1-.08-.17l-.155.013a.362.362,0,0,0,.118.244.393.393,0,0,0,.268.092.38.38,0,0,0,.316-.147.434.434,0,0,0,.1-.282.381.381,0,0,0-.109-.281.363.363,0,0,0-.266-.109.387.387,0,0,0-.227.076l.065-.324Z" fill="#fff"/>
        <path id="Path_2350" data-name="Path 2350" d="M306.379,145.818a.1.1,0,0,0-.2,0,.1.1,0,1,0,.2,0Z" fill="#fff"/>
        <path id="Path_2351" data-name="Path 2351" d="M306.282,146.412a.1.1,0,0,0,0-.2.1.1,0,1,0,0,.2Z" fill="#fff"/>
        <path id="Path_2352" data-name="Path 2352" d="M303.856,148.986a.28.28,0,0,0,.559,0,.262.262,0,0,0-.144-.223v-.933a.136.136,0,1,0-.272,0v.084h-.2a.058.058,0,0,0-.057.057.057.057,0,0,0,.057.057h.2v.173h-.2a.057.057,0,1,0,0,.114h.2v.173h-.2a.057.057,0,0,0-.057.057.058.058,0,0,0,.057.057h.2v.161A.263.263,0,0,0,303.856,148.986Z" fill="#fff"/>
        <path id="Path_2353" data-name="Path 2353" d="M305.915,149.073v-.284h.161v-.134h-.161v-.769H305.8l-.541.769v.134h.515v.284Zm-.517-.418.372-.535v.535Z" fill="#fff"/>
        <path id="Path_2354" data-name="Path 2354" d="M306.259,148.97a.362.362,0,0,0,.486.053.414.414,0,0,0,.128-.2,1.078,1.078,0,0,0,.043-.337,1.161,1.161,0,0,0-.027-.281.58.58,0,0,0-.073-.176.315.315,0,0,0-.119-.111.347.347,0,0,0-.168-.039.327.327,0,0,0-.215.07.418.418,0,0,0-.129.2,1.08,1.08,0,0,0-.043.339A.783.783,0,0,0,306.259,148.97Zm.108-.883a.187.187,0,0,1,.16-.085.2.2,0,0,1,.171.1,1.147,1.147,0,0,1,0,.778.2.2,0,0,1-.338,0,1.127,1.127,0,0,1,.007-.79Z" fill="#fff"/>
        <path id="Path_2355" data-name="Path 2355" d="M307.256,148.329a.135.135,0,0,0-.1.041.14.14,0,0,0,0,.2.139.139,0,0,0,.2,0,.132.132,0,0,0,.042-.1.135.135,0,0,0-.041-.1A.137.137,0,0,0,307.256,148.329Zm.061.2a.082.082,0,0,1-.06.025.079.079,0,0,1-.06-.025.08.08,0,0,1-.025-.06.085.085,0,0,1,.085-.085.085.085,0,0,1,.085.085A.084.084,0,0,1,307.317,148.529Z" fill="#fff"/>
        <path id="Path_2356" data-name="Path 2356" d="M307.669,148.454a.242.242,0,0,1,.143-.041.2.2,0,0,1,.123.037.23.23,0,0,1,.074.117l.1-.022a.286.286,0,0,0-.105-.159.3.3,0,0,0-.186-.057.367.367,0,0,0-.18.045.3.3,0,0,0-.125.131.438.438,0,0,0-.044.2.507.507,0,0,0,.039.2.309.309,0,0,0,.114.141.353.353,0,0,0,.194.048.3.3,0,0,0,.195-.063.321.321,0,0,0,.111-.184l-.1-.024a.237.237,0,0,1-.077.14.208.208,0,0,1-.139.048.238.238,0,0,1-.125-.035.2.2,0,0,1-.086-.105.461.461,0,0,1-.027-.165.421.421,0,0,1,.023-.141A.213.213,0,0,1,307.669,148.454Z" fill="#fff"/>
        <path id="Path_2357" data-name="Path 2357" d="M304.737,151.127a.654.654,0,0,1-.529.339.618.618,0,0,1-.664-.611.523.523,0,0,1,.523-.523.408.408,0,0,1,.408.408.316.316,0,0,1-.315.316.241.241,0,0,1-.24-.24.178.178,0,0,1,.178-.178.091.091,0,1,0,0-.181.359.359,0,0,0-.359.359.422.422,0,0,0,.421.421.5.5,0,0,0,.5-.5.589.589,0,0,0-.589-.589.705.705,0,0,0-.7.7.8.8,0,0,0,.845.792.833.833,0,0,0,.689-.436.09.09,0,0,0-.16-.084Z" fill="#fff"/>
        <path id="Path_2358" data-name="Path 2358" d="M305.465,150.522a.865.865,0,0,1-.21.137v.138a.934.934,0,0,0,.15-.074.714.714,0,0,0,.136-.1v.912h.143v-1.171h-.092A.539.539,0,0,1,305.465,150.522Z" fill="#fff"/>
        <path id="Path_2359" data-name="Path 2359" d="M306.472,150.513a.306.306,0,0,0-.117-.109.342.342,0,0,0-.164-.038.321.321,0,0,0-.211.069.415.415,0,0,0-.127.194,1.081,1.081,0,0,0-.042.333.768.768,0,0,0,.115.474.355.355,0,0,0,.477.052.414.414,0,0,0,.126-.2,1.07,1.07,0,0,0,.042-.331,1.187,1.187,0,0,0-.026-.276A.6.6,0,0,0,306.472,150.513Zm-.115.831a.193.193,0,0,1-.332,0,.729.729,0,0,1-.067-.382.745.745,0,0,1,.074-.394.184.184,0,0,1,.157-.083.2.2,0,0,1,.168.094,1.125,1.125,0,0,1,0,.765Z" fill="#fff"/>
        <path id="Path_2360" data-name="Path 2360" d="M307.3,150.513a.321.321,0,0,0-.117-.109.349.349,0,0,0-.165-.038.321.321,0,0,0-.211.069.415.415,0,0,0-.127.194,1.08,1.08,0,0,0-.042.333.768.768,0,0,0,.115.474.355.355,0,0,0,.477.052.414.414,0,0,0,.126-.2,1.07,1.07,0,0,0,.042-.331,1.187,1.187,0,0,0-.026-.276A.625.625,0,0,0,307.3,150.513Zm-.116.831a.193.193,0,0,1-.332,0,.729.729,0,0,1-.067-.382.745.745,0,0,1,.074-.394.184.184,0,0,1,.157-.083.2.2,0,0,1,.168.094,1.126,1.126,0,0,1,0,.765Z" fill="#fff"/>
        <path id="Path_2361" data-name="Path 2361" d="M308.193,150.686a.57.57,0,0,0-.072-.173A.321.321,0,0,0,308,150.4a.346.346,0,0,0-.165-.038.323.323,0,0,0-.211.069.406.406,0,0,0-.126.194,1.076,1.076,0,0,0-.043.333.767.767,0,0,0,.116.474.353.353,0,0,0,.476.052.414.414,0,0,0,.126-.2,1.071,1.071,0,0,0,.042-.331A1.134,1.134,0,0,0,308.193,150.686Zm-.188.658a.192.192,0,0,1-.331,0,.726.726,0,0,1-.068-.382.745.745,0,0,1,.074-.394.186.186,0,0,1,.158-.083.2.2,0,0,1,.167.094,1.126,1.126,0,0,1,0,.765Z" fill="#fff"/>
      </g>
    </g>
    <g id="Group_2172" data-name="Group 2172">
      <path id="Path_2362" data-name="Path 2362" d="M73.1,185.164c1.838-2.5,1.109-5.77,4.3-9.036,3.942-4.034,4.219-8.335,4.219-11.535H50.372c0,3.2.277,7.5,4.219,11.535,3.192,3.266,2.463,6.535,4.3,9.036Z" fill="#fff"/>
      <path id="Path_2363" data-name="Path 2363" d="M58.892,185.164v8.552a2.292,2.292,0,0,0,.619,1.567l.822.878a2.3,2.3,0,0,0,1.68.727h7.968a2.3,2.3,0,0,0,1.68-.727l.822-.878a2.292,2.292,0,0,0,.619-1.567v-8.552Z" fill="#a7aab0"/>
      <path id="Path_2364" data-name="Path 2364" d="M67.525,199H64.469a1.951,1.951,0,0,1-1.746-1.077l-.518-1.035h7.584l-.518,1.035A1.951,1.951,0,0,1,67.525,199Z" fill="#03774d"/>
      <path id="Path_2365" data-name="Path 2365" d="M50.372,164.593a15.625,15.625,0,0,1,31.25,0Z" fill="#00a26d"/>
      <path id="Path_2366" data-name="Path 2366" d="M67.892,151.072a14.266,14.266,0,0,1,4.391.692,14.314,14.314,0,0,0-20.541,11.521h1.987A14.327,14.327,0,0,1,67.892,151.072Z" fill="#fff"/>
      <g id="Group_2171" data-name="Group 2171">
        <path id="Path_2367" data-name="Path 2367" d="M60.9,181.516a13.762,13.762,0,0,0-1.281-5.747,23.322,23.322,0,0,1-2.512-9.582H54.187a20.663,20.663,0,0,0,3.712,9.582,11.811,11.811,0,0,1,1.977,5.747c.155.995.232,1.431.385,2.053h.821c-.092-.661-.128-1.211-.178-2.053Zm2.649,0a28.833,28.833,0,0,0-.451-5.747,45.726,45.726,0,0,1-.947-9.582H58.24a28.485,28.485,0,0,0,2.554,9.582,16.5,16.5,0,0,1,1.382,5.747c.124.995.184,1.431.3,2.053h1.1C63.548,182.907,63.549,182.358,63.553,181.516Zm-4.773,0a10.777,10.777,0,0,0-1.91-5.747,18.8,18.8,0,0,1-3.684-9.582H51.593a18.424,18.424,0,0,0,4.337,9.582,10.417,10.417,0,0,1,2.289,5.747,17.469,17.469,0,0,0,.419,2.053h.448a18.564,18.564,0,0,1-.306-2.053Zm15.206-5.747a21.224,21.224,0,0,0,3.611-9.582H74.551a23.757,23.757,0,0,1-2.362,9.582,14.609,14.609,0,0,0-1.2,5.747c-.053.994-.084,1.43-.163,2.053h.857c.161-.662.244-1.185.378-2.053h0A11.9,11.9,0,0,1,73.986,175.769Zm-3,0h0a30.81,30.81,0,0,0,2.4-9.582H69.419a49.3,49.3,0,0,1-.774,9.582,33.968,33.968,0,0,0-.36,5.747c.012,1.064.011,1.467,0,2.053H69.4c.115-.662.179-1.185.284-2.053h0A17.188,17.188,0,0,1,70.987,175.769Zm-6.437,0a49.294,49.294,0,0,1,.575,5.747c.074.962.108,1.388.166,2.053h1.266c.052-.676.082-1.092.15-2.053.144-2.655.243-4.041.484-5.747.564-4.543.748-8.074.827-9.582H63.55A93.976,93.976,0,0,0,64.55,175.769ZM80.4,166.187H78.645a18.929,18.929,0,0,1-3.582,9.582,11.09,11.09,0,0,0-1.854,5.747h0a18.638,18.638,0,0,1-.294,2.053h.494a18.4,18.4,0,0,0,.419-2.053h0a10.357,10.357,0,0,1,2.272-5.747A18.486,18.486,0,0,0,80.4,166.187Z" fill="#a7aab0"/>
      </g>
      <path id="Path_2368" data-name="Path 2368" d="M61.233,188.579h9.528a.785.785,0,1,0,0-1.563H61.233a.785.785,0,1,0,0,1.563Z" fill="#fff"/>
      <path id="Path_2369" data-name="Path 2369" d="M70.761,190.245H61.233a.785.785,0,1,0,0,1.562h9.528a.785.785,0,1,0,0-1.562Z" fill="#fff"/>
      <path id="Path_2370" data-name="Path 2370" d="M70.237,193.473h-8.48a.782.782,0,0,0,0,1.563h8.48a.782.782,0,0,0,0-1.563Z" fill="#fff"/>
    </g>
    <g id="Group_2182" data-name="Group 2182">
      <rect id="Rectangle_2062" data-name="Rectangle 2062" width="41.677" height="67.305" transform="translate(52.971 263)" fill="#e8e8e8"/>
      <path id="Path_2371" data-name="Path 2371" d="M53.968,264.071v66.283H93.651V264.071Zm37.6,64.2H56.051V269.655H91.568Z" fill="#e8e8e8"/>
      <rect id="Rectangle_2063" data-name="Rectangle 2063" width="0.404" height="66.283" transform="translate(93.247 264.072)" fill="#fafafa"/>
      <path id="Path_2372" data-name="Path 2372" d="M53.968,264.072v66.283h.416V264.512Z" fill="#b3b3b3"/>
      <path id="Path_2373" data-name="Path 2373" d="M54.384,264.512H93.247l.4-.441H53.968Z" fill="#ccc"/>
      <path id="Path_2374" data-name="Path 2374" d="M56.051,269.655v58.616H91.568V269.655Zm34.85,57.95H56.717V270.321H90.9Z" fill="#63b4ea"/>
      <rect id="Rectangle_2064" data-name="Rectangle 2064" width="34.184" height="57.284" transform="translate(56.717 270.321)" fill="#b2ddf9"/>
      <path id="Path_2375" data-name="Path 2375" d="M93.247,329.62H54.384l-.416.686H93.651Z" fill="#ccc"/>
      <rect id="Rectangle_2065" data-name="Rectangle 2065" width="43.75" height="2.695" transform="translate(51.934 330.305)" fill="#f2f2f2"/>
      <g id="Group_2181" data-name="Group 2181">
        <g id="Group_2173" data-name="Group 2173">
          <path id="Path_2376" data-name="Path 2376" d="M92.282,272.005H55.337l-.463,1.886H92.745Zm-31.323,1.329c-.152,0-.276-.173-.276-.386s.124-.385.276-.385.276.172.276.385S61.111,273.334,60.959,273.334Zm25.7,0c-.152,0-.275-.173-.275-.386s.123-.385.275-.385.276.172.276.385S86.812,273.334,86.659,273.334Z" fill="#00a26d"/>
          <path id="Path_2377" data-name="Path 2377" d="M92.282,275.008H55.337l-.463,1.886H92.745Zm-31.323,1.329c-.152,0-.276-.173-.276-.386s.124-.386.276-.386.276.173.276.386S61.111,276.337,60.959,276.337Zm25.7,0c-.152,0-.275-.173-.275-.386s.123-.386.275-.386.276.173.276.386S86.812,276.337,86.659,276.337Z" fill="#00a26d"/>
          <path id="Path_2378" data-name="Path 2378" d="M92.282,278.01H55.337l-.463,1.887H92.745Zm-31.323,1.329c-.152,0-.276-.172-.276-.385s.124-.386.276-.386.276.172.276.386S61.111,279.339,60.959,279.339Zm25.7,0c-.152,0-.275-.172-.275-.385s.123-.386.275-.386.276.172.276.386S86.812,279.339,86.659,279.339Z" fill="#00a26d"/>
          <path id="Path_2379" data-name="Path 2379" d="M92.282,281.013H55.337l-.463,1.886H92.745Zm-31.323,1.329c-.152,0-.276-.173-.276-.386s.124-.386.276-.386.276.173.276.386S61.111,282.342,60.959,282.342Zm25.7,0c-.152,0-.275-.173-.275-.386s.123-.386.275-.386.276.173.276.386S86.812,282.342,86.659,282.342Z" fill="#00a26d"/>
          <path id="Path_2380" data-name="Path 2380" d="M92.282,284.016H55.337l-.463,1.886H92.745Zm-31.323,1.328c-.152,0-.276-.172-.276-.385s.124-.386.276-.386.276.173.276.386S61.111,285.344,60.959,285.344Zm25.7,0c-.152,0-.275-.172-.275-.385s.123-.386.275-.386.276.173.276.386S86.812,285.344,86.659,285.344Z" fill="#00a26d"/>
          <path id="Path_2381" data-name="Path 2381" d="M92.282,287.018H55.337l-.463,1.886H92.745Zm-31.323,1.329c-.152,0-.276-.173-.276-.386s.124-.386.276-.386.276.173.276.386S61.111,288.347,60.959,288.347Zm25.7,0c-.152,0-.275-.173-.275-.386s.123-.386.275-.386.276.173.276.386S86.812,288.347,86.659,288.347Z" fill="#00a26d"/>
          <path id="Path_2382" data-name="Path 2382" d="M92.282,290.021H55.337l-.463,1.886H92.745ZM60.959,291.35c-.152,0-.276-.173-.276-.386s.124-.386.276-.386.276.173.276.386S61.111,291.35,60.959,291.35Zm25.7,0c-.152,0-.275-.173-.275-.386s.123-.386.275-.386.276.173.276.386S86.812,291.35,86.659,291.35Z" fill="#00a26d"/>
          <path id="Path_2383" data-name="Path 2383" d="M92.282,293.023H55.337l-.463,1.886H92.745Zm-31.323,1.329c-.152,0-.276-.173-.276-.386s.124-.385.276-.385.276.172.276.385S61.111,294.352,60.959,294.352Zm25.7,0c-.152,0-.275-.173-.275-.386s.123-.385.275-.385.276.172.276.385S86.812,294.352,86.659,294.352Z" fill="#00a26d"/>
          <path id="Path_2384" data-name="Path 2384" d="M92.282,296.026H55.337l-.463,1.886H92.745Zm-31.323,1.329c-.152,0-.276-.173-.276-.386s.124-.386.276-.386.276.173.276.386S61.111,297.355,60.959,297.355Zm25.7,0c-.152,0-.275-.173-.275-.386s.123-.386.275-.386.276.173.276.386S86.812,297.355,86.659,297.355Z" fill="#00a26d"/>
          <path id="Path_2385" data-name="Path 2385" d="M92.282,299.029H55.337l-.463,1.886H92.745Zm-31.323,1.328c-.152,0-.276-.172-.276-.385s.124-.386.276-.386.276.172.276.386S61.111,300.357,60.959,300.357Zm25.7,0c-.152,0-.275-.172-.275-.385s.123-.386.275-.386.276.172.276.386S86.812,300.357,86.659,300.357Z" fill="#00a26d"/>
          <path id="Path_2386" data-name="Path 2386" d="M92.282,302.031H55.337l-.463,1.886H92.745ZM60.959,303.36c-.152,0-.276-.173-.276-.386s.124-.386.276-.386.276.173.276.386S61.111,303.36,60.959,303.36Zm25.7,0c-.152,0-.275-.173-.275-.386s.123-.386.275-.386.276.173.276.386S86.812,303.36,86.659,303.36Z" fill="#00a26d"/>
        </g>
        <path id="Path_2387" data-name="Path 2387" d="M60.959,272.563c.132,0,.237.132.264.306H86.395c.027-.174.132-.306.264-.306s.238.132.265.306h5.57l-.212-.864H55.337l-.212.864h5.57C60.722,272.7,60.827,272.563,60.959,272.563Z" fill="#03774d"/>
        <g id="Group_2175" data-name="Group 2175">
          <g id="Group_2174" data-name="Group 2174">
            <path id="Path_2388" data-name="Path 2388" d="M60.812,272.005v1.27a.213.213,0,0,0,.294,0v-1.27Zm0,3h.294v-1.117h-.294Z" fill="#03774d"/>
            <path id="Path_2389" data-name="Path 2389" d="M60.812,275.008v1.27a.213.213,0,0,0,.294,0v-1.27Zm0,3h.294v-1.117h-.294Z" fill="#03774d"/>
            <path id="Path_2390" data-name="Path 2390" d="M60.812,278.01v1.27a.213.213,0,0,0,.294,0v-1.27Zm0,3.005h.294V279.9h-.294Z" fill="#03774d"/>
            <path id="Path_2391" data-name="Path 2391" d="M60.812,281.013v1.27a.213.213,0,0,0,.294,0v-1.27Zm0,3h.294V282.9h-.294Z" fill="#03774d"/>
            <path id="Path_2392" data-name="Path 2392" d="M60.812,284.015v1.27a.213.213,0,0,0,.294,0v-1.27Zm0,3h.294V285.9h-.294Z" fill="#03774d"/>
            <path id="Path_2393" data-name="Path 2393" d="M60.812,287.018v1.27a.213.213,0,0,0,.294,0v-1.27Zm0,3h.294V288.9h-.294Z" fill="#03774d"/>
            <path id="Path_2394" data-name="Path 2394" d="M60.812,290.02v1.27a.213.213,0,0,0,.294,0v-1.27Zm0,3.005h.294v-1.117h-.294Z" fill="#03774d"/>
            <path id="Path_2395" data-name="Path 2395" d="M60.812,293.023v1.27a.213.213,0,0,0,.294,0v-1.27Zm0,3h.294V294.91h-.294Z" fill="#03774d"/>
            <path id="Path_2396" data-name="Path 2396" d="M60.812,296.026V297.3a.213.213,0,0,0,.294,0v-1.269Zm0,3h.294v-1.117h-.294Z" fill="#03774d"/>
            <path id="Path_2397" data-name="Path 2397" d="M60.812,299.028v1.27a.213.213,0,0,0,.294,0v-1.27Zm0,3h.294v-1.117h-.294Z" fill="#03774d"/>
            <path id="Path_2398" data-name="Path 2398" d="M60.812,302.031v1.27a.215.215,0,0,0,.294,0v-1.27Z" fill="#03774d"/>
          </g>
          <path id="Path_2399" data-name="Path 2399" d="M60.812,272.63a.195.195,0,0,1,.294,0v-.625h-.294Z" fill="#03774d"/>
        </g>
        <g id="Group_2177" data-name="Group 2177">
          <g id="Group_2176" data-name="Group 2176">
            <path id="Path_2400" data-name="Path 2400" d="M86.512,272.005v1.27a.213.213,0,0,0,.294,0v-1.27Zm0,3h.294v-1.117h-.294Z" fill="#03774d"/>
            <path id="Path_2401" data-name="Path 2401" d="M86.512,275.008v1.27a.213.213,0,0,0,.294,0v-1.27Zm0,3h.294v-1.117h-.294Z" fill="#03774d"/>
            <path id="Path_2402" data-name="Path 2402" d="M86.512,278.01v1.27a.213.213,0,0,0,.294,0v-1.27Zm0,3.005h.294V279.9h-.294Z" fill="#03774d"/>
            <path id="Path_2403" data-name="Path 2403" d="M86.512,281.013v1.27a.213.213,0,0,0,.294,0v-1.27Zm0,3h.294V282.9h-.294Z" fill="#03774d"/>
            <path id="Path_2404" data-name="Path 2404" d="M86.512,284.015v1.27a.213.213,0,0,0,.294,0v-1.27Zm0,3h.294V285.9h-.294Z" fill="#03774d"/>
            <path id="Path_2405" data-name="Path 2405" d="M86.512,287.018v1.27a.213.213,0,0,0,.294,0v-1.27Zm0,3h.294V288.9h-.294Z" fill="#03774d"/>
            <path id="Path_2406" data-name="Path 2406" d="M86.512,290.02v1.27a.213.213,0,0,0,.294,0v-1.27Zm0,3.005h.294v-1.117h-.294Z" fill="#03774d"/>
            <path id="Path_2407" data-name="Path 2407" d="M86.512,293.023v1.27a.213.213,0,0,0,.294,0v-1.27Zm0,3h.294V294.91h-.294Z" fill="#03774d"/>
            <path id="Path_2408" data-name="Path 2408" d="M86.512,296.026V297.3a.213.213,0,0,0,.294,0v-1.269Zm0,3h.294v-1.117h-.294Z" fill="#03774d"/>
            <path id="Path_2409" data-name="Path 2409" d="M86.512,299.028v1.27a.213.213,0,0,0,.294,0v-1.27Zm0,3h.294v-1.117h-.294Z" fill="#03774d"/>
            <path id="Path_2410" data-name="Path 2410" d="M86.512,302.031v1.27a.215.215,0,0,0,.294,0v-1.27Z" fill="#03774d"/>
          </g>
          <path id="Path_2411" data-name="Path 2411" d="M86.512,272.63a.218.218,0,0,1,.147-.067.214.214,0,0,1,.147.067v-.625h-.294Z" fill="#03774d"/>
        </g>
        <g id="Group_2178" data-name="Group 2178">
          <rect id="Rectangle_2066" data-name="Rectangle 2066" width="0.459" height="51.75" transform="translate(57.812 272.004)" fill="#03774d"/>
          <rect id="Rectangle_2067" data-name="Rectangle 2067" width="0.459" height="0.865" transform="translate(57.812 272.004)" fill="#03774d"/>
          <path id="Path_2412" data-name="Path 2412" d="M58.332,324.874h-.581a.154.154,0,0,1-.154-.164l.115-1.7a.153.153,0,0,1,.153-.144h.352a.155.155,0,0,1,.154.144l.114,1.7A.153.153,0,0,1,58.332,324.874Z" fill="#03774d"/>
        </g>
        <g id="Group_2180" data-name="Group 2180">
          <rect id="Rectangle_2068" data-name="Rectangle 2068" width="38.863" height="7.493" rx="0.307" transform="translate(54.378 264.512)" fill="#00a26d"/>
          <g id="Group_2179" data-name="Group 2179">
            <path id="Path_2413" data-name="Path 2413" d="M93.151,264.6l-.313.312a.236.236,0,0,1,.069.168v6.352a.237.237,0,0,1-.237.237H54.948a.233.233,0,0,1-.168-.071l-.313.313a.3.3,0,0,0,.218.091H92.934a.307.307,0,0,0,.307-.306v-6.88A.306.306,0,0,0,93.151,264.6Z" fill="#333"/>
            <path id="Path_2414" data-name="Path 2414" d="M54.711,271.435v-6.352a.237.237,0,0,1,.237-.237H92.67a.236.236,0,0,1,.168.069l.313-.312a.305.305,0,0,0-.217-.091H54.685a.307.307,0,0,0-.307.307v6.88a.3.3,0,0,0,.089.215l.313-.313A.231.231,0,0,1,54.711,271.435Z" fill="#fff"/>
          </g>
        </g>
      </g>
    </g>
    <line id="Line_3" data-name="Line 3" x2="68" y2="28" transform="translate(80 175)" fill="none" stroke="#03774d" stroke-linecap="round" stroke-miterlimit="10" stroke-width="1" stroke-dasharray="3"/>
    <line id="Line_4" data-name="Line 4" y1="28" x2="68" transform="translate(81 234)" fill="none" stroke="#03774d" stroke-linecap="round" stroke-miterlimit="10" stroke-width="1" stroke-dasharray="3"/>
    <line id="Line_5" data-name="Line 5" x1="60" y2="24.706" transform="translate(211 182.647)" fill="none" stroke="#03774d" stroke-linecap="round" stroke-miterlimit="10" stroke-width="1" stroke-dasharray="3"/>
    <line id="Line_6" data-name="Line 6" x1="65" y1="26.765" transform="translate(210.5 240.618)" fill="none" stroke="#03774d" stroke-linecap="round" stroke-miterlimit="10" stroke-width="1" stroke-dasharray="3"/>
    <line id="Line_7" data-name="Line 7" y2="47" transform="translate(180 138)" fill="none" stroke="#03774d" stroke-linecap="round" stroke-miterlimit="10" stroke-width="1" stroke-dasharray="3"/>
  </g>
</svg>
