<svg xmlns="http://www.w3.org/2000/svg" width="262.75" height="87.657" viewBox="0 0 262.75 87.657">
  <g id="Group_4790" data-name="Group 4790" transform="translate(-55.25 -177)">
    <g id="Group_4710" data-name="Group 4710" transform="translate(-56.75 177)">
      <g id="Group_4677" data-name="Group 4677" transform="translate(143.158 53.122)">
        <g id="Group_4676" data-name="Group 4676">
          <path id="Path_4551" data-name="Path 4551" d="M288.794,291.462c-.02-.025-.051-.037-.072-.061s-.032-.06-.057-.086a1.312,1.312,0,0,0-.2-.13,1.417,1.417,0,0,0-.218-.146,1.361,1.361,0,0,0-.346-.1,1.478,1.478,0,0,0-.174-.051h-.047a1.434,1.434,0,0,0-.463.07c-.037.012-.076.009-.112.022a1.446,1.446,0,0,0-.508.326l-3.131,3.145a1.463,1.463,0,0,0-.3.454,1.2,1.2,0,0,0-.047.177,1.058,1.058,0,0,0-.051.546,1.505,1.505,0,0,0,.061.311,1.35,1.35,0,0,0,.092.2,1.251,1.251,0,0,0,.073.162,10.177,10.177,0,0,1-.38,12.019,1.409,1.409,0,0,0-.105.2,1.514,1.514,0,0,0-.108.21,1.316,1.316,0,0,0-.06.31,1.384,1.384,0,0,0-.026.219,1.5,1.5,0,0,0,.066.337,1.351,1.351,0,0,0,.047.187,1.433,1.433,0,0,0,.307.463l3.11,3.11a1.469,1.469,0,0,0,.479.318,1.451,1.451,0,0,0,.554.11h.064a1.485,1.485,0,0,0,.178-.058,1.426,1.426,0,0,0,.355-.091A1.557,1.557,0,0,0,288,313.5a1.229,1.229,0,0,0,.216-.146c.016-.016.022-.038.037-.054s.037-.023.051-.039A17.591,17.591,0,0,0,288.794,291.462Zm-1.775,18.64-1.05-1.05a13.082,13.082,0,0,0,.383-13.357l1.061-1.061A14.69,14.69,0,0,1,287.019,310.1Z" transform="translate(-282.616 -290.887)" fill="#00a859"/>
        </g>
      </g>
      <g id="Group_4679" data-name="Group 4679" transform="translate(124.216 72.503)">
        <g id="Group_4678" data-name="Group 4678">
          <path id="Path_4552" data-name="Path 4552" d="M200.62,402.11a1.389,1.389,0,0,0-.063-.424,1.234,1.234,0,0,0-.032-.165,1.419,1.419,0,0,0-.327-.516l-3.172-3.17a1.183,1.183,0,0,0-.619-.348,1.219,1.219,0,0,0-.532-.058,1.449,1.449,0,0,0-.313.061,1.317,1.317,0,0,0-.2.074c-.038.019-.079.023-.114.044a10.275,10.275,0,0,1-10.947-.352,1.35,1.35,0,0,0-.158-.072,1.323,1.323,0,0,0-.207-.094,1.349,1.349,0,0,0-.313-.061,1.234,1.234,0,0,0-.206-.015,1.394,1.394,0,0,0-.336.064,1.251,1.251,0,0,0-.18.05,1.45,1.45,0,0,0-.454.3l-3.131,3.131a1.447,1.447,0,0,0-.324.5,1.136,1.136,0,0,0-.031.156,1.489,1.489,0,0,0-.063.422c0,.016-.007.031-.007.047a1.448,1.448,0,0,0,.05.172.988.988,0,0,0,.247.565,1.37,1.37,0,0,0,.131.2c.025.025.058.032.085.056s.035.053.061.073a17.423,17.423,0,0,0,20.529.486c.035-.025.051-.064.085-.092a1.262,1.262,0,0,0,.117-.079,1.237,1.237,0,0,0,.117-.174,1.4,1.4,0,0,0,.146-.215,1.368,1.368,0,0,0,.113-.351,1.278,1.278,0,0,0,.051-.161C200.628,402.151,200.619,402.13,200.62,402.11Zm-17.983-.732,1.066-1.066a13.218,13.218,0,0,0,12.021.352l1.091,1.093A14.5,14.5,0,0,1,182.638,401.378Z" transform="translate(-178.896 -397.015)" fill="#00a859"/>
        </g>
      </g>
      <g id="Group_4681" data-name="Group 4681" transform="translate(123.623 46.777)">
        <g id="Group_4680" data-name="Group 4680">
          <path id="Path_4553" data-name="Path 4553" d="M198.5,260.579a1.361,1.361,0,0,0-.1-.346,1.418,1.418,0,0,0-.146-.218,1.31,1.31,0,0,0-.13-.2c-.026-.025-.06-.034-.086-.057s-.037-.051-.061-.072a17.591,17.591,0,0,0-21.8.5c-.016.015-.023.037-.039.051s-.038.02-.054.037a1.226,1.226,0,0,0-.146.216,1.55,1.55,0,0,0-.146.219,1.427,1.427,0,0,0-.091.355,1.538,1.538,0,0,0-.045.178v.031a1.461,1.461,0,0,0,.089.432c.013.045.01.095.028.139a1.436,1.436,0,0,0,.323.5l3.11,3.11a1.427,1.427,0,0,0,1.543.329,1.663,1.663,0,0,0,.146-.082,1.39,1.39,0,0,0,.238-.127,10.174,10.174,0,0,1,12.019-.38,1.379,1.379,0,0,0,.164.075,1.439,1.439,0,0,0,.2.091,1.473,1.473,0,0,0,.326.063c.045,0,.088.026.133.026.019,0,.038-.01.057-.012a1.412,1.412,0,0,0,.364-.07,1.512,1.512,0,0,0,.155-.042,1.461,1.461,0,0,0,.457-.3l3.131-3.131a1.433,1.433,0,0,0,.324-.505c.019-.048.016-.1.031-.153a1.512,1.512,0,0,0,.063-.425v-.047A1.474,1.474,0,0,0,198.5,260.579Zm-4.744,1.553a13.074,13.074,0,0,0-13.357.383l-1.05-1.05a14.686,14.686,0,0,1,15.469-.393Z" transform="translate(-175.648 -256.146)" fill="#00a859"/>
        </g>
      </g>
      <g id="Group_4683" data-name="Group 4683" transform="translate(117.846 53.726)">
        <g id="Group_4682" data-name="Group 4682">
          <path id="Path_4554" data-name="Path 4554" d="M153.306,311.174a1.4,1.4,0,0,0-.06-.31,1.485,1.485,0,0,0-.094-.209,1.166,1.166,0,0,0-.072-.158,10.272,10.272,0,0,1-.352-10.947c.02-.035.025-.076.044-.114a1.575,1.575,0,0,0,.075-.194,1.463,1.463,0,0,0,.061-.316,1.5,1.5,0,0,0,0-.2,1.474,1.474,0,0,0-.066-.336,1.762,1.762,0,0,0-.05-.169,1.431,1.431,0,0,0-.292-.438l-3.16-3.163a1.448,1.448,0,0,0-.5-.324,1.718,1.718,0,0,0-.194-.038,1.415,1.415,0,0,0-.4-.051c-.02,0-.038-.01-.06-.009a1.538,1.538,0,0,0-.158.051,1.38,1.38,0,0,0-.354.111,1.333,1.333,0,0,0-.218.146,1.555,1.555,0,0,0-.177.117c-.032.034-.045.077-.075.112s-.066.048-.089.082a17.159,17.159,0,0,0-2.846,6.935,17.669,17.669,0,0,0,3.3,13.6c.02.026.053.039.075.064s.032.061.057.088q.208.135.413.273a1.42,1.42,0,0,0,.345.1,1.473,1.473,0,0,0,.174.051h.1a1.461,1.461,0,0,0,1.033-.427l3.144-3.15a1.463,1.463,0,0,0,.3-.454,1.206,1.206,0,0,0,.047-.177,1.421,1.421,0,0,0,.066-.339A1.238,1.238,0,0,0,153.306,311.174Zm-4.349.995a14.756,14.756,0,0,1-1.81-9.92v-.006a14.366,14.366,0,0,1,1.44-4.251l1.087,1.087a13.23,13.23,0,0,0,.352,12.021Z" transform="translate(-144.013 -294.199)" fill="#00a859"/>
        </g>
      </g>
      <g id="Group_4685" data-name="Group 4685" transform="translate(128.07 56.977)">
        <g id="Group_4684" data-name="Group 4684">
          <path id="Path_4555" data-name="Path 4555" d="M207.3,312a7.3,7.3,0,1,0,7.3,7.3A7.3,7.3,0,0,0,207.3,312Zm0,11.688a4.383,4.383,0,1,1,4.383-4.383A4.383,4.383,0,0,1,207.3,323.688Z" transform="translate(-200 -312)" fill="#00a859"/>
        </g>
      </g>
      <g id="Group_4687" data-name="Group 4687" transform="translate(112)">
        <g id="Group_4686" data-name="Group 4686">
          <path id="Path_4556" data-name="Path 4556" d="M151.446,0H119.3A7.314,7.314,0,0,0,112,7.3V80.352a7.314,7.314,0,0,0,7.3,7.3h32.141a7.314,7.314,0,0,0,7.3-7.3V7.3A7.314,7.314,0,0,0,151.446,0Zm4.383,80.352a4.383,4.383,0,0,1-4.383,4.383H119.3a4.383,4.383,0,0,1-4.383-4.383V7.3A4.383,4.383,0,0,1,119.3,2.922h32.141A4.383,4.383,0,0,1,155.829,7.3Z" transform="translate(-112)" fill="#00a859"/>
        </g>
      </g>
      <g id="Group_4689" data-name="Group 4689" transform="translate(129.531 35.063)">
        <g id="Group_4688" data-name="Group 4688">
          <path id="Path_4557" data-name="Path 4557" d="M215.3,192h-2.922a4.383,4.383,0,0,0,0,8.766H215.3a4.383,4.383,0,0,0,0-8.766Zm0,5.844h-2.922a1.461,1.461,0,0,1,0-2.922H215.3a1.461,1.461,0,0,1,0,2.922Z" transform="translate(-208 -192)" fill="#00a859"/>
        </g>
      </g>
      <g id="Group_4691" data-name="Group 4691" transform="translate(116.383 35.063)">
        <g id="Group_4690" data-name="Group 4690">
          <path id="Path_4558" data-name="Path 4558" d="M143.3,192h-2.922a4.383,4.383,0,0,0,0,8.766H143.3a4.383,4.383,0,0,0,0-8.766Zm0,5.844h-2.922a1.461,1.461,0,0,1,0-2.922H143.3a1.461,1.461,0,0,1,0,2.922Z" transform="translate(-136 -192)" fill="#00a859"/>
        </g>
      </g>
      <g id="Group_4693" data-name="Group 4693" transform="translate(142.68 35.063)">
        <g id="Group_4692" data-name="Group 4692">
          <path id="Path_4559" data-name="Path 4559" d="M287.3,192h-2.922a4.383,4.383,0,1,0,0,8.766H287.3a4.383,4.383,0,0,0,0-8.766Zm0,5.844h-2.922a1.461,1.461,0,1,1,0-2.922H287.3a1.461,1.461,0,0,1,0,2.922Z" transform="translate(-280 -192)" fill="#00a859"/>
        </g>
      </g>
      <g id="Group_4695" data-name="Group 4695" transform="translate(129.531 24.836)">
        <g id="Group_4694" data-name="Group 4694">
          <path id="Path_4560" data-name="Path 4560" d="M215.3,136h-2.922a4.383,4.383,0,1,0,0,8.766H215.3a4.383,4.383,0,0,0,0-8.766Zm0,5.844h-2.922a1.461,1.461,0,1,1,0-2.922H215.3a1.461,1.461,0,0,1,0,2.922Z" transform="translate(-208 -136)" fill="#00a859"/>
        </g>
      </g>
      <g id="Group_4697" data-name="Group 4697" transform="translate(116.383 24.836)">
        <g id="Group_4696" data-name="Group 4696">
          <path id="Path_4561" data-name="Path 4561" d="M143.3,136h-2.922a4.383,4.383,0,1,0,0,8.766H143.3a4.383,4.383,0,0,0,0-8.766Zm0,5.844h-2.922a1.461,1.461,0,1,1,0-2.922H143.3a1.461,1.461,0,0,1,0,2.922Z" transform="translate(-136 -136)" fill="#00a859"/>
        </g>
      </g>
      <g id="Group_4699" data-name="Group 4699" transform="translate(142.68 24.836)">
        <g id="Group_4698" data-name="Group 4698">
          <path id="Path_4562" data-name="Path 4562" d="M287.3,136h-2.922a4.383,4.383,0,1,0,0,8.766H287.3a4.383,4.383,0,0,0,0-8.766Zm0,5.844h-2.922a1.461,1.461,0,1,1,0-2.922H287.3a1.461,1.461,0,0,1,0,2.922Z" transform="translate(-280 -136)" fill="#00a859"/>
        </g>
      </g>
      <g id="Group_4701" data-name="Group 4701" transform="translate(129.531 14.61)">
        <g id="Group_4700" data-name="Group 4700">
          <path id="Path_4563" data-name="Path 4563" d="M215.3,80h-2.922a4.383,4.383,0,0,0,0,8.766H215.3a4.383,4.383,0,0,0,0-8.766Zm0,5.844h-2.922a1.461,1.461,0,0,1,0-2.922H215.3a1.461,1.461,0,1,1,0,2.922Z" transform="translate(-208 -80)" fill="#00a859"/>
        </g>
      </g>
      <g id="Group_4703" data-name="Group 4703" transform="translate(116.383 14.61)">
        <g id="Group_4702" data-name="Group 4702">
          <path id="Path_4564" data-name="Path 4564" d="M143.3,80h-2.922a4.383,4.383,0,0,0,0,8.766H143.3a4.383,4.383,0,0,0,0-8.766Zm0,5.844h-2.922a1.461,1.461,0,1,1,0-2.922H143.3a1.461,1.461,0,0,1,0,2.922Z" transform="translate(-136 -80)" fill="#00a859"/>
        </g>
      </g>
      <g id="Group_4705" data-name="Group 4705" transform="translate(142.68 14.61)">
        <g id="Group_4704" data-name="Group 4704">
          <path id="Path_4565" data-name="Path 4565" d="M287.3,80h-2.922a4.383,4.383,0,1,0,0,8.766H287.3a4.383,4.383,0,0,0,0-8.766Zm0,5.844h-2.922a1.461,1.461,0,1,1,0-2.922H287.3a1.461,1.461,0,0,1,0,2.922Z" transform="translate(-280 -80)" fill="#00a859"/>
        </g>
      </g>
      <g id="Group_4707" data-name="Group 4707" transform="translate(142.68 5.844)">
        <g id="Group_4706" data-name="Group 4706">
          <path id="Path_4566" data-name="Path 4566" d="M287.3,32h-5.844a1.461,1.461,0,1,0,0,2.922H287.3a1.461,1.461,0,0,0,0-2.922Z" transform="translate(-280 -32)" fill="#00a859"/>
        </g>
      </g>
      <g id="Group_4709" data-name="Group 4709" transform="translate(117.844 5.844)">
        <g id="Group_4708" data-name="Group 4708">
          <path id="Path_4567" data-name="Path 4567" d="M151.3,32h-5.844a1.461,1.461,0,1,0,0,2.922H151.3a1.461,1.461,0,0,0,0-2.922Z" transform="translate(-144 -32)" fill="#00a859"/>
        </g>
      </g>
    </g>
    <g id="Group_4714" data-name="Group 4714" transform="translate(54 8)">
      <g id="Rectangle_2455" data-name="Rectangle 2455" transform="translate(204 183)" fill="none" stroke="#00a859" stroke-width="3">
        <rect width="60" height="60" rx="10" stroke="none"/>
        <rect x="1.5" y="1.5" width="57" height="57" rx="8.5" fill="none"/>
      </g>
      <g id="Rectangle_2456" data-name="Rectangle 2456" transform="translate(221 200)" fill="none" stroke="#00a859" stroke-width="3">
        <rect width="26" height="26" rx="5" stroke="none"/>
        <rect x="1.5" y="1.5" width="23" height="23" rx="3.5" fill="none"/>
      </g>
      <line id="Line_11" data-name="Line 11" y2="4" transform="translate(229.5 196.5)" fill="none" stroke="#00a859" stroke-linecap="round" stroke-width="3"/>
      <line id="Line_12" data-name="Line 12" y2="4" transform="translate(239.5 196.5)" fill="none" stroke="#00a859" stroke-linecap="round" stroke-width="3"/>
      <g id="Group_4711" data-name="Group 4711">
        <line id="Line_13" data-name="Line 13" y2="4" transform="translate(229.5 225.5)" fill="none" stroke="#00a859" stroke-linecap="round" stroke-width="3"/>
        <line id="Line_14" data-name="Line 14" y2="4" transform="translate(239.5 225.5)" fill="none" stroke="#00a859" stroke-linecap="round" stroke-width="3"/>
      </g>
      <g id="Group_4712" data-name="Group 4712" transform="translate(476 -21) rotate(90)">
        <line id="Line_13-2" data-name="Line 13" y2="4" transform="translate(229.5 225.5)" fill="none" stroke="#00a859" stroke-linecap="round" stroke-width="3"/>
        <line id="Line_14-2" data-name="Line 14" y2="4" transform="translate(239.5 225.5)" fill="none" stroke="#00a859" stroke-linecap="round" stroke-width="3"/>
      </g>
      <g id="Group_4713" data-name="Group 4713" transform="translate(447 -21) rotate(90)">
        <line id="Line_13-3" data-name="Line 13" y2="4" transform="translate(229.5 225.5)" fill="none" stroke="#00a859" stroke-linecap="round" stroke-width="3"/>
        <line id="Line_14-3" data-name="Line 14" y2="4" transform="translate(239.5 225.5)" fill="none" stroke="#00a859" stroke-linecap="round" stroke-width="3"/>
      </g>
    </g>
    <g id="Group_4716" data-name="Group 4716" transform="translate(0 18)">
      <text id="_5cm" data-name="5cm" transform="translate(180 202)" fill="#00a859" font-size="15" font-family="Roboto-Medium, Roboto" font-weight="500"><tspan x="-14.714" y="0">5cm</tspan></text>
      <g id="Group_4715" data-name="Group 4715">
        <line id="Line_15" data-name="Line 15" x2="100" transform="translate(130 214.5)" fill="none" stroke="#373737" stroke-linecap="round" stroke-width="1.5" stroke-dasharray="5 7"/>
        <circle id="Ellipse_409" data-name="Ellipse 409" cx="3" cy="3" r="3" transform="translate(119 211)" fill="#373737"/>
        <circle id="Ellipse_410" data-name="Ellipse 410" cx="3" cy="3" r="3" transform="translate(235 211)" fill="#373737"/>
      </g>
    </g>
  </g>
</svg>
