<svg xmlns="http://www.w3.org/2000/svg" xmlns:xlink="http://www.w3.org/1999/xlink" width="320" height="254.096" viewBox="0 0 320 254.096">
  <defs>
    <linearGradient id="linear-gradient" x1="0.026" y1="3.069" x2="-4.221" y2="26.078" gradientUnits="objectBoundingBox">
      <stop offset="0" stop-color="#c0f9e2"/>
      <stop offset="0.152" stop-color="#b9f9de"/>
      <stop offset="0.371" stop-color="#a6f9d6"/>
      <stop offset="0.63" stop-color="#86f9c8"/>
      <stop offset="0.918" stop-color="#5bf9b5"/>
      <stop offset="1" stop-color="#4ef9b0"/>
    </linearGradient>
    <linearGradient id="linear-gradient-2" x1="0.671" y1="0.136" x2="0.158" y2="1.386" xlink:href="#linear-gradient"/>
    <linearGradient id="linear-gradient-3" x1="0" y1="0.5" x2="1" y2="0.5" xlink:href="#linear-gradient"/>
    <clipPath id="clip-path">
      <path id="Path_3960" data-name="Path 3960" d="M2023.725,222.647l12.747-7.407c-.961.732-1.254,2.281-1.411,3.7l-12.747,7.407C2022.472,224.928,2022.764,223.379,2023.725,222.647Z" fill="none"/>
    </clipPath>
    <clipPath id="clip-path-2">
      <path id="Path_3963" data-name="Path 3963" d="M2025.367,222.238l11.192-6.5a3.341,3.341,0,0,1,3.368.33l-11.192,6.5A3.341,3.341,0,0,0,2025.367,222.238Z" fill="none"/>
    </clipPath>
    <clipPath id="clip-path-3">
      <path id="Path_3966" data-name="Path 3966" d="M2043.264,227.271l-11.192,6.5a3.315,3.315,0,0,0,1.381-3.036,10.4,10.4,0,0,0-4.718-8.171l11.192-6.5a10.392,10.392,0,0,1,4.717,8.171A3.315,3.315,0,0,1,2043.264,227.271Z" fill="none"/>
    </clipPath>
    <clipPath id="clip-path-4">
      <path id="Path_3972" data-name="Path 3972" d="M2023.615,222.457l12.746-7.408a4.124,4.124,0,0,1,3.854.4l-12.746,7.407A4.124,4.124,0,0,0,2023.615,222.457Z" fill="none"/>
    </clipPath>
    <clipPath id="clip-path-5">
      <path id="Path_3974" data-name="Path 3974" d="M2027.469,222.856l12.746-7.407a9.23,9.23,0,0,1,2.664,2.446l-12.746,7.407A9.243,9.243,0,0,0,2027.469,222.856Z" fill="none"/>
    </clipPath>
    <clipPath id="clip-path-6">
      <path id="Path_3977" data-name="Path 3977" d="M2030.133,225.3l12.746-7.407a12.087,12.087,0,0,1,2.5,6.93l-12.746,7.407A12.1,12.1,0,0,0,2030.133,225.3Z" fill="none"/>
    </clipPath>
    <clipPath id="clip-path-7">
      <path id="Path_3993" data-name="Path 3993" d="M1905.725,198.564l-16.995-9.877c1.282.976,1.671,3.042,1.881,4.936l17,9.877C1907.4,201.6,1907.007,199.539,1905.725,198.564Z" fill="none"/>
    </clipPath>
    <clipPath id="clip-path-8">
      <path id="Path_3996" data-name="Path 3996" d="M1903.536,198.018l-14.923-8.672c-1.147-.666-2.736-.572-4.49.44l14.922,8.672C1900.8,197.446,1902.388,197.352,1903.536,198.018Z" fill="none"/>
    </clipPath>
    <clipPath id="clip-path-9">
      <path id="Path_3999" data-name="Path 3999" d="M1879.674,204.729,1894.6,213.4c-1.132-.659-1.835-2.059-1.84-4.048a13.856,13.856,0,0,1,6.289-10.9l-14.922-8.672a13.857,13.857,0,0,0-6.29,10.9C1877.839,202.67,1878.541,204.07,1879.674,204.729Z" fill="none"/>
    </clipPath>
    <clipPath id="clip-path-10">
      <path id="Path_4005" data-name="Path 4005" d="M1905.873,198.31l-16.995-9.877a5.5,5.5,0,0,0-5.139.533l16.995,9.877A5.5,5.5,0,0,1,1905.873,198.31Z" fill="none"/>
    </clipPath>
    <clipPath id="clip-path-11">
      <path id="Path_4007" data-name="Path 4007" d="M1900.734,198.843l-16.995-9.877a12.309,12.309,0,0,0-3.552,3.262l16.995,9.876A12.29,12.29,0,0,1,1900.734,198.843Z" fill="none"/>
    </clipPath>
    <clipPath id="clip-path-12">
      <path id="Path_4010" data-name="Path 4010" d="M1897.182,202.1l-16.995-9.876a16.108,16.108,0,0,0-3.33,9.24l16.995,9.876A16.115,16.115,0,0,1,1897.182,202.1Z" fill="none"/>
    </clipPath>
    <linearGradient id="linear-gradient-4" x1="-1.006" y1="1.145" x2="0.089" y2="0.679" xlink:href="#linear-gradient"/>
    <linearGradient id="linear-gradient-5" x1="-0.346" y1="0.886" x2="0.648" y2="0.416" xlink:href="#linear-gradient"/>
    <linearGradient id="linear-gradient-6" x1="-1.006" y1="1.145" x2="0.089" y2="0.679" xlink:href="#linear-gradient"/>
    <linearGradient id="linear-gradient-7" x1="-0.346" y1="0.886" x2="0.648" y2="0.416" xlink:href="#linear-gradient"/>
  </defs>
  <g id="Group_3583" data-name="Group 3583" transform="translate(-1798 -147)">
    <g id="Group_3403" data-name="Group 3403">
      <path id="Path_3856" data-name="Path 3856" d="M2014.779,162.362H2044.6a7.681,7.681,0,1,0,0-15.362h-29.818a7.681,7.681,0,1,0,0,15.362Z" fill="url(#linear-gradient)"/>
      <path id="Path_3857" data-name="Path 3857" d="M2106.262,328.264H2095c-9.406,0-17.042-6.934-17.042-16.248a15.356,15.356,0,0,1,5-11.327,16.947,16.947,0,0,1,10.526-4.8h7.849a16.664,16.664,0,1,0,0-33.327h-24.8a120.477,120.477,0,0,0-22.657-54.817h6.392a14.115,14.115,0,1,0,0-28.229H2024.3a120.533,120.533,0,0,0-67.6-20.613,122.454,122.454,0,0,0-13.48.75h-64.4a11.841,11.841,0,0,0,0,23.682h4.942a121.748,121.748,0,0,0-27.733,29.355h-29.463a17.692,17.692,0,0,0,0,35.384h13.3a121.666,121.666,0,0,0-3.113,48.6h-13.181a25.566,25.566,0,1,0,0,51.132h32.785q.816,1.208,1.663,2.394a9.272,9.272,0,0,0,1.436,18.432h3.121a9.136,9.136,0,0,1,7.729,9.029,8.99,8.99,0,0,1-2.715,6.45,7.247,7.247,0,0,1-1.247.982H1846.5v.026c-.166-.011-.331-.026-.5-.026a8,8,0,0,0,0,16c.169,0,.334-.015.5-.025v.025h110v0l.194,0a120.521,120.521,0,0,0,63.953-18.255h35.7a9.863,9.863,0,1,0,0-19.726h-11.591a121.791,121.791,0,0,0,10.858-13.252h50.648a10.8,10.8,0,1,0,0-21.6Z" fill="url(#linear-gradient-2)"/>
    </g>
    <g id="Group_3582" data-name="Group 3582">
      <path id="Path_3858" data-name="Path 3858" d="M1848.578,316.963l91.854-53.4,130.99,75.836-90.827,53.427Z" fill="#28bc86"/>
      <path id="Path_3859" data-name="Path 3859" d="M1980.595,392.824l-132.017-75.861v4.176L1980.595,397l90.827-53.427V339.4Z" fill="#00a26d"/>
      <path id="Path_3860" data-name="Path 3860" d="M1866.031,315.233V189.993L1940.479,147l113.49,65.538V337.5l-2.487,1.488L1980.5,380.743l-111.915-64.31Z" fill="#03774d"/>
      <g id="Group_3581" data-name="Group 3581">
        <g id="Group_3404" data-name="Group 3404">
          <path id="Path_3861" data-name="Path 3861" d="M2051.866,336.124l-71,41.764-111.928-64.317,71.834-41.764Z" fill="url(#linear-gradient-3)"/>
          <path id="Path_3862" data-name="Path 3862" d="M1868.919,191.482V313.6l71.943-41.546V149.936Z" fill="#61d6a6"/>
          <path id="Path_3863" data-name="Path 3863" d="M2051.846,214.027l-110.984-64.091V272.051l110.984,64.091Z" fill="#a9e0c8"/>
          <path id="Path_3864" data-name="Path 3864" d="M1868.95,313.578" fill="none" stroke="#fff" stroke-miterlimit="10" stroke-width="1"/>
        </g>
        <g id="Group_3423" data-name="Group 3423">
          <path id="Shadow" d="M2016.2,318.789l-27.407,15.824a1.451,1.451,0,0,1-1.312,0l-74.588-43.064a.4.4,0,0,1,0-.757l27.407-15.824a1.451,1.451,0,0,1,1.312,0l74.588,43.064A.4.4,0,0,1,2016.2,318.789Z" opacity="0.15"/>
          <g id="TV_Stand" data-name="TV Stand">
            <g id="Group_3405" data-name="Group 3405">
              <path id="Path_3865" data-name="Path 3865" d="M1917.433,291.8l69.61,40.189a2.415,2.415,0,0,0,2.187,0l18.327-10.581a2.415,2.415,0,0,0,1.094-1.893V286.511a2.418,2.418,0,0,0-1.094-1.894l-69.61-40.189a2.415,2.415,0,0,0-2.187,0l-18.327,10.581a2.415,2.415,0,0,0-1.094,1.893v33.006A2.418,2.418,0,0,0,1917.433,291.8Z" fill="#bc5019"/>
              <path id="Path_3866" data-name="Path 3866" d="M1938.7,278.646a1,1,0,0,1-.336-.582l-20.514,11.844a1,1,0,0,0,.336.582L1986.622,330l20.514-11.844Z" fill="#8e3914"/>
            </g>
            <g id="Group_3406" data-name="Group 3406">
              <path id="Path_3867" data-name="Path 3867" d="M1938.368,261.561,1917.854,273.4l51.284,29.609,20.513-11.843Z" fill="#ba68c8"/>
              <path id="Path_3868" data-name="Path 3868" d="M1938.368,261.561,1917.854,273.4l51.284,29.609,20.513-11.843Z" fill="#8e3914"/>
              <path id="Path_3869" data-name="Path 3869" d="M1917.854,273.405v2.066l51.107,29.507v-2.066Z" fill="#ba68c8"/>
              <path id="Path_3870" data-name="Path 3870" d="M1917.854,273.405v2.066l51.107,29.507v-2.066Z" fill="#ef6a1c"/>
            </g>
            <path id="Shadow-2" data-name="Shadow" d="M1952.112,279.871l-9.884,5.707a1.962,1.962,0,0,1-1.775,0l-19.03-10.988a.542.542,0,0,1,0-1.026l9.884-5.706a1.964,1.964,0,0,1,1.776,0l19.029,10.988A.541.541,0,0,1,1952.112,279.871Z" opacity="0.2"/>
            <g id="Console">
              <g id="Group_3407" data-name="Group 3407">
                <path id="Path_3871" data-name="Path 3871" d="M1942.1,284.427l8.817-5.091a1.747,1.747,0,0,0,.792-1.371l.005.1a1.753,1.753,0,0,0-.792-1.372l-17.732-10.237a1.748,1.748,0,0,0-1.584,0l-8.817,5.09a1.753,1.753,0,0,0-.792,1.372l0-.1a1.747,1.747,0,0,0,.792,1.371l17.731,10.238A1.754,1.754,0,0,0,1942.1,284.427Z" fill="#455a64"/>
                <path id="Path_3872" data-name="Path 3872" d="M1941.313,271.147l9.609,5.547a1.752,1.752,0,0,1,.791,1.372l0-.1a1.747,1.747,0,0,1-.792,1.371l-8.817,5.091a1.619,1.619,0,0,1-.792.189Z" fill="#1a2e35"/>
                <path id="Path_3873" data-name="Path 3873" d="M1950.922,277.609l-8.817,5.09a1.748,1.748,0,0,1-1.584,0l-17.732-10.237a.483.483,0,0,1,0-.915l8.817-5.09a1.748,1.748,0,0,1,1.584,0l17.732,10.237A.483.483,0,0,1,1950.922,277.609Z" fill="#1a2e35"/>
              </g>
              <g id="Group_3408" data-name="Group 3408">
                <path id="Path_3874" data-name="Path 3874" d="M1950.923,275.936v.842l-9.153,5.284a.836.836,0,0,1-.33.115.9.9,0,0,1-.583-.115l-18.068-10.429v-.872l17.732,10.264a1.746,1.746,0,0,0,1.584,0Z" fill="#fff"/>
                <path id="Path_3875" data-name="Path 3875" d="M1950.923,275.936v.842l-9.153,5.284a.836.836,0,0,1-.33.115c-.043,0-.087.007-.13.007v-.969a1.611,1.611,0,0,0,.795-.19Z" fill="#f9c39b"/>
              </g>
              <g id="Group_3409" data-name="Group 3409">
                <path id="Path_3876" data-name="Path 3876" d="M1942.1,281.026l8.817-5.091a1.748,1.748,0,0,0,.791-1.371v-1.631a1.753,1.753,0,0,0-.792-1.372l-17.732-10.237a1.748,1.748,0,0,0-1.584,0l-8.817,5.09a1.753,1.753,0,0,0-.792,1.372v1.631a1.7,1.7,0,0,0,.792,1.343l17.732,10.266A1.754,1.754,0,0,0,1942.1,281.026Z" fill="#455a64"/>
                <path id="Path_3877" data-name="Path 3877" d="M1941.313,266.014l9.609,5.547a1.752,1.752,0,0,1,.791,1.372v1.631a1.748,1.748,0,0,1-.791,1.371l-8.817,5.091a1.624,1.624,0,0,1-.792.189Z" fill="#1a2e35"/>
                <path id="Path_3878" data-name="Path 3878" d="M1950.922,272.476l-8.817,5.09a1.748,1.748,0,0,1-1.584,0l-17.732-10.237a.483.483,0,0,1,0-.915l8.817-5.09a1.748,1.748,0,0,1,1.584,0l17.732,10.237A.483.483,0,0,1,1950.922,272.476Z" fill="#37474f"/>
              </g>
              <path id="Path_3879" data-name="Path 3879" d="M1938.623,268.43a1.071,1.071,0,0,1,0,2.033,3.931,3.931,0,0,1-3.536,0,1.071,1.071,0,0,1,0-2.033A3.906,3.906,0,0,1,1938.623,268.43Z" fill="#fafafa"/>
              <path id="Path_3880" data-name="Path 3880" d="M1924.226,269.025a.683.683,0,0,1,.309.539c0,.2-.139.284-.309.187a.678.678,0,0,1-.309-.539C1923.917,269.012,1924.055,268.928,1924.226,269.025Z" fill="#fafafa"/>
              <path id="Path_3881" data-name="Path 3881" d="M1924.226,270.221a.683.683,0,0,1,.309.539c0,.2-.139.284-.309.187a.678.678,0,0,1-.309-.539C1923.917,270.208,1924.055,270.124,1924.226,270.221Z" fill="#fafafa"/>
            </g>
            <g id="Group_3416" data-name="Group 3416">
              <path id="Path_3882" data-name="Path 3882" d="M1945.055,288.165a7.421,7.421,0,0,0,3.81.287l1.721-.295a7.407,7.407,0,0,1,3.8.282c.757.386,1.249,1.121,1.1,1.643l-.585,2.017c-.152.522-.2,1.068,1.095,1.642a2.7,2.7,0,0,0,2.606-.105l5.264-3.414c.683-.444.455-1.2-.51-1.7l-7.422-3.795a5.287,5.287,0,0,0-3.608-.252l-6.788,2.341C1944.508,287.174,1944.293,287.776,1945.055,288.165Z" opacity="0.2"/>
              <g id="Group_3415" data-name="Group 3415">
                <g id="Group_3410" data-name="Group 3410">
                  <path id="Path_3883" data-name="Path 3883" d="M1964.251,287.645c.055-.39-.261-.831-.9-1.156l-7.422-3.8a5.287,5.287,0,0,0-3.608-.251l-6.788,2.341c-.593.2-.915.491-.936.772-.015.206-.124,1.005-.131,1.232-.007.2.141.4.455.557a7.411,7.411,0,0,0,3.81.287l1.721-.294a7.419,7.419,0,0,1,3.8.281,2.2,2.2,0,0,1,1.044,1.062l-.4,1.383a1.088,1.088,0,0,0,0,.779l-.127.437c-.151.521-.2,1.067,1.1,1.642a2.708,2.708,0,0,0,2.607-.1l5.263-3.415a.777.777,0,0,0,.387-.542C1964.15,288.64,1964.223,287.845,1964.251,287.645Z" fill="#37474f"/>
                  <path id="Path_3884" data-name="Path 3884" d="M1955.641,289.609l.026-3.6-2.239-.589-.2,1.9a3.653,3.653,0,0,1,1.032.3,2.2,2.2,0,0,1,1.044,1.062l-.163.56Z" fill="#1a2e35"/>
                  <path id="Path_3885" data-name="Path 3885" d="M1963.84,286.81c.677.618.726.808.539,3.264s-.745,2.524-1.375,2.1-1.059-1.588-1.832-1.113Z" fill="#37474f"/>
                  <path id="Path_3886" data-name="Path 3886" d="M1945.055,286.128a7.41,7.41,0,0,0,3.81.287l1.721-.3a7.429,7.429,0,0,1,3.8.282c.757.386,1.249,1.121,1.1,1.643l-.585,2.018c-.152.521-.2,1.067,1.095,1.642a2.706,2.706,0,0,0,2.606-.1l5.264-3.415c.683-.443.455-1.2-.51-1.7l-7.422-3.8a5.287,5.287,0,0,0-3.608-.251l-6.788,2.341C1944.508,285.137,1944.293,285.74,1945.055,286.128Z" fill="#ba68c8"/>
                  <path id="Path_3887" data-name="Path 3887" d="M1945.055,286.128a7.41,7.41,0,0,0,3.81.287l1.721-.3a7.429,7.429,0,0,1,3.8.282c.757.386,1.249,1.121,1.1,1.643l-.585,2.018c-.152.521-.2,1.067,1.095,1.642a2.706,2.706,0,0,0,2.606-.1l5.264-3.415c.683-.443.455-1.2-.51-1.7l-7.422-3.8a5.287,5.287,0,0,0-3.608-.251l-6.788,2.341C1944.508,285.137,1944.293,285.74,1945.055,286.128Z" fill="#f9c39b"/>
                </g>
                <g id="Group_3413" data-name="Group 3413">
                  <g id="Group_3411" data-name="Group 3411">
                    <path id="Path_3888" data-name="Path 3888" d="M1961.549,286.47a.239.239,0,0,0-.147-.183,1.1,1.1,0,0,0-.842-.037c-.129.053-.2.128-.2.2,0,.049-.029.241-.032.295s.045.138.147.2a1.1,1.1,0,0,0,.842.036c.125-.051.192-.122.2-.195C1961.523,286.734,1961.551,286.528,1961.549,286.47Z" fill="#1a2e35"/>
                    <path id="Path_3889" data-name="Path 3889" d="M1959.756,287.211c0-.067-.047-.135-.147-.191a1.1,1.1,0,0,0-.842-.037c-.124.051-.192.122-.2.2-.006.052-.03.252-.032.306s.046.137.147.194a1.1,1.1,0,0,0,.842.036c.124-.051.192-.121.2-.194C1959.73,287.468,1959.755,287.266,1959.756,287.211Z" fill="#37474f"/>
                    <path id="Path_3890" data-name="Path 3890" d="M1959.864,286.41c0-.069-.045-.139-.147-.2a1.1,1.1,0,0,0-.842-.037c-.124.051-.192.122-.2.2-.006.052-.027.247-.031.3-.006.07.042.142.146.2a1.1,1.1,0,0,0,.842.037c.128-.052.2-.126.2-.2C1959.836,286.657,1959.861,286.463,1959.864,286.41Z" fill="#1a2e35"/>
                    <path id="Path_3891" data-name="Path 3891" d="M1961.439,287.289c0-.069-.045-.139-.147-.2a1.1,1.1,0,0,0-.842-.036c-.124.051-.191.121-.2.194-.006.052-.025.244-.031.3-.009.071.039.145.146.2a1.1,1.1,0,0,0,.842.037c.124-.051.192-.122.2-.195C1961.413,287.54,1961.436,287.342,1961.439,287.289Z" fill="#37474f"/>
                  </g>
                  <g id="Group_3412" data-name="Group 3412">
                    <path id="Path_3892" data-name="Path 3892" d="M1960.56,286.25c-.247.1-.272.282-.054.4a1.1,1.1,0,0,0,.841.037c.248-.1.272-.282.055-.4A1.1,1.1,0,0,0,1960.56,286.25Z" fill="#455a64"/>
                    <path id="Path_3893" data-name="Path 3893" d="M1958.767,286.983c-.247.1-.272.282-.055.4a1.1,1.1,0,0,0,.842.037c.248-.1.272-.282.055-.4A1.1,1.1,0,0,0,1958.767,286.983Z" fill="#455a64"/>
                    <path id="Path_3894" data-name="Path 3894" d="M1958.875,286.177c-.247.1-.272.282-.054.4a1.1,1.1,0,0,0,.841.037c.248-.1.272-.282.055-.4A1.1,1.1,0,0,0,1958.875,286.177Z" fill="#455a64"/>
                    <path id="Path_3895" data-name="Path 3895" d="M1960.45,287.056c-.248.1-.272.282-.055.4a1.1,1.1,0,0,0,.842.037c.248-.1.272-.282.055-.4A1.1,1.1,0,0,0,1960.45,287.056Z" fill="#455a64"/>
                  </g>
                </g>
                <g id="Group_3414" data-name="Group 3414">
                  <path id="Path_3896" data-name="Path 3896" d="M1954.792,283.188l-.787-.44-.9.367-.789-.44-.9.367-.036.333.459.256-.532.217-.036.333.788.439.9-.366.788.439.9-.367.036-.333-.459-.256.531-.217Z" fill="#37474f"/>
                  <path id="Path_3897" data-name="Path 3897" d="M1954.005,282.748l-.9.367-.789-.44-.9.367.789.44-.9.367.788.439.9-.366.788.439.9-.367-.788-.439.9-.366Z" fill="#455a64"/>
                  <path id="Path_3898" data-name="Path 3898" d="M1953,283.921l-.036.333-.9.366.036-.333Z" fill="#1a2e35"/>
                  <path id="Path_3899" data-name="Path 3899" d="M1953.9,283.554l.329.184.531-.217.036-.333Z" fill="#1a2e35"/>
                  <path id="Path_3900" data-name="Path 3900" d="M1954.684,283.994l-.036.333-.9.367.036-.333Z" fill="#1a2e35"/>
                  <path id="Path_3901" data-name="Path 3901" d="M1952.212,283.481l-.789-.44-.038.351.461.238Z" fill="#1a2e35"/>
                </g>
              </g>
            </g>
            <g id="Group_3417" data-name="Group 3417">
              <path id="Path_3902" data-name="Path 3902" d="M1968.961,319.8l20.514-11.844V275.945l-20.514,11.844Z" fill="#ba68c8"/>
              <path id="Path_3903" data-name="Path 3903" d="M1968.961,319.8l20.514-11.844V275.945l-20.514,11.844Z" fill="#bc5019"/>
              <path id="Path_3904" data-name="Path 3904" d="M1967.624,285.249v35.53l1.338.773V286.021Z" fill="#ba68c8"/>
              <path id="Path_3905" data-name="Path 3905" d="M1967.624,285.249v35.53l1.338.773V286.021Z" fill="#ef6a1c"/>
            </g>
            <g id="Group_3418" data-name="Group 3418">
              <path id="Path_3906" data-name="Path 3906" d="M1987.305,330.646l-1.219.792.96.554a2.412,2.412,0,0,0,2.184,0l9.743-5.624,8.585-4.957a2.416,2.416,0,0,0,1.093-1.893V286.511a2.234,2.234,0,0,0-.322-1.08l-21.162,12.15Z" fill="#f9c39b"/>
              <path id="Path_3907" data-name="Path 3907" d="M1987.044,296.461l-69.611-40.19c-.6-.348-1.094-.066-1.094.631v33.006a2.418,2.418,0,0,0,1.094,1.894l69.611,40.189c.6.349,1.093.066,1.093-.631v-33A2.42,2.42,0,0,0,1987.044,296.461ZM1986.622,330,1918.19,290.49a1,1,0,0,1-.336-.582V258.264l68.432,39.509a1,1,0,0,1,.336.582Z" fill="#f99746"/>
              <path id="Path_3908" data-name="Path 3908" d="M1987.044,296.461l-69.611-40.19c-.6-.348-1.094-.066-1.094.631v33.006a2.418,2.418,0,0,0,1.094,1.894l69.611,40.189c.6.349,1.093.066,1.093-.631v-33A2.42,2.42,0,0,0,1987.044,296.461ZM1986.622,330,1918.19,290.49a1,1,0,0,1-.336-.582V258.264l68.432,39.509a1,1,0,0,1,.336.582Z" fill="#ef6a1c"/>
              <path id="Path_3909" data-name="Path 3909" d="M2008.329,285.43l-20.543,11.8a2.164,2.164,0,0,0-.743-.767l-69.609-40.189c-.505-.293-.93-.141-1.061.318a2.435,2.435,0,0,1,1.061-1.58l18.326-10.58a2.415,2.415,0,0,1,2.187,0l69.61,40.188A2.227,2.227,0,0,1,2008.329,285.43Z" fill="#f99746"/>
              <path id="Path_3910" data-name="Path 3910" d="M2008.329,285.43l-20.543,11.8a2.164,2.164,0,0,0-.743-.767l-69.609-40.189c-.505-.293-.93-.141-1.061.318a2.435,2.435,0,0,1,1.061-1.58l18.326-10.58a2.415,2.415,0,0,1,2.187,0l69.61,40.188A2.227,2.227,0,0,1,2008.329,285.43Z" fill="#f99746"/>
            </g>
          </g>
          <g id="TV">
            <path id="Shadow-3" data-name="Shadow" d="M1940.984,249.069l-1,.58a.667.667,0,0,0,0,1.263l19.615,11.324a.667.667,0,0,1,0,1.263l-2.947,1.7a.666.666,0,0,0,0,1.262l10.884,6.284a2.415,2.415,0,0,0,2.187,0l2.947-1.7a2.415,2.415,0,0,1,2.187,0l19.711,11.38a2.413,2.413,0,0,0,2.186,0l1-.579a.667.667,0,0,0,0-1.263l-54.583-31.515A2.421,2.421,0,0,0,1940.984,249.069Z" opacity="0.2"/>
            <g id="Group_3419" data-name="Group 3419">
              <path id="Path_3911" data-name="Path 3911" d="M1964.476,249.874l7.428,4.289a1.4,1.4,0,0,1,.6.855l1.846,13.125a.885.885,0,0,1-.4.856l-4.789,2.765a1.1,1.1,0,0,1-1,0l-10.236-5.91a.937.937,0,0,1,0-1.657l3.683-2.127a1.264,1.264,0,0,0,.557-.861l.82-10.509a1.229,1.229,0,0,1,.526-.844A1.071,1.071,0,0,1,1964.476,249.874Z" fill="#37474f"/>
              <path id="Path_3912" data-name="Path 3912" d="M1964.476,249.874l7.428,4.289a1.4,1.4,0,0,1,.6.855l1.846,13.125a.885.885,0,0,1-.4.856l-4.789,2.765a1.1,1.1,0,0,1-1,0l-10.236-5.91a.937.937,0,0,1,0-1.657l3.683-2.127a1.264,1.264,0,0,0,.557-.861l.82-10.509a1.229,1.229,0,0,1,.526-.844A1.071,1.071,0,0,1,1964.476,249.874Z" opacity="0.15"/>
              <path id="Path_3913" data-name="Path 3913" d="M1968.658,269.89v1.993a1.014,1.014,0,0,1-.5-.119l-10.236-5.91a1.068,1.068,0,0,1-.5-.828.99.99,0,0,1,.2-.541h1.676Z" fill="#37474f"/>
              <path id="Path_3914" data-name="Path 3914" d="M1963.54,250.415l7.428,4.288a1.4,1.4,0,0,1,.6.856l1.676,12.142a.887.887,0,0,1-.4.856l-3.683,2.126a1.1,1.1,0,0,1-1,0l-10.236-5.91a.3.3,0,0,1,0-.576l3.683-2.127a1.264,1.264,0,0,0,.557-.861l.82-10.509A.344.344,0,0,1,1963.54,250.415Z" fill="#37474f"/>
              <path id="Path_3915" data-name="Path 3915" d="M1963.54,250.415a.344.344,0,0,0-.557.285l-.559,7.169L1972.7,263.8l-1.138-8.245a1.4,1.4,0,0,0-.6-.856Z" opacity="0.15"/>
              <path id="Path_3916" data-name="Path 3916" d="M1957.923,264.2l3.683-2.127a1.144,1.144,0,0,0,.365-.365l11.2,6.466a.846.846,0,0,1-.33.386l-3.683,2.126a1.1,1.1,0,0,1-1,0l-10.236-5.91A.3.3,0,0,1,1957.923,264.2Z" fill="#455a64"/>
            </g>
            <g id="Group_3420" data-name="Group 3420">
              <path id="Path_3917" data-name="Path 3917" d="M1996.727,275.73l.1-.06a1.541,1.541,0,0,0,.7-1.21V235.6a1.54,1.54,0,0,0-.7-1.208L1943.5,203.725a1.553,1.553,0,0,0-1.4,0l.012-.005a1.544,1.544,0,0,0-.7,1.21v38.863a1.545,1.545,0,0,0,.7,1.21l53.218,30.725A1.542,1.542,0,0,0,1996.727,275.73Z" fill="#455a64"/>
              <path id="Path_3918" data-name="Path 3918" d="M1995.093,236.2l2.229-1.289a1.423,1.423,0,0,1,.2.688V274.46a1.541,1.541,0,0,1-.7,1.21l-.1.06a1.542,1.542,0,0,1-1.4,0l-.238-.137Z" fill="#1a2e35"/>
              <path id="Path_3919" data-name="Path 3919" d="M1996.028,275.327V236.464a1.544,1.544,0,0,0-.7-1.21l-53.218-30.725c-.386-.223-.7-.043-.7.4v38.863a1.545,1.545,0,0,0,.7,1.21l53.218,30.725C1995.716,275.953,1996.028,275.773,1996.028,275.327Z" fill="#37474f"/>
              <path id="Path_3920" data-name="Path 3920" d="M1968.717,258.659l-2.848-1.644c-.213-.123-.386-.036-.386.195a.828.828,0,0,0,.386.641l2.848,1.644c.213.124.386.036.386-.2A.83.83,0,0,0,1968.717,258.659Z" fill="#e1e1e1"/>
              <path id="Path_3921" data-name="Path 3921" d="M1994.239,236.23l-50.957-29.48c-.22-.127-.4-.024-.4.23v34.766a.882.882,0,0,0,.4.691l50.956,29.42c.221.127.4.024.4-.231v-34.7A.882.882,0,0,0,1994.239,236.23Z" fill="#fff"/>
            </g>
          </g>
          <g id="Speaker">
            <path id="Shadow-4" data-name="Shadow" d="M1988.178,284.064l-6.114,3.53a.365.365,0,0,0,0,.692l6.219,3.59a1.326,1.326,0,0,0,1.2,0l6.114-3.529a.366.366,0,0,0,0-.693l-6.219-3.59A1.326,1.326,0,0,0,1988.178,284.064Z" opacity="0.2"/>
            <g id="Speaker-2" data-name="Speaker">
              <path id="Path_3922" data-name="Path 3922" d="M1988.109,277.269l5.573,3.218a1.208,1.208,0,0,1,.547.947v6.546a1.207,1.207,0,0,1-.547.946l-4.035,2.33a1.21,1.21,0,0,1-1.093,0l-5.573-3.218a1.208,1.208,0,0,1-.547-.947v-6.545a1.208,1.208,0,0,1,.547-.947l4.035-2.33A1.21,1.21,0,0,1,1988.109,277.269Z" fill="#37474f"/>
              <path id="Path_3923" data-name="Path 3923" d="M1988.554,283.448l-5.573-3.218c-.3-.174-.547-.033-.547.316v6.545a1.208,1.208,0,0,0,.547.947l5.573,3.218c.3.174.547.033.547-.316v-6.546A1.207,1.207,0,0,0,1988.554,283.448Z" fill="#37474f"/>
              <path id="Path_3924" data-name="Path 3924" d="M1989.647,283.448l4.035-2.33c.3-.174.547-.033.547.316v6.546a1.207,1.207,0,0,1-.547.946l-4.034,2.33c-.3.174-.547.033-.547-.316v-6.546A1.209,1.209,0,0,1,1989.647,283.448Z" fill="#1a2e35"/>
              <path id="Path_3925" data-name="Path 3925" d="M1987.016,277.269l-4.035,2.33a.333.333,0,0,0,0,.631l5.573,3.218a1.21,1.21,0,0,0,1.093,0l4.035-2.33a.333.333,0,0,0,0-.631l-5.573-3.218A1.21,1.21,0,0,0,1987.016,277.269Z" fill="#455a64"/>
              <g id="Group_3421" data-name="Group 3421">
                <path id="Path_3926" data-name="Path 3926" d="M1985.767,288.449a5.075,5.075,0,0,1-2.295-3.976c0-1.464,1.028-2.058,2.3-1.326a5.075,5.075,0,0,1,2.3,3.976C1988.063,288.587,1987.035,289.181,1985.767,288.449Z" fill="#1a2e35"/>
                <path id="Path_3927" data-name="Path 3927" d="M1985.767,288.183a4.566,4.566,0,0,1-2.065-3.578c0-1.317.925-1.851,2.066-1.192a4.567,4.567,0,0,1,2.065,3.578C1987.833,288.308,1986.908,288.842,1985.767,288.183Z" fill="#455a64"/>
                <path id="Path_3928" data-name="Path 3928" d="M1985.768,287.191a2.667,2.667,0,0,1-1.206-2.089c0-.769.54-1.081,1.206-.7a2.663,2.663,0,0,1,1.205,2.088C1986.973,287.263,1986.433,287.575,1985.768,287.191Z" fill="#ef6a1c"/>
                <path id="Path_3929" data-name="Path 3929" d="M1985.768,286.212a.793.793,0,0,1-.359-.621c0-.228.161-.321.359-.206a.792.792,0,0,1,.358.62C1986.126,286.233,1985.965,286.326,1985.768,286.212Z" fill="#f99746"/>
              </g>
              <path id="Path_3930" data-name="Path 3930" d="M1983.031,280.852a.43.43,0,0,1,.2.338c0,.125-.088.175-.2.113a.431.431,0,0,1-.195-.339C1982.836,280.84,1982.923,280.789,1983.031,280.852Z" fill="#1a2e35"/>
              <path id="Path_3931" data-name="Path 3931" d="M1988.393,283.948a.433.433,0,0,1,.2.339c0,.124-.087.175-.2.113a.434.434,0,0,1-.2-.339C1988.2,283.937,1988.285,283.886,1988.393,283.948Z" fill="#1a2e35"/>
              <path id="Path_3932" data-name="Path 3932" d="M1983.031,287.022a.432.432,0,0,1,.2.338c0,.125-.088.176-.2.113a.431.431,0,0,1-.195-.338C1982.836,287.01,1982.923,286.96,1983.031,287.022Z" fill="#1a2e35"/>
              <path id="Path_3933" data-name="Path 3933" d="M1988.393,290.119a.431.431,0,0,1,.2.338c0,.125-.087.175-.2.113a.432.432,0,0,1-.2-.338C1988.2,290.107,1988.285,290.056,1988.393,290.119Z" fill="#1a2e35"/>
            </g>
          </g>
          <g id="Speaker-3" data-name="Speaker">
            <path id="Shadow-5" data-name="Shadow" d="M1937.22,254.579l-6.114,3.53a.365.365,0,0,0,0,.692l6.219,3.59a1.32,1.32,0,0,0,1.2,0l6.114-3.529a.366.366,0,0,0,0-.693l-6.219-3.59A1.326,1.326,0,0,0,1937.22,254.579Z" opacity="0.2"/>
            <g id="Speaker-4" data-name="Speaker">
              <path id="Path_3934" data-name="Path 3934" d="M1937.151,247.784l5.573,3.218a1.208,1.208,0,0,1,.547.947v6.546a1.207,1.207,0,0,1-.547.946l-4.035,2.33a1.21,1.21,0,0,1-1.093,0l-5.573-3.218a1.208,1.208,0,0,1-.547-.947v-6.545a1.208,1.208,0,0,1,.547-.947l4.034-2.33A1.212,1.212,0,0,1,1937.151,247.784Z" fill="#37474f"/>
              <path id="Path_3935" data-name="Path 3935" d="M1937.6,253.963l-5.573-3.218c-.3-.174-.547-.033-.547.316v6.545a1.208,1.208,0,0,0,.547.947l5.573,3.218c.3.174.546.033.546-.316V254.91A1.207,1.207,0,0,0,1937.6,253.963Z" fill="#37474f"/>
              <path id="Path_3936" data-name="Path 3936" d="M1938.689,253.963l4.035-2.33c.3-.174.547-.033.547.316v6.546a1.207,1.207,0,0,1-.547.946l-4.035,2.33c-.3.174-.546.033-.546-.316V254.91A1.208,1.208,0,0,1,1938.689,253.963Z" fill="#1a2e35"/>
              <path id="Path_3937" data-name="Path 3937" d="M1936.057,247.784l-4.034,2.33a.333.333,0,0,0,0,.631l5.573,3.218a1.21,1.21,0,0,0,1.093,0l4.035-2.33a.333.333,0,0,0,0-.631l-5.573-3.218A1.212,1.212,0,0,0,1936.057,247.784Z" fill="#455a64"/>
              <g id="Group_3422" data-name="Group 3422">
                <path id="Path_3938" data-name="Path 3938" d="M1934.809,258.964a5.073,5.073,0,0,1-2.295-3.976c0-1.464,1.027-2.058,2.295-1.326a5.075,5.075,0,0,1,2.3,3.977C1937.1,259.1,1936.077,259.7,1934.809,258.964Z" fill="#1a2e35"/>
                <path id="Path_3939" data-name="Path 3939" d="M1934.809,258.7a4.565,4.565,0,0,1-2.065-3.577c0-1.318.925-1.852,2.065-1.193a4.567,4.567,0,0,1,2.066,3.578C1936.875,258.823,1935.95,259.357,1934.809,258.7Z" fill="#455a64"/>
                <path id="Path_3940" data-name="Path 3940" d="M1934.809,257.706a2.667,2.667,0,0,1-1.206-2.089c0-.769.54-1.081,1.206-.7a2.664,2.664,0,0,1,1.206,2.088C1936.015,257.779,1935.475,258.09,1934.809,257.706Z" fill="#ef6a1c"/>
                <path id="Path_3941" data-name="Path 3941" d="M1934.809,256.727a.794.794,0,0,1-.358-.621c0-.228.161-.321.358-.206a.791.791,0,0,1,.358.62C1935.167,256.748,1935.007,256.841,1934.809,256.727Z" fill="#f99746"/>
              </g>
              <path id="Path_3942" data-name="Path 3942" d="M1932.073,251.367a.431.431,0,0,1,.195.338c0,.125-.087.175-.195.113a.431.431,0,0,1-.195-.338C1931.878,251.355,1931.965,251.3,1932.073,251.367Z" fill="#1a2e35"/>
              <path id="Path_3943" data-name="Path 3943" d="M1937.434,254.464a.43.43,0,0,1,.2.338c0,.125-.088.175-.2.113a.433.433,0,0,1-.195-.339C1937.239,254.452,1937.326,254.4,1937.434,254.464Z" fill="#1a2e35"/>
              <path id="Path_3944" data-name="Path 3944" d="M1932.073,257.537a.431.431,0,0,1,.195.339c0,.124-.087.175-.195.112a.429.429,0,0,1-.195-.338C1931.878,257.525,1931.965,257.475,1932.073,257.537Z" fill="#1a2e35"/>
              <path id="Path_3945" data-name="Path 3945" d="M1937.434,260.634a.432.432,0,0,1,.2.338c0,.125-.088.175-.2.113a.431.431,0,0,1-.195-.338C1937.239,260.622,1937.326,260.572,1937.434,260.634Z" fill="#1a2e35"/>
            </g>
          </g>
        </g>
        <g id="Group_3574" data-name="Group 3574">
          <g id="Group_3498" data-name="Group 3498">
            <ellipse id="Ellipse_380" data-name="Ellipse 380" cx="2.2" cy="3.652" rx="2.2" ry="3.652" transform="matrix(0.99, -0.138, 0.138, 0.99, 2042.298, 230.287)" fill="#03774d"/>
            <ellipse id="Ellipse_381" data-name="Ellipse 381" cx="1.956" cy="3.652" rx="1.956" ry="3.652" transform="matrix(0.99, -0.138, 0.138, 0.99, 2042.298, 230.287)" fill="#ccc"/>
            <g id="Group_3497" data-name="Group 3497">
              <g id="Group_3496" data-name="Group 3496">
                <g id="Group_3432" data-name="Group 3432">
                  <g id="Group_3431" data-name="Group 3431" style="isolation: isolate">
                    <g id="Group_3424" data-name="Group 3424">
                      <path id="Path_3946" data-name="Path 3946" d="M2036.165,236.449l7.677-4.375a.658.658,0,0,1,.591,0l-7.677,4.375a.658.658,0,0,0-.591,0Z" fill="#9f9f9f"/>
                    </g>
                    <g id="Group_3428" data-name="Group 3428" style="isolation: isolate">
                      <g id="Group_3427" data-name="Group 3427" style="isolation: isolate">
                        <g id="Group_3425" data-name="Group 3425">
                          <path id="Path_3947" data-name="Path 3947" d="M2044.585,232.146a1.519,1.519,0,0,0-.152-.075l-7.677,4.375a1.533,1.533,0,0,1,.153.075,2.337,2.337,0,0,1,1.019,1.542l7.677-4.375A2.338,2.338,0,0,0,2044.585,232.146Z" fill="#e5e5e5"/>
                        </g>
                        <g id="Group_3426" data-name="Group 3426">
                          <path id="Path_3948" data-name="Path 3948" d="M2037.928,238.063l7.677-4.375a1.69,1.69,0,0,1,.022.262.732.732,0,0,1-.3.67l-7.677,4.375a.729.729,0,0,0,.3-.67,1.578,1.578,0,0,0-.022-.262Z" fill="#9f9f9f"/>
                        </g>
                      </g>
                    </g>
                    <g id="Group_3430" data-name="Group 3430">
                      <g id="Group_3429" data-name="Group 3429">
                        <path id="Path_3949" data-name="Path 3949" d="M2036.909,236.521a2.3,2.3,0,0,1,1.041,1.8c0,.663-.471.931-1.048.6a2.3,2.3,0,0,1-1.042-1.8C2035.862,236.456,2036.332,236.188,2036.909,236.521Z" fill="#f0910a"/>
                      </g>
                    </g>
                  </g>
                </g>
                <g id="Group_3449" data-name="Group 3449">
                  <g id="Group_3448" data-name="Group 3448" style="isolation: isolate">
                    <g id="Group_3435" data-name="Group 3435">
                      <g id="Group_3434" data-name="Group 3434" style="isolation: isolate">
                        <g id="Group_3433" data-name="Group 3433">
                          <path id="Path_3950" data-name="Path 3950" d="M2037.328,239.473l2.23-1.3a.269.269,0,0,1-.112.245l-2.23,1.295a.266.266,0,0,0,.112-.244Z" fill="#ebebeb"/>
                        </g>
                      </g>
                    </g>
                    <g id="Group_3438" data-name="Group 3438">
                      <g id="Group_3437" data-name="Group 3437" style="isolation: isolate">
                        <g id="Group_3436" data-name="Group 3436">
                          <path id="Path_3951" data-name="Path 3951" d="M2034.955,235.807l2.23-1.3a.272.272,0,0,1,.272.027l-2.23,1.3a.272.272,0,0,0-.272-.027Z" fill="#c9c9c9"/>
                        </g>
                      </g>
                    </g>
                    <g id="Group_3440" data-name="Group 3440">
                      <g id="Group_3439" data-name="Group 3439">
                        <path id="Path_3952" data-name="Path 3952" d="M2037.333,237.489l2.23-1.3-.006,1.983-2.23,1.3Z" fill="#f5f5f5"/>
                      </g>
                    </g>
                    <g id="Group_3442" data-name="Group 3442">
                      <g id="Group_3441" data-name="Group 3441">
                        <path id="Path_3953" data-name="Path 3953" d="M2035.227,235.834l2.23-1.3,1.726,1-2.23,1.3Z" fill="#dcdcdc"/>
                      </g>
                    </g>
                    <g id="Group_3445" data-name="Group 3445">
                      <g id="Group_3444" data-name="Group 3444" style="isolation: isolate">
                        <g id="Group_3443" data-name="Group 3443">
                          <path id="Path_3954" data-name="Path 3954" d="M2036.953,236.83l2.23-1.295a.834.834,0,0,1,.38.658l-2.23,1.3a.838.838,0,0,0-.38-.659Z" fill="#ebebeb"/>
                        </g>
                      </g>
                    </g>
                    <g id="Group_3447" data-name="Group 3447">
                      <g id="Group_3446" data-name="Group 3446">
                        <path id="Path_3955" data-name="Path 3955" d="M2036.953,236.83a.838.838,0,0,1,.38.659l-.005,1.984c0,.242-.173.34-.383.218l-1.726-1a.838.838,0,0,1-.381-.659l.006-1.983c0-.242.172-.34.383-.218Z" fill="#bfbfbf"/>
                      </g>
                    </g>
                  </g>
                </g>
                <g id="Group_3457" data-name="Group 3457">
                  <g id="Group_3456" data-name="Group 3456" style="isolation: isolate">
                    <g id="Group_3451" data-name="Group 3451">
                      <g id="Group_3450" data-name="Group 3450">
                        <path id="Path_3956" data-name="Path 3956" d="M2037.214,223.615l1.462-.849-.013,13.216-1.462.849Z" fill="#969696"/>
                      </g>
                    </g>
                    <g id="Group_3453" data-name="Group 3453">
                      <g id="Group_3452" data-name="Group 3452">
                        <path id="Path_3957" data-name="Path 3957" d="M2035.52,222.637l1.462-.849,1.694.978-1.462.849Z" fill="#c1c1c1"/>
                      </g>
                    </g>
                    <g id="Group_3455" data-name="Group 3455">
                      <g id="Group_3454" data-name="Group 3454">
                        <path id="Path_3958" data-name="Path 3958" d="M2037.214,223.615l-.013,13.216-1.694-.978.013-13.216Z" fill="#dfdfdf"/>
                      </g>
                    </g>
                  </g>
                </g>
                <g id="Group_3461" data-name="Group 3461" style="isolation: isolate">
                  <g id="Group_3460" data-name="Group 3460" clip-path="url(#clip-path)">
                    <g id="Group_3459" data-name="Group 3459" style="isolation: isolate">
                      <g id="Group_3458" data-name="Group 3458">
                        <path id="Path_3959" data-name="Path 3959" d="M2023.725,222.647l12.747-7.407c-.961.732-1.254,2.281-1.411,3.7l-12.747,7.407c.158-1.421.45-2.97,1.411-3.7Z" fill="#9f9f9f"/>
                      </g>
                    </g>
                  </g>
                </g>
                <g id="Group_3477" data-name="Group 3477">
                  <g id="Group_3476" data-name="Group 3476" style="isolation: isolate">
                    <g id="Group_3466" data-name="Group 3466" style="isolation: isolate">
                      <g id="Group_3465" data-name="Group 3465" clip-path="url(#clip-path-2)">
                        <g id="Group_3464" data-name="Group 3464" style="isolation: isolate">
                          <g id="Group_3462" data-name="Group 3462">
                            <path id="Path_3961" data-name="Path 3961" d="M2025.367,222.238l11.192-6.5a2.718,2.718,0,0,1,2.054-.216l-11.192,6.5a2.718,2.718,0,0,0-2.054.216Z" fill="#011824"/>
                          </g>
                          <g id="Group_3463" data-name="Group 3463">
                            <path id="Path_3962" data-name="Path 3962" d="M2027.421,222.022l11.192-6.5a5.081,5.081,0,0,1,1.314.546l-11.192,6.5a5.065,5.065,0,0,0-1.314-.546Z" fill="#011d2b"/>
                          </g>
                        </g>
                      </g>
                    </g>
                    <g id="Group_3471" data-name="Group 3471" style="isolation: isolate">
                      <g id="Group_3470" data-name="Group 3470" clip-path="url(#clip-path-3)">
                        <g id="Group_3469" data-name="Group 3469" style="isolation: isolate">
                          <g id="Group_3467" data-name="Group 3467">
                            <path id="Path_3964" data-name="Path 3964" d="M2028.735,222.568l11.192-6.5a10.345,10.345,0,0,1,4.137,5.2l-11.192,6.5a10.345,10.345,0,0,0-4.137-5.2Z" fill="#011d2b"/>
                          </g>
                          <g id="Group_3468" data-name="Group 3468">
                            <path id="Path_3965" data-name="Path 3965" d="M2032.872,227.772l11.192-6.5a8.524,8.524,0,0,1,.58,2.967,3.315,3.315,0,0,1-1.38,3.036l-11.192,6.5a3.315,3.315,0,0,0,1.381-3.036,8.526,8.526,0,0,0-.581-2.967Z" fill="#9f9f9f"/>
                          </g>
                        </g>
                      </g>
                    </g>
                    <g id="Group_3475" data-name="Group 3475">
                      <g id="Group_3472" data-name="Group 3472">
                        <path id="Path_3967" data-name="Path 3967" d="M2028.735,222.568a10.4,10.4,0,0,1,4.718,8.171c-.009,3-2.134,4.215-4.749,2.706a10.4,10.4,0,0,1-4.717-8.171C2024,222.269,2026.122,221.059,2028.735,222.568Z" fill="#d9d9d9"/>
                      </g>
                      <g id="Group_3473" data-name="Group 3473">
                        <path id="Path_3968" data-name="Path 3968" d="M2030.828,233.653a3.92,3.92,0,0,1-1.9-.59,9.925,9.925,0,0,1-4.5-7.788c.005-1.8.842-2.915,2.183-2.915a3.921,3.921,0,0,1,1.9.59,9.922,9.922,0,0,1,4.5,7.787C2033.006,232.536,2032.17,233.653,2030.828,233.653Z" fill="#03774d"/>
                      </g>
                      <g id="Group_3474" data-name="Group 3474">
                        <path id="Path_3969" data-name="Path 3969" d="M2030.828,233.432a3.7,3.7,0,0,1-1.793-.56,9.678,9.678,0,0,1-4.386-7.6c0-1.663.756-2.7,1.962-2.7a3.7,3.7,0,0,1,1.793.561,9.68,9.68,0,0,1,4.387,7.6C2032.786,232.4,2032.034,233.432,2030.828,233.432Z" fill="#00a26d"/>
                      </g>
                    </g>
                  </g>
                </g>
                <g id="Group_3495" data-name="Group 3495">
                  <g id="Group_3494" data-name="Group 3494" style="isolation: isolate">
                    <g id="Group_3482" data-name="Group 3482" style="isolation: isolate">
                      <g id="Group_3481" data-name="Group 3481" clip-path="url(#clip-path-4)">
                        <g id="Group_3480" data-name="Group 3480" style="isolation: isolate">
                          <g id="Group_3478" data-name="Group 3478">
                            <path id="Path_3970" data-name="Path 3970" d="M2023.615,222.457l12.746-7.408a3.6,3.6,0,0,1,2.419-.192l-12.746,7.408a3.591,3.591,0,0,0-2.419.192Z" fill="#e5e5e5"/>
                          </g>
                          <g id="Group_3479" data-name="Group 3479">
                            <path id="Path_3971" data-name="Path 3971" d="M2026.034,222.265l12.746-7.408a5.529,5.529,0,0,1,1.435.592l-12.746,7.407a5.519,5.519,0,0,0-1.435-.591Z" fill="#fff"/>
                          </g>
                        </g>
                      </g>
                    </g>
                    <g id="Group_3486" data-name="Group 3486" style="isolation: isolate">
                      <g id="Group_3485" data-name="Group 3485" clip-path="url(#clip-path-5)">
                        <g id="Group_3484" data-name="Group 3484" style="isolation: isolate">
                          <g id="Group_3483" data-name="Group 3483">
                            <path id="Path_3973" data-name="Path 3973" d="M2027.469,222.856l12.746-7.407a9.23,9.23,0,0,1,2.664,2.446l-12.746,7.407a9.243,9.243,0,0,0-2.664-2.446Z" fill="#fff"/>
                          </g>
                        </g>
                      </g>
                    </g>
                    <g id="Group_3491" data-name="Group 3491" style="isolation: isolate">
                      <g id="Group_3490" data-name="Group 3490" clip-path="url(#clip-path-6)">
                        <g id="Group_3489" data-name="Group 3489">
                          <g id="Group_3487" data-name="Group 3487">
                            <path id="Path_3975" data-name="Path 3975" d="M2030.133,225.3l12.746-7.407a14.4,14.4,0,0,1,1.817,3.356l-12.746,7.408a14.442,14.442,0,0,0-1.817-3.357Z" fill="#e5e5e5"/>
                          </g>
                          <g id="Group_3488" data-name="Group 3488">
                            <path id="Path_3976" data-name="Path 3976" d="M2031.95,228.659l12.746-7.408a9.9,9.9,0,0,1,.681,3.574l-12.746,7.407a9.9,9.9,0,0,0-.681-3.573Z" fill="#e5e5e5"/>
                          </g>
                        </g>
                      </g>
                    </g>
                    <g id="Group_3493" data-name="Group 3493">
                      <g id="Group_3492" data-name="Group 3492">
                        <path id="Path_3978" data-name="Path 3978" d="M2027.469,222.856a9.243,9.243,0,0,1,2.664,2.446,12.1,12.1,0,0,1,2.5,6.93l-.158-.092a11.74,11.74,0,0,0-2.428-6.739,8.92,8.92,0,0,0-2.577-2.365,4.006,4.006,0,0,0-3.743-.389c-.961.732-1.253,2.281-1.411,3.7l-.156-.111c.162-1.445.46-3.025,1.457-3.781A4.124,4.124,0,0,1,2027.469,222.856Z" fill="#fff"/>
                      </g>
                    </g>
                  </g>
                </g>
              </g>
            </g>
          </g>
          <g id="Group_3573" data-name="Group 3573">
            <ellipse id="Ellipse_382" data-name="Ellipse 382" cx="4.87" cy="2.934" rx="4.87" ry="2.934" transform="matrix(0.138, -0.99, 0.99, 0.138, 1873.81, 217.59)" fill="#03774d"/>
            <ellipse id="Ellipse_383" data-name="Ellipse 383" cx="4.87" cy="2.608" rx="4.87" ry="2.608" transform="matrix(0.138, -0.99, 0.99, 0.138, 1874.456, 217.679)" fill="#ccc"/>
            <g id="Group_3572" data-name="Group 3572">
              <g id="Group_3571" data-name="Group 3571">
                <g id="Group_3507" data-name="Group 3507">
                  <g id="Group_3506" data-name="Group 3506" style="isolation: isolate">
                    <g id="Group_3499" data-name="Group 3499">
                      <path id="Path_3979" data-name="Path 3979" d="M1889.139,216.966l-10.236-5.833a.879.879,0,0,0-.788,0l10.236,5.834a.877.877,0,0,1,.788,0Z" fill="#9f9f9f"/>
                    </g>
                    <g id="Group_3503" data-name="Group 3503" style="isolation: isolate">
                      <g id="Group_3502" data-name="Group 3502" style="isolation: isolate">
                        <g id="Group_3500" data-name="Group 3500">
                          <path id="Path_3980" data-name="Path 3980" d="M1877.912,211.23a1.661,1.661,0,0,1,.2-.1l10.236,5.834a1.675,1.675,0,0,0-.2.1,3.111,3.111,0,0,0-1.359,2.055l-10.235-5.833A3.108,3.108,0,0,1,1877.912,211.23Z" fill="#e5e5e5"/>
                        </g>
                        <g id="Group_3501" data-name="Group 3501">
                          <path id="Path_3981" data-name="Path 3981" d="M1886.788,219.118l-10.235-5.833a2.1,2.1,0,0,0-.03.35.976.976,0,0,0,.407.893l10.235,5.834a.976.976,0,0,1-.406-.894,2.232,2.232,0,0,1,.029-.35Z" fill="#9f9f9f"/>
                        </g>
                      </g>
                    </g>
                    <g id="Group_3505" data-name="Group 3505">
                      <g id="Group_3504" data-name="Group 3504">
                        <path id="Path_3982" data-name="Path 3982" d="M1888.147,217.063a3.059,3.059,0,0,0-1.388,2.4c0,.884.628,1.241,1.4.8a3.059,3.059,0,0,0,1.388-2.405C1889.543,216.975,1888.917,216.619,1888.147,217.063Z" fill="#f0910a"/>
                      </g>
                    </g>
                  </g>
                </g>
                <g id="Group_3524" data-name="Group 3524">
                  <g id="Group_3523" data-name="Group 3523" style="isolation: isolate">
                    <g id="Group_3510" data-name="Group 3510">
                      <g id="Group_3509" data-name="Group 3509" style="isolation: isolate">
                        <g id="Group_3508" data-name="Group 3508">
                          <path id="Path_3983" data-name="Path 3983" d="M1887.589,221l-2.973-1.728a.355.355,0,0,0,.148.326l2.973,1.728a.355.355,0,0,1-.148-.326Z" fill="#ebebeb"/>
                        </g>
                      </g>
                    </g>
                    <g id="Group_3513" data-name="Group 3513">
                      <g id="Group_3512" data-name="Group 3512" style="isolation: isolate">
                        <g id="Group_3511" data-name="Group 3511">
                          <path id="Path_3984" data-name="Path 3984" d="M1890.752,216.111l-2.973-1.728a.36.36,0,0,0-.362.035l2.973,1.728a.36.36,0,0,1,.362-.035Z" fill="#c9c9c9"/>
                        </g>
                      </g>
                    </g>
                    <g id="Group_3515" data-name="Group 3515">
                      <g id="Group_3514" data-name="Group 3514">
                        <path id="Path_3985" data-name="Path 3985" d="M1887.581,218.353l-2.973-1.728.007,2.645,2.973,1.728Z" fill="#f5f5f5"/>
                      </g>
                    </g>
                    <g id="Group_3517" data-name="Group 3517">
                      <g id="Group_3516" data-name="Group 3516">
                        <path id="Path_3986" data-name="Path 3986" d="M1890.39,216.146l-2.973-1.728-2.3,1.329,2.973,1.728Z" fill="#dcdcdc"/>
                      </g>
                    </g>
                    <g id="Group_3520" data-name="Group 3520">
                      <g id="Group_3519" data-name="Group 3519" style="isolation: isolate">
                        <g id="Group_3518" data-name="Group 3518">
                          <path id="Path_3987" data-name="Path 3987" d="M1888.088,217.475l-2.973-1.728a1.116,1.116,0,0,0-.507.878l2.973,1.728a1.118,1.118,0,0,1,.507-.878Z" fill="#ebebeb"/>
                        </g>
                      </g>
                    </g>
                    <g id="Group_3522" data-name="Group 3522">
                      <g id="Group_3521" data-name="Group 3521">
                        <path id="Path_3988" data-name="Path 3988" d="M1888.088,217.475a1.118,1.118,0,0,0-.507.878l.008,2.645c0,.323.229.453.51.291l2.3-1.329a1.117,1.117,0,0,0,.507-.878l-.008-2.645c0-.323-.229-.453-.51-.291Z" fill="#bfbfbf"/>
                      </g>
                    </g>
                  </g>
                </g>
                <g id="Group_3532" data-name="Group 3532">
                  <g id="Group_3531" data-name="Group 3531" style="isolation: isolate">
                    <g id="Group_3526" data-name="Group 3526">
                      <g id="Group_3525" data-name="Group 3525">
                        <path id="Path_3989" data-name="Path 3989" d="M1887.741,199.854l-1.949-1.133.017,17.621,1.949,1.133Z" fill="#969696"/>
                      </g>
                    </g>
                    <g id="Group_3528" data-name="Group 3528">
                      <g id="Group_3527" data-name="Group 3527">
                        <path id="Path_3990" data-name="Path 3990" d="M1890,198.55l-1.949-1.133-2.258,1.3,1.949,1.133Z" fill="#c1c1c1"/>
                      </g>
                    </g>
                    <g id="Group_3530" data-name="Group 3530">
                      <g id="Group_3529" data-name="Group 3529">
                        <path id="Path_3991" data-name="Path 3991" d="M1887.741,199.854l.017,17.621,2.258-1.3L1890,198.55Z" fill="#dfdfdf"/>
                      </g>
                    </g>
                  </g>
                </g>
                <g id="Group_3536" data-name="Group 3536" style="isolation: isolate">
                  <g id="Group_3535" data-name="Group 3535" clip-path="url(#clip-path-7)">
                    <g id="Group_3534" data-name="Group 3534" style="isolation: isolate">
                      <g id="Group_3533" data-name="Group 3533">
                        <path id="Path_3992" data-name="Path 3992" d="M1905.725,198.564l-16.995-9.877c1.282.976,1.671,3.042,1.881,4.936l17,9.877c-.211-1.9-.6-3.961-1.882-4.936Z" fill="#9f9f9f"/>
                      </g>
                    </g>
                  </g>
                </g>
                <g id="Group_3552" data-name="Group 3552">
                  <g id="Group_3551" data-name="Group 3551" style="isolation: isolate">
                    <g id="Group_3541" data-name="Group 3541" style="isolation: isolate">
                      <g id="Group_3540" data-name="Group 3540" clip-path="url(#clip-path-8)">
                        <g id="Group_3539" data-name="Group 3539" style="isolation: isolate">
                          <g id="Group_3537" data-name="Group 3537">
                            <path id="Path_3994" data-name="Path 3994" d="M1903.536,198.018l-14.923-8.672a3.629,3.629,0,0,0-2.738-.288l14.922,8.672a3.632,3.632,0,0,1,2.739.288Z" fill="#011824"/>
                          </g>
                          <g id="Group_3538" data-name="Group 3538">
                            <path id="Path_3995" data-name="Path 3995" d="M1900.8,197.73l-14.922-8.672a6.775,6.775,0,0,0-1.752.728l14.922,8.672a6.8,6.8,0,0,1,1.752-.728Z" fill="#011d2b"/>
                          </g>
                        </g>
                      </g>
                    </g>
                    <g id="Group_3546" data-name="Group 3546" style="isolation: isolate">
                      <g id="Group_3545" data-name="Group 3545" clip-path="url(#clip-path-9)">
                        <g id="Group_3544" data-name="Group 3544" style="isolation: isolate">
                          <g id="Group_3542" data-name="Group 3542">
                            <path id="Path_3997" data-name="Path 3997" d="M1899.045,198.458l-14.922-8.672a13.8,13.8,0,0,0-5.516,6.938l14.922,8.672a13.8,13.8,0,0,1,5.516-6.938Z" fill="#011d2b"/>
                          </g>
                          <g id="Group_3543" data-name="Group 3543">
                            <path id="Path_3998" data-name="Path 3998" d="M1893.529,205.4l-14.922-8.672a11.369,11.369,0,0,0-.774,3.957c.006,1.989.708,3.389,1.841,4.048L1894.6,213.4c-1.132-.659-1.835-2.059-1.84-4.048a11.367,11.367,0,0,1,.773-3.957Z" fill="#9f9f9f"/>
                          </g>
                        </g>
                      </g>
                    </g>
                    <g id="Group_3550" data-name="Group 3550">
                      <g id="Group_3547" data-name="Group 3547">
                        <path id="Path_4000" data-name="Path 4000" d="M1899.045,198.458a13.856,13.856,0,0,0-6.289,10.9c.011,4,2.844,5.621,6.331,3.608a13.865,13.865,0,0,0,6.289-10.9C1905.365,198.06,1902.53,196.447,1899.045,198.458Z" fill="#d9d9d9"/>
                      </g>
                      <g id="Group_3548" data-name="Group 3548">
                        <path id="Path_4001" data-name="Path 4001" d="M1896.255,213.238a5.221,5.221,0,0,0,2.537-.787,13.231,13.231,0,0,0,6-10.383c-.006-2.4-1.122-3.887-2.911-3.887a5.221,5.221,0,0,0-2.537.787,13.231,13.231,0,0,0-6,10.383C1893.35,211.749,1894.466,213.238,1896.255,213.238Z" fill="#03774d"/>
                      </g>
                      <g id="Group_3549" data-name="Group 3549">
                        <path id="Path_4002" data-name="Path 4002" d="M1896.255,212.944a4.928,4.928,0,0,0,2.39-.748,12.9,12.9,0,0,0,5.849-10.127c-.006-2.217-1.009-3.594-2.617-3.594a4.933,4.933,0,0,0-2.39.747,12.906,12.906,0,0,0-5.849,10.128C1893.644,211.567,1894.647,212.944,1896.255,212.944Z" fill="#00a26d"/>
                      </g>
                    </g>
                  </g>
                </g>
                <g id="Group_3570" data-name="Group 3570">
                  <g id="Group_3569" data-name="Group 3569" style="isolation: isolate">
                    <g id="Group_3557" data-name="Group 3557" style="isolation: isolate">
                      <g id="Group_3556" data-name="Group 3556" clip-path="url(#clip-path-10)">
                        <g id="Group_3555" data-name="Group 3555" style="isolation: isolate">
                          <g id="Group_3553" data-name="Group 3553">
                            <path id="Path_4003" data-name="Path 4003" d="M1905.873,198.31l-16.995-9.877a4.8,4.8,0,0,0-3.226-.256l17,9.877a4.79,4.79,0,0,1,3.225.256Z" fill="#e5e5e5"/>
                          </g>
                          <g id="Group_3554" data-name="Group 3554">
                            <path id="Path_4004" data-name="Path 4004" d="M1902.648,198.054l-17-9.877a7.384,7.384,0,0,0-1.913.789l16.995,9.877a7.355,7.355,0,0,1,1.914-.789Z" fill="#fff"/>
                          </g>
                        </g>
                      </g>
                    </g>
                    <g id="Group_3561" data-name="Group 3561" style="isolation: isolate">
                      <g id="Group_3560" data-name="Group 3560" clip-path="url(#clip-path-11)">
                        <g id="Group_3559" data-name="Group 3559" style="isolation: isolate">
                          <g id="Group_3558" data-name="Group 3558">
                            <path id="Path_4006" data-name="Path 4006" d="M1900.734,198.843l-16.995-9.877a12.309,12.309,0,0,0-3.552,3.262l16.995,9.876a12.29,12.29,0,0,1,3.552-3.261Z" fill="#fff"/>
                          </g>
                        </g>
                      </g>
                    </g>
                    <g id="Group_3566" data-name="Group 3566" style="isolation: isolate">
                      <g id="Group_3565" data-name="Group 3565" clip-path="url(#clip-path-12)">
                        <g id="Group_3564" data-name="Group 3564">
                          <g id="Group_3562" data-name="Group 3562">
                            <path id="Path_4008" data-name="Path 4008" d="M1897.182,202.1l-16.995-9.876a19.182,19.182,0,0,0-2.423,4.475l16.995,9.876a19.2,19.2,0,0,1,2.423-4.475Z" fill="#e5e5e5"/>
                          </g>
                          <g id="Group_3563" data-name="Group 3563">
                            <path id="Path_4009" data-name="Path 4009" d="M1894.759,206.579l-16.995-9.876a13.2,13.2,0,0,0-.907,4.765l16.995,9.876a13.2,13.2,0,0,1,.907-4.765Z" fill="#e5e5e5"/>
                          </g>
                        </g>
                      </g>
                    </g>
                    <g id="Group_3568" data-name="Group 3568">
                      <g id="Group_3567" data-name="Group 3567">
                        <path id="Path_4011" data-name="Path 4011" d="M1900.734,198.843a12.29,12.29,0,0,0-3.552,3.261,16.115,16.115,0,0,0-3.33,9.24l.21-.123a15.649,15.649,0,0,1,3.237-8.986,11.906,11.906,0,0,1,3.436-3.153,5.34,5.34,0,0,1,4.99-.518c1.282.975,1.671,3.041,1.882,4.936l.208-.148c-.216-1.926-.613-4.033-1.942-5.042A5.5,5.5,0,0,0,1900.734,198.843Z" fill="#fff"/>
                      </g>
                    </g>
                  </g>
                </g>
              </g>
            </g>
          </g>
          <path id="Path_4012" data-name="Path 4012" d="M2037.193,203.016a24.223,24.223,0,1,0,24.224,24.223A24.251,24.251,0,0,0,2037.193,203.016Zm1.253,45.9v-3.094h-2.506v3.094a21.744,21.744,0,0,1-20.425-20.426h3.093v-2.506h-3.093a21.744,21.744,0,0,1,20.425-20.426v3.094h2.506V205.56a21.746,21.746,0,0,1,20.426,20.426h-3.094v2.506h3.094A21.746,21.746,0,0,1,2038.446,248.918Z" fill="#fff"/>
          <path id="Path_4013" data-name="Path 4013" d="M1891.109,175.451a29.235,29.235,0,1,0,29.235,29.235A29.269,29.269,0,0,0,1891.109,175.451Zm1.512,55.4v-3.733H1889.6v3.733a26.244,26.244,0,0,1-24.652-24.652h3.734v-3.024h-3.734a26.244,26.244,0,0,1,24.652-24.652v3.734h3.024v-3.734a26.244,26.244,0,0,1,24.652,24.652h-3.734V206.2h3.734A26.244,26.244,0,0,1,1892.621,230.85Z" fill="#fff"/>
        </g>
        <g id="Group_3577" data-name="Group 3577">
          <path id="Path_4014" data-name="Path 4014" d="M1888.65,284.722s-4.064-19.775,3.583-32.962c0,0,6.644,5.684,4.3,32.077S1888.65,284.722,1888.65,284.722Z" fill="#03774d"/>
          <path id="Path_4015" data-name="Path 4015" d="M1894.444,286s10.958-3.311,18.037-12.989C1912.481,273.009,1903.258,273.408,1894.444,286Z" fill="#03774d"/>
          <path id="Path_4016" data-name="Path 4016" d="M1889.1,285.35s-10.958-3.31-18.036-12.988C1871.062,272.362,1880.283,272.759,1889.1,285.35Z" fill="#03774d"/>
          <path id="Path_4017" data-name="Path 4017" d="M1897.537,285.415s5.618-14.729.932-30.283C1898.469,255.132,1891.11,265.615,1897.537,285.415Z" fill="#00a26d"/>
          <path id="Path_4018" data-name="Path 4018" d="M1898.081,285.691s8.277-7.909,10.21-19.743C1908.291,265.948,1900.247,270.476,1898.081,285.691Z" fill="#00a26d"/>
          <path id="Path_4019" data-name="Path 4019" d="M1898.11,285.191s6.728-11.558,5.1-25.523C1903.206,259.668,1895.653,267.336,1898.11,285.191Z" fill="#03774d"/>
          <path id="Path_4020" data-name="Path 4020" d="M1887.379,286.056s-5.619-14.728-.933-30.283C1886.446,255.773,1893.805,266.256,1887.379,286.056Z" fill="#00a26d"/>
          <path id="Path_4021" data-name="Path 4021" d="M1893.93,289.922s6.831-14.209,3.461-30.1C1897.391,259.823,1889.181,269.654,1893.93,289.922Z" fill="url(#linear-gradient-4)"/>
          <path id="Path_4022" data-name="Path 4022" d="M1892.352,289.831s-7.58-13.823-5.065-29.871C1887.287,259.96,1896.011,269.339,1892.352,289.831Z" fill="url(#linear-gradient-5)"/>
          <path id="Path_4023" data-name="Path 4023" d="M1886.833,286.333s-8.275-7.909-10.208-19.742C1876.625,266.591,1884.668,271.117,1886.833,286.333Z" fill="#00a26d"/>
          <path id="Path_4024" data-name="Path 4024" d="M1886.805,285.832s-6.728-11.558-5.1-25.523C1881.709,260.309,1889.262,267.978,1886.805,285.832Z" fill="#03774d"/>
          <g id="Group_3576" data-name="Group 3576">
            <g id="Group_3575" data-name="Group 3575">
              <path id="Path_4025" data-name="Path 4025" d="M1899.937,284.757l-7.543-.225v-.005l-.092,0-.09,0v.005l-7.544.225s-1.287,14.208,2.99,25.473h9.29C1901.224,298.965,1899.937,284.757,1899.937,284.757Z" fill="#f9c39b"/>
              <path id="Path_4026" data-name="Path 4026" d="M1898.578,304.769c-3.341,3.472-10.811-.484-11.242-10.08-.426-9.482,9.54-8.736,12.7-8.262-.049-1.062-.1-1.67-.1-1.67l-7.543-.225v-.005l-.092,0-.09,0v.005l-7.544.225s-1.287,14.208,2.99,25.473h9.29A41.6,41.6,0,0,0,1898.578,304.769Z" fill="#f99746"/>
              <path id="Path_4027" data-name="Path 4027" d="M1897.62,308.3c-14.03,1.6-11.95-21.764-11.768-23.576l-1.184.035s-1.287,14.208,2.99,25.473h9.29C1897.19,309.6,1897.412,308.949,1897.62,308.3Z" fill="#ef6a1c"/>
              <path id="Path_4028" data-name="Path 4028" d="M1884.668,284.757s-.039.446-.082,1.241h15.434c-.042-.795-.083-1.241-.083-1.241L1895,284.61l-8.408.089Z" fill="#ef6a1c"/>
              <path id="Rectangle_2371" data-name="Rectangle 2371" d="M.137,0H16.462A.138.138,0,0,1,16.6.138v1.65a.138.138,0,0,1-.138.138H.138A.138.138,0,0,1,0,1.788V.137A.137.137,0,0,1,.137,0Z" transform="translate(1883.933 283.377)" fill="#f9c39b"/>
              <path id="Path_4029" data-name="Path 4029" d="M1900.394,283.377h-16.323a.138.138,0,0,0-.138.138v.322h16.6v-.322A.138.138,0,0,0,1900.394,283.377Z" fill="#fff"/>
            </g>
          </g>
        </g>
        <g id="Group_3580" data-name="Group 3580">
          <path id="Path_4030" data-name="Path 4030" d="M2022.3,313.957s-4.065-19.775,3.583-32.962c0,0,6.644,5.684,4.3,32.077S2022.3,313.957,2022.3,313.957Z" fill="#03774d"/>
          <path id="Path_4031" data-name="Path 4031" d="M2028.089,315.233s10.959-3.311,18.037-12.989C2046.126,302.244,2036.9,302.643,2028.089,315.233Z" fill="#03774d"/>
          <path id="Path_4032" data-name="Path 4032" d="M2022.743,314.585s-10.958-3.31-18.035-12.988C2004.708,301.6,2013.928,301.994,2022.743,314.585Z" fill="#03774d"/>
          <path id="Path_4033" data-name="Path 4033" d="M2031.183,314.65s5.618-14.73.931-30.283C2032.114,284.367,2024.755,294.85,2031.183,314.65Z" fill="#00a26d"/>
          <path id="Path_4034" data-name="Path 4034" d="M2031.727,314.926s8.276-7.909,10.21-19.743C2041.937,295.183,2033.893,299.711,2031.727,314.926Z" fill="#00a26d"/>
          <path id="Path_4035" data-name="Path 4035" d="M2031.756,314.426s6.727-11.558,5.095-25.523C2036.851,288.9,2029.3,296.571,2031.756,314.426Z" fill="#03774d"/>
          <path id="Path_4036" data-name="Path 4036" d="M2021.024,315.291s-5.618-14.728-.932-30.283C2020.092,285.008,2027.451,295.491,2021.024,315.291Z" fill="#00a26d"/>
          <path id="Path_4037" data-name="Path 4037" d="M2027.576,319.157s6.83-14.209,3.461-30.1C2031.037,289.058,2022.827,298.889,2027.576,319.157Z" fill="url(#linear-gradient-6)"/>
          <path id="Path_4038" data-name="Path 4038" d="M2026,319.066s-7.58-13.823-5.064-29.871C2020.933,289.2,2029.656,298.573,2026,319.066Z" fill="url(#linear-gradient-7)"/>
          <path id="Path_4039" data-name="Path 4039" d="M2020.478,315.568s-8.274-7.91-10.208-19.743C2010.27,295.825,2018.314,300.352,2020.478,315.568Z" fill="#00a26d"/>
          <path id="Path_4040" data-name="Path 4040" d="M2020.451,315.067s-6.728-11.558-5.1-25.523C2015.354,289.544,2022.907,297.213,2020.451,315.067Z" fill="#03774d"/>
          <g id="Group_3579" data-name="Group 3579">
            <g id="Group_3578" data-name="Group 3578">
              <path id="Path_4041" data-name="Path 4041" d="M2033.582,313.992l-7.542-.225v-.005l-.092,0-.091,0v.005l-7.543.225s-1.287,14.208,2.989,25.473h9.29C2034.869,328.2,2033.582,313.992,2033.582,313.992Z" fill="#f9c39b"/>
              <path id="Path_4042" data-name="Path 4042" d="M2032.223,334c-3.34,3.472-10.811-.484-11.242-10.08-.426-9.482,9.54-8.736,12.706-8.262-.05-1.062-.1-1.67-.1-1.67l-7.542-.225v-.005l-.092,0-.091,0v.005l-7.543.225s-1.287,14.208,2.989,25.473h9.29A41.663,41.663,0,0,0,2032.223,334Z" fill="#f99746"/>
              <path id="Path_4043" data-name="Path 4043" d="M2031.265,337.533c-14.03,1.6-11.949-21.764-11.768-23.576l-1.183.035s-1.287,14.208,2.989,25.473h9.29C2030.835,338.83,2031.058,338.184,2031.265,337.533Z" fill="#ef6a1c"/>
              <path id="Path_4044" data-name="Path 4044" d="M2018.314,313.992s-.04.446-.083,1.241h15.434c-.042-.8-.083-1.241-.083-1.241l-4.936-.147-8.407.089Z" fill="#ef6a1c"/>
              <path id="Rectangle_2372" data-name="Rectangle 2372" d="M.137,0H16.462A.138.138,0,0,1,16.6.138v1.65a.138.138,0,0,1-.138.138H.138A.138.138,0,0,1,0,1.788V.137A.137.137,0,0,1,.137,0Z" transform="translate(2017.578 312.612)" fill="#f9c39b"/>
              <path id="Path_4045" data-name="Path 4045" d="M2034.04,312.612h-16.324a.138.138,0,0,0-.138.138v.322h16.6v-.322A.137.137,0,0,0,2034.04,312.612Z" fill="#fff"/>
            </g>
          </g>
        </g>
      </g>
      <path id="Path_4046" data-name="Path 4046" d="M1980.595,392.824l-132.017-75.861v4.176L1980.595,397Z" fill="#03774d"/>
    </g>
  </g>
</svg>
