<svg xmlns="http://www.w3.org/2000/svg" width="50" height="110.714" viewBox="0 0 50 110.714">
  <g id="Group_4793" data-name="Group 4793" transform="translate(9973 8001.001)">
    <path id="Path_4568" data-name="Path 4568" d="M164.643,8H136.071a5.364,5.364,0,0,0-5.357,5.357V59.046l-4.929,4.929A19.617,19.617,0,0,0,120,77.941a20.008,20.008,0,0,0,.268,3.246l2.779,16.664a32.712,32.712,0,0,0,1.895,6.771l2.2,5.507v8.584h25v-8.586a50.006,50.006,0,0,0,3.571-18.6V83h8.929A5.364,5.364,0,0,0,170,77.643V13.357A5.364,5.364,0,0,0,164.643,8ZM148.571,115.143H130.714v-3.571h17.857Zm3.571-23.614A46.421,46.421,0,0,1,149.125,108H130.137l-1.882-4.7a29.268,29.268,0,0,1-1.687-6.032L123.789,80.6a16.6,16.6,0,0,1-.218-2.661A16.069,16.069,0,0,1,128.311,66.5l2.4-2.4v8.189A10.725,10.725,0,0,0,141.429,83h1.329l4.864-16.211a2.309,2.309,0,0,1,4.521.662Zm14.286-13.886a1.789,1.789,0,0,1-1.786,1.786h-8.929V67.452A5.881,5.881,0,0,0,144.2,65.762l-2.784,9.279V72.286h-3.559v3.571h3.314l-1.036,3.454a7.156,7.156,0,0,1-5.85-7.025V13.357a1.789,1.789,0,0,1,1.786-1.786h28.571a1.789,1.789,0,0,1,1.786,1.786Z" transform="translate(-10093 -8009.001)" fill="#00a859"/>
    <path id="Path_4569" data-name="Path 4569" d="M205.392,50.784A5.392,5.392,0,1,0,200,45.392,5.4,5.4,0,0,0,205.392,50.784Zm0-7.189a1.8,1.8,0,1,1-1.8,1.8A1.8,1.8,0,0,1,205.392,43.595Z" transform="translate(-10155.175 -8033.812)" fill="#00a859"/>
    <path id="Path_4570" data-name="Path 4570" d="M200,232h3.595v3.595H200Z" transform="translate(-10155.151 -8183.012)" fill="#00a859"/>
    <path id="Path_4571" data-name="Path 4571" d="M264,232h3.595v3.595H264Z" transform="translate(-10204.873 -8183.012)" fill="#00a859"/>
    <path id="Path_4572" data-name="Path 4572" d="M296,232h3.595v3.595H296Z" transform="translate(-10229.784 -8183.012)" fill="#00a859"/>
    <path id="Path_4573" data-name="Path 4573" d="M232,232h3.595v3.595H232Z" transform="translate(-10180.013 -8183.012)" fill="#00a859"/>
    <path id="Path_4574" data-name="Path 4574" d="M200,264h3.582v3.595H200Z" transform="translate(-10155.151 -8207.87)" fill="#00a859"/>
    <path id="Path_4575" data-name="Path 4575" d="M296,296h3.582v3.595H296Z" transform="translate(-10229.784 -8232.729)" fill="#00a859"/>
    <path id="Path_4576" data-name="Path 4576" d="M296,264h3.582v3.595H296Z" transform="translate(-10229.784 -8207.87)" fill="#00a859"/>
    <path id="Path_4577" data-name="Path 4577" d="M212.581,104a12.581,12.581,0,1,0,12.581,12.581A12.6,12.6,0,0,0,212.581,104Zm8.805,10.784h-3.744a5.387,5.387,0,0,0-3.264-3.264v-3.744a9.015,9.015,0,0,1,7.008,7.008Zm-8.805,3.595a1.8,1.8,0,1,1,1.8-1.8A1.8,1.8,0,0,1,212.581,118.379Zm-1.8-10.6v3.744a5.387,5.387,0,0,0-3.264,3.264h-3.744A9.015,9.015,0,0,1,210.784,107.776Zm-7.008,10.6h3.744a5.387,5.387,0,0,0,3.264,3.264v3.744A9.015,9.015,0,0,1,203.776,118.379Zm10.6,7.008v-3.744a5.387,5.387,0,0,0,3.264-3.264h3.744a9.015,9.015,0,0,1-7.008,7.008Z" transform="translate(-10155.352 -8083.613)" fill="#00a859"/>
  </g>
</svg>
