<svg xmlns="http://www.w3.org/2000/svg" xmlns:xlink="http://www.w3.org/1999/xlink" width="320" height="254.096" viewBox="0 0 320 254.096">
  <defs>
    <linearGradient id="linear-gradient" x1="0.026" y1="3.069" x2="-4.221" y2="26.078" gradientUnits="objectBoundingBox">
      <stop offset="0" stop-color="#c0f9e2"/>
      <stop offset="0.152" stop-color="#b9f9de"/>
      <stop offset="0.371" stop-color="#a6f9d6"/>
      <stop offset="0.63" stop-color="#86f9c8"/>
      <stop offset="0.918" stop-color="#5bf9b5"/>
      <stop offset="1" stop-color="#4ef9b0"/>
    </linearGradient>
    <linearGradient id="linear-gradient-2" x1="0.671" y1="0.136" x2="0.158" y2="1.386" xlink:href="#linear-gradient"/>
  </defs>
  <g id="Group_4509" data-name="Group 4509" transform="translate(-331.723 -1781.847)">
    <g id="Group_4400" data-name="Group 4400">
      <path id="Path_4351" data-name="Path 4351" d="M548.5,1797.209H578.32a7.681,7.681,0,1,0,0-15.362H548.5a7.681,7.681,0,1,0,0,15.362Z" fill="url(#linear-gradient)"/>
      <path id="Path_4352" data-name="Path 4352" d="M639.985,1963.111H628.727c-9.406,0-17.042-6.934-17.042-16.248a15.355,15.355,0,0,1,5-11.327,16.946,16.946,0,0,1,10.526-4.8h7.849a16.664,16.664,0,1,0,0-33.327h-24.8a120.48,120.48,0,0,0-22.657-54.817h6.392a14.115,14.115,0,1,0,0-28.229H558.02a120.53,120.53,0,0,0-67.6-20.613,122.472,122.472,0,0,0-13.48.75h-64.4a11.841,11.841,0,0,0,0,23.682h4.943a121.751,121.751,0,0,0-27.734,29.355H360.279a17.692,17.692,0,0,0,0,35.384h13.305a121.666,121.666,0,0,0-3.113,48.6H357.29a25.566,25.566,0,1,0,0,51.132h32.785q.817,1.208,1.663,2.394a9.272,9.272,0,0,0,1.436,18.432H396.3a9.136,9.136,0,0,1,7.729,9.029,8.99,8.99,0,0,1-2.715,6.45,7.248,7.248,0,0,1-1.247.982H380.223v.026c-.166-.011-.331-.026-.5-.026a8,8,0,0,0,0,16c.169,0,.334-.015.5-.025v.025h110v0l.194,0a120.521,120.521,0,0,0,63.953-18.255h35.7a9.863,9.863,0,1,0,0-19.726H578.479a121.769,121.769,0,0,0,10.858-13.252h50.648a10.8,10.8,0,1,0,0-21.6Z" fill="url(#linear-gradient-2)"/>
    </g>
    <g id="Group_4508" data-name="Group 4508">
      <g id="Group_4401" data-name="Group 4401">
        <rect id="Rectangle_2427" data-name="Rectangle 2427" width="127.365" height="104.679" transform="translate(466.268 1809.318)" fill="#fff"/>
        <path id="Path_4353" data-name="Path 4353" d="M584.233,1899.107v17.587H466.273v-55.088h10.518v16.741h11.993v-27.28h13.232v17.71h3.017v-21.14h13.232v39.638H535v23.114h6.252V1900.1h14.365v6.088h8.246v-27.246h10.186v20.168Z" fill="#e6e6e6"/>
        <path id="Path_4354" data-name="Path 4354" d="M600.67,1804.388h0v-2.108H459.233v3.519h0V1914H455.67v7.038h145v-5.384h0Zm-134.4,4.93H593.633V1914H466.268Z" fill="#b3b3b3"/>
      </g>
      <g id="Group_4408" data-name="Group 4408">
        <rect id="Rectangle_2428" data-name="Rectangle 2428" width="41.569" height="40.344" rx="14.57" transform="translate(386.673 1825.017)" fill="#b3b3b3"/>
        <path id="Rectangle_2429" data-name="Rectangle 2429" d="M13.307,0H24.66A13.308,13.308,0,0,1,37.968,13.308V23.541A13.308,13.308,0,0,1,24.66,36.848H13.308A13.308,13.308,0,0,1,0,23.541V13.307A13.307,13.307,0,0,1,13.307,0Z" transform="translate(388.474 1826.764)" fill="#fff"/>
        <g id="Group_4404" data-name="Group 4404">
          <g id="Group_4402" data-name="Group 4402">
            <path id="Path_4355" data-name="Path 4355" d="M406.6,1830.446a.861.861,0,1,1,.862.862A.862.862,0,0,1,406.6,1830.446Z" fill="#b3b3b3"/>
            <path id="Path_4356" data-name="Path 4356" d="M413.545,1831.664a.861.861,0,1,1,.334,1.171A.861.861,0,0,1,413.545,1831.664Z" fill="#b3b3b3"/>
            <path id="Path_4357" data-name="Path 4357" d="M419.5,1836.4a.862.862,0,1,1-.256,1.191A.861.861,0,0,1,419.5,1836.4Z" fill="#b3b3b3"/>
            <path id="Path_4358" data-name="Path 4358" d="M422.446,1843.718a.862.862,0,1,1-.861.861A.861.861,0,0,1,422.446,1843.718Z" fill="#b3b3b3"/>
            <path id="Path_4359" data-name="Path 4359" d="M420.94,1852.216a.861.861,0,1,1-1.217,0A.86.86,0,0,1,420.94,1852.216Z" fill="#b3b3b3"/>
            <circle id="Ellipse_400" data-name="Ellipse 400" cx="0.861" cy="0.861" r="0.861" transform="translate(414.063 1857.387)" fill="#b3b3b3"/>
            <path id="Path_4360" data-name="Path 4360" d="M406.6,1860.435a.861.861,0,1,1,.862.861A.862.862,0,0,1,406.6,1860.435Z" fill="#b3b3b3"/>
          </g>
          <g id="Group_4403" data-name="Group 4403">
            <path id="Path_4361" data-name="Path 4361" d="M401.343,1831.664a.861.861,0,1,0-.335,1.171A.861.861,0,0,0,401.343,1831.664Z" fill="#b3b3b3"/>
            <path id="Path_4362" data-name="Path 4362" d="M395.39,1836.4a.861.861,0,1,0,.257,1.191A.86.86,0,0,0,395.39,1836.4Z" fill="#b3b3b3"/>
            <path id="Path_4363" data-name="Path 4363" d="M392.442,1843.718a.862.862,0,1,0,.861.861A.86.86,0,0,0,392.442,1843.718Z" fill="#b3b3b3"/>
            <path id="Path_4364" data-name="Path 4364" d="M393.947,1852.216a.861.861,0,1,0,1.218,0A.862.862,0,0,0,393.947,1852.216Z" fill="#b3b3b3"/>
            <path id="Path_4365" data-name="Path 4365" d="M399.354,1857.639a.861.861,0,1,0,1.218,0A.862.862,0,0,0,399.354,1857.639Z" fill="#b3b3b3"/>
          </g>
        </g>
        <g id="Group_4407" data-name="Group 4407">
          <path id="Path_4366" data-name="Path 4366" d="M407.225,1844.579a.861.861,0,1,1,.861.862A.861.861,0,0,1,407.225,1844.579Z" fill="#b3b3b3"/>
          <g id="Group_4405" data-name="Group 4405">
            <rect id="Rectangle_2430" data-name="Rectangle 2430" width="0.235" height="10.761" transform="translate(407.969 1833.818)" fill="#b3b3b3"/>
          </g>
          <g id="Group_4406" data-name="Group 4406">
            <rect id="Rectangle_2431" data-name="Rectangle 2431" width="7.251" height="0.705" transform="matrix(0.787, -0.617, 0.617, 0.787, 407.759, 1844.285)" fill="#b3b3b3"/>
          </g>
        </g>
      </g>
      <g id="Group_4413" data-name="Group 4413">
        <path id="Path_4367" data-name="Path 4367" d="M561.562,1977.691c-.667,1.583-7.071,3.052-16.575,4.351-1.675.23-3.445.453-5.3.672-32.347,3.811-120.942,5.939-126.4,4.815-7.546-1.553-22.562-77.465-22.562-77.465s44.212-.766,79.324-1.14c12.012-.126,53.794-.444,61.542-.444C543.589,1908.48,562.639,1975.127,561.562,1977.691Z" fill="#e6e6e6"/>
        <path id="Path_4368" data-name="Path 4368" d="M549.325,1967.947s-13.574-52.015-14.554-56.386a3.433,3.433,0,0,0-3.137-2.834c2.386-.229,4.122-.246,4.122-.246a11.021,11.021,0,0,1,10.377,7.861c3.287,10.249,9.819,29.94,15.951,49.191C561.774,1965.526,549.325,1967.947,549.325,1967.947Z" fill="#b3b3b3"/>
        <path id="Path_4369" data-name="Path 4369" d="M631.6,2014c-2.164,13.048-16.32,21.357-30.839,21.357H572l2.229-75.382s27.458-8.952,34.349-1.072c6.038,6.9,22.411,34.231,23.272,50.4A21.511,21.511,0,0,1,631.6,2014Z" fill="#b3b3b3"/>
        <path id="Path_4370" data-name="Path 4370" d="M555.257,1967.361s38.794-18.625,46.142-6.459c3.9,6.46,14.638,32.233,15.431,48.406.77,15.716-13.705,26.049-28.6,26.049H561.789Z" fill="#999"/>
        <path id="Path_4371" data-name="Path 4371" d="M606.372,2022.659q-.645.514-1.321,1.014a59.972,59.972,0,0,1-21.271,9.457,83.783,83.783,0,0,1-20.47,2.3l-12.575,0h-.17l-59.525.016-34.119.01h-.505l0-.015-1.184-6.2-10.8-62.475s149.513-3.368,161.671,3.574c5.645,3.223,8.848,16.575,10.625,31.288C617.668,2009.474,613.662,2016.827,606.372,2022.659Z" fill="#e6e6e6"/>
        <path id="Path_4372" data-name="Path 4372" d="M606.372,2022.659q-.645.514-1.321,1.014a59.972,59.972,0,0,1-21.271,9.457,83.783,83.783,0,0,1-20.47,2.3l-12.575,0h-.17l-59.525.016-34.119.01-.507-.015-1.184-6.2c20.913-4.042,49.851-8.148,80.038-7.83C564.1,2021.726,588.237,2021.687,606.372,2022.659Z" fill="#b3b3b3"/>
        <g id="Group_4411" data-name="Group 4411">
          <path id="Path_4373" data-name="Path 4373" d="M504.04,1909.3a5.612,5.612,0,0,1-1.075-.557h7.874s-3.021-1.711-4.986-2.583-6.774,0-6.774,0-17.815-2.651-27.8-2.4c-2.679.067-21.733-3.04-27.223-1.94-2.894.581-5.515,1.039-7.2,1.315a1.8,1.8,0,0,1-2.076-1.615l0-.018a47.848,47.848,0,0,0-.761-5.619l-6.7-3.244c-1.385.735-2.679,1.424-3.365,1.79.032.371.055.735.067,1.094a19.356,19.356,0,0,1-.459,4.929,7.328,7.328,0,0,1-5.3,5.432l-.033.009c5.025,4.327,30.586,11.867,31.02,9.656.584-2.974,49.834-6.809,49.834-6.809v.006a5.1,5.1,0,0,1,1.713,1.01c.34.491,3.089.416,3.6.491S504.645,1909.491,504.04,1909.3Z" fill="#ffb27d"/>
          <path id="Path_4374" data-name="Path 4374" d="M521.522,2018.666s5.194,9.373,7.5,10.43c1.828.839,6.774,1.67,9.529,3.792,3.2,2.461-2.338,2.331-3.555,2.331,0,0-6.192-.737-9.126-.675-1.69.036-6.727.675-6.727.675a6.344,6.344,0,0,1-6.248-7.5c.007-.036.014-.072.022-.108.718-3.622,1.276-8.294,1.276-8.294Z" fill="#fff"/>
          <path id="Path_4375" data-name="Path 4375" d="M456.791,1907.346c-.109,2.436-.787,5.107-2.957,6.516-3.427,2.224-2.559,8.027-2.538,10.306l-14.667-21.012a72.26,72.26,0,0,1,8.931-1.573c2.962-.324,10.752.567,10.752.567A20.661,20.661,0,0,1,456.791,1907.346Z" fill="#fff"/>
          <path id="Path_4376" data-name="Path 4376" d="M498.833,2022.335s5.177,5.7,7.478,6.761c1.643.755,6.069,1.194,8.7,3.108,2.782,2.021.651,3.015-.966,3.015,0,0-7.4.589-12.11-.739-1.284-.362-4.8.358-6.052.636a25.339,25.339,0,0,1-3.182.233c-2.872-.367-3.005-3.122-2.734-6.087a16.412,16.412,0,0,1,.235-1.654c.719-3.622,1.151-6.99,1.151-6.99Z" fill="#fff"/>
          <path id="Path_4377" data-name="Path 4377" d="M524.344,2019.2a16.684,16.684,0,0,1-3.514,1.855c-2.589.864-7.415.463-7.415.463s-12.32-23.91-14.921-29.958c-2.464-5.734-4.528-18.305-4.528-18.305-1.881-.1-15.956,1.893-28.322.555-6.579-.711-12.143-2.336-14.028-5.66-5.434-9.574,11.923-20.25,11.923-20.25s33.936,6.119,41.393,11.537C512,1964.57,524.344,2019.2,524.344,2019.2Z" fill="#ef6a1c"/>
          <path id="Path_4378" data-name="Path 4378" d="M500.681,2022.053a19.553,19.553,0,0,1-4.347,1.672,16.016,16.016,0,0,1-6.448-.513s-1.895-11.454-9.665-29.781c-1.949-4.6-1.649-14.026-1.91-14.144,0,0-42.452.363-47.383-9.174a22.2,22.2,0,0,1-1.592-7.327c.516-7.542,10.306-10.453,10.306-10.453s44.252,7.829,51.848,13.05S500.681,2022.053,500.681,2022.053Z" fill="#f99746"/>
          <path id="Path_4379" data-name="Path 4379" d="M467.111,1948.211c-2.579,4.6-5.263,8.247-15.136,9.956a145.382,145.382,0,0,0-22.7,5.83c-2.635.8-10.211-8.862-13.821-17.479a130.867,130.867,0,0,1-6.491-22.35c-.312-15.491,11.461-19.21,11.467-19.251,0,0,8.742,5.948,13.5,3.881,4.691-2.036,2.76-5.54,2.7-5.642l12.616,12.392a156.227,156.227,0,0,0,6.266,18.77C460.7,1946.285,467.821,1946.944,467.111,1948.211Z" fill="#fff"/>
          <path id="Path_4380" data-name="Path 4380" d="M434.012,1895.882a47.848,47.848,0,0,1,.761,5.619c-5.688-.186-10.192-6.086-10.225-6.458.686-.365,1.377-1.67,2.762-2.405Z" fill="#ed985f"/>
          <path id="Path_4381" data-name="Path 4381" d="M435.339,1899.506s-11.969-.342-11.642-7.795-1-12.516,6.659-12.613,9.014,2.812,9.509,5.326S438.46,1899.4,435.339,1899.506Z" fill="#ffb27d"/>
          <path id="Path_4382" data-name="Path 4382" d="M424.343,1894.725a5.6,5.6,0,0,1,.864-4.117s-.88-2.427.053-2.976,1.427,1.526,1.835,1.134a10.209,10.209,0,0,0,2.759-4.665c.547-2.428,8.852-.723,9.832-.434a1.216,1.216,0,0,0,.62-.028,2.721,2.721,0,0,0,1.089-4.656c-.1-.087-.189-.173-.272-.257-.878-.887-6.99-6.85-13.981-3.954s-7.5,6.494-6.683,9.405S421.236,1894.138,424.343,1894.725Z" fill="#1a2e35"/>
          <path id="Path_4383" data-name="Path 4383" d="M432.823,1894.925a3.907,3.907,0,0,0,2.4,1.366,1.585,1.585,0,0,0,1.973-.978A13.739,13.739,0,0,0,432.823,1894.925Z" fill="#fff"/>
          <path id="Path_4384" data-name="Path 4384" d="M408.353,1918.35s-1.669,2.656,3.154,9.638,25.951,27.177,28.058,25.479,4.746-4.33-.151-10.815-20.558-28.686-20.558-28.686Z" fill="#ffb27d"/>
          <path id="Path_4385" data-name="Path 4385" d="M430.434,1927.912c-3.988,2.226-6.918,4-13.023,3.99a41.019,41.019,0,0,1-8.384-.908s-4.721-19.2,4.1-23.157c3.038-1.362,7.3-2.92,7.3-2.92S437.577,1923.926,430.434,1927.912Z" fill="#fff"/>
          <g id="Group_4410" data-name="Group 4410">
            <path id="Path_4386" data-name="Path 4386" d="M458.363,1930.019l-4.967-.577a.776.776,0,0,1-.571-1.121l3.789-10.961a1.31,1.31,0,0,1,1.272-.907l4.967.576a.778.778,0,0,1,.572,1.122l-3.789,10.96A1.312,1.312,0,0,1,458.363,1930.019Z" fill="#1a2e35"/>
            <path id="Path_4387" data-name="Path 4387" d="M459.338,1930.132l-4.966-.576a.778.778,0,0,1-.572-1.122l3.789-10.961a1.312,1.312,0,0,1,1.273-.907l4.967.577a.776.776,0,0,1,.571,1.121l-3.789,10.961A1.31,1.31,0,0,1,459.338,1930.132Z" fill="#455a64"/>
            <g id="Group_4409" data-name="Group 4409">
              <path id="Path_4388" data-name="Path 4388" d="M458.319,1917.757a.488.488,0,0,1,.451-.32c.168.021.24.2.159.393a.485.485,0,0,1-.45.319C458.311,1918.129,458.239,1917.953,458.319,1917.757Z" fill="#fff"/>
              <path id="Path_4389" data-name="Path 4389" d="M459.194,1917.9a.29.29,0,0,1,.268-.19c.1.012.143.116.1.233a.29.29,0,0,1-.268.19C459.189,1918.118,459.146,1918.014,459.194,1917.9Z" fill="#fff"/>
            </g>
          </g>
          <path id="Path_4390" data-name="Path 4390" d="M454.039,1924.386s-15.53,15.495-17.41,18.014,1.689,11.2,2.313,11.134,7.609-6.381,10.132-11.644,7.163-12.89,7.163-12.89Z" fill="#ffb27d"/>
          <path id="Path_4391" data-name="Path 4391" d="M456.066,1930.944s3.245-2.137,4.912-3.16,3.036-7.629,2.269-7.52-7.2,2.9-9.351,6.114S456.066,1930.944,456.066,1930.944Z" fill="#ffb27d"/>
          <path id="Path_4392" data-name="Path 4392" d="M453,1926.909a12.891,12.891,0,0,0,.512-2.684c-.122-.384,1.221-2.339,1.506-3.071s.654-1.858,1.044-1.352a2.819,2.819,0,0,1,0,2.339c-.281.794.452,2.027.452,2.027l-.916,1.565Z" fill="#ffb27d"/>
        </g>
        <g id="Group_4412" data-name="Group 4412">
          <path id="Path_4393" data-name="Path 4393" d="M485.929,2014.684c-2.332,12.654-15.129,20.674-28.246,20.674H431.237l2.069-76.05s25.232-8.284,31.57-.4c5.553,6.9,20.609,34.231,21.4,50.4A23.226,23.226,0,0,1,485.929,2014.684Z" fill="#b3b3b3"/>
          <path id="Path_4394" data-name="Path 4394" d="M470.8,2015.213a23.2,23.2,0,0,1-7.418,12.54v0a29,29,0,0,1-7.511,4.822,32.5,32.5,0,0,1-10.934,2.726l-.592.036c-.157.007-.316.014-.472.018-.263.011-.526.019-.788.022l-.42,0H416.214l0-.012-1.527.018c-2.722.031-5.566.061-8.2.083l-1.307.011H404.7c-2.607.017-4.912.025-6.556.014a46.2,46.2,0,0,1-6.54-.474,30.624,30.624,0,0,1-7.29-1.961c-.4-.165-.786-.337-1.168-.521s-.774-.381-1.149-.586a22.991,22.991,0,0,1-2.868-1.84,24.771,24.771,0,0,1-6.1-6.739,35.955,35.955,0,0,1-3.171-6.5,59.3,59.3,0,0,1-2.726-10.136c-.019-.1-.038-.193-.055-.291q-.476-2.617-.825-5.508-.158-1.317-.292-2.691-.473-4.857-.63-10.452c-.01-.324-.017-.652-.025-.982l-.005-.219q-.1-4.45-.011-9.378.038-2.16.111-4.415.031-1.026.073-2.07.2-5.246.582-10.992.171-2.583.375-5.27.843-11.076,2.268-23.982c1.07-9.78,2.3-16.616,4.1-18.174,2.649-2.3,8.175-3.221,12.02-3.591h0c2.385-.23,4.12-.247,4.12-.247.085,0,.171,0,.256,0,.061,0,.121,0,.182.006.146.006.292.016.437.028.08.006.163.014.243.023.055.005.108.011.16.019.081.009.162.02.241.033.143.02.285.045.426.071.1.019.194.039.29.061a.191.191,0,0,1,.025,0c.07.016.14.031.21.05.134.031.266.067.4.1.09.027.179.053.267.081l.185.061a10.688,10.688,0,0,1,2.1.977,11.468,11.468,0,0,1,4.955,6.363c3.07,9.6,8.55,26.754,14.253,44.7.028.09.057.18.085.271q.492,1.545.985,3.1c.033.1.065.21.1.314l.052.159c.321-.136.654-.277,1-.419a.194.194,0,0,1,.035-.015c1.367-.57,2.915-1.195,4.585-1.831h0c.866-.329,1.762-.665,2.688-1,2.61-.941,5.426-1.872,8.282-2.672,1.266-.358,2.543-.69,3.811-.984,1.628-.379,3.243-.7,4.819-.938.054-.01.1-.016.136-.022.187-.028.372-.053.557-.08,1.11-.152,2.2-.264,3.248-.324h0c5.378-.31,9.832.7,11.87,4.084a63.463,63.463,0,0,1,2.942,5.794,184.413,184.413,0,0,1,7.819,20.463c2.435,7.731,4.352,15.785,4.67,22.29A23.19,23.19,0,0,1,470.8,2015.213Z" fill="#999"/>
          <path id="Path_4395" data-name="Path 4395" d="M402.509,1967.947s-13.573-52.015-14.553-56.386a3.434,3.434,0,0,0-3.137-2.834c2.386-.229,4.121-.246,4.121-.246a11.021,11.021,0,0,1,10.378,7.861c3.287,10.249,9.341,29.15,15.472,48.4C414.48,1964.736,402.509,1967.947,402.509,1967.947Z" fill="#b3b3b3"/>
        </g>
      </g>
      <g id="Group_4419" data-name="Group 4419">
        <g id="Group_4418" data-name="Group 4418">
          <path id="Path_4396" data-name="Path 4396" d="M519.966,1930.013s1.491,3.868,11.3,4.761,14.349,1.528,20.41-4.505a66.563,66.563,0,0,0,5.1-5.438l-1.056-2s-10.2,6.237-12.205,6.252C531.1,1929.178,518.97,1923.552,519.966,1930.013Z" fill="#f2a470"/>
          <path id="Path_4397" data-name="Path 4397" d="M525.538,1926.559l9.627,1.9a4.749,4.749,0,0,1-1.774,4.888C530.777,1935.481,525.538,1926.559,525.538,1926.559Z" fill="#fff"/>
          <path id="Path_4398" data-name="Path 4398" d="M546.4,1934.794s-17.672,24.489-13.561,28.18,7.826,3.093,11.9,2.3,9.5-21.066,9.18-23.48S551.264,1931.974,546.4,1934.794Z" fill="#f2a470"/>
          <path id="Path_4399" data-name="Path 4399" d="M546.4,1934.794a72.43,72.43,0,0,0,1.892,15.223c1.8,6.656,4.223,15.854,4.223,15.854h4.827s-2.052-25.173-1.931-28.244S551.925,1929.476,546.4,1934.794Z" fill="#f2a470"/>
          <path id="Path_4400" data-name="Path 4400" d="M539.5,1945.152s-1.042,10.871,9.932,13.206c0,0-.973,7.823-4.979,8.427s-17.159-.117-19.813-1.507C524.64,1965.278,531.555,1953.334,539.5,1945.152Z" fill="#04603d"/>
          <path id="Path_4401" data-name="Path 4401" d="M557.153,1963.548s2.238,2.955,3.445,3.116,3.861.724,3.619,1.771-4.476,1.526-7.064,1.045-5.243.909-4.64-3.609l-1.223-4.624a11.392,11.392,0,0,0,5.611-.879l.237,2.514Z" fill="#fff"/>
          <path id="Path_4402" data-name="Path 4402" d="M533.756,1934.38c-.142-3.089-.652-5.053-3.532-6.177-4.261-1.665-12.68-1.85-17.953,1.354-.9.546-3.294,6.568-1.315,19.616,1.308,8.628,2.843,17.479,13.2,16.415s15.837-1.664,15.356-4.03-4.871-12.978-5.2-17.016C534.134,1942.239,533.912,1937.784,533.756,1934.38Z" fill="#fff"/>
          <path id="Path_4403" data-name="Path 4403" d="M539.544,1934.794s-17.672,24.489-13.562,28.18,7.827,3.093,11.905,2.3,9.5-21.066,9.179-23.48S544.41,1931.974,539.544,1934.794Z" fill="#ffb27d"/>
          <path id="Path_4404" data-name="Path 4404" d="M539.544,1934.794a72.43,72.43,0,0,0,1.892,15.223c1.8,6.656,4.223,15.854,4.223,15.854h4.826s-2.051-25.173-1.93-28.244S545.071,1929.476,539.544,1934.794Z" fill="#ffb27d"/>
          <path id="Path_4405" data-name="Path 4405" d="M532.646,1945.152s-1.042,10.871,9.932,13.206c0,0-.973,7.823-4.979,8.427s-17.159-.117-19.814-1.507C517.785,1965.278,524.7,1953.334,532.646,1945.152Z" fill="#00a26d"/>
          <path id="Path_4406" data-name="Path 4406" d="M550.3,1963.548s2.238,2.955,3.444,3.116,3.862.724,3.62,1.771-4.476,1.526-7.064,1.045-5.244.909-4.64-3.609l-1.223-4.624a11.392,11.392,0,0,0,5.611-.879l.237,2.514Z" fill="#fff"/>
          <g id="Group_4414" data-name="Group 4414">
            <path id="Path_4407" data-name="Path 4407" d="M557.787,1920.979l-9.092,1.047c-.265.03-.463.159-.483.313l-.677,5.292c-.029.232.346.41.739.349l8.85-1.368c.241-.037.417-.155.444-.3l.919-4.972C558.528,1921.116,558.178,1920.934,557.787,1920.979Z" fill="#333"/>
            <path id="Path_4408" data-name="Path 4408" d="M558.577,1920.887l-9.093,1.047c-.265.031-.463.159-.483.313l-.676,5.293c-.03.232.346.409.739.348l8.85-1.367c.24-.037.417-.156.443-.3l.919-4.972C559.318,1921.025,558.967,1920.842,558.577,1920.887Z" fill="#666"/>
          </g>
          <path id="Path_4409" data-name="Path 4409" d="M559.117,1922.113a2.578,2.578,0,0,0-1.407-.866c-1.064-.131-1.107.968-.657,1.773.482.863,1.5,1.525,1.7,1.389A2.45,2.45,0,0,0,559.117,1922.113Z" fill="#ffb27d"/>
          <path id="Path_4410" data-name="Path 4410" d="M559.117,1922.113a2.655,2.655,0,0,1-.572,3.092Z" fill="#ffb27d"/>
          <path id="Path_4411" data-name="Path 4411" d="M512.328,1932.528s1.491,3.869,11.306,4.761,14.348,1.528,20.409-4.5a66.759,66.759,0,0,0,5.1-5.438l-1.057-2s-10.2,6.237-12.2,6.252C523.461,1931.693,511.332,1926.067,512.328,1932.528Z" fill="#ffb27d"/>
          <path id="Path_4412" data-name="Path 4412" d="M553.688,1924.51c-.37-.072-1.164-.371-1.968-.592a1.652,1.652,0,0,0,.581-.651c.144-.454.239-.6-.239-.456s-2.151.911-2.151.911l0,0a4.436,4.436,0,0,0-1.827,1.622l1.057,2a4.869,4.869,0,0,1,2.391-.42c1.052.191,3.491,0,4.017-.862S554.31,1924.629,553.688,1924.51Z" fill="#ffb27d"/>
          <path id="Path_4413" data-name="Path 4413" d="M520.953,1926.385a11,11,0,0,0-7.109,1.733c-3.862,2.333-2.735,7.886-2.735,7.886l4.5,1.685s-1.329-7.419,5.278-8.867Z" fill="#fff"/>
          <g id="Group_4417" data-name="Group 4417">
            <path id="Path_4414" data-name="Path 4414" d="M524.974,1929.842a1.93,1.93,0,0,0,1.329-2.931,4.979,4.979,0,0,1-.519-1.225c-.036-.127-.067-.252-.1-.379a9.967,9.967,0,0,1-.114-3.035c.007-.075.016-.146.025-.216a11.346,11.346,0,0,1,.248-1.388l-6.055-3.139a19.868,19.868,0,0,1-.175,4.258,17.138,17.138,0,0,1-1.205,4.3h0c-.189,2.425,2.693,2.95,5.128,3.639a3.317,3.317,0,0,0,1.352.124Z" fill="#ffb27d"/>
            <path id="Path_4415" data-name="Path 4415" d="M525.784,1925.686c-2.585.234-6.167-3.9-6.167-3.9a9.838,9.838,0,0,1,5.957.486,9.9,9.9,0,0,0,.115,3.034C525.717,1925.433,525.748,1925.559,525.784,1925.686Z" fill="#e8945b"/>
            <g id="Group_4416" data-name="Group 4416">
              <path id="Path_4416" data-name="Path 4416" d="M527.372,1923.39s-6.894,1.787-9.244-3.7c-2.536-5.923.3-10.216,2.635-10.5,4.665-.558,7.365,1.233,8.176,3.117S531.175,1922.438,527.372,1923.39Z" fill="#ffb27d"/>
              <path id="Path_4417" data-name="Path 4417" d="M524.656,1920.294s.285.712,2.1.322c0,0,1.527-.328,1.358-1.132A5.013,5.013,0,0,0,524.656,1920.294Z" fill="#fff"/>
              <g id="Group_4415" data-name="Group 4415">
                <path id="Path_4418" data-name="Path 4418" d="M519.349,1921.611a12.8,12.8,0,0,1-.7-3.639s-1.786-2.3-.736-2.863,1.608.8,1.849.531.636-4.767,1.907-4.618,5.967,1.627,8.038-.142-2.9-8.743-11.391-6.1S511.519,1916.866,519.349,1921.611Z" fill="#1a2e35"/>
                <path id="Path_4419" data-name="Path 4419" d="M514.122,1908.462a2.984,2.984,0,0,1,.037-1.964,3.139,3.139,0,0,0,.455,1.631C515.055,1908.632,514.122,1908.462,514.122,1908.462Z" fill="#1a2e35"/>
                <path id="Path_4420" data-name="Path 4420" d="M514.3,1907.661a1.693,1.693,0,0,0-1.547.681,1.348,1.348,0,0,1,1.485.037Z" fill="#1a2e35"/>
              </g>
            </g>
          </g>
          <path id="Path_4421" data-name="Path 4421" d="M527,1951.714s-1.249,11.808-5.593,14.465-9.772-6.99-9.833-13.231S527,1951.714,527,1951.714Z" fill="#fff"/>
        </g>
      </g>
      <g id="Group_4505" data-name="Group 4505">
        <g id="Group_4422" data-name="Group 4422">
          <g id="Group_4421" data-name="Group 4421">
            <g id="Group_4420" data-name="Group 4420">
              <path id="Path_4422" data-name="Path 4422" d="M589.781,2015.384a2,2,0,0,1,.135-.325c.108-.229.252-.537.436-.929a23.35,23.35,0,0,0,1.28-3.717,32.819,32.819,0,0,0-.11-14.357,76.971,76.971,0,0,0-2.662-9.643c-1.128-3.423-2.436-7.054-3.506-10.979a42.526,42.526,0,0,1-1.731-12.623c.163-4.465,1.484-8.922,2.938-13.358s2.951-8.788,3.4-13.156a20.053,20.053,0,0,0-2.412-12.15c-1.924-3.545-4.345-6.577-6.157-9.718a33.75,33.75,0,0,1-3.7-9.342,34.791,34.791,0,0,1-.235-14.474,26.98,26.98,0,0,1,1.51-5.111,1.941,1.941,0,0,1-.089.34c-.076.242-.177.566-.306.98a37.54,37.54,0,0,0-.939,3.825,35.262,35.262,0,0,0,.376,14.365,33.633,33.633,0,0,0,3.713,9.224c1.807,3.1,4.239,6.123,6.2,9.71a20.448,20.448,0,0,1,2.487,12.4c-.452,4.443-1.964,8.815-3.411,13.253s-2.76,8.843-2.925,13.233a42.247,42.247,0,0,0,1.69,12.495c1.051,3.906,2.345,7.538,3.458,10.97a76.158,76.158,0,0,1,2.619,9.7,32.44,32.44,0,0,1-.037,14.463,21.367,21.367,0,0,1-1.369,3.712l-.478.912A1.947,1.947,0,0,1,589.781,2015.384Z" fill="#1a2e35"/>
            </g>
          </g>
        </g>
        <g id="Group_4428" data-name="Group 4428">
          <g id="Group_4424" data-name="Group 4424">
            <g id="Group_4423" data-name="Group 4423">
              <path id="Path_4423" data-name="Path 4423" d="M583.854,1917.527s-3.679-11.764,2.92-18.652a.408.408,0,0,1,.7.2C587.826,1901.019,588.266,1906.937,583.854,1917.527Z" fill="#00a26d"/>
            </g>
          </g>
          <g id="Group_4427" data-name="Group 4427">
            <g id="Group_4426" data-name="Group 4426">
              <g id="Group_4425" data-name="Group 4425">
                <path id="Path_4424" data-name="Path 4424" d="M586.058,1902.8a10.781,10.781,0,0,1-.248,2.17c-.242,1.495-.525,3.25-.839,5.189s-.586,3.694-.824,5.189a11.867,11.867,0,0,1-.389,2.147,9.047,9.047,0,0,1,.066-2.187c.121-1.344.358-3.193.692-5.223s.686-3.858.974-5.174A9.814,9.814,0,0,1,586.058,1902.8Z" fill="#1a2e35"/>
              </g>
            </g>
          </g>
        </g>
        <g id="Group_4434" data-name="Group 4434">
          <g id="Group_4430" data-name="Group 4430">
            <g id="Group_4429" data-name="Group 4429">
              <path id="Path_4425" data-name="Path 4425" d="M588.176,1945.274s2.25-12.119,11.3-15.121a.408.408,0,0,1,.524.506C599.407,1932.541,597.028,1937.977,588.176,1945.274Z" fill="#00a26d"/>
            </g>
          </g>
          <g id="Group_4433" data-name="Group 4433">
            <g id="Group_4432" data-name="Group 4432">
              <g id="Group_4431" data-name="Group 4431">
                <path id="Path_4426" data-name="Path 4426" d="M597.014,1933.283a10.924,10.924,0,0,1-1.234,1.8l-3.169,4.193c-1.179,1.571-2.246,2.991-3.154,4.2a11.771,11.771,0,0,1-1.349,1.715,9.143,9.143,0,0,1,1.081-1.9c.736-1.131,1.81-2.655,3.055-4.293s2.41-3.089,3.28-4.118A9.77,9.77,0,0,1,597.014,1933.283Z" fill="#1a2e35"/>
              </g>
            </g>
          </g>
        </g>
        <g id="Group_4440" data-name="Group 4440">
          <g id="Group_4436" data-name="Group 4436">
            <g id="Group_4435" data-name="Group 4435">
              <path id="Path_4427" data-name="Path 4427" d="M585.729,1975.678s-1.367-12.25,6.425-17.753a.408.408,0,0,1,.648.332C592.777,1960.231,592.081,1966.124,585.729,1975.678Z" fill="#00a26d"/>
            </g>
          </g>
          <g id="Group_4439" data-name="Group 4439">
            <g id="Group_4438" data-name="Group 4438">
              <g id="Group_4437" data-name="Group 4437">
                <path id="Path_4428" data-name="Path 4428" d="M590.7,1961.636a10.806,10.806,0,0,1-.657,2.084c-.523,1.421-1.136,3.09-1.814,4.933l-1.8,4.936a11.948,11.948,0,0,1-.792,2.034,9.064,9.064,0,0,1,.482-2.134c.375-1.3.961-3.067,1.675-4.995s1.41-3.656,1.944-4.894A9.822,9.822,0,0,1,590.7,1961.636Z" fill="#1a2e35"/>
              </g>
            </g>
          </g>
        </g>
        <g id="Group_4446" data-name="Group 4446">
          <g id="Group_4442" data-name="Group 4442">
            <g id="Group_4441" data-name="Group 4441">
              <path id="Path_4429" data-name="Path 4429" d="M592.549,2006.259s-.927-12.291,7.058-17.511a.408.408,0,0,1,.635.355C600.147,1991.075,599.24,1996.939,592.549,2006.259Z" fill="#00a26d"/>
            </g>
          </g>
          <g id="Group_4445" data-name="Group 4445">
            <g id="Group_4444" data-name="Group 4444">
              <g id="Group_4443" data-name="Group 4443">
                <path id="Path_4430" data-name="Path 4430" d="M598.023,1992.405a10.741,10.741,0,0,1-.731,2.058l-1.989,4.866c-.738,1.819-1.406,3.466-1.974,4.868a11.83,11.83,0,0,1-.865,2,9.1,9.1,0,0,1,.558-2.115c.422-1.282,1.071-3.03,1.854-4.932s1.54-3.6,2.117-4.821A9.876,9.876,0,0,1,598.023,1992.405Z" fill="#1a2e35"/>
              </g>
            </g>
          </g>
        </g>
        <g id="Group_4452" data-name="Group 4452">
          <g id="Group_4448" data-name="Group 4448">
            <g id="Group_4447" data-name="Group 4447">
              <path id="Path_4431" data-name="Path 4431" d="M578.567,1907.191s-10.926-5.706-11.14-15.243a.407.407,0,0,1,.636-.352C569.688,1892.719,574.187,1896.587,578.567,1907.191Z" fill="#00a26d"/>
            </g>
          </g>
          <g id="Group_4451" data-name="Group 4451">
            <g id="Group_4450" data-name="Group 4450">
              <g id="Group_4449" data-name="Group 4449">
                <path id="Path_4432" data-name="Path 4432" d="M569.7,1895.224a10.806,10.806,0,0,1,1.361,1.709l3.081,4.259,3.091,4.248a11.707,11.707,0,0,1,1.244,1.793,9.16,9.16,0,0,1-1.5-1.591c-.865-1.036-2.007-2.51-3.208-4.18s-2.246-3.211-2.975-4.344A9.816,9.816,0,0,1,569.7,1895.224Z" fill="#1a2e35"/>
              </g>
            </g>
          </g>
        </g>
        <g id="Group_4458" data-name="Group 4458">
          <g id="Group_4454" data-name="Group 4454">
            <g id="Group_4453" data-name="Group 4453">
              <path id="Path_4433" data-name="Path 4433" d="M590.3,1932.457s-11.252-5.032-12.045-14.539a.408.408,0,0,1,.614-.39C580.557,1918.55,585.284,1922.138,590.3,1932.457Z" fill="#00a26d"/>
            </g>
          </g>
          <g id="Group_4457" data-name="Group 4457">
            <g id="Group_4456" data-name="Group 4456">
              <g id="Group_4455" data-name="Group 4455">
                <path id="Path_4434" data-name="Path 4434" d="M580.717,1921.051a10.8,10.8,0,0,1,1.463,1.622l3.333,4.065,3.343,4.052a11.721,11.721,0,0,1,1.351,1.714,9.124,9.124,0,0,1-1.595-1.5c-.926-.981-2.155-2.383-3.456-3.977s-2.437-3.068-3.233-4.156A9.871,9.871,0,0,1,580.717,1921.051Z" fill="#1a2e35"/>
              </g>
            </g>
          </g>
        </g>
        <g id="Group_4464" data-name="Group 4464">
          <g id="Group_4460" data-name="Group 4460">
            <g id="Group_4459" data-name="Group 4459">
              <path id="Path_4435" data-name="Path 4435" d="M583.825,1960.639s-7.726-9.6-4.1-18.429a.407.407,0,0,1,.724-.068C581.486,1943.822,584.059,1949.168,583.825,1960.639Z" fill="#00a26d"/>
            </g>
          </g>
          <g id="Group_4463" data-name="Group 4463">
            <g id="Group_4462" data-name="Group 4462">
              <g id="Group_4461" data-name="Group 4461">
                <path id="Path_4436" data-name="Path 4436" d="M580.489,1946.12a10.849,10.849,0,0,1,.563,2.111c.322,1.48.7,3.217,1.116,5.137s.8,3.652,1.131,5.13a11.791,11.791,0,0,1,.422,2.141,9.139,9.139,0,0,1-.738-2.059c-.378-1.3-.834-3.1-1.265-5.115s-.772-3.841-.986-5.172A9.8,9.8,0,0,1,580.489,1946.12Z" fill="#1a2e35"/>
              </g>
            </g>
          </g>
        </g>
        <g id="Group_4470" data-name="Group 4470">
          <g id="Group_4466" data-name="Group 4466">
            <g id="Group_4465" data-name="Group 4465">
              <path id="Path_4437" data-name="Path 4437" d="M591.478,1993.8s-11.167-5.22-11.8-14.738a.408.408,0,0,1,.621-.38C581.971,1979.735,586.636,1983.4,591.478,1993.8Z" fill="#00a26d"/>
            </g>
          </g>
          <g id="Group_4469" data-name="Group 4469">
            <g id="Group_4468" data-name="Group 4468">
              <g id="Group_4467" data-name="Group 4467">
                <path id="Path_4438" data-name="Path 4438" d="M582.089,1982.238a10.819,10.819,0,0,1,1.435,1.647l3.264,4.12,3.275,4.108a11.836,11.836,0,0,1,1.322,1.736,9.106,9.106,0,0,1-1.569-1.524c-.911-1-2.116-2.419-3.39-4.035s-2.385-3.108-3.162-4.209A9.744,9.744,0,0,1,582.089,1982.238Z" fill="#1a2e35"/>
              </g>
            </g>
          </g>
        </g>
        <g id="Group_4473" data-name="Group 4473">
          <g id="Group_4472" data-name="Group 4472">
            <g id="Group_4471" data-name="Group 4471">
              <path id="Path_4439" data-name="Path 4439" d="M613.719,1945.34a.9.9,0,0,1,.014.272c0,.215-.012.473-.019.788-.033.741-.077,1.741-.132,2.989-.144,2.627-.345,6.291-.585,10.673v.01l0,.016c-.8,4.46-3.069,9.4-6.12,14.2-2.239,3.536-4.585,6.751-6.608,9.74a69.161,69.161,0,0,0-4.955,8.19,34.7,34.7,0,0,0-2.317,6.01c-.2.736-.344,1.31-.429,1.7a3.211,3.211,0,0,1-.163.594,3,3,0,0,1,.072-.612c.055-.4.175-.983.346-1.73a31.691,31.691,0,0,1,2.2-6.107,65.493,65.493,0,0,1,4.9-8.285c2.01-3.011,4.344-6.231,6.57-9.748,3.036-4.777,5.3-9.645,6.122-14.034l0,.025c.308-4.378.565-8.038.749-10.663l.242-2.982c.031-.313.057-.57.079-.784A.961.961,0,0,1,613.719,1945.34Z" fill="#1a2e35"/>
            </g>
          </g>
        </g>
        <g id="Group_4475" data-name="Group 4475">
          <g id="Group_4474" data-name="Group 4474">
            <path id="Path_4440" data-name="Path 4440" d="M607.071,1973.374s4.728-11.383-1.22-18.841a.409.409,0,0,0-.715.138C604.609,1956.574,603.635,1962.428,607.071,1973.374Z" fill="#00a26d"/>
          </g>
        </g>
        <g id="Group_4478" data-name="Group 4478">
          <g id="Group_4477" data-name="Group 4477">
            <g id="Group_4476" data-name="Group 4476">
              <path id="Path_4441" data-name="Path 4441" d="M606.209,1958.5a9.768,9.768,0,0,1,.375,2.154c.168,1.337.355,3.19.5,5.241s.217,3.915.217,5.265a9.087,9.087,0,0,1-.133,2.184,11.9,11.9,0,0,1-.193-2.174c-.1-1.51-.219-3.283-.35-5.242s-.261-3.733-.367-5.244A10.913,10.913,0,0,1,606.209,1958.5Z" fill="#1a2e35"/>
            </g>
          </g>
        </g>
        <g id="Group_4484" data-name="Group 4484">
          <g id="Group_4480" data-name="Group 4480">
            <g id="Group_4479" data-name="Group 4479">
              <path id="Path_4442" data-name="Path 4442" d="M592.423,2000.805s3.79-11.729-2.743-18.68a.408.408,0,0,0-.7.2C588.608,1984.26,588.111,1990.173,592.423,2000.805Z" fill="#00a26d"/>
            </g>
          </g>
          <g id="Group_4483" data-name="Group 4483">
            <g id="Group_4482" data-name="Group 4482">
              <g id="Group_4481" data-name="Group 4481">
                <path id="Path_4443" data-name="Path 4443" d="M590.359,1986.052a9.878,9.878,0,0,1,.548,2.116c.275,1.32.612,3.151.925,5.183s.533,3.885.642,5.23a9.048,9.048,0,0,1,.045,2.187,11.885,11.885,0,0,1-.369-2.15c-.223-1.5-.485-3.255-.774-5.2s-.562-3.7-.79-5.2A10.811,10.811,0,0,1,590.359,1986.052Z" fill="#1a2e35"/>
              </g>
            </g>
          </g>
        </g>
        <g id="Group_4490" data-name="Group 4490">
          <g id="Group_4486" data-name="Group 4486">
            <g id="Group_4485" data-name="Group 4485">
              <path id="Path_4444" data-name="Path 4444" d="M613.093,1959.463s10.1-7.069,9.079-16.554a.408.408,0,0,0-.677-.267C620.029,1943.965,616.067,1948.382,613.093,1959.463Z" fill="#00a26d"/>
            </g>
          </g>
          <g id="Group_4489" data-name="Group 4489">
            <g id="Group_4488" data-name="Group 4488">
              <g id="Group_4487" data-name="Group 4487">
                <path id="Path_4445" data-name="Path 4445" d="M620.345,1946.45a9.756,9.756,0,0,1-.839,2.019c-.576,1.218-1.412,2.882-2.389,4.692s-1.917,3.42-2.642,4.559a9.15,9.15,0,0,1-1.283,1.772,11.782,11.782,0,0,1,1-1.938c.725-1.329,1.576-2.889,2.517-4.612s1.782-3.29,2.5-4.622A10.889,10.889,0,0,1,620.345,1946.45Z" fill="#1a2e35"/>
              </g>
            </g>
          </g>
        </g>
        <g id="Group_4496" data-name="Group 4496">
          <g id="Group_4492" data-name="Group 4492">
            <g id="Group_4491" data-name="Group 4491">
              <path id="Path_4446" data-name="Path 4446" d="M596.495,1989.177s12.179-1.9,15.442-10.863a.408.408,0,0,0-.491-.538C609.548,1978.318,604.045,1980.538,596.495,1989.177Z" fill="#00a26d"/>
            </g>
          </g>
          <g id="Group_4495" data-name="Group 4495">
            <g id="Group_4494" data-name="Group 4494">
              <g id="Group_4493" data-name="Group 4493">
                <path id="Path_4447" data-name="Path 4447" d="M608.737,1980.689a9.841,9.841,0,0,1-1.643,1.442c-1.054.841-2.537,1.966-4.211,3.161s-3.228,2.226-4.38,2.929a9.019,9.019,0,0,1-1.932,1.025,11.815,11.815,0,0,1,1.754-1.3l4.291-3.032,4.283-3.046A10.737,10.737,0,0,1,608.737,1980.689Z" fill="#1a2e35"/>
              </g>
            </g>
          </g>
        </g>
        <g id="Group_4498" data-name="Group 4498">
          <g id="Group_4497" data-name="Group 4497">
            <path id="Path_4448" data-name="Path 4448" d="M584.876,2011.59l-3.553,23.912h22.14l-2.87-23.912Z" fill="#f99746"/>
          </g>
        </g>
        <g id="Group_4501" data-name="Group 4501">
          <g id="Group_4500" data-name="Group 4500">
            <g id="Group_4499" data-name="Group 4499">
              <path id="Path_4449" data-name="Path 4449" d="M601.478,2019a173.411,173.411,0,0,1-17.856,0,172.679,172.679,0,0,1,17.856,0Z" fill="#fafbfd"/>
            </g>
          </g>
        </g>
        <g id="Group_4504" data-name="Group 4504">
          <g id="Group_4503" data-name="Group 4503">
            <g id="Group_4502" data-name="Group 4502">
              <path id="Path_4450" data-name="Path 4450" d="M601.917,2020.9c0,.127-4.128.23-9.22.23s-9.221-.1-9.221-.23a184.17,184.17,0,0,1,18.441,0Z" fill="#fafbfd"/>
            </g>
          </g>
        </g>
      </g>
      <g id="Group_4506" data-name="Group 4506">
        <path id="Path_4451" data-name="Path 4451" d="M632.673,2035.5H364.456a.891.891,0,1,1,0-1.783H632.673a.891.891,0,0,1,0,1.783Z" fill="#03774d"/>
      </g>
      <g id="girl_2" data-name="girl 2">
        <path id="Path_4452" data-name="Path 4452" d="M409.7,1939a13.208,13.208,0,0,0-11.856,3.386,35.065,35.065,0,0,0-4.318,4.942c-3.475,4.853,3.178,9.657,2.293,11.3s-2.934,2.943-2.037,6.376,6.813,7.888,8.742,8.087c19.548,2.008,28.031-8.773,21.5-14.585s-3.868-14.242-9.174-17.518A16.273,16.273,0,0,0,409.7,1939Z" fill="#1a2e35"/>
        <path id="Path_4453" data-name="Path 4453" d="M399.757,1969.06s-18.41,8.023-21.751,7.877-23.933-6.274-23.933-6.274l.524,3.544s15.891,9.142,21.447,9.661c5.469.511,24.172-4.911,25.977-6.055S405,1970.218,399.757,1969.06Z" fill="#ed985f"/>
        <path id="Path_4454" data-name="Path 4454" d="M397.52,1977.822a17.689,17.689,0,0,0,6.189,2.635c9.54,2.2,13.2-5.861,14.569-11.4a8.207,8.207,0,0,0-3.233-.994c-.689-.081-1.414-.135-2.015-.165-1.071-.821-2.667-4.18-3.02-9.4l-.449.121-7.519,2.058s.345,2.391.514,4.651c.13,1.768.151,3.458-.184,3.872-.587.127-.939.21-.939.21l0,.007A48.438,48.438,0,0,0,397.52,1977.822Z" fill="#ffb27d"/>
        <path id="Path_4455" data-name="Path 4455" d="M402.042,1960.686s.346,2.388.513,4.65c4.26-.426,6.236-4.484,7.006-6.709Z" fill="#ed985f"/>
        <path id="Path_4456" data-name="Path 4456" d="M400.77,1962.93s10.111-.558,9.666-6.852.562-10.6-5.912-10.513-7.558,2.58-7.92,4.717S398.129,1962.913,400.77,1962.93Z" fill="#ffb27d"/>
        <path id="Path_4457" data-name="Path 4457" d="M396.653,1946.761c1.426-2.005,2.635-1.674,3.337-1.152a7.074,7.074,0,0,1,9.18.8,12.055,12.055,0,0,0,4.44,6.82s-1.792,1.433-6.081.482a10.733,10.733,0,0,1-7.627-6.707,6.434,6.434,0,0,0-1.893,2.275,9.989,9.989,0,0,0-1.117,4.967S394.516,1949.768,396.653,1946.761Z" fill="#1a2e35"/>
        <path id="Path_4458" data-name="Path 4458" d="M421.157,1998.386c.913-4.669,3.89-23.324.913-29.326-1.069-2.157-5.264-2.352-9.867-2.163-1.432.926-6.89,4.421-9.132,3.985-.024-.005-.068-.015-.126-.03-1.055-.264-1.454-1.006-.573-1.645a20.065,20.065,0,0,0-5.111.313,37.773,37.773,0,0,0-5.912,2.534s2.172,3.925,5.374,5.28c-.544,4.874.266,7.024,5.32,18.28a21.409,21.409,0,0,1-.577,18.082s25.141,20.22,25.281,9.925C426.852,2015.87,419.99,2004.354,421.157,1998.386Z" fill="#00a26d"/>
        <path id="Path_4459" data-name="Path 4459" d="M400.22,2035.683a4.674,4.674,0,0,1-3.362-2.048c-.122-.182-.251-.377-.389-.586-2.862-4.333-3.975-17.6-10.412-31.744-1.568-3.442-7.2-4.061-8.73-7.953,0,0-3.777-12.612,7.229-12.984s29.477,35.093,29.769,38.812C414.608,2022.784,421.6,2038.1,400.22,2035.683Z" fill="#ef6a1c"/>
        <path id="Path_4460" data-name="Path 4460" d="M356.474,2035.393H372.14a6.522,6.522,0,0,0-.443-4.2c-.91-1.505-.562-2.362.113-3.607a6.08,6.08,0,0,1-2.639.5,5.516,5.516,0,0,1-2.33-.82,56.417,56.417,0,0,1-4.463,4.691C361.354,2032.689,356.789,2032.427,356.474,2035.393Z" fill="#1a2e35"/>
        <path id="Path_4461" data-name="Path 4461" d="M419.506,1973.949s2.039,18.558-11.184,22.446-16.977-17.075-6.3-18.582A102.747,102.747,0,0,0,419.506,1973.949Z" fill="#04603d"/>
        <path id="Path_4462" data-name="Path 4462" d="M376.969,1984.014c-.943,7.075-4.627,29.4-11.125,40.3-2.1,3.512,5.278,5.481,5.318,5.471.989-.259,2.636-1.836,3.4-2.521,5.276-4.756,15.985-18.224,15.985-29.022,0-5.264.093-15.319-3.734-17.875C384.451,1978.791,377.344,1981.2,376.969,1984.014Z" fill="#ef6a1c"/>
        <path id="Path_4463" data-name="Path 4463" d="M409.562,2035.393s-.581-.809-1.593-2.344c-1.2-1.825-2.538-5.417-4.156-10.022-1.7-4.834-3.715-10.782-6.234-16.97-.777-1.91-1.6-3.843-2.481-5.774-1.568-3.442-5.881-2.966-7.415-6.858,0,0-5.988-13.489,5.019-13.861s31.921,36.085,33.123,39.616C427.14,2023.046,433.56,2039.1,409.562,2035.393Z" fill="#f99746"/>
        <path id="Path_4464" data-name="Path 4464" d="M367.974,2035.393h15.665a6.518,6.518,0,0,0-.442-4.2c-.911-1.505-.562-2.362.112-3.607a6.072,6.072,0,0,1-2.638.5,5.512,5.512,0,0,1-2.33-.82,56.417,56.417,0,0,1-4.463,4.691C372.854,2032.689,368.289,2032.427,367.974,2035.393Z" fill="#455a64"/>
        <path id="Path_4465" data-name="Path 4465" d="M403.813,2023.027c-1.7-4.834-3.715-10.782-6.234-16.97.658-4.688,2.077-8.79,4.464-10.443C402.043,1995.614,407.832,2013.556,403.813,2023.027Z" fill="#ef6a1c" opacity="0.5"/>
        <path id="Path_4466" data-name="Path 4466" d="M386.113,1983.513c-.943,7.074-2.271,29.905-8.77,40.8-2.1,3.512,5.279,5.481,5.318,5.471.989-.259,2.637-1.836,3.4-2.521,5.276-4.756,15.985-18.224,15.985-29.022,0-5.264-6.176-14.9-10-17.453A3.85,3.85,0,0,0,386.113,1983.513Z" fill="#f99746"/>
        <g id="Group_4507" data-name="Group 4507">
          <path id="Path_4467" data-name="Path 4467" d="M352.2,1961.546l16.044-1.705a1.037,1.037,0,0,1,1.077.662l5.74,15.089a1.035,1.035,0,0,1-.926,1.4l-15.919.643a1.036,1.036,0,0,1-1-.636l-5.864-14.026A1.036,1.036,0,0,1,352.2,1961.546Z" fill="#04603d"/>
          <path id="Path_4468" data-name="Path 4468" d="M350.809,1961.692l16.043-1.7a1.035,1.035,0,0,1,1.077.662l5.74,15.089a1.035,1.035,0,0,1-.926,1.4l-15.919.643a1.035,1.035,0,0,1-1-.636l-5.864-14.026A1.035,1.035,0,0,1,350.809,1961.692Z" fill="#00a26d"/>
          <path id="Path_4469" data-name="Path 4469" d="M359.7,1968.737a.66.66,0,0,1,.62-.975,1.543,1.543,0,0,1,1.33.975.66.66,0,0,1-.62.975A1.542,1.542,0,0,1,359.7,1968.737Z" fill="#fff"/>
          <path id="Path_4470" data-name="Path 4470" d="M351.289,1963.118a.324.324,0,0,1,.3-.479.758.758,0,0,1,.654.479.324.324,0,0,1-.305.479A.759.759,0,0,1,351.289,1963.118Z" fill="#fff"/>
        </g>
        <path id="Path_4471" data-name="Path 4471" d="M418.278,1969.06s-22.235,8.191-25.576,8.023c-2.16-.108-20.108-6.42-20.108-6.42l-1.612,3.049s17.47,11.233,22.273,11.178c9.482-.11,25.481-5.933,27.287-7.077S423.525,1970.218,418.278,1969.06Z" fill="#ffb27d"/>
        <path id="Path_4472" data-name="Path 4472" d="M372.594,1970.663s-1.612-2.48-3.216-2.553-4.376,1.094-5.324,1.276-3.647,1.058-2.844,2.371,4.521,1.605,6.126,1.314a7.433,7.433,0,0,1,3.646.641Z" fill="#ffb27d"/>
        <path id="Path_4473" data-name="Path 4473" d="M369.814,1968.186s-2.551-1.171-3.281-1.39-.583,0-.364.695,1.531,1.351,1.531,1.569S369.814,1968.186,369.814,1968.186Z" fill="#ffb27d"/>
        <path id="Path_4474" data-name="Path 4474" d="M352.461,1969.35s1.609-2.546,2.136-2.65c1.605-.317,1.605,1.8,1.264,3.161-.365,1.462-1.6,2.843-1.943,2.722S352.083,1970.695,352.461,1969.35Z" fill="#ffb27d"/>
        <path id="Path_4475" data-name="Path 4475" d="M352.4,1969.861a4.262,4.262,0,0,0,2.2,4.346l-.8-1.966Z" fill="#ffb27d"/>
        <path id="Path_4476" data-name="Path 4476" d="M398.877,1959.311a9.343,9.343,0,0,1,3.646-.161s-.143,1.05-2.127,1.154A1.582,1.582,0,0,1,398.877,1959.311Z" fill="#fff"/>
        <path id="Path_4477" data-name="Path 4477" d="M406.822,1973.1a12.22,12.22,0,0,0,8.818,7.731s11.279-3.476,5.663-11.162C421.3,1969.668,415.751,1965.541,406.822,1973.1Z" fill="#00a26d"/>
      </g>
    </g>
  </g>
</svg>
