<svg id="Group_4666" data-name="Group 4666" xmlns="http://www.w3.org/2000/svg" width="50" height="50" viewBox="0 0 50 50">
  <path id="Path_4546" data-name="Path 4546" d="M180.924,99.17a1.586,1.586,0,0,1,1.585,1.585v5.071a1.584,1.584,0,0,0,2.4,1.359l8.693-5.215v19.757l-8.693-5.215a1.574,1.574,0,0,0-.729-.206l8.663,8.663,1.528.917a1.584,1.584,0,0,0,2.4-1.359V99.17a1.584,1.584,0,0,0-2.4-1.359l-8.693,5.215v-2.272A4.759,4.759,0,0,0,180.924,96H163.876l3.169,3.169Z" transform="translate(-148.356 -86.821)" fill="#8e8e93"/>
  <path id="Path_4547" data-name="Path 4547" d="M50,47.791,2.209,0,0,2.209,7.166,9.375H4.688A4.693,4.693,0,0,0,0,14.063V35.938a4.693,4.693,0,0,0,4.688,4.688H32.813a4.646,4.646,0,0,0,3.723-1.88L47.791,50ZM32.813,37.5H4.688a1.564,1.564,0,0,1-1.562-1.562V14.063A1.564,1.564,0,0,1,4.688,12.5h5.6L34.267,36.476A1.554,1.554,0,0,1,32.813,37.5Z" fill="#8e8e93"/>
</svg>
