<svg xmlns="http://www.w3.org/2000/svg" width="50" height="35.714" viewBox="0 0 50 35.714">
  <g id="Group_4664" data-name="Group 4664" transform="translate(0 -68.267)">
    <g id="Group_4661" data-name="Group 4661" transform="translate(0 68.267)">
      <g id="Group_4660" data-name="Group 4660" transform="translate(0 0)">
        <path id="Path_4548" data-name="Path 4548" d="M44.643,68.267H5.357A5.357,5.357,0,0,0,0,73.624v25a5.357,5.357,0,0,0,5.357,5.357H44.643A5.357,5.357,0,0,0,50,98.624v-25A5.357,5.357,0,0,0,44.643,68.267Zm1.786,30.357a1.786,1.786,0,0,1-1.786,1.786H5.357a1.786,1.786,0,0,1-1.786-1.786V97.578l7.143-7.143,5.88,5.88a1.786,1.786,0,0,0,2.525,0L33.929,81.506l12.5,12.5v4.618Zm0-9.668L35.191,77.719a1.786,1.786,0,0,0-2.525,0L17.857,92.528l-5.88-5.88a1.786,1.786,0,0,0-2.525,0l-5.88,5.88v-18.9a1.786,1.786,0,0,1,1.786-1.786H44.643a1.786,1.786,0,0,1,1.786,1.786V88.956Z" transform="translate(0 -68.267)" fill="#8e8e93"/>
      </g>
    </g>
    <g id="Group_4663" data-name="Group 4663" transform="translate(10.636 75.328)">
      <g id="Group_4662" data-name="Group 4662" transform="translate(0 0)">
        <path id="Path_4549" data-name="Path 4549" d="M107.9,136.533a5.5,5.5,0,1,0,5.5,5.5A5.5,5.5,0,0,0,107.9,136.533Zm0,7.333a1.833,1.833,0,1,1,1.833-1.833A1.833,1.833,0,0,1,107.9,143.866Z" transform="translate(-102.4 -136.533)" fill="#8e8e93"/>
      </g>
    </g>
  </g>
</svg>
