<svg xmlns="http://www.w3.org/2000/svg" width="20" height="19.978" viewBox="0 0 20 19.978">
  <g id="Group_8518" data-name="Group 8518" transform="translate(0 -0.277)">
    <g id="Group_8517" data-name="Group 8517" transform="translate(0 0.277)">
      <path id="Path_7404" data-name="Path 7404" d="M17.852,13.224a2.152,2.152,0,0,0-2.067,1.563H13.711V12.5h2.118A4.172,4.172,0,0,0,17.04,4.336,4.768,4.768,0,0,0,12.421.727a4.717,4.717,0,0,0-2.388.639A4.173,4.173,0,0,0,3.051,4.31a4.172,4.172,0,0,0,1.12,8.19H6.289v2.287H4.215a2.148,2.148,0,1,0,0,1.172h2.66a.586.586,0,0,0,.586-.586V12.5H9.414V16.04a2.148,2.148,0,1,0,1.172,0V12.5h1.953v2.873a.586.586,0,0,0,.586.586h2.66a2.148,2.148,0,1,0,2.067-2.734Zm-15.7,3.125a.977.977,0,1,1,.977-.977A.978.978,0,0,1,2.148,16.349Zm8.828,1.758A.977.977,0,1,1,10,17.13.978.978,0,0,1,10.977,18.107ZM4.171,11.327A3,3,0,0,1,3.735,5.36a.586.586,0,0,0,.5-.634c-.008-.092-.013-.185-.013-.278A3,3,0,0,1,9.5,2.5a.586.586,0,0,0,.795.092A3.545,3.545,0,0,1,12.421,1.9a3.6,3.6,0,0,1,3.542,3.009.586.586,0,0,0,.462.48,3,3,0,0,1-.6,5.94Zm13.68,5.022a.977.977,0,1,1,.977-.977A.978.978,0,0,1,17.852,16.349Z" transform="translate(0 -0.277)"/>
    </g>
  </g>
</svg>
