<svg xmlns="http://www.w3.org/2000/svg" width="21.61" height="21.61" viewBox="0 0 21.61 21.61">
  <g id="Group_8509" data-name="Group 8509" transform="translate(4392 5229)">
    <path fill="" id="Path_7063" data-name="Path 7063" d="M1577.418,1111.151l-.556.556a.54.54,0,0,0,.76.768l.728-.728a1.6,1.6,0,0,0,.458-1.346,1.692,1.692,0,0,0-.5-.973l-.682-.682a.54.54,0,0,0-.764.765l.559.559h-8.245a8.654,8.654,0,0,0-8.644,8.644v9.459a.54.54,0,1,0,1.081,0v-9.461a7.564,7.564,0,0,1,7.564-7.564Z" transform="translate(-5952.529 -6337.588)" fill="#8e8e93"/>
    <path fill="" id="Path_7064" data-name="Path 7064" d="M1587.5,1112.709a.539.539,0,0,0-.539.539v9.461a7.564,7.564,0,0,1-7.564,7.564h-8.244l.556-.557a.54.54,0,0,0-.76-.768l-.728.728a1.6,1.6,0,0,0-.458,1.346,1.692,1.692,0,0,0,.5.973l.681.681a.54.54,0,1,0,.764-.765l-.559-.559h8.245a8.654,8.654,0,0,0,8.644-8.644v-9.459A.542.542,0,0,0,1587.5,1112.709Z" transform="translate(-5958.426 -6340.225)" fill="#8e8e93"/>
    <path fill="" id="Path_7065" data-name="Path 7065" d="M1571.529,1129.231V1132a1.958,1.958,0,0,0,1.967,1.945h6.152a1.969,1.969,0,0,0,1.771-1.105l1.567,1.119a1.35,1.35,0,0,0,.789.256,1.509,1.509,0,0,0,1.442-1.6v-4.01a1.509,1.509,0,0,0-1.442-1.6,1.351,1.351,0,0,0-.789.256l-1.567,1.119a1.969,1.969,0,0,0-.872-.889,2.338,2.338,0,0,0-3.428-3.169,2.7,2.7,0,1,0-4.382,3.1A1.948,1.948,0,0,0,1571.529,1129.231Zm10.085.666a.568.568,0,0,1,.2-.461l1.8-1.285c.24-.172.522.078.522.461v4.01c0,.384-.283.633-.522.461l-1.8-1.285a.567.567,0,0,1-.2-.46Zm-2.882-5.132a1.26,1.26,0,0,1,0,2.521h0a1.26,1.26,0,0,1,0-2.521Zm-3.962-.72a1.621,1.621,0,0,1,0,3.241h0a1.621,1.621,0,0,1,0-3.241Zm-2.161,5.186a.877.877,0,0,1,.886-.865h6.152a.877.877,0,0,1,.886.865v.666h0V1132a.876.876,0,0,1-.886.865H1573.5a.876.876,0,0,1-.886-.865Z" transform="translate(-5959.567 -6346.786)" fill="#8e8e93"/>
  </g>
</svg>
