<svg xmlns="http://www.w3.org/2000/svg" width="22" height="22" viewBox="0 0 22 22">
  <g id="Group_2135" data-name="Group 2135" transform="translate(-235.559 -1023.094)">
    <path id="Path_303" data-name="Path 303" d="M256.809,1040.144h-2.7v-2.7a.75.75,0,0,0-1.5,0v2.7h-2.7a.75.75,0,1,0,0,1.5h2.7v2.7a.75.75,0,0,0,1.5,0v-2.7h2.7a.75.75,0,0,0,0-1.5Z" />
    <path id="Path_304" data-name="Path 304" d="M237.06,1043.22v-.98h0v-.015c.115-4.208,4.332-7.632,9.4-7.632h0c.1,0,.21,0,.316,0a10.86,10.86,0,0,1,4.735,1.228s.551.336.864-.127a.811.811,0,0,0-.24-1.252,11.917,11.917,0,0,0-2.282-.893,5.745,5.745,0,0,0-3.135-10.457c-.054,0-.106,0-.159,0h0a5.749,5.749,0,0,0-3.352,10.421c-4.344,1.155-7.536,4.56-7.649,8.669,0,.011,0,.022,0,.034h0v2.126a.75.75,0,0,0,.751.75h13.808a.75.75,0,0,0,0-1.5H237.542A.424.424,0,0,1,237.06,1043.22Zm5.251-14.492a4.229,4.229,0,0,1,4.249-4.134h.119a4.25,4.25,0,0,1-.114,8.5l-.119,0a4.251,4.251,0,0,1-4.135-4.364Z" />
  </g>
</svg>
