<svg xmlns="http://www.w3.org/2000/svg" width="22" height="22" viewBox="0 0 22 22">
  <g id="Group_5758" data-name="Group 5758" transform="translate(-103.235 -520.412)">
    <path id="Path_5494" data-name="Path 5494" d="M119.235,526.179v-4.73a1.037,1.037,0,0,0-1.037-1.037H104.272a1.037,1.037,0,0,0-1.037,1.037v4.59a1.054,1.054,0,0,0,1.054,1.054h2.92a.606.606,0,0,1,.606.606v13.789a.924.924,0,0,0,.923.924h5.026a.912.912,0,0,0,.912-.912V527.7a.605.605,0,0,1,.6-.606h3.04A.914.914,0,0,0,119.235,526.179Zm-1.5-1.191a.605.605,0,0,1-.605.605h-3.349a.605.605,0,0,0-.6.606v14.107a.605.605,0,0,1-.606.6h-2.65a.605.605,0,0,1-.6-.6V526.2a.606.606,0,0,0-.606-.606h-3.368a.605.605,0,0,1-.606-.605v-2.433a.644.644,0,0,1,.644-.644H117.1a.64.64,0,0,1,.64.64Z" />
    <path id="Path_5495" data-name="Path 5495" d="M124.735,532.343h-2.75v-2.75a.5.5,0,0,0-.5-.5h-.5a.5.5,0,0,0-.5.5v2.75h-2.75a.5.5,0,0,0-.5.5v.5a.5.5,0,0,0,.5.5h2.75v2.75a.5.5,0,0,0,.5.5h.5a.5.5,0,0,0,.5-.5v-2.75h2.75a.5.5,0,0,0,.5-.5v-.5A.5.5,0,0,0,124.735,532.343Z" />
    <rect id="Rectangle_2699" data-name="Rectangle 2699" width="8" height="1.5" rx="0.5" transform="translate(117.235 538.912)" />
  </g>
</svg>
