<svg id="database" xmlns="http://www.w3.org/2000/svg" width="20.131" height="20.126" viewBox="0 0 20.131 20.126">
  <path id="Path_7229" data-name="Path 7229" d="M48,401.342h.671a.671.671,0,0,1,.671-.671V400A1.342,1.342,0,0,0,48,401.342Z" transform="translate(-46.653 -383.899)" fill="#00a859"/>
  <path id="Path_7230" data-name="Path 7230" d="M104,290.348a2.312,2.312,0,0,0,.2.937l.614-.268a1.653,1.653,0,0,1-.14-.669,1.679,1.679,0,0,1,1.677-1.677V288A2.351,2.351,0,0,0,104,290.348Z" transform="translate(-100.305 -276.595)" fill="#00a859"/>
  <path id="Path_7231" data-name="Path 7231" d="M36.01,25.727V24.386a.335.335,0,0,0-.255-.325l-.433-.107.231-.386a.34.34,0,0,0-.05-.409l-.949-.949a.34.34,0,0,0-.409-.05l-.386.231-.107-.433a.335.335,0,0,0-.325-.255H31.985a.335.335,0,0,0-.325.255l-.107.433-.386-.231a.34.34,0,0,0-.409.05l-.949.949a.34.34,0,0,0-.05.409l.148.245a4.6,4.6,0,0,0-.939-.1c-.114,0-.225.007-.335.013V17.677H28.55c-.5-1.1-3.408-1.677-6.293-1.677-3.166,0-6.373.691-6.373,2.013V28.076c0,.842,1.221,1.328,2.351,1.6,0,.027,0,.054,0,.081a3.675,3.675,0,0,0,.141,1.013,2.683,2.683,0,0,0,.195,5.36H33.327a2.683,2.683,0,0,0,0-5.367h-.3a4.656,4.656,0,0,0,.631-2.348c0-.087-.007-.171-.01-.255l.107-.433.386.231a.34.34,0,0,0,.409-.05l.949-.949a.34.34,0,0,0,.05-.409l-.231-.386.433-.107A.335.335,0,0,0,36.01,25.727ZM22.258,16.671c3.69,0,5.7.886,5.7,1.342s-2.013,1.342-5.7,1.342-5.7-.886-5.7-1.342S18.568,16.671,22.258,16.671Zm-5.7,2.288c1.1.7,3.408,1.067,5.7,1.067s4.6-.366,5.7-1.067v2.408c0,.456-2.013,1.342-5.7,1.342s-5.7-.886-5.7-1.342Zm0,3.354c1.1.7,3.408,1.067,5.7,1.067s4.6-.366,5.7-1.067v1.516a4.708,4.708,0,0,0-2.928,2.039,18.854,18.854,0,0,1-2.774.195c-3.69,0-5.7-.886-5.7-1.342ZM24.642,26.6a4.873,4.873,0,0,0-.174.483,3.965,3.965,0,0,0-.53-.416C24.18,26.647,24.414,26.626,24.642,26.6ZM18.31,29c-1.278-.315-1.754-.714-1.754-.922V25.667A8.747,8.747,0,0,0,20,26.613,3.7,3.7,0,0,0,18.31,29ZM33.327,31.43a2.013,2.013,0,1,1,0,4.025H18.568a2.013,2.013,0,1,1,0-4.025h.282a.34.34,0,0,0,.282-.151.347.347,0,0,0,.027-.319,2.934,2.934,0,0,1-.255-1.208A3.019,3.019,0,0,1,24.381,28a.335.335,0,0,0,.6-.148,4.036,4.036,0,0,1,3.982-3.468c.114,0,.225.007.335.013v1.328a.335.335,0,0,0,.255.325l.433.107-.231.386a.34.34,0,0,0,.05.409l.949.949a.34.34,0,0,0,.409.05l.386-.231.107.433a.335.335,0,0,0,.325.255h1.006a3.964,3.964,0,0,1-.859,2.475.335.335,0,0,0,.265.543Zm2.013-5.964-.617.154a.351.351,0,0,0-.231.2.343.343,0,0,0,.023.3l.329.543-.58.58-.543-.329a.343.343,0,0,0-.3-.023.351.351,0,0,0-.2.231l-.154.617h-.818l-.154-.617a.351.351,0,0,0-.2-.231.343.343,0,0,0-.3.023l-.543.329-.58-.58.329-.543a.343.343,0,0,0,.023-.3.351.351,0,0,0-.231-.2l-.617-.154v-.818l.617-.154a.351.351,0,0,0,.231-.2.343.343,0,0,0-.023-.3l-.329-.543.58-.58.543.329a.343.343,0,0,0,.3.023.351.351,0,0,0,.2-.231l.154-.617h.818l.154.617a.351.351,0,0,0,.2.231.343.343,0,0,0,.3-.023l.543-.329.58.58-.329.543a.343.343,0,0,0-.023.3.351.351,0,0,0,.231.2l.617.154Z" transform="translate(-15.879 -16)" fill="#00a859"/>
  <path id="Path_7232" data-name="Path 7232" d="M385.342,200a1.342,1.342,0,1,0,1.342,1.342A1.342,1.342,0,0,0,385.342,200Zm0,2.013a.671.671,0,1,1,.671-.671A.671.671,0,0,1,385.342,202.013Z" transform="translate(-368.565 -192.285)" fill="#00a859"/>
</svg>
