<svg id="Group_8338" data-name="Group 8338" xmlns="http://www.w3.org/2000/svg" width="20.001" height="20" viewBox="0 0 20.001 20">
  <path id="Path_7224" data-name="Path 7224" d="M71,106.752a.75.75,0,0,0,.75.75h2a.75.75,0,0,0,0-1.5h-2a.75.75,0,0,0-.75.75" transform="translate(-68 -95.5)" fill="#00a859"/>
  <path id="Path_7225" data-name="Path 7225" d="M81.5,95.5H81a6.5,6.5,0,0,0,0,13h.463l1.842,0a.686.686,0,0,1,.347.268l.571.694a1.858,1.858,0,0,0,3.3-1.182l0-1.277v-2.567A6.487,6.487,0,0,0,81.5,95.5m4.521,8.6v2.073l0,2.1a.361.361,0,0,1-.37.363.335.335,0,0,1-.268-.134l-.57-.694A1.961,1.961,0,0,0,83.368,107H81a5,5,0,0,1,0-10h.5a5.006,5.006,0,0,1,5,5,4.949,4.949,0,0,1-.479,2.1" transform="translate(-68 -95.5)" fill="#00a859"/>
  <path id="Path_7226" data-name="Path 7226" d="M81.088,104a.75.75,0,1,0,.75.75.749.749,0,0,0-.75-.75" transform="translate(-68 -95.5)" fill="#00a859"/>
  <path id="Path_7227" data-name="Path 7227" d="M81.339,98.5a2.113,2.113,0,0,0-1.484.544,1.84,1.84,0,0,0-.6,1.321h0a.732.732,0,0,0,1.463.035h.006a.737.737,0,0,1,.078-.3.473.473,0,0,1,.455-.237c.309,0,.463.164.463.494a.852.852,0,0,1-.214.52,2.994,2.994,0,0,1-.214.241l-.252.249c-.1.1-.184.188-.249.26a2.482,2.482,0,0,0-.222.292.912.912,0,0,0-.186.515v.521a.3.3,0,0,0,.3.3H81.5a.3.3,0,0,0,.3-.3v-.523c0-.14.107-.227.21-.345a3.445,3.445,0,0,1,.24-.248l.272-.253c.109-.1.2-.191.272-.272a2.3,2.3,0,0,0,.234-.314,1.559,1.559,0,0,0,.225-.812,1.52,1.52,0,0,0-.191-.731,1.781,1.781,0,0,0-1.717-.956" transform="translate(-68 -95.5)" fill="#00a859"/>
  <path id="Path_7228" data-name="Path 7228" d="M79.6,109.5a.755.755,0,0,0-.755.755v2.633A1.107,1.107,0,0,1,77.724,114a1.082,1.082,0,0,1-.847-.407l-3.163-3.829a.728.728,0,0,0-.56-.264H71.688a2.188,2.188,0,0,1-2.188-2.189v-1.1a2.188,2.188,0,0,1,2.188-2.188h1.066a.745.745,0,0,0,.746-.745.755.755,0,0,0-.755-.755H71.688A3.688,3.688,0,0,0,68,106.209v1.1A3.688,3.688,0,0,0,71.688,111h.758a.725.725,0,0,1,.559.263l2.714,3.283a2.6,2.6,0,0,0,2.983.766,2.712,2.712,0,0,0,1.642-2.554v-2.513a.745.745,0,0,0-.745-.745" transform="translate(-68 -95.5)" fill="#00a859"/>
</svg>
