<svg xmlns="http://www.w3.org/2000/svg" width="20" height="20" viewBox="0 0 20 20">
  <path id="Path_7333" data-name="Path 7333" d="M74.32,804.139a3,3,0,0,0-1.946-5.283H72.29a3,3,0,0,0-1.834,5.3,6.292,6.292,0,0,0-.927.385.865.865,0,0,0-.083.059A4.3,4.3,0,0,0,68,804.356h0a4.314,4.314,0,0,0-1.441.248.914.914,0,0,0-.083-.059,6.292,6.292,0,0,0-.927-.385,3,3,0,0,0-1.834-5.3h-.085a3,3,0,0,0-1.945,5.283,4.9,4.9,0,0,0-3.679,4.4v1.063a.5.5,0,0,0,.5.5h5.509c.021.056.036.114.059.169s.058.121.087.182c.047.1.1.193.149.286.023.04.04.083.064.122a6.2,6.2,0,0,0-3.617,5.289v1.276a1.428,1.428,0,0,0,1.426,1.427H73.823a1.428,1.428,0,0,0,1.426-1.427v-1.276a6.2,6.2,0,0,0-3.617-5.289c.025-.041.043-.086.067-.128.05-.086.095-.176.139-.266s.074-.151.106-.229c.018-.044.03-.09.047-.135H77.5a.5.5,0,0,0,.5-.5v-1.063a4.9,4.9,0,0,0-3.679-4.4m-3.947-2.229a2,2,0,0,1,1.945-2.054h.1a2,2,0,0,1,.006,4H72.37a1.989,1.989,0,0,1-2-1.946M67.042,805.5c.038-.011.076-.02.115-.029.064-.018.128-.036.194-.049.049-.01.1-.015.148-.023s.114-.02.172-.026c.1-.01.207-.015.312-.016H68c.112,0,.222.006.33.016.048.005.1.015.142.022s.12.015.178.027.11.028.165.042.1.022.144.037.11.039.165.059.089.03.132.049.1.048.153.072.089.04.131.063.089.053.134.08.091.052.135.082.075.054.112.082.1.068.14.1.061.054.091.081c.048.042.1.084.143.129.025.024.048.051.072.076.048.051.1.1.141.156.019.023.036.047.054.07.047.059.093.119.136.181.014.021.026.042.039.063.044.068.087.136.126.207l.029.057c.039.075.076.15.109.228.008.018.014.036.021.054.033.081.063.162.09.245.006.018.01.036.015.053q.038.128.067.26c0,.017.006.034.008.051.018.091.033.182.042.275,0,.015,0,.03,0,.046.008.091.013.185.014.278,0,.049,0,.1-.005.145a3.255,3.255,0,0,1-.048.451c0,.031-.008.063-.015.093-.015.076-.036.15-.057.224-.012.041-.022.082-.035.122-.024.071-.049.141-.077.211-.016.038-.033.076-.049.114-.032.07-.063.139-.1.206-.014.027-.03.052-.045.078a3.283,3.283,0,0,1-.3.44l-.013.018c-.05.062-.105.119-.16.177-.025.026-.049.052-.075.078-.055.054-.112.105-.171.156l-.086.069a3.252,3.252,0,0,1-4.045.005c-.033-.026-.065-.052-.1-.078-.056-.048-.11-.1-.162-.147-.03-.029-.059-.06-.087-.091-.051-.053-.1-.107-.15-.164-.017-.021-.032-.043-.048-.064a3.242,3.242,0,0,1-.254-.373c-.021-.036-.043-.071-.062-.108-.033-.061-.062-.125-.092-.189-.02-.044-.039-.088-.057-.133-.025-.065-.05-.13-.072-.2-.016-.047-.029-.1-.042-.143-.019-.067-.038-.134-.052-.2-.01-.049-.016-.1-.025-.148a3.382,3.382,0,0,1-.038-.366c0-.061-.007-.123-.007-.185,0-.086.006-.17.013-.254,0-.024,0-.048.006-.073.009-.083.022-.165.037-.247.005-.026.008-.051.014-.077.017-.079.037-.156.06-.233.008-.027.014-.053.022-.08.024-.074.051-.146.08-.219.011-.026.021-.054.032-.08.03-.069.063-.135.1-.2.014-.028.027-.057.042-.084.034-.062.072-.121.11-.181.019-.029.036-.059.055-.087.037-.055.077-.106.118-.158.024-.031.047-.063.072-.093.038-.046.08-.089.121-.133s.06-.066.091-.1.08-.073.12-.109.074-.068.113-.1.077-.057.116-.086.089-.069.136-.1.074-.044.11-.066c.052-.032.1-.065.159-.094.034-.018.07-.034.105-.05.059-.03.118-.059.178-.085.035-.014.07-.025.105-.038.063-.024.127-.049.192-.069m-5.416-3.7a1.991,1.991,0,0,1,1.952-1.946h.1a2,2,0,0,1-.051,4h-.058a2,2,0,0,1-1.946-2.053M59,809.044v-.494c.056-2.037,2.108-3.695,4.576-3.695l.154,0a5.282,5.282,0,0,1,1.723.337,4.234,4.234,0,0,0-1.629,2.556c0,.018-.006.036-.01.053-.022.117-.041.234-.054.353,0,.037-.006.076-.009.113-.007.078-.016.156-.018.236,0,.021,0,.042,0,.063s0,.034,0,.052a4.3,4.3,0,0,0,.027.463c0,.008,0,.014,0,.021H59.116c-.09,0-.113-.038-.116-.062M74.249,816.2c0,.007,0,.013,0,.019h0v1.208a.426.426,0,0,1-.426.426H62.176a.426.426,0,0,1-.426-.426v-1.208h0c0-.006,0-.013,0-.019a5.253,5.253,0,0,1,3.269-4.536,4.251,4.251,0,0,0,5.96,0,5.251,5.251,0,0,1,3.269,4.536M77,809.044c0,.023-.026.062-.116.062H72.235a.232.232,0,0,0,0-.027,4.178,4.178,0,0,0,.026-.458c0-.016,0-.031,0-.046s0-.045,0-.068c0-.087-.012-.172-.02-.257,0-.028,0-.057-.007-.085-.013-.13-.034-.258-.059-.383,0-.008,0-.016,0-.023a4.235,4.235,0,0,0-1.63-2.563,5.282,5.282,0,0,1,1.723-.337l.154,0c2.468,0,4.52,1.657,4.576,3.695Z" transform="translate(-58 -798.856)"/>
</svg>
