<svg id="Group_8339" data-name="Group 8339" xmlns="http://www.w3.org/2000/svg" width="20" height="20" viewBox="0 0 20 20">
  <path id="Path_7233" data-name="Path 7233" d="M590.387,1787.342v-3.252a1.5,1.5,0,1,0-3,0v4.766a2.35,2.35,0,0,0-2.712-.32,1.358,1.358,0,0,0-.647.895,3.174,3.174,0,0,0,.582,2.1,28.114,28.114,0,0,0,1.913,2.673v0s.066.082.176.209l.054.063.135.153c.2.231.41.449.617.65l.041.04c.046.044.091.089.136.13a4.516,4.516,0,0,0,1.2.872,1.11,1.11,0,0,0,.188.019h3.648l.068-.019a2.76,2.76,0,0,0,1.823-2.754v-3.128C594.613,1790.407,594.563,1787.553,590.387,1787.342Zm3.226,6.223a1.753,1.753,0,0,1-1.044,1.774h-3.494a.434.434,0,0,1-.135-.03.077.077,0,0,1-.053-.019,13.27,13.27,0,0,1-1.351-1.451h0a26.118,26.118,0,0,1-2.09-2.862,2.222,2.222,0,0,1-.44-1.335.36.36,0,0,1,.185-.248,1.034,1.034,0,0,1,.542-.151,2.189,2.189,0,0,1,1.329.635l.048.043.094.046a.843.843,0,0,0,.807.018.777.777,0,0,0,.374-.65v-5.244a.509.509,0,1,1,1,0v4.24h.5c3.634,0,3.724,2.027,3.726,2.108Z" transform="translate(-574.613 -1776.339)" fill="#00a859"/>
  <path id="Path_7234" data-name="Path 7234" d="M575.734,1768.146a3.556,3.556,0,0,0-1.71-.949.008.008,0,0,1-.006-.008v-2.538l-.339-.115a8.906,8.906,0,0,0-7.824,1.012.006.006,0,0,1-.008,0,8.9,8.9,0,0,0-7.823-1.012l-.339.115v2.538a.008.008,0,0,1-.006.008,3.552,3.552,0,0,0-1.71.949l-.117.14v10.325a.51.51,0,0,0,.8.415,7.358,7.358,0,0,1,6.908-.433.536.536,0,0,0,.716-.593.4.4,0,0,0-.24-.313,8.793,8.793,0,0,0-6.5-.258.506.506,0,0,1-.687-.474v-8.01a.5.5,0,0,1,.226-.424,3.07,3.07,0,0,1,.6-.279.009.009,0,0,1,.012.008v7.131a.5.5,0,0,0,1,0v-9.615a.514.514,0,0,1,.4-.5,7.913,7.913,0,0,1,6.029.992.508.508,0,0,1,.239.431v5.694a.5.5,0,0,0,1,0v-5.694a.508.508,0,0,1,.24-.431,7.912,7.912,0,0,1,6.029-.992.514.514,0,0,1,.4.5v8.109a.433.433,0,0,0,.323.42l.01,0a.533.533,0,0,0,.667-.516v-5.532a.009.009,0,0,1,.011-.008,3.06,3.06,0,0,1,.6.279.5.5,0,0,1,.226.424v5.651a.583.583,0,0,0,.241.48l.011.008a.47.47,0,0,0,.748-.376v-6.422Z" transform="translate(-555.851 -1764.049)" fill="#00a859"/>
</svg>
