<svg xmlns="http://www.w3.org/2000/svg" width="30.183" height="41.508" viewBox="0 0 30.183 41.508">
  <g id="Group_8510" data-name="Group 8510" transform="translate(-62.993 -0.001)">
    <g id="Group_8509" data-name="Group 8509" transform="translate(62.993 0.001)">
      <path id="Path_7391" data-name="Path 7391" d="M89.854,19.727H89.8a3.164,3.164,0,0,0-2.064.791,3.322,3.322,0,0,0-3.107-2.359,3.15,3.15,0,0,0-1.956.719,3.358,3.358,0,0,0-3.186-2.754,3.157,3.157,0,0,0-1.87.618V15A7.91,7.91,0,1,0,70.6,15v7.6L68.962,20.4a3.31,3.31,0,1,0-5.206,4.077l6.335,12.455a7.545,7.545,0,0,0,6.472,4.516c1.122.05,2.272.065,3.373.065,3.466,0,6.472-.18,6.472-.18h.072c5.2,0,6.652-5.588,6.695-8.565V23.236A3.416,3.416,0,0,0,89.854,19.727ZM70.573,9.874h0v3.437a6.486,6.486,0,1,1,7.019,0V9.875a3.509,3.509,0,1,0-7.019,0Zm15.72,30.017c-.05,0-5.127.316-9.708.115a6.136,6.136,0,0,1-5.221-3.732l-6.357-12.52a.718.718,0,0,0-.079-.122,1.881,1.881,0,1,1,2.912-2.359l2.876,3.962.043.036a.963.963,0,0,0,.216.173l.122.043h.417l.129-.058h.072l.036-.036a.647.647,0,0,0,.1-.108.667.667,0,0,0,.072-.108.718.718,0,0,0,.043-.122.726.726,0,0,0,0-.144V9.875a2.071,2.071,0,1,1,4.142,0V22.6a.719.719,0,1,0,1.438,0v-2.97a1.877,1.877,0,1,1,3.732,0V24.8a.719.719,0,1,0,1.438,0V21.668a1.877,1.877,0,1,1,3.732,0v5.753a.719.719,0,0,0,1.438,0V23.236a1.877,1.877,0,1,1,3.732,0l.043,9.514C91.665,33.045,91.492,39.941,86.293,39.891Z" transform="translate(-62.993 -0.001)" fill="#373737"/>
    </g>
  </g>
</svg>
