<svg xmlns="http://www.w3.org/2000/svg" width="23.641" height="32.731" viewBox="0 0 23.641 32.731">
  <g id="Group_4563" data-name="Group 4563" transform="translate(324.312 -61.257) rotate(90)">
    <path id="Path_4484" data-name="Path 4484" d="M-.1,13.271a4.59,4.59,0,0,0,3.3,1.375,4.682,4.682,0,0,0,3.318-1.408l5.324-5.324a4.66,4.66,0,1,0-6.59-6.59l-.665.665" transform="translate(83.17 303.181) rotate(45)" fill="none" stroke="var(--ion-color-vh-green)" stroke-linecap="round" stroke-linejoin="round" stroke-width="2"/>
    <path id="Path_4485" data-name="Path 4485" d="M13.261,1.3a4.59,4.59,0,0,0-3.3-1.375A4.682,4.682,0,0,0,6.638,1.334L1.314,6.658a4.66,4.66,0,1,0,6.59,6.59l.665-.665" transform="translate(73.073 302.189) rotate(45)" fill="none" stroke="var(--ion-color-vh-green)" stroke-linecap="round" stroke-linejoin="round" stroke-width="2"/>
  </g>
</svg>
