<svg xmlns="http://www.w3.org/2000/svg" width="22.751" height="30" viewBox="0 0 22.751 30">
  <g id="Group_7952" data-name="Group 7952" transform="translate(1037.529 152.394)">
    <path id="Path_4643" data-name="Path 4643" d="M-1015.637-135.535l-.033-.054-.038-.049c-1.889-2.429-1.909-2.515-2.956-7.07l-.24-1.04a7.162,7.162,0,0,0-3.849-5.233v-.012a3.406,3.406,0,0,0-3.4-3.4,3.406,3.406,0,0,0-3.4,3.4v.012a7.164,7.164,0,0,0-3.849,5.233l-.24,1.04c-1.047,4.555-1.067,4.641-2.955,7.07l-.039.049-.033.054a5.347,5.347,0,0,0-.66,4.136,3.835,3.835,0,0,0,2.474,2.337,15.364,15.364,0,0,0,3.873.465,4.96,4.96,0,0,0-.152,1.221,4.988,4.988,0,0,0,4.982,4.981,4.988,4.988,0,0,0,4.982-4.981,4.954,4.954,0,0,0-.152-1.221,15.363,15.363,0,0,0,3.873-.465,3.838,3.838,0,0,0,2.474-2.337A5.345,5.345,0,0,0-1015.637-135.535Z" transform="translate(0 0)"/>
    <path id="Path_4644" data-name="Path 4644" d="M-1016.547-134.4c-2.193-2.848-2.123-3.023-3.411-8.649-1.223-5.343-5.648-5.072-6.089-5.031-.442-.04-4.866-.311-6.09,5.031-1.287,5.626-1.218,5.8-3.411,8.649,0,0-2.157,3.515,1.218,4.782,0,0,1.107.489,8.246.492h.072c7.139,0,8.246-.492,8.246-.492C-1014.389-130.885-1016.547-134.4-1016.547-134.4Z" transform="translate(-0.106 -0.351)" fill="#e2dddb"/>
    <path id="Path_4645" data-name="Path 4645" d="M-1025.333-126.142h-.073c-1.415,0-2.605-.019-3.608-.05a3.823,3.823,0,0,0-.187,1.185,3.832,3.832,0,0,0,3.832,3.832,3.833,3.833,0,0,0,3.832-3.832,3.85,3.85,0,0,0-.187-1.185C-1022.728-126.162-1023.919-126.142-1025.333-126.142Z" transform="translate(-0.784 -2.413)" />
    <path id="Path_4646" data-name="Path 4646" d="M-1025.593-149.535c.15,0,.275,0,.369.011s.219-.011.368-.011a7.385,7.385,0,0,1,1.826.241,2.239,2.239,0,0,0-2.194-1.8,2.238,2.238,0,0,0-2.194,1.8A7.374,7.374,0,0,1-1025.593-149.535Z" transform="translate(-0.929 -0.106)" />
    <path id="Path_4647" data-name="Path 4647" d="M-1018.49-142.906a6.9,6.9,0,0,0-1.786-3.444,14.613,14.613,0,0,1,.418,6.537,13.208,13.208,0,0,0,1.054,7.066,3.327,3.327,0,0,1-.938,3.66,13.736,13.736,0,0,0,3.467-.39c3.411-1.266,1.231-4.782,1.231-4.782C-1017.259-137.105-1017.189-137.281-1018.49-142.906Z" transform="translate(-1.616 -0.61)" fill="#a0a0a0"/>
    <g id="Group_4788" data-name="Group 4788" transform="translate(-1033.659 -147.44)">
      <path id="Path_4648" data-name="Path 4648" d="M-1030.667-142.2c-.161.692-.3,1.3-.425,1.844.693.407,1.737.309,1.736-1.329,0-2.321,1.864-3.832,2.514-4.465s0-.763,0-.764C-1028.285-146.414-1029.978-145.181-1030.667-142.2Z" transform="translate(1033.084 146.916)" />
      <path id="Path_4649" data-name="Path 4649" d="M-1030.271-136.857c-.317-2.18-1.441-.941-1.441-.941h0a9.493,9.493,0,0,1-1.549,3.587C-1031.039-133.108-1029.974-134.813-1030.271-136.857Z" transform="translate(1033.261 146.2)" />
    </g>
    <path id="Path_4650" data-name="Path 4650" d="M-1027.5-123.207a.954.954,0,0,1,.244-1.355,5.479,5.479,0,0,1,3.337-.968c2.476.108-1.323,2.215-1.323,2.215S-1026.58-122.009-1027.5-123.207Z" transform="translate(-0.906 -2.467)" fill="#e2dddb"/>
  </g>
</svg>
