<svg xmlns="http://www.w3.org/2000/svg" xmlns:xlink="http://www.w3.org/1999/xlink" width="105.964" height="122.119" viewBox="0 0 105.964 122.119">
  <defs>
    <linearGradient id="linear-gradient" x1="-0.045" y1="1.045" x2="0.364" y2="0.636" gradientUnits="objectBoundingBox">
      <stop offset="0" stop-color="#b0b0b0"/>
      <stop offset="1" stop-color="#d7d7d7"/>
    </linearGradient>
    <linearGradient id="linear-gradient-2" x1="0" y1="0.5" x2="1" y2="0.5" xlink:href="#linear-gradient"/>
    <linearGradient id="linear-gradient-3" x1="0.15" y1="1.027" x2="0.533" y2="0.646" xlink:href="#linear-gradient"/>
    <linearGradient id="linear-gradient-4" y1="0.5" x2="1" y2="0.5" gradientUnits="objectBoundingBox">
      <stop offset="0" stop-color="#939493"/>
      <stop offset="1" stop-color="#bbb"/>
    </linearGradient>
  </defs>
  <g id="Group_8291" data-name="Group 8291" transform="translate(-85.394 -267.142)">
    <path id="Path_7241" data-name="Path 7241" d="M157.981,300.034h-17.05V291.44a4.127,4.127,0,0,0-5.3-3.955L93.5,300.034V274.723h60.351a4.127,4.127,0,0,1,4.127,4.127Z" fill="url(#linear-gradient)"/>
    <path id="Path_7242" data-name="Path 7242" d="M143.4,288.615c0-2.761-3.208-4.743-6.4-3.955L93.5,295.4v4.637l42.123-12.549a4.127,4.127,0,0,1,5.3,3.955v8.594h17.05V297.21H143.4Z" fill="#b0b0b0"/>
    <path id="Path_7243" data-name="Path 7243" d="M140.793,290.387a4.123,4.123,0,0,1,.138,1.053v8.594h17.05v-9.85A37.01,37.01,0,0,0,140.793,290.387Z" fill="#b0b0b0"/>
    <path id="Path_7244" data-name="Path 7244" d="M85.394,312.2l5.21-1.579a4.085,4.085,0,0,0,2.9-3.908V272.628a4.085,4.085,0,0,0-2.9-3.908l-5.21-1.578Z" fill="url(#linear-gradient-2)"/>
    <path id="Path_7245" data-name="Path 7245" d="M149.339,291.238c42.019,0,42.019,63.28,42.019,63.28H107.32S107.32,291.238,149.339,291.238Z" fill="url(#linear-gradient-3)"/>
    <path id="Path_7246" data-name="Path 7246" d="M149.339,323.395c-15.943,0-30.03,2.246-38.575,5.683a112.431,112.431,0,0,0-2.443,12.748c8.125-4.046,23.444-6.775,41.018-6.775s32.893,2.729,41.018,6.775a112.431,112.431,0,0,0-2.443-12.748C179.369,325.641,165.282,323.395,149.339,323.395Z" fill="#007b41"/>
    <path id="Path_7247" data-name="Path 7247" d="M139.063,292.67c-31.737,9.374-31.743,61.848-31.743,61.848h18.286C121.935,328.164,127.62,304.331,139.063,292.67Z" fill="#939493" opacity="0.51" style="mix-blend-mode: multiply;isolation: isolate"/>
    <ellipse id="Ellipse_349" data-name="Ellipse 349" cx="42.019" cy="11.931" rx="42.019" ry="11.931" transform="translate(107.32 342.586)" fill="url(#linear-gradient-4)"/>
    <ellipse id="Ellipse_350" data-name="Ellipse 350" cx="37.062" cy="7.471" rx="37.062" ry="7.471" transform="translate(112.277 346.445)" fill="#6d6e6e"/>
    <path id="Path_7248" data-name="Path 7248" d="M116.738,352.167a32.42,32.42,0,1,0,64.113-.363c-7.7-2.478-18.959-4.043-31.512-4.043C136.183,347.761,124.443,349.479,116.738,352.167Z" fill="#00a859"/>
    <g id="Group_8290" data-name="Group 8290">
      <circle id="Ellipse_351" data-name="Ellipse 351" cx="9.925" cy="9.925" r="9.925" transform="matrix(0.231, -0.973, 0.973, 0.231, 137.484, 382.927)" fill="#8dffc9"/>
      <circle id="Ellipse_352" data-name="Ellipse 352" cx="8.126" cy="8.126" r="8.126" transform="translate(139.583 381.483) rotate(-76.025)" fill="#007b41"/>
      <circle id="Ellipse_353" data-name="Ellipse 353" cx="7.444" cy="7.444" r="7.444" transform="translate(140.889 381.712) rotate(-80.761)" fill="#00a859"/>
      <circle id="Ellipse_354" data-name="Ellipse 354" cx="4.839" cy="4.839" r="4.839" transform="translate(144.593 370.721)" fill="#8dffc9"/>
      <circle id="Ellipse_355" data-name="Ellipse 355" cx="3.846" cy="3.846" r="3.846" transform="translate(145.585 371.714)" fill="#006837"/>
      <circle id="Ellipse_356" data-name="Ellipse 356" cx="3.101" cy="3.101" r="3.101" transform="translate(146.33 372.458)" fill="#007b41"/>
      <g id="Group_8289" data-name="Group 8289">
        <path id="Path_7249" data-name="Path 7249" d="M150.1,369.5a.663.663,0,1,1-.664-.664A.664.664,0,0,1,150.1,369.5Z" fill="#007b41"/>
        <circle id="Ellipse_357" data-name="Ellipse 357" cx="0.664" cy="0.664" r="0.664" transform="translate(148.768 380.917)" fill="#007b41"/>
        <path id="Path_7250" data-name="Path 7250" d="M155.473,376.2a.663.663,0,1,1,.664-.664A.664.664,0,0,1,155.473,376.2Z" fill="#007b41"/>
        <path id="Path_7251" data-name="Path 7251" d="M143.39,376.2a.663.663,0,1,1,.663-.664A.664.664,0,0,1,143.39,376.2Z" fill="#007b41"/>
        <path id="Path_7252" data-name="Path 7252" d="M153.234,380.281a.664.664,0,1,1,.939,0A.665.665,0,0,1,153.234,380.281Z" fill="#007b41"/>
        <path id="Path_7253" data-name="Path 7253" d="M144.69,371.737a.664.664,0,1,1,.939,0A.665.665,0,0,1,144.69,371.737Z" fill="#007b41"/>
        <path id="Path_7254" data-name="Path 7254" d="M144.69,379.342a.664.664,0,1,1,0,.939A.665.665,0,0,1,144.69,379.342Z" fill="#007b41"/>
        <path id="Path_7255" data-name="Path 7255" d="M153.234,370.8a.664.664,0,1,1,0,.939A.665.665,0,0,1,153.234,370.8Z" fill="#007b41"/>
        <path id="Path_7256" data-name="Path 7256" d="M143.6,377.262a.663.663,0,1,1-.356.868A.663.663,0,0,1,143.6,377.262Z" fill="#007b41"/>
        <path id="Path_7257" data-name="Path 7257" d="M154.747,372.593a.664.664,0,1,1-.355.869A.664.664,0,0,1,154.747,372.593Z" fill="#007b41"/>
        <path id="Path_7258" data-name="Path 7258" d="M144.124,372.578a.663.663,0,1,1-.87.353A.662.662,0,0,1,144.124,372.578Z" fill="#007b41"/>
        <path id="Path_7259" data-name="Path 7259" d="M155.255,377.279a.663.663,0,1,1-.869.353A.662.662,0,0,1,155.255,377.279Z" fill="#007b41"/>
        <path id="Path_7260" data-name="Path 7260" d="M147.647,369.729a.664.664,0,1,1-.873-.346A.664.664,0,0,1,147.647,369.729Z" fill="#007b41"/>
        <path id="Path_7261" data-name="Path 7261" d="M152.435,380.823a.664.664,0,1,1-.873-.346A.665.665,0,0,1,152.435,380.823Z" fill="#007b41"/>
        <path id="Path_7262" data-name="Path 7262" d="M152.328,370.2a.664.664,0,1,1-.364-.865A.664.664,0,0,1,152.328,370.2Z" fill="#007b41"/>
        <path id="Path_7263" data-name="Path 7263" d="M147.764,381.384a.664.664,0,1,1-.364-.865A.665.665,0,0,1,147.764,381.384Z" fill="#007b41"/>
      </g>
      <path id="Path_7264" data-name="Path 7264" d="M151.714,373.869c.452,1.454.094,4.416-2.643,4.4a2.486,2.486,0,0,0,2.916-1.448A2.926,2.926,0,0,0,151.714,373.869Z" fill="#8dffc9"/>
    </g>
    <path id="Path_7265" data-name="Path 7265" d="M132.475,358.777c10.8-13.684,40.622-6.3,47.807,5.9a32.55,32.55,0,0,0,.569-12.877c-7.7-2.478-18.959-4.043-31.512-4.043-13.156,0-24.9,1.718-32.6,4.406a32.4,32.4,0,0,0,27.776,36.8C131.231,384.409,124.214,369.241,132.475,358.777Z" fill="#007b41"/>
    <path id="Path_7266" data-name="Path 7266" d="M153.719,294.3c6.774-.391,20.669,6.989,27.226,21.364a87.738,87.738,0,0,1,7.426,27.487s-4.951-20.583-11.334-30.483S161.535,295.863,153.719,294.3Z" fill="#fff" opacity="0.55"/>
    <path id="Path_7267" data-name="Path 7267" d="M178.328,364.794c-1.529,3.932-12.589,19.04-28.565,22C164.533,386.446,176.221,374.147,178.328,364.794Z" fill="#fff"/>
  </g>
</svg>
