<svg xmlns="http://www.w3.org/2000/svg" width="35" height="35" viewBox="0 0 35 35">
  <g id="Group_12689" data-name="Group 12689" transform="translate(0.037)">
    <rect id="Rectangle_1620" data-name="Rectangle 1620" width="7" height="6" transform="translate(-0.037 -0.001)" fill=""/>
    <rect id="Rectangle_1678" data-name="Rectangle 1678" width="7" height="7" transform="translate(-0.037 8.999)" fill=""/>
    <rect id="Rectangle_1682" data-name="Rectangle 1682" width="7" height="8" transform="translate(-0.037 17.999)" fill=""/>
    <rect id="Rectangle_1686" data-name="Rectangle 1686" width="7" height="6" transform="translate(-0.037 28.999)" fill=""/>
    <rect id="Rectangle_1675" data-name="Rectangle 1675" width="7" height="6" transform="translate(8.963 -0.001)" fill=""/>
    <rect id="Rectangle_1679" data-name="Rectangle 1679" width="7" height="7" transform="translate(8.963 8.999)" fill=""/>
    <rect id="Rectangle_1683" data-name="Rectangle 1683" width="7" height="8" transform="translate(8.963 17.999)" fill=""/>
    <rect id="Rectangle_1687" data-name="Rectangle 1687" width="7" height="6" transform="translate(8.963 28.999)" fill=""/>
    <rect id="Rectangle_1676" data-name="Rectangle 1676" width="8" height="6" transform="translate(17.963 -0.001)" fill=""/>
    <rect id="Rectangle_1680" data-name="Rectangle 1680" width="8" height="7" transform="translate(17.963 8.999)" fill=""/>
    <rect id="Rectangle_1684" data-name="Rectangle 1684" width="8" height="8" transform="translate(17.963 17.999)" fill=""/>
    <rect id="Rectangle_1688" data-name="Rectangle 1688" width="8" height="6" transform="translate(17.963 28.999)" fill=""/>
    <rect id="Rectangle_1677" data-name="Rectangle 1677" width="6" height="6" transform="translate(28.963 -0.001)" fill=""/>
    <rect id="Rectangle_1681" data-name="Rectangle 1681" width="6" height="7" transform="translate(28.963 8.999)" fill=""/>
    <rect id="Rectangle_1685" data-name="Rectangle 1685" width="6" height="8" transform="translate(28.963 17.999)" fill=""/>
    <rect id="Rectangle_1689" data-name="Rectangle 1689" width="6" height="6" transform="translate(28.963 28.999)" fill=""/>
  </g>
</svg>
