<svg xmlns="http://www.w3.org/2000/svg" width="41.54" height="33" viewBox="0 0 41.54 33">
  <g id="Group_14324" data-name="Group 14324" transform="translate(0 -9.564)">
    <path id="Path_31104" data-name="Path 31104" d="M20.782,39.013a1.886,1.886,0,0,1-3.091,1.452L7.379,31.919H1.886A1.886,1.886,0,0,1,0,30.033V22.518a1.887,1.887,0,0,1,1.886-1.887H7.379l10.313-8.546a1.887,1.887,0,0,1,3.091,1.453V39.013Zm7.25-2.948c-.046,0-.09,0-.136,0a1.884,1.884,0,0,1-1.334-.552l-.252-.253a1.885,1.885,0,0,1-.182-2.457,10.969,10.969,0,0,0-.29-13.442,1.885,1.885,0,0,1,.13-2.523l.252-.252a1.845,1.845,0,0,1,1.428-.55,1.889,1.889,0,0,1,1.367.69,15.108,15.108,0,0,1,.393,18.583A1.888,1.888,0,0,1,28.032,36.065Zm7.8,5.83a1.888,1.888,0,0,1-1.363.667l-.079,0a1.885,1.885,0,0,1-1.334-.552l-.248-.248a1.887,1.887,0,0,1-.11-2.548,20.1,20.1,0,0,0-.333-26.266,1.887,1.887,0,0,1,.076-2.582l.247-.248a1.836,1.836,0,0,1,1.391-.555,1.887,1.887,0,0,1,1.356.633,24.221,24.221,0,0,1,.4,31.7Z" transform="translate(0 0)" fill=""/>
  </g>
</svg>
