<svg id="Component_131_9" data-name="Component 131 – 9" xmlns="http://www.w3.org/2000/svg" width="20.003" height="20" viewBox="0 0 20.003 20">
  <path id="Path_153" data-name="Path 153" d="M1.7,952.36a1.708,1.708,0,0,0-1.7,1.7v6.191a1.708,1.708,0,0,0,1.7,1.7H7.871a1.708,1.708,0,0,0,1.7-1.7v-6.189a1.708,1.708,0,0,0-1.7-1.7S1.7,952.36,1.7,952.36Z" transform="translate(0 -952.36)" fill="#373737" fill-rule="evenodd"/>
  <path id="Path_154" data-name="Path 154" d="M49.6,952.36a1.71,1.71,0,0,0-1.7,1.7v6.191a1.707,1.707,0,0,0,1.7,1.7h6.174a1.708,1.708,0,0,0,1.7-1.7v-6.189a1.708,1.708,0,0,0-1.7-1.7H49.6Z" transform="translate(-37.468 -952.36)" fill="#373737" fill-rule="evenodd"/>
  <path id="Path_155" data-name="Path 155" d="M1.7,1000.14a1.71,1.71,0,0,0-1.7,1.7v6.193a1.707,1.707,0,0,0,1.7,1.7H7.871a1.71,1.71,0,0,0,1.7-1.7v-6.193a1.707,1.707,0,0,0-1.7-1.7Z" transform="translate(0 -989.737)" fill="#373737" fill-rule="evenodd"/>
  <path id="Path_156" data-name="Path 156" d="M49.6,1000.14a1.708,1.708,0,0,0-1.7,1.7v6.193a1.708,1.708,0,0,0,1.7,1.7h6.174a1.708,1.708,0,0,0,1.7-1.7v-6.193a1.706,1.706,0,0,0-1.7-1.7Z" transform="translate(-37.468 -989.737)" fill="#373737" fill-rule="evenodd"/>
</svg>
