<svg xmlns="http://www.w3.org/2000/svg" xmlns:xlink="http://www.w3.org/1999/xlink" width="64" height="64" viewBox="0 0 64 64">
  <defs>
    <filter id="Exclusion_2" x="0" y="0" width="64" height="64" filterUnits="userSpaceOnUse">
      <feOffset dy="2" input="SourceAlpha"/>
      <feGaussianBlur stdDeviation="3" result="blur"/>
      <feFlood flood-opacity="0.078"/>
      <feComposite operator="in" in2="blur"/>
      <feComposite in="SourceGraphic"/>
    </filter>
  </defs>
  <g id="Group_4906" data-name="Group 4906" transform="translate(-167 -263)">
    <g transform="matrix(1, 0, 0, 1, 167, 263)" filter="url(#Exclusion_2)">
      <path id="Exclusion_2-2" data-name="Exclusion 2" d="M23,46a22.9,22.9,0,0,1-12.859-3.928A23.069,23.069,0,0,1,1.808,31.953,22.972,22.972,0,0,1,3.928,10.141a23.108,23.108,0,0,1,6.212-6.212A23.005,23.005,0,1,1,23,46Zm.143-32.2a9.344,9.344,0,1,0,9.345,9.343A9.354,9.354,0,0,0,23.143,13.8Z" transform="translate(9 7)" fill="#fff"/>
    </g>
    <text id="OK" transform="translate(199 295)" fill="#373737" font-size="6" font-family="Roboto-Regular, Roboto"><tspan x="-3.943" y="0">OK</tspan></text>
    <rect id="Rectangle_1729" data-name="Rectangle 1729" width="7" height="0.7" rx="0.35" transform="translate(186 293.701) rotate(180)" fill="#373737"/>
    <rect id="Rectangle_2505" data-name="Rectangle 2505" width="7" height="0.7" rx="0.35" transform="translate(203 309.5) rotate(180)" fill="#373737"/>
    <path id="Union_55" data-name="Union 55" d="M13564.149,15611.649v-2.8h-2.8a.351.351,0,1,1,0-.7h2.8v-2.8a.351.351,0,1,1,.7,0v2.8h2.8a.351.351,0,1,1,0,.7h-2.8v2.8a.351.351,0,1,1-.7,0Z" transform="translate(-15409 13841.5) rotate(-90)" fill="#373737"/>
    <path id="Union_69" data-name="Union 69" d="M13564.149,15611.649v-2.8h-2.8a.351.351,0,1,1,0-.7h2.8v-2.8a.351.351,0,1,1,.7,0v2.8h2.8a.351.351,0,1,1,0,.7h-2.8v2.8a.351.351,0,1,1-.7,0Z" transform="translate(-15393 13857.001) rotate(-90)" fill="#373737"/>
  </g>
</svg>
