<svg xmlns="http://www.w3.org/2000/svg" width="25" height="12" viewBox="0 0 25 12"><defs><style>.a{fill:#c5c8cf;}.b{fill:#dedee6;}.c{fill:#4e4f52;}.d{fill:#eaeaf2;}.e{fill:var(--ion-color-default_green);}</style></defs><g transform="translate(889.029 19.118)"><path class="a" d="M-865.183-7.118h-22.693A1.223,1.223,0,0,1-889.029-8.4v-9.435a1.223,1.223,0,0,1,1.153-1.283h22.693a1.224,1.224,0,0,1,1.154,1.283V-8.4A1.223,1.223,0,0,1-865.183-7.118Z"/><path class="b" d="M-865.183-19.118h-22.693a1.223,1.223,0,0,0-1.153,1.283v2c2.287.927,7.024,1.564,12.5,1.564s10.213-.637,12.5-1.564v-2A1.224,1.224,0,0,0-865.183-19.118Z"/><rect class="c" width="0.274" height="1.026" transform="translate(-885.136 -19.118)"/><rect class="c" width="0.274" height="1.026" transform="translate(-868.197 -19.118)"/><path class="d" d="M-865.645-11.451h-21.846a.733.733,0,0,1-.692-.769v1.154a.733.733,0,0,0,.692.769h21.846a.733.733,0,0,0,.692-.769V-12.22A.733.733,0,0,1-865.645-11.451Z"/><path class="c" d="M-865.645-11.323h-21.846a.858.858,0,0,1-.808-.9v-5.1a.857.857,0,0,1,.808-.9h21.846a.856.856,0,0,1,.808.9v5.1A.857.857,0,0,1-865.645-11.323Zm-21.846-6.641a.613.613,0,0,0-.577.641v5.1a.613.613,0,0,0,.577.641h21.846a.613.613,0,0,0,.577-.641v-5.1a.613.613,0,0,0-.577-.641Z"/><rect class="c" width="21.769" height="1.5" transform="translate(-887.414 -9.457)"/><rect class="a" width="21.769" height="0.256" transform="translate(-887.414 -9.182)"/><rect class="a" width="21.769" height="0.256" transform="translate(-887.414 -8.489)"/><rect class="a" width="0.231" height="1.5" transform="translate(-885.414 -9.457)"/><rect class="a" width="0.231" height="1.5" transform="translate(-881.029 -9.457)"/><rect class="a" width="0.231" height="1.5" transform="translate(-876.645 -9.457)"/><rect class="a" width="0.231" height="1.5" transform="translate(-872.26 -9.457)"/><rect class="a" width="0.231" height="1.5" transform="translate(-867.875 -9.457)"/><path class="e" d="M-871.176-12.944c0,.285-2.415.517-5.392.517s-5.392-.232-5.392-.517,2.414-.517,5.392-.517S-871.176-13.23-871.176-12.944Z"/></g></svg>