<svg xmlns="http://www.w3.org/2000/svg" width="25" height="25" viewBox="0 0 25 25">
  <g id="Group_4891" data-name="Group 4891" transform="translate(-361.556 -690.83)">
    <path id="Path_4676" data-name="Path 4676" d="M385.556,702.33h-3.005a1,1,0,0,0,0,2h3.005a1,1,0,0,0,0-2Z" fill="#1a1818"/>
    <path id="Path_4677" data-name="Path 4677" d="M366.556,703.33a1,1,0,0,0-1-1h-3a1,1,0,0,0,0,2h3A1,1,0,0,0,366.556,703.33Z" fill="#1a1818"/>
    <path id="Path_4678" data-name="Path 4678" d="M374.056,695.835a1,1,0,0,0,1-1V691.83a1,1,0,0,0-2,0v3.005A1,1,0,0,0,374.056,695.835Z" fill="#1a1818"/>
    <path id="Path_4679" data-name="Path 4679" d="M374.056,710.83a1,1,0,0,0-1,1v3a1,1,0,0,0,2,0v-3A1,1,0,0,0,374.056,710.83Z" fill="#1a1818"/>
    <path id="Path_4680" data-name="Path 4680" d="M380.547,699.582a1,1,0,0,0,1.366.366l2.6-1.5a1,1,0,0,0-1-1.732l-2.6,1.5A1,1,0,0,0,380.547,699.582Z" fill="#1a1818"/>
    <path id="Path_4681" data-name="Path 4681" d="M367.561,707.08a1,1,0,0,0-1.366-.366l-2.6,1.5a1,1,0,1,0,1,1.732l2.6-1.5A1,1,0,0,0,367.561,707.08Z" fill="#1a1818"/>
    <path id="Path_4682" data-name="Path 4682" d="M368.942,696.473a1,1,0,0,0,1.733-1l-1.5-2.6a1,1,0,0,0-1.732,1Z" fill="#1a1818"/>
    <path id="Path_4683" data-name="Path 4683" d="M379.172,710.191a1,1,0,0,0-1.732,1l1.5,2.6a1,1,0,1,0,1.732-1Z" fill="#1a1818"/>
    <path id="Path_4684" data-name="Path 4684" d="M363.6,698.446l2.6,1.5a1,1,0,0,0,1-1.732l-2.6-1.5a1,1,0,0,0-1,1.732Z" fill="#1a1818"/>
    <path id="Path_4685" data-name="Path 4685" d="M384.515,708.214l-2.6-1.5a1,1,0,0,0-1,1.732l2.6,1.5a1,1,0,1,0,1-1.732Z" fill="#1a1818"/>
    <path id="Path_4686" data-name="Path 4686" d="M377.8,696.839a1,1,0,0,0,1.366-.366l1.5-2.6a1,1,0,0,0-1.732-1l-1.5,2.6A1,1,0,0,0,377.8,696.839Z" fill="#1a1818"/>
    <path id="Path_4687" data-name="Path 4687" d="M370.306,709.825a1,1,0,0,0-1.366.366l-1.5,2.6a1,1,0,1,0,1.732,1l1.5-2.6A1,1,0,0,0,370.306,709.825Z" fill="#1a1818"/>
    <path id="Path_4688" data-name="Path 4688" d="M374.056,697.83a5.5,5.5,0,1,0,5.5,5.5A5.506,5.506,0,0,0,374.056,697.83Zm0,9a3.5,3.5,0,1,1,3.5-3.5A3.5,3.5,0,0,1,374.056,706.83Z" fill="#1a1818"/>
  </g>
</svg>
