<svg xmlns="http://www.w3.org/2000/svg" width="25" height="40" viewBox="0 0 25 40">
  <g id="Group_1867" data-name="Group 1867" transform="translate(989.029 163.118)">
    <rect id="Rectangle_1806" data-name="Rectangle 1806" width="23.816" height="38.461" transform="translate(-988.437 -163.118)" fill="#e8e8e8"/>
    <path id="Path_1781" data-name="Path 1781" d="M-987.868-162.506v37.877h22.677v-37.877Zm21.486,36.686h-20.295v-33.5h20.295Z" fill="#e8e8e8"/>
    <rect id="Rectangle_1807" data-name="Rectangle 1807" width="0.231" height="37.876" transform="translate(-965.422 -162.506)" fill="#fafafa"/>
    <path id="Path_1782" data-name="Path 1782" d="M-987.868-162.506v37.876h.238v-37.624Z" fill="#b3b3b3"/>
    <path id="Path_1783" data-name="Path 1783" d="M-987.63-162.254h22.207l.231-.252h-22.676Z" fill="#ccc"/>
    <path id="Path_1784" data-name="Path 1784" d="M-986.677-159.315v33.5h20.295v-33.5Zm19.915,33.115H-986.3v-32.734h19.534Z" fill="#5ca2db"/>
    <rect id="Rectangle_1808" data-name="Rectangle 1808" width="19.534" height="32.734" transform="translate(-986.296 -158.934)" fill="#81bbeb"/>
    <g id="Group_1857" data-name="Group 1857">
      <path id="Path_1785" data-name="Path 1785" d="M-986.3-132.01l19.534-10.687v-2.681L-986.3-134.691Zm0-5.843v1.34l19.534-10.687v-1.34Z" fill="#9ecbf2"/>
      <path id="Path_1786" data-name="Path 1786" d="M-967.514-158.934l-18.782,10.22v2.681l19.534-10.629v-2.272Zm-5.9,0-12.881,7.047v1.34l15.33-8.387Z" fill="#9ecbf2"/>
    </g>
    <path id="Path_1787" data-name="Path 1787" d="M-965.422-125.049H-987.63l-.238.392h22.676Z" fill="#ccc"/>
    <rect id="Rectangle_1809" data-name="Rectangle 1809" width="25" height="1.54" transform="translate(-989.029 -124.657)" fill="#f2f2f2"/>
    <g id="Group_1866" data-name="Group 1866">
      <g id="Group_1858" data-name="Group 1858">
        <path id="Path_1788" data-name="Path 1788" d="M-965.974-157.972h-21.111l-.265,1.078h21.641Zm-17.9.759c-.087,0-.158-.1-.158-.22s.071-.22.158-.22.157.1.157.22S-983.785-157.213-983.872-157.213Zm14.686,0c-.087,0-.158-.1-.158-.22s.071-.22.158-.22.157.1.157.22S-969.1-157.213-969.186-157.213Z" fill="#efefef"/>
        <path id="Path_1789" data-name="Path 1789" d="M-965.974-156.256h-21.111l-.265,1.078h21.641Zm-17.9.759c-.087,0-.158-.1-.158-.22s.071-.221.158-.221.157.1.157.221S-983.785-155.5-983.872-155.5Zm14.686,0c-.087,0-.158-.1-.158-.22s.071-.221.158-.221.157.1.157.221S-969.1-155.5-969.186-155.5Z" fill="#efefef"/>
        <path id="Path_1790" data-name="Path 1790" d="M-965.974-154.54h-21.111l-.265,1.077h21.641Zm-17.9.759c-.087,0-.158-.1-.158-.22s.071-.221.158-.221.157.1.157.221S-983.785-153.781-983.872-153.781Zm14.686,0c-.087,0-.158-.1-.158-.22s.071-.221.158-.221.157.1.157.221S-969.1-153.781-969.186-153.781Z" fill="#efefef"/>
        <path id="Path_1791" data-name="Path 1791" d="M-965.974-152.825h-21.111l-.265,1.078h21.641Zm-17.9.76c-.087,0-.158-.1-.158-.221s.071-.22.158-.22.157.1.157.22S-983.785-152.065-983.872-152.065Zm14.686,0c-.087,0-.158-.1-.158-.221s.071-.22.158-.22.157.1.157.22S-969.1-152.065-969.186-152.065Z" fill="#efefef"/>
        <path id="Path_1792" data-name="Path 1792" d="M-965.974-151.109h-21.111l-.265,1.078h21.641Zm-17.9.76c-.087,0-.158-.1-.158-.221s.071-.22.158-.22.157.1.157.22S-983.785-150.349-983.872-150.349Zm14.686,0c-.087,0-.158-.1-.158-.221s.071-.22.158-.22.157.1.157.22S-969.1-150.349-969.186-150.349Z" fill="#efefef"/>
        <path id="Path_1793" data-name="Path 1793" d="M-965.974-149.393h-21.111l-.265,1.078h21.641Zm-17.9.759c-.087,0-.158-.1-.158-.22s.071-.221.158-.221.157.1.157.221S-983.785-148.634-983.872-148.634Zm14.686,0c-.087,0-.158-.1-.158-.22s.071-.221.158-.221.157.1.157.221S-969.1-148.634-969.186-148.634Z" fill="#efefef"/>
        <path id="Path_1794" data-name="Path 1794" d="M-965.974-147.677h-21.111l-.265,1.078h21.641Zm-17.9.759c-.087,0-.158-.1-.158-.22s.071-.221.158-.221.157.1.157.221S-983.785-146.918-983.872-146.918Zm14.686,0c-.087,0-.158-.1-.158-.22s.071-.221.158-.221.157.1.157.221S-969.1-146.918-969.186-146.918Z" fill="#efefef"/>
        <path id="Path_1795" data-name="Path 1795" d="M-965.974-145.961h-21.111l-.265,1.077h21.641Zm-17.9.759c-.087,0-.158-.1-.158-.221s.071-.22.158-.22.157.1.157.22S-983.785-145.2-983.872-145.2Zm14.686,0c-.087,0-.158-.1-.158-.221s.071-.22.158-.22.157.1.157.22S-969.1-145.2-969.186-145.2Z" fill="#efefef"/>
        <path id="Path_1796" data-name="Path 1796" d="M-965.974-144.246h-21.111l-.265,1.078h21.641Zm-17.9.76c-.087,0-.158-.1-.158-.221s.071-.22.158-.22.157.1.157.22S-983.785-143.486-983.872-143.486Zm14.686,0c-.087,0-.158-.1-.158-.221s.071-.22.158-.22.157.1.157.22S-969.1-143.486-969.186-143.486Z" fill="#efefef"/>
        <path id="Path_1797" data-name="Path 1797" d="M-965.974-142.53h-21.111l-.265,1.078h21.641Zm-17.9.759c-.087,0-.158-.1-.158-.22s.071-.221.158-.221.157.1.157.221S-983.785-141.771-983.872-141.771Zm14.686,0c-.087,0-.158-.1-.158-.22s.071-.221.158-.221.157.1.157.221S-969.1-141.771-969.186-141.771Z" fill="#efefef"/>
        <path id="Path_1798" data-name="Path 1798" d="M-965.974-140.814h-21.111l-.265,1.078h21.641Zm-17.9.759c-.087,0-.158-.1-.158-.22s.071-.221.158-.221.157.1.157.221S-983.785-140.055-983.872-140.055Zm14.686,0c-.087,0-.158-.1-.158-.22s.071-.221.158-.221.157.1.157.221S-969.1-140.055-969.186-140.055Z" fill="#efefef"/>
      </g>
      <path id="Path_1799" data-name="Path 1799" d="M-983.872-157.653c.075,0,.135.075.15.174h14.385c.015-.1.075-.174.151-.174s.135.075.15.174h3.183l-.121-.493h-21.111l-.121.493h3.183C-984.008-157.578-983.948-157.653-983.872-157.653Z" fill="#b5b5b5"/>
      <g id="Group_1860" data-name="Group 1860">
        <g id="Group_1859" data-name="Group 1859">
          <path id="Path_1800" data-name="Path 1800" d="M-983.956-157.972v.726a.124.124,0,0,0,.084.033.128.128,0,0,0,.084-.033v-.726Zm0,1.717h.168v-.638h-.168Z" fill="#7a622b"/>
          <path id="Path_1801" data-name="Path 1801" d="M-983.956-156.256v.726a.129.129,0,0,0,.084.033.133.133,0,0,0,.084-.033v-.726Zm0,1.717h.168v-.639h-.168Z" fill="#7a622b"/>
          <path id="Path_1802" data-name="Path 1802" d="M-983.956-154.54v.725a.125.125,0,0,0,.084.034.129.129,0,0,0,.084-.034v-.725Zm0,1.716h.168v-.638h-.168Z" fill="#7a622b"/>
          <path id="Path_1803" data-name="Path 1803" d="M-983.956-152.825v.726a.125.125,0,0,0,.084.034.129.129,0,0,0,.084-.034v-.726Zm0,1.717h.168v-.638h-.168Z" fill="#7a622b"/>
          <path id="Path_1804" data-name="Path 1804" d="M-983.956-151.109v.726a.124.124,0,0,0,.084.033.128.128,0,0,0,.084-.033v-.726Zm0,1.717h.168v-.639h-.168Z" fill="#7a622b"/>
          <path id="Path_1805" data-name="Path 1805" d="M-983.956-149.393v.726a.129.129,0,0,0,.084.033.133.133,0,0,0,.084-.033v-.726Zm0,1.717h.168v-.639h-.168Z" fill="#7a622b"/>
          <path id="Path_1806" data-name="Path 1806" d="M-983.956-147.677v.725a.125.125,0,0,0,.084.034.129.129,0,0,0,.084-.034v-.725Zm0,1.716h.168v-.638h-.168Z" fill="#7a622b"/>
          <path id="Path_1807" data-name="Path 1807" d="M-983.956-145.962v.726a.125.125,0,0,0,.084.034.129.129,0,0,0,.084-.034v-.726Zm0,1.717h.168v-.638h-.168Z" fill="#7a622b"/>
          <path id="Path_1808" data-name="Path 1808" d="M-983.956-144.246v.726a.124.124,0,0,0,.084.033.128.128,0,0,0,.084-.033v-.726Zm0,1.717h.168v-.638h-.168Z" fill="#7a622b"/>
          <path id="Path_1809" data-name="Path 1809" d="M-983.956-142.53v.725a.125.125,0,0,0,.084.034.129.129,0,0,0,.084-.034v-.725Zm0,1.717h.168v-.639h-.168Z" fill="#7a622b"/>
          <path id="Path_1810" data-name="Path 1810" d="M-983.956-140.814v.725a.125.125,0,0,0,.084.034.129.129,0,0,0,.084-.034v-.725Z" fill="#7a622b"/>
        </g>
        <path id="Path_1811" data-name="Path 1811" d="M-983.956-157.615a.121.121,0,0,1,.084-.038.125.125,0,0,1,.084.038v-.357h-.168Z" fill="#7a622b"/>
      </g>
      <g id="Group_1862" data-name="Group 1862">
        <g id="Group_1861" data-name="Group 1861">
          <path id="Path_1812" data-name="Path 1812" d="M-969.27-157.972v.726a.124.124,0,0,0,.084.033.128.128,0,0,0,.084-.033v-.726Zm0,1.717h.168v-.638h-.168Z" fill="#7a622b"/>
          <path id="Path_1813" data-name="Path 1813" d="M-969.27-156.256v.726a.129.129,0,0,0,.084.033.133.133,0,0,0,.084-.033v-.726Zm0,1.717h.168v-.639h-.168Z" fill="#7a622b"/>
          <path id="Path_1814" data-name="Path 1814" d="M-969.27-154.54v.725a.125.125,0,0,0,.084.034.129.129,0,0,0,.084-.034v-.725Zm0,1.716h.168v-.638h-.168Z" fill="#7a622b"/>
          <path id="Path_1815" data-name="Path 1815" d="M-969.27-152.825v.726a.125.125,0,0,0,.084.034.129.129,0,0,0,.084-.034v-.726Zm0,1.717h.168v-.638h-.168Z" fill="#7a622b"/>
          <path id="Path_1816" data-name="Path 1816" d="M-969.27-151.109v.726a.124.124,0,0,0,.084.033.128.128,0,0,0,.084-.033v-.726Zm0,1.717h.168v-.639h-.168Z" fill="#7a622b"/>
          <path id="Path_1817" data-name="Path 1817" d="M-969.27-149.393v.726a.129.129,0,0,0,.084.033.133.133,0,0,0,.084-.033v-.726Zm0,1.717h.168v-.639h-.168Z" fill="#7a622b"/>
          <path id="Path_1818" data-name="Path 1818" d="M-969.27-147.677v.725a.125.125,0,0,0,.084.034.129.129,0,0,0,.084-.034v-.725Zm0,1.716h.168v-.638h-.168Z" fill="#7a622b"/>
          <path id="Path_1819" data-name="Path 1819" d="M-969.27-145.962v.726a.125.125,0,0,0,.084.034.129.129,0,0,0,.084-.034v-.726Zm0,1.717h.168v-.638h-.168Z" fill="#7a622b"/>
          <path id="Path_1820" data-name="Path 1820" d="M-969.27-144.246v.726a.124.124,0,0,0,.084.033.128.128,0,0,0,.084-.033v-.726Zm0,1.717h.168v-.638h-.168Z" fill="#7a622b"/>
          <path id="Path_1821" data-name="Path 1821" d="M-969.27-142.53v.725a.125.125,0,0,0,.084.034.129.129,0,0,0,.084-.034v-.725Zm0,1.717h.168v-.639h-.168Z" fill="#7a622b"/>
          <path id="Path_1822" data-name="Path 1822" d="M-969.27-140.814v.725a.125.125,0,0,0,.084.034.129.129,0,0,0,.084-.034v-.725Z" fill="#7a622b"/>
        </g>
        <path id="Path_1823" data-name="Path 1823" d="M-969.27-157.615a.121.121,0,0,1,.084-.038.125.125,0,0,1,.084.038v-.357h-.168Z" fill="#7a622b"/>
      </g>
      <g id="Group_1863" data-name="Group 1863">
        <rect id="Rectangle_1810" data-name="Rectangle 1810" width="0.262" height="29.571" transform="translate(-985.671 -157.973)" fill="#7a622b"/>
        <rect id="Rectangle_1811" data-name="Rectangle 1811" width="0.262" height="0.494" transform="translate(-985.671 -157.973)" fill="#7a622b"/>
        <path id="Path_1824" data-name="Path 1824" d="M-985.374-127.761h-.332a.087.087,0,0,1-.087-.094l.065-.974a.088.088,0,0,1,.088-.082h.2a.087.087,0,0,1,.087.082l.066.974A.088.088,0,0,1-985.374-127.761Z" fill="#643f2c"/>
      </g>
      <g id="Group_1865" data-name="Group 1865">
        <rect id="Rectangle_1812" data-name="Rectangle 1812" width="22.207" height="4.282" rx="0.175" transform="translate(-987.633 -162.254)" fill="#00a859"/>
        <g id="Group_1864" data-name="Group 1864">
          <path id="Path_1825" data-name="Path 1825" d="M-965.477-162.2l-.179.179a.131.131,0,0,1,.04.1v3.63a.136.136,0,0,1-.136.136h-21.555a.137.137,0,0,1-.1-.041l-.178.179a.172.172,0,0,0,.124.052H-965.6a.175.175,0,0,0,.175-.175v-3.931A.173.173,0,0,0-965.477-162.2Z" fill="#004726"/>
          <path id="Path_1826" data-name="Path 1826" d="M-987.443-158.3v-3.63a.135.135,0,0,1,.136-.135h21.555a.132.132,0,0,1,.1.04l.179-.179a.175.175,0,0,0-.124-.052h-21.857a.175.175,0,0,0-.175.176v3.931a.172.172,0,0,0,.051.123l.178-.179A.135.135,0,0,1-987.443-158.3Z" fill="#00773f"/>
        </g>
      </g>
    </g>
  </g>
</svg>
