<svg xmlns="http://www.w3.org/2000/svg" viewBox="0 0 25 48.189">
  <g id="Group_2080" data-name="Group 2080" transform="translate(889.029 212.173)">
    <rect id="Rectangle_1995" data-name="Rectangle 1995" width="25" height="48.189" transform="translate(-889.029 -212.173)" fill="#262626"/>
    <rect id="Rectangle_1996" data-name="Rectangle 1996" width="23.295" height="46.746" transform="translate(-888.177 -211.451)" fill="#fff"/>
    <rect id="Rectangle_1997" data-name="Rectangle 1997" width="8.761" height="10.316" transform="translate(-875.646 -209.671)" fill="#c5c8cf"/>
    <rect id="Rectangle_1998" data-name="Rectangle 1998" width="8.761" height="10.315" transform="translate(-875.646 -198.046)" fill="#c5c8cf"/>
    <rect id="Rectangle_1999" data-name="Rectangle 1999" width="8.761" height="0.748" transform="translate(-875.646 -198.028)" />
    <rect id="Rectangle_2000" data-name="Rectangle 2000" width="8.76" height="10.316" transform="translate(-886.173 -209.671)" fill="#c5c8cf"/>
    <rect id="Rectangle_2001" data-name="Rectangle 2001" width="8.76" height="10.315" transform="translate(-886.173 -198.046)" fill="#c5c8cf"/>
    <rect id="Rectangle_2002" data-name="Rectangle 2002" width="8.76" height="0.748" transform="translate(-886.173 -198.028)" />
    <rect id="Rectangle_2003" data-name="Rectangle 2003" width="8.761" height="0.748" transform="translate(-875.646 -209.671)" />
    <rect id="Rectangle_2004" data-name="Rectangle 2004" width="8.76" height="0.748" transform="translate(-886.173 -209.671)" />
    <path id="Path_2174" data-name="Path 2174" d="M-878.63-199.948A1.368,1.368,0,0,1-880-198.581a1.366,1.366,0,0,1-1.365-1.367A1.363,1.363,0,0,1-880-201.313,1.366,1.366,0,0,1-878.63-199.948Z" transform="translate(11.695 16.596)" />
  </g>
</svg>
