<svg xmlns="http://www.w3.org/2000/svg" width="25" height="48.189" viewBox="0 0 25 48.189"><defs><style>.a{fill:#262626;}.b{fill:#fff;}.c{}.d{fill:#005e32;}</style></defs><rect class="a" width="25" height="48.189"/><rect class="b" width="23.295" height="46.746" transform="translate(0.853 0.721)"/><rect class="c" width="8.761" height="10.316" transform="translate(13.384 2.501)"/><rect class="c" width="8.761" height="10.315" transform="translate(13.384 14.127)"/><rect class="d" width="8.761" height="0.748" transform="translate(13.384 14.145)"/><rect class="c" width="8.76" height="10.316" transform="translate(2.856 2.501)"/><rect class="c" width="8.76" height="10.315" transform="translate(2.856 14.127)"/><rect class="d" width="8.76" height="0.748" transform="translate(2.856 14.145)"/><rect class="d" width="8.761" height="0.748" transform="translate(13.384 2.501)"/><rect class="d" width="8.76" height="0.748" transform="translate(2.856 2.501)"/><path class="c" d="M-878.63-199.948A1.368,1.368,0,0,1-880-198.581a1.366,1.366,0,0,1-1.365-1.367A1.363,1.363,0,0,1-880-201.313,1.366,1.366,0,0,1-878.63-199.948Z" transform="translate(900.724 228.768)"/></svg>