<svg xmlns="http://www.w3.org/2000/svg" width="20" height="20" viewBox="0 0 20 20">
  <g id="Group_4917" data-name="Group 4917" transform="translate(0 -0.001)">
    <g id="Group_4912" data-name="Group 4912" transform="translate(0 0.001)">
      <g id="Group_4911" data-name="Group 4911" transform="translate(0 0)">
        <path id="Path_4722" data-name="Path 4722" d="M20,14.938a3.582,3.582,0,0,0-.656-1.965,3.525,3.525,0,0,0-1.814-1.308l-2.006-.646a.391.391,0,1,0-.239.744l2.006.646a2.782,2.782,0,0,1,.174,5.234L13.77,19.11a1.4,1.4,0,0,1-1.692-2.06,4.306,4.306,0,0,0,.195-4.333L11.66,11.55a2.258,2.258,0,0,0,.361-2.575l1.058-.556a3.524,3.524,0,0,1,3.546.159,2.181,2.181,0,0,0,3.21-2.637L18.367,2.25A3.525,3.525,0,0,0,16.94.527a3.637,3.637,0,0,0-3.97.132,3.525,3.525,0,0,0-1.308,1.814l-1.7,5.269a2.25,2.25,0,0,0-.988.246l-.56-1.065a3.524,3.524,0,0,1,.159-3.546A2.147,2.147,0,0,0,8.431.809,2.146,2.146,0,0,0,5.941.167L2.248,1.634A3.525,3.525,0,0,0,.525,3.06,3.637,3.637,0,0,0,.657,7.03,3.525,3.525,0,0,0,2.471,8.338l2.6.838a.391.391,0,0,0,.239-.744l-2.6-.838A2.725,2.725,0,0,1,.782,5.039,2.725,2.725,0,0,1,2.536,2.36L6.229.893a1.364,1.364,0,0,1,1.6.412,1.363,1.363,0,0,1,.094,1.647,4.306,4.306,0,0,0-.195,4.333l.62,1.179a2.259,2.259,0,0,0-.364,2.56l-1.061.558a3.524,3.524,0,0,1-3.546-.159,2.147,2.147,0,0,0-2.567.147,2.147,2.147,0,0,0-.642,2.49l1.467,3.693a3.525,3.525,0,0,0,1.426,1.722A3.573,3.573,0,0,0,4.938,20l.125,0a3.582,3.582,0,0,0,1.965-.656A3.525,3.525,0,0,0,8.337,17.53l1.694-5.259a2.25,2.25,0,0,0,1-.244l.554,1.054a3.524,3.524,0,0,1-.159,3.546A2.187,2.187,0,0,0,13.236,20a2.225,2.225,0,0,0,.822-.16l3.693-1.467a3.525,3.525,0,0,0,1.722-1.426A3.582,3.582,0,0,0,20,14.938ZM7.593,17.29a2.725,2.725,0,0,1-2.556,1.928,2.726,2.726,0,0,1-2.679-1.754L.891,13.771a1.363,1.363,0,0,1,.412-1.6,1.363,1.363,0,0,1,1.647-.094,4.306,4.306,0,0,0,4.333.195l1.173-.616a2.268,2.268,0,0,0,.794.484ZM10,11.49a1.484,1.484,0,1,1,1.484-1.484A1.486,1.486,0,0,1,10,11.49Zm1.537-3.145a2.268,2.268,0,0,0-.8-.478l1.66-5.154a2.782,2.782,0,0,1,5.234-.174l1.467,3.693a1.4,1.4,0,0,1-2.06,1.692,4.306,4.306,0,0,0-4.333-.195Z" transform="translate(0 -0.001)"/>
      </g>
    </g>
    <g id="Group_4914" data-name="Group 4914" transform="translate(13.078 10.375)">
      <g id="Group_4913" data-name="Group 4913">
        <path id="Path_4723" data-name="Path 4723" d="M335.625,265.777a.394.394,0,1,0,.116.279A.4.4,0,0,0,335.625,265.777Z" transform="translate(-334.952 -265.661)"/>
      </g>
    </g>
    <g id="Group_4916" data-name="Group 4916" transform="translate(6.308 8.896)">
      <g id="Group_4915" data-name="Group 4915">
        <path id="Path_4724" data-name="Path 4724" d="M162.244,227.907a.395.395,0,1,0,.116.279A.4.4,0,0,0,162.244,227.907Z" transform="translate(-161.571 -227.791)"/>
      </g>
    </g>
  </g>
</svg>
