<svg xmlns="http://www.w3.org/2000/svg" width="25" height="40.001" viewBox="0 0 25 40.001"><defs><style>.a{}.b{fill:#c5c8cf;}.c{fill:#fff;}.d{fill:#ff7f27;}</style></defs><g transform="translate(989.029 98.118)"><path class="a" d="M-975.436-66.728c0,.95-.236,1.72-1.185,1.72h0c-.95,0-1.184-.77-1.184-1.72L-978.34-84c0-.95.769-2.3,1.719-2.3h0c.949,0,1.719,1.354,1.719,2.3Z"/><path d="M-969.606-88.765a7.272,7.272,0,0,0-5.112,1.253l-1.055.61a4.858,4.858,0,0,1,3.151-3.216,1.77,1.77,0,0,0,1.444-2.166c-.091-1.625-2.8-3.069-4.616-.9a7.273,7.273,0,0,0-1.469,5.055v1.218a4.86,4.86,0,0,1-1.211-4.337,1.771,1.771,0,0,0-1.154-2.334c-1.452-.734-4.056.888-3.089,3.546a7.267,7.267,0,0,0,3.643,3.8l1.054.61a4.865,4.865,0,0,1-4.361-1.121,1.769,1.769,0,0,0-2.6-.167c-1.362.889-1.258,3.957,1.526,4.447a7.259,7.259,0,0,0,5.113-1.254l1.056-.609a4.862,4.862,0,0,1-3.152,3.216,1.771,1.771,0,0,0-1.444,2.167c.09,1.622,2.8,3.068,4.617.9a7.276,7.276,0,0,0,1.469-5.056v-1.218a4.867,4.867,0,0,1,1.21,4.337,1.771,1.771,0,0,0,1.153,2.334c1.452.734,4.057-.888,3.09-3.547a7.273,7.273,0,0,0-3.642-3.8l-1.055-.609a4.863,4.863,0,0,1,4.361,1.12,1.769,1.769,0,0,0,2.6.168C-966.718-85.207-966.82-88.275-969.606-88.765Z"/><path d="M-975.263-85.617a1.266,1.266,0,0,1-1.266,1.266,1.267,1.267,0,0,1-1.267-1.266,1.267,1.267,0,0,1,1.267-1.267A1.266,1.266,0,0,1-975.263-85.617Z"/><path class="b" d="M-976.529-75.149A10.48,10.48,0,0,1-987-85.618a10.48,10.48,0,0,1,10.469-10.468,10.48,10.48,0,0,1,10.468,10.468A10.48,10.48,0,0,1-976.529-75.149Zm0-20.337a9.88,9.88,0,0,0-9.869,9.868,9.88,9.88,0,0,0,9.869,9.869,9.88,9.88,0,0,0,9.868-9.869A9.879,9.879,0,0,0-976.529-95.486Z"/><path class="b" d="M-976.529-77.186a8.441,8.441,0,0,1-8.432-8.432,8.441,8.441,0,0,1,8.432-8.431,8.441,8.441,0,0,1,8.431,8.431A8.442,8.442,0,0,1-976.529-77.186Zm0-16.263a7.84,7.84,0,0,0-7.832,7.831,7.841,7.841,0,0,0,7.832,7.832,7.841,7.841,0,0,0,7.831-7.832A7.84,7.84,0,0,0-976.529-93.449Z"/><path class="b" d="M-976.529-79.218a6.407,6.407,0,0,1-6.4-6.4,6.407,6.407,0,0,1,6.4-6.4,6.407,6.407,0,0,1,6.4,6.4A6.407,6.407,0,0,1-976.529-79.218Zm0-12.2a5.806,5.806,0,0,0-5.8,5.8,5.806,5.806,0,0,0,5.8,5.8,5.807,5.807,0,0,0,5.8-5.8A5.807,5.807,0,0,0-976.529-91.418Z"/><path class="b" d="M-976.529-81.249a4.374,4.374,0,0,1-4.369-4.369,4.374,4.374,0,0,1,4.369-4.368,4.374,4.374,0,0,1,4.368,4.368A4.374,4.374,0,0,1-976.529-81.249Zm0-8.137a3.772,3.772,0,0,0-3.769,3.768,3.773,3.773,0,0,0,3.769,3.769,3.773,3.773,0,0,0,3.768-3.769A3.772,3.772,0,0,0-976.529-89.386Z"/><path class="b" d="M-976.529-83.286a2.334,2.334,0,0,1-2.332-2.332,2.334,2.334,0,0,1,2.332-2.331,2.334,2.334,0,0,1,2.331,2.331A2.334,2.334,0,0,1-976.529-83.286Zm0-4.063a1.733,1.733,0,0,0-1.732,1.731,1.734,1.734,0,0,0,1.732,1.732,1.734,1.734,0,0,0,1.731-1.732A1.733,1.733,0,0,0-976.529-87.349Z"/><path d="M-976.529-73.118a12.514,12.514,0,0,1-12.5-12.5,12.514,12.514,0,0,1,12.5-12.5,12.515,12.515,0,0,1,12.5,12.5A12.514,12.514,0,0,1-976.529-73.118Zm0-24.4a11.913,11.913,0,0,0-11.9,11.9,11.913,11.913,0,0,0,11.9,11.9,11.914,11.914,0,0,0,11.9-11.9A11.914,11.914,0,0,0-976.529-97.518Z"/><rect class="b" width="0.6" height="11.901" transform="translate(-976.829 -85.618)"/><rect class="b" width="0.599" height="11.923" transform="translate(-976.622 -85.333) rotate(-72)"/><rect class="b" width="11.897" height="0.6" transform="matrix(0.588, -0.809, 0.809, 0.588, -976.772, -85.794)"/><rect class="b" width="0.6" height="11.897" transform="translate(-983.766 -95.066) rotate(-36.004)"/><rect class="b" width="11.921" height="0.599" transform="matrix(0.951, -0.309, 0.309, 0.951, -987.959, -82.217)"/><path class="a" d="M-974.9-59.837a1.72,1.72,0,0,1-1.719,1.72h0a1.719,1.719,0,0,1-1.719-1.72v-8.392a1.718,1.718,0,0,1,1.719-1.719h0a1.719,1.719,0,0,1,1.719,1.719Z"/><path d="M-976.621-60.578c-5.522,0-10,.693-10,2.461h20C-966.621-59.885-971.1-60.578-976.621-60.578Z"/><path class="c" d="M-975.963-68.259a.659.659,0,0,1-.658.658.658.658,0,0,1-.657-.658.657.657,0,0,1,.657-.657A.658.658,0,0,1-975.963-68.259Z"/><path class="d" d="M-975.963-65.243a.658.658,0,0,1-.658.658.658.658,0,0,1-.657-.658.658.658,0,0,1,.657-.658A.658.658,0,0,1-975.963-65.243Z"/><path class="c" d="M-975.963-62.228a.658.658,0,0,1-.658.658.658.658,0,0,1-.657-.658.657.657,0,0,1,.657-.657A.658.658,0,0,1-975.963-62.228Z"/></g></svg>