<svg xmlns="http://www.w3.org/2000/svg" xmlns:xlink="http://www.w3.org/1999/xlink" width="64" height="41" viewBox="0 0 64 41">
  <defs>
    <filter id="Rectangle_2539" x="0" y="0" width="64" height="41" filterUnits="userSpaceOnUse">
      <feOffset dy="2" input="SourceAlpha"/>
      <feGaussianBlur stdDeviation="3" result="blur"/>
      <feFlood flood-opacity="0.078"/>
      <feComposite operator="in" in2="blur"/>
      <feComposite in="SourceGraphic"/>
    </filter>
  </defs>
  <g id="Group_5037" data-name="Group 5037" transform="translate(-179 -244)">
    <g transform="matrix(1, 0, 0, 1, 179, 244)" filter="url(#Rectangle_2539)">
      <rect id="Rectangle_2539-2" data-name="Rectangle 2539" width="46" height="23" rx="3" transform="translate(9 7)" fill="#fff"/>
    </g>
    <g id="Group_5036" data-name="Group 5036" transform="translate(395.068 515) rotate(180)">
      <path id="Path_185" data-name="Path 185" d="M0,.775V6.183a.78.78,0,0,0,1.176.705l4.7-2.743a.745.745,0,0,0,0-1.332L1.176.07A.835.835,0,0,0,0,.775Z" transform="translate(177.776 249.001)" fill="#373737"/>
      <path id="Path_4746" data-name="Path 4746" d="M0,.775V6.183a.78.78,0,0,0,1.176.705l4.7-2.743a.745.745,0,0,0,0-1.332L1.176.07A.835.835,0,0,0,0,.775Z" transform="translate(183.776 249.001)" fill="#373737"/>
    </g>
  </g>
</svg>
