<svg xmlns="http://www.w3.org/2000/svg" width="25" height="25" viewBox="0 0 25 25">
  <path id="Path_1559" data-name="Path 1559" d="M726.647,853.112l-1.414-1.414-2.538,2.538h-6.134L720.9,849.9h3.589v-2h-3v-3h-2v3.589l-4.337,4.337v-6.134l2.538-2.538-1.414-1.414-2.123,2.123-2.123-2.123-1.414,1.414,2.538,2.538v6.134l-4.337-4.337v-3.589h-2v3h-3v2H707.4l4.337,4.337H705.6l-2.538-2.538-1.414,1.414,2.123,2.123-2.123,2.123,1.414,1.414,2.538-2.538h6.134l-4.337,4.337h-3.589v2h3v3h2v-3.589l4.337-4.337v6.134l-2.538,2.538,1.414,1.414,2.123-2.123,2.123,2.123,1.414-1.414-2.538-2.538v-6.134l4.337,4.337v3.589h2v-3h3v-2H720.9l-4.337-4.337H722.7l2.538,2.538,1.414-1.414-2.123-2.123Z" transform="translate(-701.647 -842.735)" fill="#373737"/>
</svg>
