<svg xmlns="http://www.w3.org/2000/svg" width="25" height="25" viewBox="0 0 25 25">
  <g id="Group_408" data-name="Group 408" transform="translate(-589.941 -840.507)">
    <path id="Path_1560" data-name="Path 1560" d="M614.861,860.113c-.017-.1-.038-.192-.061-.286-.752-3.194-4.459-6.969-4.459-6.969s-3.707,3.775-4.459,6.969c-.023.094-.044.189-.061.286a4.334,4.334,0,0,0-.08.794,4.6,4.6,0,1,0,9.2,0A4.255,4.255,0,0,0,614.861,860.113Z" fill="#373737"/>
    <path id="Path_1561" data-name="Path 1561" d="M599,859.827c-.752-3.194-4.459-6.969-4.459-6.969s-3.707,3.775-4.459,6.969c-.022.094-.044.189-.061.286a4.34,4.34,0,0,0-.08.794,4.6,4.6,0,1,0,9.2,0,4.25,4.25,0,0,0-.08-.794C599.044,860.016,599.023,859.921,599,859.827Z" fill="#373737"/>
    <path id="Path_1562" data-name="Path 1562" d="M606.961,847.762c-.017-.1-.038-.191-.061-.286-.752-3.193-4.459-6.969-4.459-6.969s-3.707,3.776-4.459,6.969c-.022.095-.044.189-.061.286a4.344,4.344,0,0,0-.08.795,4.6,4.6,0,0,0,9.2,0A4.26,4.26,0,0,0,606.961,847.762Z" fill="#373737"/>
  </g>
</svg>
