<svg xmlns="http://www.w3.org/2000/svg" width="22.453" height="25" viewBox="0 0 22.453 25">
  <g id="Group_409" data-name="Group 409" transform="translate(-630.038 -846.682)">
    <path id="Path_1563" data-name="Path 1563" d="M643.664,866.985c-.515-3.091-3.247-6.3-3.247-6.3s.239,3.414-.436,4.734c-.639,1.249-1.4,2.149-1.177,3.872.193,1.512.984,2.394,2.312,2.394,1.588,0,2.787-1.409,2.636-3.874-.012-.194-.02-.4-.05-.6C643.691,867.129,643.676,867.058,643.664,866.985Z" fill="#373737"/>
    <path id="Path_1564" data-name="Path 1564" d="M638.866,851.38c.515,3.09,3.247,6.3,3.247,6.3s-.239-3.413.436-4.733c.638-1.249,1.4-2.149,1.177-3.872-.194-1.512-.984-2.4-2.313-2.4-1.588,0-2.786,1.41-2.635,3.875.011.194.019.4.05.6C638.838,851.236,638.854,851.307,638.866,851.38Z" fill="#373737"/>
    <path id="Path_1565" data-name="Path 1565" d="M632.552,857.024c.173.087.354.182.548.259.07.028.139.05.208.076,2.934,1.1,7.082.339,7.082.339s-3.076-1.5-3.882-2.745c-.762-1.177-1.162-2.284-2.764-2.955-1.406-.588-2.566-.344-3.23.806C629.719,854.179,630.341,855.922,632.552,857.024Z" fill="#373737"/>
    <path id="Path_1566" data-name="Path 1566" d="M649.978,861.341c-.174-.087-.354-.182-.549-.259-.069-.028-.138-.05-.208-.076-2.934-1.1-7.081-.339-7.081-.339s3.075,1.5,3.881,2.744c.762,1.178,1.162,2.285,2.765,2.955,1.406.589,2.566.345,3.23-.805C652.81,864.186,652.188,862.443,649.978,861.341Z" fill="#373737"/>
    <path id="Path_1567" data-name="Path 1567" d="M635.224,861.187c-1.4.072-2.559-.136-3.941.917-1.213.923-1.582,2.05-.918,3.2.794,1.375,2.614,1.708,4.674.345.162-.107.335-.216.5-.346.058-.046.112-.095.169-.142,2.419-1.991,3.835-5.963,3.835-5.963S636.705,861.112,635.224,861.187Z" fill="#373737"/>
    <path id="Path_1568" data-name="Path 1568" d="M647.3,857.178c1.4-.072,2.56.136,3.942-.917,1.212-.924,1.581-2.05.917-3.2-.794-1.375-2.614-1.708-4.673-.345-.162.107-.335.216-.5.346-.059.046-.113.095-.169.142-2.42,1.991-3.835,5.963-3.835,5.963S645.824,857.253,647.3,857.178Z" fill="#373737"/>
  </g>
</svg>
