<svg xmlns="http://www.w3.org/2000/svg" width="11.652" height="25.986" viewBox="0 0 11.652 25.986">
  <path id="Path_4664" data-name="Path 4664" d="M130.452,557.242v-.026a1.028,1.028,0,0,0,.911-1.014v-.655a1.04,1.04,0,0,0-1.04-1.04h-9.572a1.04,1.04,0,0,0-1.04,1.04v.655a1.04,1.04,0,0,0,1.04,1.04h1.858v20.516h-1.987v.026a1.028,1.028,0,0,0-.911,1.014v.655a1.04,1.04,0,0,0,1.04,1.04h9.572a1.04,1.04,0,0,0,1.04-1.04V578.8a1.04,1.04,0,0,0-1.04-1.04h-1.858V557.242Z" transform="translate(-119.711 -554.507)" fill="#ffff"/>
</svg>
