<svg xmlns="http://www.w3.org/2000/svg" width="25" height="40" viewBox="0 0 25 40">
  <g id="Group_1777" data-name="Group 1777" transform="translate(889.029 163.118)">
    <path id="Path_1585" data-name="Path 1585" d="M-870.845-134.187c1.47-2,.887-4.615,3.44-7.228a12.106,12.106,0,0,0,3.376-9.229h-25a12.105,12.105,0,0,0,3.375,9.229c2.553,2.613,1.97,5.228,3.44,7.228Z" fill="#fafafa"/>
    <path id="Path_1586" data-name="Path 1586" d="M-882.214-134.187v6.842a1.834,1.834,0,0,0,.5,1.254l.657.7a1.844,1.844,0,0,0,1.344.582h6.375a1.844,1.844,0,0,0,1.344-.582l.657-.7a1.832,1.832,0,0,0,.5-1.254v-6.842Z" fill="#a19fa0"/>
    <path id="Path_1587" data-name="Path 1587" d="M-875.307-123.118h-2.445a1.562,1.562,0,0,1-1.4-.861l-.414-.828h6.067l-.414.828A1.561,1.561,0,0,1-875.307-123.118Z" />
    <path id="Path_1588" data-name="Path 1588" d="M-889.029-150.644a12.487,12.487,0,0,1,12.5-12.474,12.487,12.487,0,0,1,12.5,12.474Z" />
    <path id="Path_1589" data-name="Path 1589" d="M-875.013-161.46a11.424,11.424,0,0,1,3.512.553,11.4,11.4,0,0,0-5.028-1.165,11.459,11.459,0,0,0-11.405,10.382h1.59A11.462,11.462,0,0,1-875.013-161.46Z" fill="#fafafa"/>
    <g id="Group_1776" data-name="Group 1776">
      <path id="Path_1590" data-name="Path 1590" d="M-880.6-137.1a11,11,0,0,0-1.025-4.6,18.654,18.654,0,0,1-2.009-7.666h-2.34a16.545,16.545,0,0,0,2.97,7.666,9.443,9.443,0,0,1,1.582,4.6c.124.8.186,1.145.307,1.642h.658c-.074-.528-.1-.968-.143-1.642Zm2.119,0a23.051,23.051,0,0,0-.36-4.6,36.621,36.621,0,0,1-.758-7.666h-3.132a22.794,22.794,0,0,0,2.043,7.666,13.184,13.184,0,0,1,1.106,4.6c.1.8.147,1.145.237,1.642h.88C-878.489-135.992-878.488-136.431-878.485-137.1Zm-3.818,0a8.619,8.619,0,0,0-1.528-4.6,15.037,15.037,0,0,1-2.947-7.666h-1.275a14.742,14.742,0,0,0,3.47,7.666,8.322,8.322,0,0,1,1.831,4.6,14.033,14.033,0,0,0,.335,1.642h.359a14.746,14.746,0,0,1-.245-1.642Zm12.164-4.6a16.983,16.983,0,0,0,2.89-7.666h-2.437a19.023,19.023,0,0,1-1.89,7.666,11.7,11.7,0,0,0-.961,4.6c-.042.8-.067,1.144-.13,1.642h.685c.129-.529.2-.948.3-1.642h0A9.529,9.529,0,0,1-870.139-141.7Zm-2.4,0h0a24.633,24.633,0,0,0,1.924-7.666h-3.178a39.425,39.425,0,0,1-.619,7.666,27.116,27.116,0,0,0-.288,4.6c.01.851.009,1.174,0,1.642h.892c.092-.529.144-.948.228-1.642h0A13.72,13.72,0,0,1-872.538-141.7Zm-5.149,0a39.379,39.379,0,0,1,.46,4.6c.059.77.086,1.111.133,1.642h1.013c.041-.54.065-.873.119-1.642.116-2.124.195-3.232.388-4.6.451-3.635.6-6.459.661-7.666h-3.574A75.171,75.171,0,0,0-877.687-141.7Zm12.681-7.666h-1.405a15.152,15.152,0,0,1-2.865,7.666,8.859,8.859,0,0,0-1.484,4.6h0a14.733,14.733,0,0,1-.235,1.642h.4a14.268,14.268,0,0,0,.335-1.642h0a8.286,8.286,0,0,1,1.818-4.6A14.8,14.8,0,0,0-865.006-149.368Z" fill="#a19fa0"/>
    </g>
    <path id="Path_1591" data-name="Path 1591" d="M-880.341-131.455h7.623a.659.659,0,0,0,.689-.625.66.66,0,0,0-.689-.625h-7.623a.659.659,0,0,0-.688.625A.658.658,0,0,0-880.341-131.455Z" fill="#fff"/>
    <path id="Path_1592" data-name="Path 1592" d="M-872.718-130.122h-7.623a.659.659,0,0,0-.688.625.659.659,0,0,0,.688.625h7.623a.66.66,0,0,0,.689-.625A.66.66,0,0,0-872.718-130.122Z" fill="#fff"/>
    <path id="Path_1593" data-name="Path 1593" d="M-873.137-127.539h-6.785a.619.619,0,0,0-.612.625.619.619,0,0,0,.612.625h6.785a.619.619,0,0,0,.612-.625A.619.619,0,0,0-873.137-127.539Z" fill="#fff"/>
  </g>
</svg>