<svg id="Group_4792" data-name="Group 4792" xmlns="http://www.w3.org/2000/svg" width="80" height="80" viewBox="0 0 80 80">
  <path id="Path_4588" data-name="Path 4588" d="M153.337,86.518a7,7,0,0,0-2.2-11.4A6.986,6.986,0,0,0,150,66.669a7.071,7.071,0,0,0-2.266-1.513,6.974,6.974,0,0,0-1.273-8.211,7.125,7.125,0,0,0-8.516-1.135,7.011,7.011,0,0,0-1.494-2.173,7.117,7.117,0,0,0-10.01,0L108.492,71.431V66.585a7.079,7.079,0,0,0-14.154-.157L91.017,93.336a2.327,2.327,0,0,0,.674,1.938l18.066,17.911a2.374,2.374,0,0,0,1.967.666A47.916,47.916,0,0,0,139.3,100.433ZM112.26,109.052,95.841,92.772l3.2-25.9a2.319,2.319,0,0,0,.017-.284,2.359,2.359,0,0,1,4.718,0V77.078a2.339,2.339,0,0,0,1.457,2.161,2.374,2.374,0,0,0,2.571-.507l21.976-21.788a2.373,2.373,0,0,1,3.337,0,2.324,2.324,0,0,1,0,3.308L119.48,73.77a2.325,2.325,0,0,0,0,3.308,2.374,2.374,0,0,0,3.337,0l16.97-16.825a2.372,2.372,0,0,1,3.337,0,2.328,2.328,0,0,1,0,3.308l-16.97,16.825a2.325,2.325,0,0,0,0,3.308,2.374,2.374,0,0,0,3.337,0l13.836-13.718a2.373,2.373,0,0,1,3.337,0,2.328,2.328,0,0,1,0,3.308L132.827,87a2.325,2.325,0,0,0,0,3.308,2.4,2.4,0,0,0,.179.161,2.375,2.375,0,0,0,3.158-.161l10.5-10.41a2.377,2.377,0,0,1,3.336,0,2.328,2.328,0,0,1,0,3.308L135.966,97.124A43.16,43.16,0,0,1,112.26,109.052Z" transform="translate(-77.222 -43.466)" />
  <path id="Path_4589" data-name="Path 4589" d="M383.235,362a2.359,2.359,0,0,0-2.359,2.359,16.535,16.535,0,0,1-16.516,16.516,2.359,2.359,0,1,0,0,4.719,21.259,21.259,0,0,0,21.235-21.235A2.359,2.359,0,0,0,383.235,362Z" transform="translate(-305.595 -305.595)" />
  <path id="Path_4590" data-name="Path 4590" d="M371.438,364.359a7.086,7.086,0,0,1-7.078,7.078,2.359,2.359,0,1,0,0,4.719,11.811,11.811,0,0,0,11.8-11.8,2.359,2.359,0,1,0-4.719,0Z" transform="translate(-305.595 -305.595)" />
  <path id="Path_4591" data-name="Path 4591" d="M21.235,4.719a2.359,2.359,0,0,0,0-4.719A21.259,21.259,0,0,0,0,21.235a2.359,2.359,0,0,0,4.719,0A16.535,16.535,0,0,1,21.235,4.719Z" />
  <path id="Path_4592" data-name="Path 4592" d="M71.8,64.719A2.359,2.359,0,1,0,71.8,60,11.811,11.811,0,0,0,60,71.8a2.359,2.359,0,0,0,4.719,0A7.086,7.086,0,0,1,71.8,64.719Z" transform="translate(-50.562 -50.562)" />
<!-- <svg xmlns="http://www.w3.org/2000/svg" width="26.243" height="40" viewBox="0 0 26.243 40">
  <g id="Group_4851" data-name="Group 4851" transform="translate(-251.879 -552)">
    <g id="Group_4785" data-name="Group 4785" transform="translate(1291.529 780.118)">
      <path id="Path_4639" data-name="Path 4639" d="M-1018.491-206.52a8.068,8.068,0,0,0-8.039-8.1,8.068,8.068,0,0,0-8.038,8.1h0v11.339h16.077v-11.339h0Z" fill="#a0a0a0"/>
      <path id="Path_4640" data-name="Path 4640" d="M-1032.927-208.832a9.269,9.269,0,0,1,.6-3.3,8.105,8.105,0,0,0-2.244,5.61h0v11.339h16.077V-201.3a9.07,9.07,0,0,1-5.285,1.692A9.186,9.186,0,0,1-1032.927-208.832Z" fill=""/>
      <path id="Path_4641" data-name="Path 4641" d="M-1026.53-205.76a1.843,1.843,0,0,0-1.864,1.822v8.758h3.729v-8.758A1.843,1.843,0,0,0-1026.53-205.76Z" fill="#e2dddb"/>
      <path id="Path_4642" data-name="Path 4642" d="M-1018.244-195.18h-16.57c-1.965,0-2.215,3.563-2.215,3.563h21S-1016.279-195.18-1018.244-195.18Z"/>
      <rect id="Rectangle_2470" data-name="Rectangle 2470" width="25" height="3.5" rx="1.75" transform="translate(-1039.029 -191.617)" fill="#a0a0a0"/>
    </g>
    <rect id="Rectangle_2471" data-name="Rectangle 2471" width="3" height="11" rx="1.5" transform="translate(263.5 552)" fill=""/>
    <rect id="Rectangle_2472" data-name="Rectangle 2472" width="3" height="10" rx="1.5" transform="translate(251.879 558.5) rotate(-45)" fill=""/>
    <rect id="Rectangle_2473" data-name="Rectangle 2473" width="3" height="10" rx="1.5" transform="translate(271.05 565.571) rotate(-135)" fill=""/>
  </g> -->
</svg>
