<svg xmlns="http://www.w3.org/2000/svg" width="18.179" height="26" viewBox="0 0 18.179 26">
  <path id="Path_4663" data-name="Path 4663" d="M222.352,565.517a7.013,7.013,0,0,1-1.816,2.755,7.5,7.5,0,0,1-3.133,1.634,14.69,14.69,0,0,1-3.556.348h-.718v-5.145h.551a5.082,5.082,0,0,0,2.558-.515,2.385,2.385,0,0,0,1.1-2.24,2.325,2.325,0,0,0-1.211-2.255,6.029,6.029,0,0,0-2.663-.454h-1.253a.913.913,0,0,0-.912.912c.029.293,0,17.208,0,17.208h4.087a1.04,1.04,0,0,1,1.04,1.04v.655a1.04,1.04,0,0,1-1.04,1.04h-9.573a1.04,1.04,0,0,1-1.04-1.04V578.8a1.029,1.029,0,0,1,.912-1.014V555.778a1.278,1.278,0,0,1,1.278-1.278H213.2q1.091,0,1.831.045a16.2,16.2,0,0,1,1.877.212,7.032,7.032,0,0,1,3.36,1.423,7.561,7.561,0,0,1,2.693,6.068A9.12,9.12,0,0,1,222.352,565.517Z" transform="translate(-204.778 -554.5)" fill="#fffff"/>
</svg>
