<svg xmlns="http://www.w3.org/2000/svg" width="25" height="40" viewBox="0 0 25 40">
    <defs>
        <style>
            .cls-2{fill:#fff}.cls-3{fill:#00a859}
        </style>
    </defs>
    <g id="Group_7941" transform="translate(1156.794 85.901)">
        <rect id="Rectangle_2736" width="40" height="25" rx="4.827" transform="rotate(90 -522.947 -608.848)"/>
        <path id="Path_6937" fill="#dedee6" d="M-1155.695-66.413v15.205a4.208 4.208 0 0 0 4.208 4.208h14.386a4.208 4.208 0 0 0 4.208-4.208v-15.205z"/>
        <path id="Path_6938" d="M-1132.893-66.413v-14.181a4.208 4.208 0 0 0-4.207-4.206h-14.386a4.208 4.208 0 0 0-4.208 4.208v14.181z" class="cls-2"/>
        <g id="Group_7940">
            <path id="Path_6939" d="M-1141.726-62.934c0 1.055-1.15 1.911-2.568 1.911s-2.568-.856-2.568-1.911 1.15-1.912 2.568-1.912 2.568.856 2.568 1.912z" class="cls-3"/>
            <path id="Path_6940" d="M-1148.158-77.112c0 1.056-1.15 1.912-2.568 1.912s-2.568-.856-2.568-1.912 1.15-1.911 2.568-1.911 2.568.856 2.568 1.911z" class="cls-3"/>
            <path id="Path_6941" d="M-1141.726-77.112c0 1.056-1.15 1.912-2.568 1.912s-2.568-.856-2.568-1.912 1.15-1.911 2.568-1.911 2.568.856 2.568 1.911z" class="cls-3"/>
            <ellipse id="Ellipse_429" cx="2.568" cy="1.911" class="cls-3" rx="2.568" ry="1.911" transform="translate(-1140.43 -79.023)"/>
            <path id="Path_6942" d="M-1148.158-72.386c0 1.056-1.15 1.912-2.568 1.912s-2.568-.856-2.568-1.912 1.15-1.911 2.568-1.911 2.568.856 2.568 1.911z" class="cls-3"/>
            <path id="Path_6943" d="M-1141.726-72.386c0 1.056-1.15 1.912-2.568 1.912s-2.568-.856-2.568-1.912 1.15-1.911 2.568-1.911 2.568.856 2.568 1.911z" class="cls-3"/>
            <ellipse id="Ellipse_430" cx="2.568" cy="1.911" class="cls-3" rx="2.568" ry="1.911" transform="translate(-1140.43 -74.297)"/>
            <path id="Path_6944" d="M-1148.158-67.66c0 1.056-1.15 1.911-2.568 1.911s-2.568-.855-2.568-1.911 1.15-1.912 2.568-1.912 2.568.856 2.568 1.912z" class="cls-3"/>
            <path id="Path_6945" d="M-1141.726-67.66c0 1.056-1.15 1.911-2.568 1.911s-2.568-.855-2.568-1.911 1.15-1.912 2.568-1.912 2.568.856 2.568 1.912z" class="cls-3"/>
            <path id="Path_6946" d="M-1135.294-67.66c0 1.056-1.15 1.911-2.568 1.911s-2.568-.855-2.568-1.911 1.15-1.912 2.568-1.912 2.568.856 2.568 1.912z" class="cls-3"/>
            <g id="Group_7916">
                <path id="Path_6947" d="M-1151.246-77.548v-.315h.068a.7.7 0 0 0 .463-.132.334.334 0 0 0 .123-.261h.386v2.289h-.473v-1.581z" class="cls-2"/>
            </g>
            <g id="Group_7917">
                <path id="Path_6948" d="M-1144.628-77.45h-.459a.82.82 0 0 1 .192-.581.77.77 0 0 1 .592-.225.9.9 0 0 1 .59.192.65.65 0 0 1 .232.53.717.717 0 0 1-.158.462 1.359 1.359 0 0 1-.341.28l-.294.2a.735.735 0 0 0-.238.228h1.038v.4h-1.64a.93.93 0 0 1 .084-.419 1.458 1.458 0 0 1 .476-.491c.2-.137.322-.23.378-.277a.525.525 0 0 0 .224-.4.323.323 0 0 0-.079-.216.317.317 0 0 0-.252-.105.3.3 0 0 0-.3.148.61.61 0 0 0-.045.274z" class="cls-2"/>
            </g>
            <g id="Group_7918">
                <path id="Path_6949" d="M-1138.057-77v-.323h.074a.6.6 0 0 0 .25-.041.274.274 0 0 0 .148-.268.29.29 0 0 0-.051-.174.273.273 0 0 0-.247-.117.283.283 0 0 0-.283.156.519.519 0 0 0-.04.219h-.438a.721.721 0 0 1 .191-.529.808.808 0 0 1 .6-.207.859.859 0 0 1 .493.136.569.569 0 0 1 .249.5.459.459 0 0 1-.091.282.459.459 0 0 1-.193.151.555.555 0 0 1 .267.208.587.587 0 0 1 .091.334.691.691 0 0 1-.228.534.838.838 0 0 1-.588.208.989.989 0 0 1-.5-.114.691.691 0 0 1-.334-.653h.46a.506.506 0 0 0 .052.244.319.319 0 0 0 .3.154.353.353 0 0 0 .252-.094.368.368 0 0 0 .1-.279.28.28 0 0 0-.186-.284.99.99 0 0 0-.348-.043z" class="cls-2"/>
            </g>
            <g id="Group_7919">
                <path id="Path_6950" d="M-1149.886-72.1v.348h-.263v.51h-.473v-.51h-.944v-.386l.876-1.394h.541v1.432zm-1.336 0h.6l.008-.986z" class="cls-2"/>
            </g>
            <g id="Group_7920">
                <path id="Path_6951" d="M-1144.537-73.163l-.087.5a.807.807 0 0 1 .158-.088.78.78 0 0 1 .273-.041.719.719 0 0 1 .48.17.711.711 0 0 1 .242.571.846.846 0 0 1-.168.529.831.831 0 0 1-.7.3.847.847 0 0 1-.526-.163.612.612 0 0 1-.25-.514h.473a.372.372 0 0 0 .1.227.31.31 0 0 0 .232.082.32.32 0 0 0 .265-.119.476.476 0 0 0 .094-.306.471.471 0 0 0-.082-.284.313.313 0 0 0-.269-.129.405.405 0 0 0-.191.042.308.308 0 0 0-.126.127l-.419-.021.161-1.258h1.317v.381z" class="cls-2"/>
            </g>
            <g id="Group_7921">
                <path id="Path_6952" d="M-1137.085-72.982h-.467a.229.229 0 0 0-.079-.16.292.292 0 0 0-.2-.06.328.328 0 0 0-.313.2.959.959 0 0 0-.084.43l.006.006a.491.491 0 0 1 .148-.126.635.635 0 0 1 .3-.068.7.7 0 0 1 .55.226.7.7 0 0 1 .178.483.855.855 0 0 1-.216.607.737.737 0 0 1-.567.232.75.75 0 0 1-.7-.363 1.614 1.614 0 0 1-.161-.791 2.391 2.391 0 0 1 .044-.5.936.936 0 0 1 .246-.48.826.826 0 0 1 .6-.216 1.029 1.029 0 0 1 .233.029.542.542 0 0 1 .253.119.815.815 0 0 1 .148.178.833.833 0 0 1 .081.254zm-.425.973a.382.382 0 0 0-.116-.3.327.327 0 0 0-.229-.085.345.345 0 0 0-.244.091.4.4 0 0 0-.113.3.459.459 0 0 0 .1.306.337.337 0 0 0 .269.119.289.289 0 0 0 .229-.1.492.492 0 0 0 .104-.331z" class="cls-2"/>
            </g>
            <g id="Group_7922">
                <path id="Path_6953" d="M-1149.879-68.786v.35a3.97 3.97 0 0 0-.328.376 2.885 2.885 0 0 0-.368.646 2.33 2.33 0 0 0-.174.88h-.486a2.225 2.225 0 0 1 .174-.843 3.232 3.232 0 0 1 .365-.641 3.305 3.305 0 0 1 .311-.368h-1.188l.007-.4z" class="cls-2"/>
            </g>
            <g id="Group_7923">
                <path id="Path_6954" d="M-1143.464-67.231a.716.716 0 0 1-.176.48.813.813 0 0 1-.654.268.849.849 0 0 1-.644-.232.656.656 0 0 1-.187-.472.7.7 0 0 1 .045-.271.57.57 0 0 1 .32-.308.548.548 0 0 1-.218-.178.465.465 0 0 1-.072-.268.552.552 0 0 1 .21-.457.84.84 0 0 1 .539-.168.841.841 0 0 1 .564.178.523.523 0 0 1 .191.415.566.566 0 0 1-.065.276.455.455 0 0 1-.21.189.666.666 0 0 1 .262.2.573.573 0 0 1 .095.348zm-.486.019a.371.371 0 0 0-.074-.238.333.333 0 0 0-.277-.116.343.343 0 0 0-.234.08.349.349 0 0 0-.1.274.359.359 0 0 0 .1.263.341.341 0 0 0 .254.1.313.313 0 0 0 .261-.118.389.389 0 0 0 .07-.245zm-.338-.7a.279.279 0 0 0 .211-.08.274.274 0 0 0 .079-.2.284.284 0 0 0-.077-.207.269.269 0 0 0-.2-.078.34.34 0 0 0-.24.078.266.266 0 0 0-.085.207.277.277 0 0 0 .083.2.305.305 0 0 0 .229.084z" class="cls-2"/>
            </g>
            <g id="Group_7924">
                <path id="Path_6955" d="M-1138.645-67.077h.471a.269.269 0 0 0 .091.173.3.3 0 0 0 .186.052.318.318 0 0 0 .27-.135.837.837 0 0 0 .122-.5l-.006-.007a.426.426 0 0 1-.206.155.715.715 0 0 1-.247.039.7.7 0 0 1-.531-.206.71.71 0 0 1-.2-.51.8.8 0 0 1 .233-.619.824.824 0 0 1 .585-.2.725.725 0 0 1 .731.464 1.833 1.833 0 0 1 .112.709 1.352 1.352 0 0 1-.273.923.765.765 0 0 1-.6.258.788.788 0 0 1-.508-.163.618.618 0 0 1-.23-.433zm.425-1.006a.449.449 0 0 0 .107.339.366.366 0 0 0 .251.08.328.328 0 0 0 .232-.087.374.374 0 0 0 .112-.293q0-.426-.357-.426a.341.341 0 0 0-.216.067.382.382 0 0 0-.129.32z" class="cls-2"/>
            </g>
            <g id="Group_7925">
                <path id="Path_6956" d="M-1145.125-62.938a1.547 1.547 0 0 1 .2-.89.719.719 0 0 1 .628-.283.721.721 0 0 1 .628.283 1.548 1.548 0 0 1 .2.89 1.57 1.57 0 0 1-.2.89.714.714 0 0 1-.628.291q-.828 0-.828-1.181zm.487 0a1.908 1.908 0 0 0 .072.63.268.268 0 0 0 .272.182.268.268 0 0 0 .272-.178 1.915 1.915 0 0 0 .072-.634 1.9 1.9 0 0 0-.072-.633.269.269 0 0 0-.272-.18.269.269 0 0 0-.272.18 1.9 1.9 0 0 0-.072.633z" class="cls-2"/>
            </g>
            <g id="Group_7933">
                <circle id="Ellipse_431" cx="6" cy="6" r="6" class="cls-3" transform="translate(-1150.294 -60.12)"/>
                <path id="Path_6957" d="M-1146.912-54.132a2.617 2.617 0 0 0 2.606 2.63 2.617 2.617 0 0 0 2.63-2.606 2.619 2.619 0 0 0-2.606-2.63 2.617 2.617 0 0 0-2.63 2.606z" class="cls-2"/>
                <g id="Group_7928">
                    <g id="Group_7926">
                        <path id="Path_6958" d="M-1145.72-57.594a.309.309 0 0 0 .2-.069l1.25-1 1.241 1.015a.312.312 0 0 0 .439-.044.311.311 0 0 0-.044-.438l-1.437-1.176a.31.31 0 0 0-.392 0l-1.447 1.162a.312.312 0 0 0-.048.438.311.311 0 0 0 .238.112z" class="cls-2"/>
                    </g>
                    <g id="Group_7927">
                        <path id="Path_6959" d="M-1145.751-50.659a.317.317 0 0 1 .2.071l1.241 1.015 1.249-1a.312.312 0 0 1 .439.048.312.312 0 0 1-.048.438l-1.447 1.162a.312.312 0 0 1-.393 0l-1.436-1.176a.311.311 0 0 1-.044-.438.312.312 0 0 1 .239-.12z" class="cls-2"/>
                    </g>
                </g>
                <g id="Group_7931">
                    <g id="Group_7929">
                        <path id="Path_6960" d="M-1147.768-52.694a.309.309 0 0 0-.069-.2l-1-1.25 1.015-1.241a.311.311 0 0 0-.044-.439.311.311 0 0 0-.438.044l-1.176 1.437a.311.311 0 0 0 0 .392l1.163 1.447a.312.312 0 0 0 .438.048.314.314 0 0 0 .111-.238z" class="cls-2"/>
                    </g>
                    <g id="Group_7930">
                        <path id="Path_6961" d="M-1140.833-52.663a.317.317 0 0 1 .071-.2l1.015-1.241-1-1.25a.311.311 0 0 1 .047-.438.313.313 0 0 1 .439.048l1.162 1.447a.31.31 0 0 1 0 .392l-1.176 1.437a.311.311 0 0 1-.438.044.312.312 0 0 1-.12-.239z" class="cls-2"/>
                    </g>
                </g>
                <g id="Group_7932">
                    <path id="Path_6962" d="M-1145.136-53.169a.88.88 0 0 1-.9-.934.847.847 0 0 1 .835-.942.866.866 0 0 1 .912.938.847.847 0 0 1-.847.938zm-.018-.326c.283-.006.434-.29.427-.616-.007-.353-.172-.614-.45-.608s-.437.26-.429.615.174.615.452.609z" class="cls-3"/>
                    <path id="Path_6963" d="M-1144.041-55.04l.407-.008.012.593.161.188.428-.794.48-.01-.612 1.057.617.761-.5.011-.425-.6c-.042-.064-.086-.128-.128-.2h-.008l.017.8-.407.008z" class="cls-3"/>
                </g>
            </g>
            <g id="Group_7937">
                <path id="Path_6964" d="M-1148.815-81.771a1.91 1.91 0 0 1-1.911 1.911 1.911 1.911 0 0 1-1.912-1.911 1.911 1.911 0 0 1 1.912-1.911 1.91 1.91 0 0 1 1.911 1.911z" class="cls-3"/>
                <g id="Group_7936">
                    <g id="Group_7934">
                        <path id="Path_6965" d="M-1150.732-80.5a1.3 1.3 0 0 0 1.306-1.294 1.29 1.29 0 0 0-.377-.921.213.213 0 0 0-.3 0 .215.215 0 0 0 0 .3.862.862 0 0 1 .252.618.872.872 0 0 1-.876.868.874.874 0 0 1-.869-.876.866.866 0 0 1 .259-.616.214.214 0 0 0 0-.3.212.212 0 0 0-.3 0 1.286 1.286 0 0 0-.385.917 1.3 1.3 0 0 0 1.29 1.304z" class="cls-2"/>
                    </g>
                    <g id="Group_7935">
                        <path id="Path_6966" d="M-1151.011-81.715a.23.23 0 0 0 .24.221h.028c.133 0 .3-.1.3-.218l.006-1.27c0-.121-.166-.221-.3-.221h-.029a.231.231 0 0 0-.242.219z" class="cls-2"/>
                    </g>
                </g>
            </g>
            <g id="Group_7939">
                <circle id="Ellipse_432" cx="1.911" cy="1.911" r="1.911" class="cls-3" transform="translate(-1139.774 -83.682)"/>
                <g id="Group_7938">
                    <path id="Path_6967" d="M-1136.68-81.932v-.14a.107.107 0 0 0-.108-.105.106.106 0 0 0-.106.1v.147a.957.957 0 0 1-.967.929.956.956 0 0 1-.967-.929v-.14a.106.106 0 0 0-.108-.105.106.106 0 0 0-.107.105v.14a1.166 1.166 0 0 0 1.074 1.134v.118h-.755a.105.105 0 0 0-.107.1.106.106 0 0 0 .107.1h1.724a.106.106 0 0 0 .107-.1.105.105 0 0 0-.107-.1h-.756v-.122a1.167 1.167 0 0 0 1.076-1.132z" class="cls-2"/>
                    <path id="Path_6968" d="M-1137.862-81.212a.743.743 0 0 0 .752-.733v-.393a.743.743 0 0 0-.752-.733.744.744 0 0 0-.753.733v.393a.744.744 0 0 0 .753.733zm-.538-1.126h.416a.106.106 0 0 0 .107-.1.106.106 0 0 0-.107-.1h-.37a.537.537 0 0 1 .492-.314.537.537 0 0 1 .492.314h-.134a.107.107 0 0 0-.108.1.107.107 0 0 0 .108.1h.179v.393h-.415a.105.105 0 0 0-.108.1.106.106 0 0 0 .108.105h.37a.537.537 0 0 1-.492.314.536.536 0 0 1-.492-.314h.133a.106.106 0 0 0 .108-.105.105.105 0 0 0-.108-.1h-.179z" class="cls-2"/>
                </g>
            </g>
        </g>
    </g>
</svg>
