<svg xmlns="http://www.w3.org/2000/svg" width="25" height="35" viewBox="0 0 25 35">
  <g id="Group_2995" data-name="Group 2995" transform="translate(-177 -75.499)">
    <g id="Group_2076" data-name="Group 2076" transform="translate(1016.029 301.117)">
      <g id="Group_2075" data-name="Group 2075">
        <g id="Group_2074" data-name="Group 2074">
          <path id="Path_2151" data-name="Path 2151" d="M-826.529-225.618c-6.9,0-12.5,5.919-12.5,13.22,0,11.457,5.6,21.78,12.5,21.78s12.5-10.323,12.5-21.78C-814.029-219.7-819.626-225.618-826.529-225.618Z" fill="#262626"/>
          <path id="Path_2152" data-name="Path 2152" d="M-826.529-191.929c-2.8,0-5.4-1.519-7.546-4.032,2.1,2.845,4.711,4.588,7.546,4.588s5.448-1.743,7.545-4.588C-821.126-193.448-823.725-191.929-826.529-191.929Z" fill="#c5c8cf"/>
          <path id="Path_2153" data-name="Path 2153" d="M-826.529-224.3a13.109,13.109,0,0,1,9.747,4.349,12.219,12.219,0,0,0-9.747-4.978,12.222,12.222,0,0,0-9.748,4.978A13.11,13.11,0,0,1-826.529-224.3Z" fill="#c5c8cf"/>
          <path id="Path_2154" data-name="Path 2154" d="M-822.641-219.071a4.006,4.006,0,0,1-3.888,4.113,4.006,4.006,0,0,1-3.889-4.113,4.006,4.006,0,0,1,3.889-4.113A4.006,4.006,0,0,1-822.641-219.071Z" />
          <path id="Path_2155" data-name="Path 2155" d="M-826.529-221.783a4.013,4.013,0,0,1,3.339,1.739,3.568,3.568,0,0,0-3.339-2.495,3.566,3.566,0,0,0-3.339,2.495A4.012,4.012,0,0,1-826.529-221.783Z" />
          <path id="Path_2156" data-name="Path 2156" d="M-833.719-208.578l6.236-.851v8.162l-6.236-.884a2.99,2.99,0,0,1-2.513-3.222A2.966,2.966,0,0,1-833.719-208.578Z" fill="#c5c8cf"/>
          <path id="Path_2157" data-name="Path 2157" d="M-835.683-207.029a2.671,2.671,0,0,1,1.964-1.228l6.236-.85v.33l-6.454.85A2.79,2.79,0,0,0-835.683-207.029Z" fill="#fff"/>
          <g id="Group_2072" data-name="Group 2072">
            <path id="Path_2158" data-name="Path 2158" d="M-832.775-205.717h.508v-.676c0-.722.732-.778.956-.778s.956.056.956.778v.676h.508v-.676a1.327,1.327,0,0,0-1.464-1.315,1.327,1.327,0,0,0-1.464,1.315Z" fill="#fff"/>
            <path id="Path_2159" data-name="Path 2159" d="M-829.426-205.717v2.88a.1.1,0,0,1-.095.1h-3.533a.147.147,0,0,1-.143-.151v-2.829Z" fill="#fff"/>
          </g>
          <path id="Path_2160" data-name="Path 2160" d="M-819.34-208.578l-6.236-.851v8.162l6.236-.884a2.99,2.99,0,0,0,2.513-3.222A2.966,2.966,0,0,0-819.34-208.578Z" fill="#c5c8cf"/>
          <path id="Path_2161" data-name="Path 2161" d="M-817.376-207.029a2.671,2.671,0,0,0-1.964-1.228l-6.236-.85v.33l6.454.85A2.79,2.79,0,0,1-817.376-207.029Z" fill="#fff"/>
          <g id="Group_2073" data-name="Group 2073">
            <path id="Path_2162" data-name="Path 2162" d="M-820.792-206.393c0-.722-.731-.778-.956-.778s-.955.056-.955.778v.676h-.509v-.676a1.328,1.328,0,0,1,1.464-1.315,1.328,1.328,0,0,1,1.465,1.315Z" fill="#fff"/>
            <path id="Path_2163" data-name="Path 2163" d="M-823.633-205.717v2.88a.1.1,0,0,0,.095.1h3.533a.147.147,0,0,0,.143-.151v-2.829Z" fill="#fff"/>
          </g>
        </g>
      </g>
    </g>
  </g>
</svg>
