<svg xmlns="http://www.w3.org/2000/svg" width="25" height="40" viewBox="0 0 25 40"><defs><style>.a{fill:#e8e8e8;}.b{fill:#b0b0b0;}.c{fill:#fafafa;}.d{fill:#666;}.e{}.f{fill:#a6a6a6;}.g{fill:#dedede;}.h{fill:#bfbfbf;}.i{fill:#4d4d4d;}</style></defs><g transform="translate(939.029 163.117)"><rect class="a" width="25" height="40" rx="1.563" transform="translate(-939.029 -163.117)"/><path class="b" d="M-914.88-162.945a1.554,1.554,0,0,1,.173.712v36.875a1.562,1.562,0,0,1-1.563,1.562h-21.875a1.565,1.565,0,0,1-.712-.172,1.562,1.562,0,0,0,1.39.85h21.875a1.562,1.562,0,0,0,1.563-1.562v-36.875A1.562,1.562,0,0,0-914.88-162.945Z"/><path class="c" d="M-915.592-163.117h-21.875a1.562,1.562,0,0,0-1.562,1.562v36.875a1.553,1.553,0,0,0,.46,1.1l.23-.23a1.571,1.571,0,0,1-.013-.195v-36.874a1.563,1.563,0,0,1,1.563-1.563h21.875a1.544,1.544,0,0,1,.194.013l.23-.23A1.55,1.55,0,0,0-915.592-163.117Z"/><path class="c" d="M-917.812-159.993a2.129,2.129,0,0,1,.483,1.353v12.632a2.136,2.136,0,0,1-2.135,2.136h-14.43a2.13,2.13,0,0,1-1.353-.484,2.133,2.133,0,0,0,1.653.783h14.429a2.136,2.136,0,0,0,2.136-2.136v-12.632A2.131,2.131,0,0,0-917.812-159.993Z"/><rect class="d" width="18.701" height="16.903" rx="2.136" transform="translate(-936.029 -160.775)"/><rect class="a" width="18.135" height="16.338" rx="1.853" transform="translate(-935.747 -160.493)"/><path class="b" d="M-918.314-160.09a1.843,1.843,0,0,1,.4,1.151v12.632a1.856,1.856,0,0,1-1.853,1.853h-14.43a1.843,1.843,0,0,1-1.15-.4,1.847,1.847,0,0,0,1.449.7h14.43a1.855,1.855,0,0,0,1.853-1.853V-158.64A1.848,1.848,0,0,0-918.314-160.09Z"/><path class="c" d="M-935.448-145.709v-12.632a1.856,1.856,0,0,1,1.854-1.853h14.429a1.843,1.843,0,0,1,1.151.4,1.848,1.848,0,0,0-1.45-.7h-14.43a1.856,1.856,0,0,0-1.853,1.853v12.632a1.848,1.848,0,0,0,.7,1.45A1.843,1.843,0,0,1-935.448-145.709Z"/><circle class="c" cx="6.083" cy="6.083" r="6.083" transform="matrix(0.231, -0.973, 0.973, 0.231, -933.654, -147.548)"/><circle class="e" cx="6.083" cy="6.083" r="6.083" transform="matrix(0.208, -0.978, 0.978, 0.208, -933.895, -147.639)"/><path class="f" d="M-921.909-153.234l.349.393h.349v-.393Zm-9.191,2.213-.349-.393v2.862c.11.139.226.277.348.4v-2.874Zm4.421-7.386a6.072,6.072,0,0,0-4.77,2.31v2.863h-.7v1.82h.349v-1.427h.7V-155.7a6.069,6.069,0,0,1,4.77-2.31,6.063,6.063,0,0,1,4.367,1.851A6.069,6.069,0,0,0-926.679-158.407Z"/><path class="g" d="M-921.909-151.414v2.863a6.057,6.057,0,0,0,1.313-3.773,6.057,6.057,0,0,0-1.313-3.773v2.863h.7v1.82Z"/><path class="g" d="M-931.449-151.414v2.863a6.057,6.057,0,0,1-1.313-3.773,6.057,6.057,0,0,1,1.313-3.773v2.863h-.7v1.82Z"/><path class="h" d="M-931.449-148.551v-.118a6.049,6.049,0,0,1-1.1-3.48,6.054,6.054,0,0,1,1.1-3.48v-.468a6.057,6.057,0,0,0-1.313,3.773A6.057,6.057,0,0,0-931.449-148.551Z"/><circle class="c" cx="0.916" cy="0.916" r="0.916" transform="translate(-930.055 -153.109)"/><path class="c" d="M-924.874-152.193a.917.917,0,0,0,.917.916.916.916,0,0,0,.916-.916.916.916,0,0,0-.916-.916A.917.917,0,0,0-924.874-152.193Z"/><circle class="i" cx="0.916" cy="0.916" r="0.916" transform="translate(-930.186 -153.24)"/><circle class="i" cx="0.916" cy="0.916" r="0.916" transform="translate(-925.004 -153.24)"/><path class="c" d="M-917.812-141.879a2.125,2.125,0,0,1,.483,1.353v12.631a2.135,2.135,0,0,1-2.135,2.136h-14.43a2.13,2.13,0,0,1-1.353-.484,2.133,2.133,0,0,0,1.653.783h14.429a2.136,2.136,0,0,0,2.136-2.136v-12.631A2.129,2.129,0,0,0-917.812-141.879Z"/><rect class="d" width="18.701" height="16.903" rx="2.136" transform="translate(-936.029 -142.662)"/><rect class="a" width="18.135" height="16.338" rx="1.853" transform="translate(-935.747 -142.379)"/><path class="b" d="M-918.314-141.976a1.841,1.841,0,0,1,.4,1.151v12.631a1.855,1.855,0,0,1-1.853,1.853h-14.43a1.837,1.837,0,0,1-1.15-.4,1.847,1.847,0,0,0,1.449.7h14.43a1.855,1.855,0,0,0,1.853-1.853v-12.631A1.848,1.848,0,0,0-918.314-141.976Z"/><path class="c" d="M-935.448-127.6v-12.631a1.856,1.856,0,0,1,1.854-1.853h14.429a1.842,1.842,0,0,1,1.151.4,1.85,1.85,0,0,0-1.45-.7h-14.43a1.855,1.855,0,0,0-1.853,1.853v12.631a1.848,1.848,0,0,0,.7,1.45A1.841,1.841,0,0,1-935.448-127.6Z"/><circle class="c" cx="6.083" cy="6.083" r="6.083" transform="translate(-932.413 -140.032)"/><circle class="e" cx="6.083" cy="6.083" r="6.083" transform="matrix(0.787, -0.617, 0.617, 0.787, -935.22, -135.239)"/><path class="f" d="M-921.909-135.12l.349.392h.349v-.392Zm-9.191,2.212-.349-.393v2.863c.11.139.226.276.348.4v-2.875Zm4.421-7.386a6.07,6.07,0,0,0-4.77,2.311v2.863h-.7v1.819h.349v-1.427h.7v-2.863a6.072,6.072,0,0,1,4.77-2.31,6.063,6.063,0,0,1,4.367,1.851A6.072,6.072,0,0,0-926.679-140.294Z"/><path class="g" d="M-921.909-133.3v2.863a6.057,6.057,0,0,0,1.313-3.773,6.057,6.057,0,0,0-1.313-3.772v2.863h.7v1.819Z"/><path class="g" d="M-931.449-133.3v2.863a6.057,6.057,0,0,1-1.313-3.773,6.056,6.056,0,0,1,1.313-3.772v2.863h-.7v1.819Z"/><path class="h" d="M-931.449-130.438v-.117a6.05,6.05,0,0,1-1.1-3.481,6.054,6.054,0,0,1,1.1-3.48v-.467a6.056,6.056,0,0,0-1.313,3.772A6.057,6.057,0,0,0-931.449-130.438Z"/><path class="c" d="M-928.223-134.08a.917.917,0,0,1-.916.917.917.917,0,0,1-.916-.917.916.916,0,0,1,.916-.916A.916.916,0,0,1-928.223-134.08Z"/><path class="c" d="M-924.874-134.08a.918.918,0,0,0,.917.917.917.917,0,0,0,.916-.917.916.916,0,0,0-.916-.916A.917.917,0,0,0-924.874-134.08Z"/><path class="i" d="M-928.354-134.211a.916.916,0,0,1-.916.917.916.916,0,0,1-.916-.917.916.916,0,0,1,.916-.916A.916.916,0,0,1-928.354-134.211Z"/><path class="i" d="M-925-134.211a.916.916,0,0,0,.916.917.916.916,0,0,0,.916-.917.916.916,0,0,0-.916-.916A.916.916,0,0,0-925-134.211Z"/></g></svg>