<svg id="Group_4983" data-name="Group 4983" xmlns="http://www.w3.org/2000/svg" width="18" height="18" viewBox="0 0 18 18">
  <g id="Group_4982" data-name="Group 4982" transform="translate(0 0)">
    <g id="Group_4981" data-name="Group 4981" transform="translate(0 0)">
      <path id="Path_4725" data-name="Path 4725" d="M2.333,3.383h8.9a.683.683,0,1,0,0-1.367h-8.9l.849-.849A.683.683,0,0,0,2.216.2L.2,2.216a.683.683,0,0,0,0,.966L2.216,5.2a.683.683,0,1,0,.966-.966Z" transform="translate(0 0)"/>
      <path id="Path_4726" data-name="Path 4726" d="M149.536,135.734a.683.683,0,0,0-.966,0L143.8,140.5v-1.2a.683.683,0,0,0-1.367,0v2.851h0a.685.685,0,0,0,.683.683h2.851a.683.683,0,0,0,0-1.367h-1.2l4.771-4.771A.683.683,0,0,0,149.536,135.734Z" transform="translate(-137.324 -130.673)"/>
      <path id="Path_4727" data-name="Path 4727" d="M359.2,172.024a.683.683,0,0,0-.966,0l-.849.849v-8.9a.683.683,0,1,0-1.367,0v8.9l-.849-.849a.683.683,0,0,0-.966.966l2.016,2.016a.683.683,0,0,0,.966,0l2.016-2.016A.683.683,0,0,0,359.2,172.024Z" transform="translate(-341.403 -157.206)"/>
    </g>
  </g>
</svg>
