<svg xmlns="http://www.w3.org/2000/svg" width="25" height="23" viewBox="0 0 25 23">
  <g id="Group_1795" data-name="Group 1795" transform="translate(839.029 -40.382)">
    <rect id="Rectangle_1771" data-name="Rectangle 1771" width="5.677" height="6.112" transform="translate(-829.368 56.98)"/>
    <rect id="Rectangle_1772" data-name="Rectangle 1772" width="1.12" height="6.112" transform="translate(-828.349 56.98)" fill="gray"/>
    <rect id="Rectangle_1773" data-name="Rectangle 1773" width="0.556" height="6.112" transform="translate(-824.888 56.98)" fill="gray"/>
    <g id="Group_1794" data-name="Group 1794">
      <path id="Path_1620" data-name="Path 1620" d="M-834.6,63.382V63.1l.069,0c1.417-.047,3.081-.081,4.812-.1,1.015-.01,2.087-.016,3.188-.016s2.173.006,3.187.016c1.731.019,3.395.053,4.813.1l.068,0v.278Z"/>
      <path id="Path_1621" data-name="Path 1621" d="M-818.522,63.216l-.645-.022c-1.3-.042-2.835-.072-4.428-.088-.934-.009-1.921-.014-2.934-.014s-2,.005-2.935.014c-1.593.016-3.124.046-4.428.088l-.645.022-.061,0-.009-.035a.635.635,0,0,1-.022-.168.845.845,0,0,1,.282-.6l.015-.015.03,0c1.2-.138,2.587-.242,4.132-.307,1.17-.049,2.424-.074,3.641-.074,1.245,0,2.47.025,3.641.074,1.545.065,2.935.169,4.131.307l.03,0,.015.015a.843.843,0,0,1,.283.6.68.68,0,0,1-.022.168l-.01.035Z" fill="#e8e8e8"/>
      <path id="Path_1622" data-name="Path 1622" d="M-834.473,63.194a.844.844,0,0,1,.283-.6l.015-.015.03,0c1.2-.138,2.586-.242,4.131-.307,1.171-.049,2.425-.074,3.641-.074,1.246,0,2.471.025,3.641.074,1.545.065,2.935.169,4.132.307l.025,0a1.068,1.068,0,0,0-.137-.163l-.015-.015-.03,0c-1.2-.138-2.586-.242-4.131-.307-1.171-.049-2.4-.074-3.641-.074-1.217,0-2.471.025-3.641.074-1.545.065-2.935.169-4.132.307l-.03,0-.015.015a.845.845,0,0,0-.282.6.635.635,0,0,0,.022.168l.009.035.061,0,.066,0Z" fill="gray"/>
    </g>
    <rect id="Rectangle_1774" data-name="Rectangle 1774" width="24.746" height="16.66" rx="0.525" transform="translate(-838.902 40.509)" fill="#e8e8e8"/>
    <path id="Path_1623" data-name="Path 1623" d="M-824.813,40.878h-3.433c-.032,0-.058-.016-.058-.034v-.089c0-.019.026-.034.058-.034h3.433c.032,0,.058.015.058.034v.089C-824.755,40.862-824.781,40.878-824.813,40.878Z"/>
    <path id="Path_1624" data-name="Path 1624" d="M-814.226,40.569l-.089.09a.521.521,0,0,1,.159.375V56.645a.525.525,0,0,1-.525.525h-23.7a.523.523,0,0,1-.371-.154l-.09.09a.649.649,0,0,0,.461.19h23.7a.653.653,0,0,0,.652-.651V41.034A.649.649,0,0,0-814.226,40.569Z"/>
    <path id="Path_1625" data-name="Path 1625" d="M-838.9,56.645V41.034a.525.525,0,0,1,.525-.525h23.7a.521.521,0,0,1,.366.15l.089-.09a.649.649,0,0,0-.455-.187h-23.7a.653.653,0,0,0-.652.652V56.645a.65.65,0,0,0,.191.461l.09-.09A.523.523,0,0,1-838.9,56.645Z" fill="#a19fa0"/>
    <rect id="Rectangle_1775" data-name="Rectangle 1775" width="23.5" height="15.5" transform="translate(-838.279 41.089)"/>
  </g>
</svg>
