<svg xmlns="http://www.w3.org/2000/svg" width="17.6" height="26" viewBox="0 0 17.6 26">
  <g id="Group_4825" data-name="Group 4825" transform="translate(-158.577 -554.5)">
    <path id="Path_4661" data-name="Path 4661" d="M164.933,573.947a4.684,4.684,0,0,1-.408-1.407,11.413,11.413,0,0,1-.091-1.559V555.868a1.369,1.369,0,0,0-1.368-1.368h-3.12a1.369,1.369,0,0,0-1.369,1.368v15.113q0,1.24.061,2.028a10.525,10.525,0,0,0,.3,1.77,7.783,7.783,0,0,0,1.937,3.269,7.346,7.346,0,0,0,3.027,1.892,11.57,11.57,0,0,0,5.532.39A12.253,12.253,0,0,1,164.933,573.947Z" fill="#ffff"/>
    <path id="Path_4662" data-name="Path 4662" d="M174.809,554.5h-3.12a1.368,1.368,0,0,0-1.368,1.368v15.113q0,1-.061,1.6a4.767,4.767,0,0,1-.363,1.392,2.445,2.445,0,0,1-2.428,1.372,9.474,9.474,0,0,0,2.969,3.458l1.226.806a7.905,7.905,0,0,0,2.228-1.595,7.424,7.424,0,0,0,1.892-3.239,14.924,14.924,0,0,0,.393-3.8V555.868A1.368,1.368,0,0,0,174.809,554.5Z" fill="#ffff"/>
  </g>
</svg>
