<svg xmlns="http://www.w3.org/2000/svg" xmlns:xlink="http://www.w3.org/1999/xlink" width="64" height="64" viewBox="0 0 64 64">
  <defs>
    <filter id="Exclusion_2" x="0" y="0" width="64" height="64" filterUnits="userSpaceOnUse">
      <feOffset dy="2" input="SourceAlpha"/>
      <feGaussianBlur stdDeviation="3" result="blur"/>
      <feFlood flood-opacity="0.078"/>
      <feComposite operator="in" in2="blur"/>
      <feComposite in="SourceGraphic"/>
    </filter>
  </defs>
  <g id="Group_4903" data-name="Group 4903" transform="translate(-119 -151)">
    <g transform="matrix(1, 0, 0, 1, 119, 151)" filter="url(#Exclusion_2)">
      <path id="Exclusion_2-2" data-name="Exclusion 2" d="M23,46a22.9,22.9,0,0,1-12.859-3.928A23.069,23.069,0,0,1,1.808,31.953,22.972,22.972,0,0,1,3.928,10.141a23.108,23.108,0,0,1,6.212-6.212A23.005,23.005,0,1,1,23,46Zm.143-32.2a9.344,9.344,0,1,0,9.345,9.343A9.354,9.354,0,0,0,23.143,13.8Z" transform="translate(9 7)" fill="#fff"/>
    </g>
    <text id="OK" transform="translate(151 183)" fill="#373737" font-size="6" font-family="Roboto-Regular, Roboto"><tspan x="-3.943" y="0">OK</tspan></text>
    <path id="Path_36" data-name="Path 36" d="M5.5,6.543,2,3.043,3.043,2,5.5,4.457,7.957,2,9,3.043Z" transform="translate(146 192.315)" fill="#373737"/>
    <path id="Path_4715" data-name="Path 4715" d="M5.5,6.543,2,3.043,3.043,2,5.5,4.457,7.957,2,9,3.043Z" transform="translate(157 169.858) rotate(180)" fill="#373737"/>
    <path id="Path_4716" data-name="Path 4716" d="M5.5,6.543,2,3.043,3.043,2,5.5,4.457,7.957,2,9,3.043Z" transform="translate(138.771 176) rotate(90)" fill="#373737"/>
    <path id="Path_4717" data-name="Path 4717" d="M5.5,6.543,2,3.043,3.043,2,5.5,4.457,7.957,2,9,3.043Z" transform="translate(163.229 187) rotate(-90)" fill="#373737"/>
  </g>
</svg>
