<svg xmlns="http://www.w3.org/2000/svg" width="256.612" height="215.453" viewBox="0 0 256.612 215.453">
  <g id="Group_8315" data-name="Group 8315" transform="translate(-70.111 -260.487)">
    <g id="Group_8303" data-name="Group 8303" transform="translate(138.233 358.48)">
      <path id="Path_7270" data-name="Path 7270" d="M582.812,992.149H521.028a3.63,3.63,0,0,0-3.63,3.63v25.742a3.63,3.63,0,0,0,3.63,3.63h6.416c-.372,2.834-.86,6.9-.592,6.9.285,0,3.4-4.276,5.281-6.9h50.68a3.63,3.63,0,0,0,3.63-3.63V995.779A3.63,3.63,0,0,0,582.812,992.149Z" transform="translate(-517.398 -985.307)" fill="#daeef7" opacity="0.3" style="mix-blend-mode: multiply;isolation: isolate"/>
      <g id="Group_8302" data-name="Group 8302" transform="translate(2.047)">
        <path id="Path_7271" data-name="Path 7271" d="M602.2,947.222H540.421a3.63,3.63,0,0,0-3.63,3.63v25.741a3.63,3.63,0,0,0,3.63,3.63h6.416c-.372,2.834-.86,6.9-.592,6.9.285,0,3.4-4.276,5.281-6.9H602.2a3.63,3.63,0,0,0,3.63-3.63V950.852A3.63,3.63,0,0,0,602.2,947.222Z" transform="translate(-535.884 -947.222)" fill="#feb546"/>
        <circle id="Ellipse_358" data-name="Ellipse 358" cx="9.1" cy="9.1" r="9.1" transform="translate(0 16.592) rotate(-45)" fill="#fff"/>
        <g id="Group_8301" data-name="Group 8301" transform="translate(6.675 9.339)">
          <rect id="Rectangle_2699" data-name="Rectangle 2699" width="2.672" height="2.668" transform="translate(4.962 11.838)" fill="#ffc0bb"/>
          <path id="Path_7272" data-name="Path 7272" d="M609.916,1087.87v-1.6h-2.672v1.361A3.917,3.917,0,0,0,609.916,1087.87Z" transform="translate(-602.282 -1074.432)" fill="#f99893"/>
          <path id="Path_7273" data-name="Path 7273" d="M586.511,1028.645a.993.993,0,0,0-.9.035,4.758,4.758,0,0,0-9.515,0,.993.993,0,0,0-.9-.035,1.382,1.382,0,0,0,1.194,2.417.878.878,0,0,0,.2-.137,4.289,4.289,0,0,0,8.516,0,.878.878,0,0,0,.2.137,1.382,1.382,0,0,0,1.194-2.417Z" transform="translate(-574.665 -1021.582)" fill="#ffc0bb"/>
          <path id="Path_7274" data-name="Path 7274" d="M581.3,1009.844s1.341-1.135,4.389-.952,3.628,1.774,3.8,4.045l-.178,2.7a11.79,11.79,0,0,1-1.822-3.07s-1.707,1.915-2.45,1.688.281-1.606.281-1.606-3.477,2.992-5.525,2.987c0,0-1.084-3.5.438-4.786,0,0-1.146.055-1.207-.171s.547-.562,1.648-.435c0,0-.785-1.535-.346-1.695S581.3,1009.844,581.3,1009.844Z" transform="translate(-578.355 -1008.542)" fill="#07085b"/>
          <path id="Path_7275" data-name="Path 7275" d="M610.224,1075.334a1.668,1.668,0,0,1-2.98.091Z" transform="translate(-602.282 -1065.161)" fill="#fff"/>
        </g>
        <path id="Rectangle_2700" data-name="Rectangle 2700" d="M.79,0H35.426a.791.791,0,0,1,.791.791v0a.791.791,0,0,1-.791.791H.791A.791.791,0,0,1,0,.791v0A.79.79,0,0,1,.79,0Z" transform="translate(25.1 7.418)" fill="#fff"/>
        <path id="Rectangle_2701" data-name="Rectangle 2701" d="M.79,0H7.762a.791.791,0,0,1,.791.791v0a.79.79,0,0,1-.79.79H.79A.79.79,0,0,1,0,.791v0A.79.79,0,0,1,.79,0Z" transform="translate(25.1 11.59)" fill="#fff"/>
        <path id="Rectangle_2702" data-name="Rectangle 2702" d="M.79,0H23.645a.791.791,0,0,1,.791.791v0a.791.791,0,0,1-.791.791H.791A.791.791,0,0,1,0,.791v0A.79.79,0,0,1,.79,0Z" transform="translate(36.881 11.59)" fill="#fff"/>
        <path id="Rectangle_2703" data-name="Rectangle 2703" d="M.79,0H17.919a.791.791,0,0,1,.791.791v0a.79.79,0,0,1-.79.79H.791A.791.791,0,0,1,0,.79v0A.79.79,0,0,1,.79,0Z" transform="translate(25.1 15.763)" fill="#fff"/>
        <path id="Rectangle_2704" data-name="Rectangle 2704" d="M.791,0H13.98a.791.791,0,0,1,.791.791v0a.791.791,0,0,1-.791.791H.791A.791.791,0,0,1,0,.791v0A.791.791,0,0,1,.791,0Z" transform="translate(46.547 15.763)" fill="#fff"/>
        <path id="Rectangle_2705" data-name="Rectangle 2705" d="M.79,0H35.426a.791.791,0,0,1,.791.791v0a.79.79,0,0,1-.79.79H.79A.79.79,0,0,1,0,.791v0A.79.79,0,0,1,.79,0Z" transform="translate(25.1 19.935)" fill="#fff"/>
      </g>
    </g>
    <path id="Path_7276" data-name="Path 7276" d="M1163.445,694.1l2.251,14.118,4.756-18.823s-6.665-3.235-6.959-2.058A52.473,52.473,0,0,0,1163.445,694.1Z" transform="translate(-926.737 -368.216)" fill="#07085b"/>
    <path id="Path_7277" data-name="Path 7277" d="M1303.984,932.694l2.059,24.407-21.538-1.029,2.483-21.614Z" transform="translate(-1029.442 -576.427)" fill="#ffc0bb"/>
    <path id="Path_7278" data-name="Path 7278" d="M1293.055,944.738l1.181-10.279,17-1.764.713,8.453C1308.566,944.513,1302.489,948,1293.055,944.738Z" transform="translate(-1036.69 -576.427)" fill="#f99893"/>
    <g id="Group_8304" data-name="Group 8304" transform="translate(234.745 311.291)">
      <path id="Path_7279" data-name="Path 7279" d="M1159.514,806.207c1.3,2.678.608,5.689-1.535,6.725s-4.93-.3-6.225-2.974-.608-5.689,1.535-6.725S1158.219,803.528,1159.514,806.207Z" transform="translate(-1151.101 -777.676)" fill="#f99893"/>
      <path id="Path_7280" data-name="Path 7280" d="M1182.809,678.3a42.581,42.581,0,0,1-2.969-10.421c-.113-.7-.266-1.389-.432-2.076a23.014,23.014,0,1,1,45.338-6.861,4.972,4.972,0,0,1,4.449-.632c2.8,1.045,4.016,4.732,2.711,8.235s-4.636,5.5-7.439,4.452a4.388,4.388,0,0,1-1.07-.585c-.432,11.318-9.1,20.582-20.158,21.1a20.647,20.647,0,0,1-14.35-4.935A21.706,21.706,0,0,1,1182.809,678.3Z" transform="translate(-1174.551 -637.384)" fill="#ffc0bb"/>
      <path id="Path_7281" data-name="Path 7281" d="M1286.252,789.14c-.044,1.319-.054,2.606-.123,3.866-.078,1.166-.206,2.842-.932,3.731a2.8,2.8,0,0,0-.692,1.7,2.719,2.719,0,0,0,1,2.13,4.439,4.439,0,0,0,3.961.772,5.478,5.478,0,0,1-3.238-1.51,1.574,1.574,0,0,1-.038-2.239,4.273,4.273,0,0,0,.972-2.578,10.784,10.784,0,0,0-.009-2.029A13.784,13.784,0,0,0,1286.252,789.14Z" transform="translate(-1264.188 -766.028)" fill="#f99893"/>
      <path id="Path_7282" data-name="Path 7282" d="M1346.092,788.879a2.009,2.009,0,1,0,1.913-2.1A2.009,2.009,0,0,0,1346.092,788.879Z" transform="translate(-1316.392 -764.024)" fill="#333"/>
      <path id="Path_7283" data-name="Path 7283" d="M1233.292,801.6a2.009,2.009,0,1,0,1.913-2.1A2.008,2.008,0,0,0,1233.292,801.6Z" transform="translate(-1220.772 -774.806)" fill="#333"/>
      <path id="Path_7284" data-name="Path 7284" d="M1283.851,889.889a14.281,14.281,0,0,1-7.347,3.494,11.738,11.738,0,0,1-7.812-2.008,10.144,10.144,0,0,0,7.876,2.532A11.923,11.923,0,0,0,1283.851,889.889Z" transform="translate(-1250.782 -851.433)" fill="#f99893"/>
      <path id="Path_7285" data-name="Path 7285" d="M1329.546,757.525a13.117,13.117,0,0,1,5.728-.766,15.162,15.162,0,0,1,5.4,2.059,6.721,6.721,0,0,0-11.125-1.293Z" transform="translate(-1302.369 -737.207)" fill="#07085b"/>
      <path id="Path_7286" data-name="Path 7286" d="M1212.1,769.151a6.722,6.722,0,0,0-10.662,3.429,15.153,15.153,0,0,1,4.895-3.069A13.119,13.119,0,0,1,1212.1,769.151Z" transform="translate(-1193.767 -747.835)" fill="#07085b"/>
    </g>
    <path id="Path_7287" data-name="Path 7287" d="M960.7,1018.3s-20.269,2.574-25.417,6.756-29.921,65.633-29.921,65.633l20.591,24.13,43.755.322s32.817,17.7,53.407.965,9.974-74.963-1.93-87.51-33.138-12.226-33.138-12.226S968.741,1029.878,960.7,1018.3Z" transform="translate(-708.041 -647.354)" fill="#02ccc0"/>
    <path id="Path_7288" data-name="Path 7288" d="M1515.814,1229.73a85.044,85.044,0,0,0-1.484,10.159c-.175,1.7-.25,3.417-.348,5.128-.052,1.714-.091,3.429-.068,5.146a67.669,67.669,0,0,0,.845,10.269,33.77,33.77,0,0,0,2.986,9.836,50.471,50.471,0,0,1-1.963-9.975c-.373-3.364-.5-6.757-.546-10.148-.07-3.393.013-6.791.12-10.192S1515.632,1233.148,1515.814,1229.73Z" transform="translate(-1223.906 -828.224)" fill="#fff"/>
    <path id="Path_7289" data-name="Path 7289" d="M1034.213,1214.942c-.926,4.984-1.906,9.949-2.9,14.907-1.018,4.953-2.071,9.9-3.27,14.8s-2.5,9.78-4.1,14.559a71.367,71.367,0,0,1-2.734,7.033,27.082,27.082,0,0,1-3.889,6.452,24.648,24.648,0,0,0,4.469-6.163,58.029,58.029,0,0,0,3.125-6.974c.911-2.378,1.692-4.8,2.432-7.234.714-2.44,1.367-4.9,1.977-7.362.581-2.472,1.139-4.949,1.639-7.437.483-2.492.958-4.984,1.357-7.489C1033.15,1225.031,1033.793,1220,1034.213,1214.942Z" transform="translate(-802.951 -815.689)" fill="#fff"/>
    <path id="Path_7290" data-name="Path 7290" d="M1061.341,1554.162c.129-1.019,7.861-2.156,10.7-2.3,2.153-.111,16.429-.588,21.284-.807l-.357,1.249.074,5.514.8,3.654c-4.26.269-14.674.677-16.842,1.106a53.22,53.22,0,0,0-7.922,2.757s-2.09-.475.566-1.621a12.739,12.739,0,0,0,4.262-3.054c.365-.407-.031-1.133-.3-1.064-7.23,1.895-7.974,2.208-7.974,2.208s-8.5-.048-.048-1.958c5.065-1.145,6.88-1.81,7.331-2.378.192-.242-.151-1.065-.46-1.084-4.388-.271-12.264,1.285-10.106.264,1.759-.832,7.3-1.744,9.454-2.087.132-.021.346-.824-.242-.873C1067.387,1553.336,1061.221,1555.107,1061.341,1554.162Z" transform="translate(-840.264 -1100.609)" fill="#ffc0bb"/>
    <path id="Path_7291" data-name="Path 7291" d="M1305.053,1491.66c-1.774.423-3.574.732-5.356,1.107q-5.38.981-10.793,1.73c-3.613.474-7.23.911-10.857,1.26s-7.288.666-10.864.866l-.482.027-.105.417a29.543,29.543,0,0,0-.66,3.608,28.884,28.884,0,0,0-.213,3.644,23.4,23.4,0,0,0,.316,3.648,16.84,16.84,0,0,0,1.059,3.519l.042.1.078.052,3.974,2.666q1.986,1.334,3.995,2.637-1.868-1.5-3.767-2.953l-3.7-2.854a16.035,16.035,0,0,1-.8-3.3,23.349,23.349,0,0,1-.17-3.5,32.808,32.808,0,0,1,.319-3.5,29.6,29.6,0,0,1,.593-3c1.716-.056,3.359-.168,5.042-.291,1.827-.135,3.653-.28,5.475-.471,3.644-.376,7.281-.831,10.9-1.409s7.217-1.29,10.783-2.133c1.776-.454,3.555-.892,5.3-1.443,1.763-.5,3.49-1.113,5.211-1.725C1308.595,1490.79,1306.84,1491.287,1305.053,1491.66Z" transform="translate(-1013.52 -1049.158)" fill="#fff"/>
    <path id="Path_7292" data-name="Path 7292" d="M480.144,1302.61H549.1a5.212,5.212,0,0,1,4.823,3.236l21.115,51.539h38.125a1.93,1.93,0,0,1,1.93,1.93h0a1.93,1.93,0,0,1-1.93,1.93H503.1a5.161,5.161,0,0,1-4.708-3.048l-22.2-49.482A4.332,4.332,0,0,1,480.144,1302.61Z" transform="translate(-343.909 -890.005)" fill="#07085b"/>
    <path id="Path_7293" data-name="Path 7293" d="M1137.6,558.6s-6.757.218.334-5.5,26.129-12.414,38.333-5.97c0,0,2.44-5.188,5.968-3.949s-2.294,4.808-2.294,4.808,4.5-.145,5.88,2.065c1.016,1.634-1.742,1.705-3.25,1.632,2.565.436,12.4,6.645,7.461,26.468-1.754-.385-11.748-14.877-11.748-14.877s-22.854,12.7-20.594,2.6c0,0-23.678,14.776-20.318,2.571C1137.368,568.453,1128.212,569.124,1137.6,558.6Z" transform="translate(-901.321 -246.08)" fill="#07085b"/>
    <path id="Path_7294" data-name="Path 7294" d="M1424.806,641.2a4.329,4.329,0,0,0-3.928.95c-2.035,1.615-1.81,7.291-1.81,7.291s-9.715,6.265-8.691-20.245c1.09-28.2,8.1,2.262,8.1,2.262Z" transform="translate(-1136.08 -309.005)" fill="#07085b"/>
    <g id="Group_8308" data-name="Group 8308" transform="translate(80.962 299.311)">
      <path id="Path_7295" data-name="Path 7295" d="M235.728,608.46H164.965a4.426,4.426,0,0,0-4.426,4.426v29.2a4.426,4.426,0,0,0,4.426,4.426h55.712c2.255,3.146,6.343,8.781,6.7,8.781.338,0-.313-5.322-.771-8.781h9.119a4.426,4.426,0,0,0,4.426-4.426v-29.2A4.426,4.426,0,0,0,235.728,608.46Z" transform="translate(-157.617 -600.885)" fill="#daeef7" opacity="0.3" style="mix-blend-mode: multiply;isolation: isolate"/>
      <path id="Path_7296" data-name="Path 7296" d="M216.545,558.723H145.782a4.426,4.426,0,0,0-4.426,4.426v29.2a4.426,4.426,0,0,0,4.426,4.426h55.712c2.255,3.146,6.343,8.781,6.7,8.781.338,0-.313-5.322-.771-8.781h9.119a4.426,4.426,0,0,0,4.426-4.426v-29.2A4.426,4.426,0,0,0,216.545,558.723Z" transform="translate(-141.356 -558.723)" fill="#ff5b7e"/>
      <circle id="Ellipse_359" data-name="Ellipse 359" cx="11.095" cy="11.095" r="11.095" transform="translate(0.669 13.076) rotate(-22.712)" fill="#fff"/>
      <path id="Path_7297" data-name="Path 7297" d="M201.88,641.961s-1.1-4.515,1.521-6.205,5.42-2.078,7.332-1.1c2.651,1.35,3.74,5,2.892,7.017l-7.036-1.767Z" transform="translate(-192.468 -622.643)" fill="#040744"/>
      <g id="Group_8305" data-name="Group 8305" transform="translate(7.636 13.04)">
        <rect id="Rectangle_2706" data-name="Rectangle 2706" width="3.258" height="3.253" transform="translate(6.05 11.577)" fill="#ffc0bb"/>
        <path id="Path_7298" data-name="Path 7298" d="M234.472,722.312v-1.95h-3.258v1.659A4.774,4.774,0,0,0,234.472,722.312Z" transform="translate(-225.164 -708.785)" fill="#f99893"/>
        <path id="Path_7299" data-name="Path 7299" d="M205.936,650.1a1.21,1.21,0,0,0-1.092.043,5.8,5.8,0,0,0-11.6,0,1.21,1.21,0,0,0-1.092-.043,1.685,1.685,0,0,0,1.456,2.948,1.077,1.077,0,0,0,.244-.167,5.229,5.229,0,0,0,10.384,0,1.073,1.073,0,0,0,.244.167,1.685,1.685,0,0,0,1.456-2.948Z" transform="translate(-191.492 -644.345)" fill="#ffc0bb"/>
        <path id="Path_7300" data-name="Path 7300" d="M234.848,707.028a2.034,2.034,0,0,1-3.634.111Z" transform="translate(-225.164 -697.482)" fill="#fff"/>
      </g>
      <path id="Path_7301" data-name="Path 7301" d="M201.855,644.911s4.264-1.292,6.13-3.448a12.816,12.816,0,0,1-.922,3.013c.124.083,4.258-1.927,4.82-3.782s-4.227-2.521-4.227-2.521-1.641.7-1.724.74-1.622.221-1.8.614c-.23.511-1.316.556-1.316.556l-.686,1.427-.48,1.5Z" transform="translate(-192.468 -626.073)" fill="#040744"/>
      <path id="Path_7302" data-name="Path 7302" d="M180.055,618.458a4.667,4.667,0,0,0,3.157.208c2.488-.765,3.474-.468,3.8-.28a.811.811,0,0,0,.653.085c.245-.082.473-.3.4-.864a4.521,4.521,0,0,0-1.928-3.711A11.119,11.119,0,0,0,180.055,618.458Z" transform="translate(-174.161 -605.492)" fill="#040744"/>
      <g id="Group_8307" data-name="Group 8307" transform="translate(11.204 11.552)">
        <g id="Group_8306" data-name="Group 8306">
          <path id="Path_7303" data-name="Path 7303" d="M214.964,635.831h0a.211.211,0,0,1,.051-.3,5.841,5.841,0,0,1,2.768-.954.211.211,0,0,1,.221.211h0a.211.211,0,0,1-.2.21,5.5,5.5,0,0,0-2.558.886A.211.211,0,0,1,214.964,635.831Z" transform="translate(-214.92 -634.573)" fill="#feb546"/>
        </g>
      </g>
      <rect id="Rectangle_2707" data-name="Rectangle 2707" width="14.864" height="1.928" rx="0.964" transform="translate(28.446 9.468)" fill="#fff"/>
      <rect id="Rectangle_2708" data-name="Rectangle 2708" width="10.04" height="1.928" rx="0.964" transform="translate(28.446 14.556)" fill="#fff"/>
      <rect id="Rectangle_2709" data-name="Rectangle 2709" width="12.355" height="1.928" rx="0.964" transform="translate(40.217 14.556)" fill="#fff"/>
      <rect id="Rectangle_2710" data-name="Rectangle 2710" width="25.186" height="1.928" rx="0.964" transform="translate(45.773 9.468)" fill="#fff"/>
      <rect id="Rectangle_2711" data-name="Rectangle 2711" width="42.513" height="1.928" rx="0.964" transform="translate(28.446 24.528)" fill="#fff"/>
      <rect id="Rectangle_2712" data-name="Rectangle 2712" width="21.962" height="1.928" rx="0.964" transform="translate(28.446 19.643)" fill="#fff"/>
      <rect id="Rectangle_2713" data-name="Rectangle 2713" width="17.338" height="1.928" rx="0.964" transform="translate(53.621 19.643)" fill="#fff"/>
    </g>
    <ellipse id="Ellipse_360" data-name="Ellipse 360" cx="4.358" cy="5.96" rx="4.358" ry="5.96" transform="translate(169.241 437.111) rotate(-11.908)" fill="#fff"/>
    <g id="Group_8309" data-name="Group 8309" transform="translate(121.061 260.487)">
      <path id="Path_7304" data-name="Path 7304" d="M435.233,310.8l1.475,11.115-7.9-5.766L404.647,303.8l18.692,1.711s9.522,2.313,10.038,2.78A23.179,23.179,0,0,1,435.233,310.8Z" transform="translate(-404.647 -303.805)" fill="#c12f56"/>
      <path id="Path_7305" data-name="Path 7305" d="M443.51,304.089l-38.863-.284,30.586,7Z" transform="translate(-404.647 -303.805)" fill="#ff5b7e"/>
      <path id="Path_7306" data-name="Path 7306" d="M422.74,321.984l10.183-8.179-28.276-10Z" transform="translate(-404.647 -303.805)" fill="#ff5b7e"/>
    </g>
    <g id="Group_8313" data-name="Group 8313" transform="translate(159.529 271.691)">
      <g id="Group_8310" data-name="Group 8310" transform="translate(39.67 53.175)">
        <path id="Path_7307" data-name="Path 7307" d="M918.215,729.206l-.513-.758a10.458,10.458,0,0,0,2.139-1.936l.7.589A11.373,11.373,0,0,1,918.215,729.206Z" transform="translate(-917.702 -726.512)" fill="#feb546"/>
      </g>
      <g id="Group_8311" data-name="Group 8311" transform="translate(8.022 3.029)">
        <path id="Path_7308" data-name="Path 7308" d="M747.208,442.633l-.873-.274a25.7,25.7,0,0,0,1.041-5.7l.912.07A26.59,26.59,0,0,1,747.208,442.633Zm1.05-11.883-.911.092q-.038-.377-.088-.752a23.832,23.832,0,0,0-.484-2.558c-.192-.779-.428-1.564-.7-2.333l.863-.305c.282.8.526,1.611.725,2.419a24.669,24.669,0,0,1,.5,2.656C748.2,430.223,748.231,430.485,748.258,430.75Zm-4.694-10.778a33.871,33.871,0,0,0-3.469-4.674l.687-.6a34.791,34.791,0,0,1,3.563,4.8Zm-28.594-2.165a5.092,5.092,0,0,1-3.229-.419,4.841,4.841,0,0,1-1.834-2.063l.822-.4a3.879,3.879,0,0,0,1.48,1.679,4.218,4.218,0,0,0,2.542.316.524.524,0,0,0,.092-.029l.13-.085.508.761c-.052.035-.1.069-.158.1A1.2,1.2,0,0,1,714.969,417.807Zm20.955-6.594a46.714,46.714,0,0,0-4.687-3.5l.5-.766a47.67,47.67,0,0,1,4.779,3.567Zm-17.146,1.209-.9-.188a8.456,8.456,0,0,0,.18-1.709,10.2,10.2,0,0,0-.306-2.466,12.289,12.289,0,0,0-.427-1.37l.857-.322a13.165,13.165,0,0,1,.459,1.473,11.129,11.129,0,0,1,.333,2.687A9.384,9.384,0,0,1,718.777,412.423Zm-8.046-2.816-.826-.395a9.206,9.206,0,0,1,4.276-4.168l.126-.06.389.828-.116.055A8.279,8.279,0,0,0,710.732,409.607Zm15.183-4.1a18.93,18.93,0,0,0-3.615-.845c-.732-.035-1.4-.042-2.046-.023l-.028-.915c.669-.02,1.361-.012,2.117.023a20.92,20.92,0,0,1,3.839.884Zm-11.553-3.7a19.551,19.551,0,0,0-4.34-3.775l.493-.771a20.456,20.456,0,0,1,4.542,3.952Z" transform="translate(-709.905 -397.252)" fill="#feb546"/>
      </g>
      <g id="Group_8312" data-name="Group 8312" transform="translate(0)">
        <path id="Path_7309" data-name="Path 7309" d="M660.12,378.821a17.638,17.638,0,0,0-2.89-.545l.093-.911a18.557,18.557,0,0,1,3.04.573Z" transform="translate(-657.23 -377.366)" fill="#feb546"/>
      </g>
    </g>
    <g id="Group_8314" data-name="Group 8314" transform="translate(70.111 267.074)">
      <path id="Path_7310" data-name="Path 7310" d="M384.039,1236.618s-.337,3.321-2.958,3.551c2.621.23,2.958,3.551,2.958,3.551s.337-3.321,2.958-3.551C384.375,1239.939,384.039,1236.618,384.039,1236.618Z" transform="translate(-333.72 -1101.137)" fill="#ff5b7e"/>
      <path id="Path_7311" data-name="Path 7311" d="M1022.085,925.773s-.536,5.288-4.709,5.654c4.173.366,4.709,5.654,4.709,5.654s.536-5.288,4.71-5.654C1022.622,931.061,1022.085,925.773,1022.085,925.773Z" transform="translate(-873.108 -837.634)" fill="#02ccc0"/>
      <path id="Path_7312" data-name="Path 7312" d="M74.82,506.363s-.536,5.288-4.709,5.654c4.173.366,4.709,5.654,4.709,5.654s.536-5.288,4.709-5.654C75.357,511.651,74.82,506.363,74.82,506.363Z" transform="translate(-70.111 -482.1)" fill="#02ccc0"/>
      <path id="Path_7313" data-name="Path 7313" d="M743.522,796.807s-.409,4.685-3.591,5.009c3.182.324,3.591,5.009,3.591,5.009s.409-4.685,3.592-5.009C743.931,801.492,743.522,796.807,743.522,796.807Z" transform="translate(-637.918 -728.309)" fill="#feb546"/>
      <path id="Path_7314" data-name="Path 7314" d="M201.375,347.052s-.409,4.685-3.592,5.009c3.182.324,3.592,5.009,3.592,5.009s.409-4.685,3.592-5.009C201.783,351.737,201.375,347.052,201.375,347.052Z" transform="translate(-178.339 -347.052)" fill="#feb546"/>
    </g>
  </g>
</svg>
